<?xml version="1.0" encoding="utf-8"?>
<!-- Generator: Adobe Illustrator 25.2.1, SVG Export Plug-In . SVG Version: 6.00 Build 0)  -->
<svg version="1.1" id="Laag_1" xmlns="http://www.w3.org/2000/svg" xmlns:xlink="http://www.w3.org/1999/xlink" x="0px" y="0px"
	 viewBox="0 0 155.91 144.57" style="enable-background:new 0 0 155.91 144.57;" xml:space="preserve">
<path d="M112.85,109.49c0-8.14,31.23-24.2,29.67-45.8c-1.56-21.6-25.74-40.83-57.49-22.61V29.59h11.95V12.67H85.01V1.48h-7.96h-0.37
	h-7.96v11.19H56.75v16.92h11.95v11.48C36.94,22.86,12.76,42.08,11.2,63.68c-1.56,21.6,29.72,38.17,29.67,45.8
	c-0.05,7.64-13.4,8.17-13.92,18.08c-0.53,9.91-1.33,10.46,6.13,13.45c7.34,2.94,80.24,2.94,87.58,0c7.46-2.98,6.66-3.54,6.13-13.45
	C126.25,117.66,112.85,117.62,112.85,109.49z"/>
</svg>
