<?xml version="1.0" encoding="utf-8"?>
<!-- Generator: Adobe Illustrator 25.2.1, SVG Export Plug-In . SVG Version: 6.00 Build 0)  -->
<svg version="1.1" id="Laag_1" xmlns="http://www.w3.org/2000/svg" xmlns:xlink="http://www.w3.org/1999/xlink" x="0px" y="0px"
	 viewBox="0 0 155.91 144.57" style="enable-background:new 0 0 155.91 144.57;" xml:space="preserve">
<path d="M126.04,127.65c-0.52-9.79-12.75-11.96-13.76-17.87c-0.54-3.15-0.46-6.36,0.63-8.62c1.09-2.26,5.66-13.61,5.54-22.11
	c-0.45-32.9-20.91-46.46-23.87-48.25c-5.41-3.69-10.95-4.89-13.93-5.27c3.73-7.13,8.28-11.1,8.28-11.1S86.21,2.59,77.28,1.47
	c-7.1-0.89-13.62,4.92-14.33,10.61c-1.07,8.63,3,12.92,3,12.92c-42.1,21.81-24.63,72.82-23.58,75.94c1.05,3.12,0.55,6.18-1.21,8.85
	c-4.17,6.29-13.24,8.07-13.76,17.87s-1.32,10.34,6.05,13.29c7.26,2.9,79.29,2.9,86.54,0C127.35,137.99,126.56,137.44,126.04,127.65z
	"/>
</svg>
