<?xml version="1.0" encoding="utf-8"?>
<!-- Generator: Adobe Illustrator 25.2.1, SVG Export Plug-In . SVG Version: 6.00 Build 0)  -->
<svg version="1.1" id="Laag_1" xmlns="http://www.w3.org/2000/svg" xmlns:xlink="http://www.w3.org/1999/xlink" x="0px" y="0px"
	 viewBox="0 0 155.91 144.57" style="enable-background:new 0 0 155.91 144.57;" xml:space="preserve">
<style type="text/css">
	.st0{fill:none;stroke:#ED1C24;stroke-width:0.9995;stroke-miterlimit:10;}
</style>
<path class="st0" d="M54.73,121.08"/>
<path d="M126.49,127.74c-0.4-7.52-8.29-9.29-11.94-13.34c0.57-0.65,0.93-1.48,0.93-2.42c0-1.46-0.87-2.72-2.11-3.3
	c-6.98-5.27-19.03-18.02-22.15-29.13c-3.14-11.15-1.67-12.91-1.67-12.91s11.05,0.68,13.87-0.34c2.82-1.01,3.38-7.45,1.39-10.8
	c-2.79-4.71-13.24-8.02-13.24-8.02l0.04-0.05c6.5-4.57,10.76-12.13,10.76-20.69c0-13.95-11.31-25.27-25.27-25.27
	c-13.95,0-25.27,11.31-25.27,25.27c0,8.45,4.15,15.94,10.52,20.52l-0.1,0.21c0,0-10.46,3.3-13.24,8.02
	c-1.98,3.35-1.43,9.79,1.39,10.8c2.82,1.01,13.87,0.34,13.87,0.34s1.46,1.75-1.67,12.91c-3.13,11.12-14.09,23.98-21.06,29.24
	c-1.13,0.62-1.91,1.81-1.91,3.19c0,0.63,0.17,1.21,0.45,1.73c-3.44,4.29-11.92,6.21-12.34,14.03c-0.52,9.8-1.32,10.35,6.06,13.3
	c7.26,2.91,79.36,2.91,86.63,0C127.81,138.09,127.01,137.54,126.49,127.74z"/>
</svg>
