<?xml version="1.0" standalone="no"?>
<!DOCTYPE svg PUBLIC "-//W3C//DTD SVG 1.1//EN" "http://www.w3.org/Graphics/SVG/1.1/DTD/svg11.dtd">
<svg width="55mm" height="51mm" viewBox="0 -51 55 51" xmlns="http://www.w3.org/2000/svg" version="1.1">
<title>OpenSCAD Model</title>
<path d="
M 29.7521,-0.431046 L 31.8243,-0.454224 L 33.8274,-0.492859 L 35.727,-0.546936 L 37.4886,-0.61647 L 39.0776,-0.701462
 L 40.4595,-0.801895 L 41.5998,-0.917786 L 42.4641,-1.04912 L 43.0177,-1.19591 L 43.389,-1.34718 L 43.719,-1.48875
 L 44.01,-1.62373 L 44.2643,-1.75522 L 44.4841,-1.88631 L 44.6716,-2.02011 L 44.8291,-2.15973 L 44.9588,-2.30826
 L 45.0631,-2.46881 L 45.1441,-2.6445 L 45.2041,-2.83842 L 45.2453,-3.05367 L 45.27,-3.29335 L 45.2805,-3.56058
 L 45.2789,-3.85844 L 45.2676,-4.19006 L 45.2487,-4.55853 L 45.2247,-4.96695 L 45.1975,-5.41843 L 45.1697,-5.91608
 L 45.1089,-6.41261 L 44.9873,-6.86188 L 44.8118,-7.26859 L 44.5894,-7.6375 L 44.3268,-7.97333 L 44.0311,-8.28082
 L 43.7091,-8.56471 L 43.3678,-8.82974 L 43.014,-9.08064 L 42.6548,-9.32214 L 42.297,-9.55899 L 41.9474,-9.79593
 L 41.6131,-10.0377 L 41.3009,-10.289 L 41.0179,-10.5546 L 40.7707,-10.8392 L 40.5665,-11.1475 L 40.412,-11.4844
 L 40.3143,-11.8545 L 40.2802,-12.2625 L 40.3596,-12.7119 L 40.5866,-13.2025 L 40.9444,-13.7335 L 41.416,-14.3043
 L 41.9847,-14.9144 L 42.6336,-15.563 L 43.3458,-16.2497 L 44.1044,-16.9736 L 44.8926,-17.7343 L 45.6935,-18.531
 L 46.4903,-19.3631 L 47.2662,-20.23 L 48.0042,-21.1311 L 48.6874,-22.0657 L 49.2991,-23.0332 L 49.8224,-24.033
 L 50.2404,-25.0644 L 50.5363,-26.1268 L 50.6932,-27.2196 L 50.6942,-28.3422 L 50.2849,-31.1467 L 50.336,-31.4194
 L 50.393,-31.6852 L 50.4565,-31.9446 L 50.5269,-32.1981 L 50.6045,-32.4461 L 50.6899,-32.689 L 50.7833,-32.9274
 L 50.8853,-33.1617 L 50.9963,-33.3923 L 51.1166,-33.6197 L 51.2467,-33.8444 L 51.387,-34.0667 L 51.538,-34.2872
 L 51.7,-34.5064 L 51.8734,-34.7246 L 52.0588,-34.9423 L 52.2564,-35.16 L 52.4667,-35.3781 L 52.6902,-35.5972
 L 52.9272,-35.8175 L 52.948,-35.8363 L 52.9701,-35.8564 L 52.9932,-35.8779 L 53.0175,-35.9006 L 53.0426,-35.9245
 L 53.0686,-35.9493 L 53.0952,-35.975 L 53.1224,-36.0015 L 53.1501,-36.0287 L 53.1782,-36.0565 L 53.2064,-36.0848
 L 53.2348,-36.1134 L 53.2632,-36.1423 L 53.2916,-36.1714 L 53.3197,-36.2005 L 53.3474,-36.2296 L 53.3747,-36.2585
 L 53.4015,-36.2871 L 53.4276,-36.3154 L 53.4529,-36.3432 L 53.6409,-36.5729 L 53.8047,-36.8256 L 53.9445,-37.0988
 L 54.0601,-37.3899 L 54.1516,-37.6964 L 54.2188,-38.016 L 54.2618,-38.3461 L 54.2806,-38.6843 L 54.2751,-39.028
 L 54.2453,-39.3748 L 54.1912,-39.7223 L 54.1128,-40.0678 L 54.01,-40.409 L 53.8828,-40.7434 L 53.7312,-41.0685
 L 53.5552,-41.3817 L 53.3547,-41.6807 L 53.1297,-41.963 L 52.8802,-42.226 L 52.6062,-42.4674 L 52.321,-42.6772
 L 52.0243,-42.8593 L 51.7176,-43.0137 L 51.4024,-43.1407 L 51.0803,-43.2406 L 50.7529,-43.3136 L 50.4217,-43.3598
 L 50.0883,-43.3796 L 49.7542,-43.3731 L 49.4211,-43.3405 L 49.0904,-43.2821 L 48.7637,-43.1981 L 48.4426,-43.0888
 L 48.1286,-42.9543 L 47.8234,-42.7948 L 47.5284,-42.6106 L 47.2451,-42.402 L 46.9753,-42.1691 L 46.7204,-41.9121
 L 46.482,-41.6313 L 46.3349,-41.4327 L 46.2025,-41.231 L 46.0844,-41.0262 L 45.9801,-40.8188 L 45.8894,-40.6089
 L 45.8118,-40.3969 L 45.7469,-40.1829 L 45.6945,-39.9673 L 45.654,-39.7504 L 45.6252,-39.5323 L 45.6076,-39.3133
 L 45.6009,-39.0938 L 45.6046,-38.874 L 45.6185,-38.6541 L 45.6421,-38.4345 L 45.6751,-38.2153 L 45.717,-37.9968
 L 45.7675,-37.7794 L 45.8263,-37.5632 L 45.8929,-37.3486 L 45.9907,-36.9448 L 46.0315,-36.5088 L 46.0186,-36.045
 L 45.9556,-35.5576 L 45.8459,-35.0511 L 45.6931,-34.5295 L 45.5004,-33.9974 L 45.2715,-33.4589 L 45.0097,-32.9184
 L 44.7186,-32.3801 L 44.4015,-31.8485 L 44.062,-31.3278 L 43.7036,-30.8222 L 43.3296,-30.3362 L 42.9436,-29.8739
 L 42.549,-29.4398 L 42.1492,-29.0381 L 41.7479,-28.6731 L 41.3483,-28.3492 L 40.954,-28.0705 L 40.9353,-28.374
 L 40.9156,-28.6769 L 40.895,-28.9793 L 40.8738,-29.2812 L 40.8521,-29.5826 L 40.8082,-30.1843 L 40.7864,-30.4845
 L 40.7651,-30.7845 L 40.7445,-31.0841 L 40.7247,-31.3835 L 40.7061,-31.6826 L 40.6887,-31.9816 L 40.6729,-32.2804
 L 40.6588,-32.579 L 40.6467,-32.8775 L 40.6368,-33.176 L 40.6293,-33.4744 L 40.6244,-33.7728 L 40.6224,-34.0713
 L 40.6254,-34.4577 L 40.6361,-34.8421 L 40.6551,-35.2242 L 40.6832,-35.6038 L 40.7209,-35.9807 L 40.7691,-36.3546
 L 40.8284,-36.7253 L 40.8996,-37.0926 L 40.9832,-37.4563 L 41.0801,-37.816 L 41.1909,-38.1716 L 41.3163,-38.5229
 L 41.457,-38.8695 L 41.6137,-39.2114 L 41.7872,-39.5481 L 41.978,-39.8796 L 42.187,-40.2056 L 42.4148,-40.5258
 L 42.662,-40.84 L 42.9295,-41.148 L 43.1531,-41.4072 L 43.3538,-41.6704 L 43.532,-41.9372 L 43.6875,-42.2074
 L 43.8207,-42.4806 L 43.9315,-42.7565 L 44.02,-43.0348 L 44.0864,-43.3154 L 44.1308,-43.5977 L 44.1532,-43.8816
 L 44.1538,-44.1667 L 44.1327,-44.4528 L 44.09,-44.7395 L 44.0257,-45.0266 L 43.9401,-45.3137 L 43.8331,-45.6006
 L 43.7049,-45.8869 L 43.5556,-46.1723 L 43.3853,-46.4566 L 43.1941,-46.7395 L 43.0293,-46.9536 L 42.8511,-47.1544
 L 42.6602,-47.3417 L 42.4577,-47.515 L 42.2444,-47.6743 L 42.0213,-47.8191 L 41.7894,-47.9492 L 41.5495,-48.0643
 L 41.3026,-48.1642 L 41.0497,-48.2485 L 40.7915,-48.317 L 40.5291,-48.3694 L 40.2635,-48.4055 L 39.9954,-48.4248
 L 39.7259,-48.4272 L 39.4559,-48.4124 L 39.1863,-48.3801 L 38.918,-48.33 L 38.6521,-48.2618 L 38.3893,-48.1753
 L 38.0751,-48.0502 L 37.7776,-47.9121 L 37.4968,-47.761 L 37.2331,-47.5971 L 36.9869,-47.4205 L 36.7585,-47.2314
 L 36.5481,-47.0299 L 36.3562,-46.816 L 36.183,-46.59 L 36.0287,-46.3519 L 35.8939,-46.1019 L 35.7787,-45.84
 L 35.6834,-45.5665 L 35.6085,-45.2815 L 35.5541,-44.9849 L 35.5206,-44.6771 L 35.5084,-44.3581 L 35.5178,-44.028
 L 35.549,-43.687 L 35.6023,-43.3352 L 35.7298,-42.4865 L 35.8054,-41.651 L 35.8321,-40.8275 L 35.8131,-40.0149
 L 35.7514,-39.2119 L 35.6501,-38.4174 L 35.5123,-37.6304 L 35.3411,-36.8495 L 35.1396,-36.0736 L 34.9109,-35.3016
 L 34.658,-34.5323 L 34.3841,-33.7645 L 34.0923,-32.9971 L 33.7856,-32.2289 L 33.4671,-31.4587 L 33.14,-30.6855
 L 32.8073,-29.9079 L 32.472,-29.1249 L 32.1374,-28.3352 L 31.8064,-27.5378 L 31.5975,-28.4556 L 31.3925,-29.3667
 L 31.1941,-30.2715 L 31.0049,-31.1705 L 30.8277,-32.0642 L 30.665,-32.9529 L 30.5195,-33.8372 L 30.3939,-34.7174
 L 30.2908,-35.594 L 30.2128,-36.4675 L 30.1625,-37.3383 L 30.1427,-38.2068 L 30.156,-39.0736 L 30.205,-39.9389
 L 30.2924,-40.8034 L 30.4207,-41.6673 L 30.5927,-42.5313 L 30.8111,-43.3956 L 31.0784,-44.2608 L 31.3972,-45.1273
 L 31.4836,-45.3707 L 31.5505,-45.6175 L 31.5984,-45.867 L 31.6279,-46.1182 L 31.6394,-46.3703 L 31.6334,-46.6223
 L 31.6105,-46.8734 L 31.5712,-47.1226 L 31.5159,-47.3692 L 31.4453,-47.6122 L 31.3597,-47.8507 L 31.2598,-48.0839
 L 31.146,-48.3108 L 31.0188,-48.5306 L 30.8788,-48.7424 L 30.7264,-48.9452 L 30.5622,-49.1383 L 30.3867,-49.3207
 L 30.2004,-49.4915 L 30.0037,-49.6499 L 29.7827,-49.8043 L 29.5528,-49.9413 L 29.315,-50.0611 L 29.07,-50.1637
 L 28.8187,-50.2491 L 28.5618,-50.3172 L 28.3002,-50.3682 L 28.0347,-50.4021 L 27.766,-50.4189 L 27.4951,-50.4185
 L 27.2226,-50.4012 L 26.9494,-50.3667 L 26.6763,-50.3153 L 26.4042,-50.2468 L 26.1337,-50.1614 L 25.8658,-50.0591
 L 25.6012,-49.9398 L 25.3408,-49.8036 L 25.0853,-49.6505 L 24.8355,-49.4806 L 24.6279,-49.322 L 24.4329,-49.1554
 L 24.2509,-48.9812 L 24.0821,-48.7996 L 23.9271,-48.6109 L 23.7861,-48.4154 L 23.6596,-48.2134 L 23.5478,-48.0051
 L 23.4512,-47.791 L 23.3702,-47.5712 L 23.3051,-47.3461 L 23.2562,-47.1159 L 23.2239,-46.8809 L 23.2087,-46.6415
 L 23.2108,-46.3979 L 23.2307,-46.1504 L 23.2687,-45.8993 L 23.3252,-45.6449 L 23.4005,-45.3875 L 23.495,-45.1273
 L 23.8147,-44.2609 L 24.0813,-43.396 L 24.298,-42.5325 L 24.4676,-41.6702 L 24.5932,-40.8089 L 24.6776,-39.9485
 L 24.7238,-39.0887 L 24.7348,-38.2294 L 24.7136,-37.3705 L 24.6631,-36.5116 L 24.5863,-35.6527 L 24.4861,-34.7936
 L 24.3655,-33.9341 L 24.2274,-33.0739 L 24.0749,-32.213 L 23.9109,-31.3512 L 23.7383,-30.4882 L 23.56,-29.6239
 L 23.3792,-28.7581 L 23.1987,-27.8906 L 22.7943,-28.4935 L 22.4034,-29.1328 L 22.0276,-29.8053 L 21.6681,-30.5079
 L 21.3264,-31.2376 L 21.004,-31.9912 L 20.7024,-32.7656 L 20.4229,-33.5577 L 20.1671,-34.3644 L 19.9363,-35.1825
 L 19.7321,-36.009 L 19.5558,-36.8408 L 19.4089,-37.6747 L 19.2928,-38.5076 L 19.2091,-39.3365 L 19.159,-40.1581
 L 19.1442,-40.9695 L 19.166,-41.7674 L 19.2258,-42.5488 L 19.3252,-43.3105 L 19.3664,-43.6362 L 19.3857,-43.9575
 L 19.3838,-44.2738 L 19.3611,-44.5843 L 19.3182,-44.8882 L 19.2558,-45.1848 L 19.1745,-45.4733 L 19.0747,-45.7529
 L 18.9572,-46.023 L 18.8224,-46.2827 L 18.6711,-46.5312 L 18.5037,-46.768 L 18.3209,-46.9921 L 18.1232,-47.2028
 L 17.9113,-47.3993 L 17.6857,-47.581 L 17.447,-47.747 L 17.1958,-47.8966 L 16.9326,-48.0291 L 16.6582,-48.1436
 L 16.3735,-48.2391 L 16.0834,-48.3132 L 15.789,-48.3664 L 15.4917,-48.399 L 15.1927,-48.4114 L 14.8932,-48.4041
 L 14.5946,-48.3774 L 14.298,-48.3318 L 14.0047,-48.2677 L 13.716,-48.1855 L 13.4331,-48.0855 L 13.1573,-47.9683
 L 12.8898,-47.8342 L 12.6319,-47.6836 L 12.3848,-47.517 L 12.1498,-47.3347 L 11.9282,-47.1372 L 11.7212,-46.9249
 L 11.53,-46.6981 L 11.3559,-46.4573 L 11.2154,-46.2245 L 11.0915,-45.9753 L 10.9845,-45.7114 L 10.8949,-45.4348
 L 10.823,-45.1475 L 10.7691,-44.8514 L 10.7336,-44.5484 L 10.7169,-44.2404 L 10.7193,-43.9295 L 10.7412,-43.6174
 L 10.7829,-43.3062 L 10.8449,-42.9978 L 10.9274,-42.6941 L 11.0308,-42.397 L 11.1555,-42.1085 L 11.3018,-41.8306
 L 11.4702,-41.565 L 11.6609,-41.3138 L 11.8743,-41.0789 L 12.1109,-40.8622 L 12.2325,-40.7603 L 12.3515,-40.6573
 L 12.4679,-40.5527 L 12.5814,-40.446 L 12.6917,-40.3367 L 12.7986,-40.2242 L 12.9019,-40.108 L 13.0014,-39.9876
 L 13.0969,-39.8624 L 13.1882,-39.732 L 13.2749,-39.5958 L 13.357,-39.4533 L 13.4341,-39.3039 L 13.5062,-39.1472
 L 13.5728,-38.9825 L 13.634,-38.8095 L 13.6893,-38.6274 L 13.7386,-38.4359 L 13.7817,-38.2344 L 13.8183,-38.0224
 L 13.8874,-37.5333 L 13.9457,-37.0457 L 13.994,-36.5592 L 14.033,-36.0735 L 14.0631,-35.5883 L 14.0851,-35.103
 L 14.0996,-34.6174 L 14.1072,-34.131 L 14.1087,-33.6435 L 14.1045,-33.1545 L 14.0954,-32.6636 L 14.082,-32.1705
 L 14.0648,-31.6747 L 14.0447,-31.1759 L 14.0222,-30.6738 L 13.9979,-30.1678 L 13.9725,-29.6577 L 13.9466,-29.1431
 L 13.9209,-28.6236 L 13.8959,-28.0987 L 13.4303,-28.5374 L 12.9747,-28.9781 L 12.5315,-29.4219 L 12.1031,-29.8702
 L 11.6919,-30.3241 L 11.3001,-30.785 L 10.9301,-31.254 L 10.5842,-31.7325 L 10.2648,-32.2217 L 9.97435,-32.7228
 L 9.71503,-33.237 L 9.48926,-33.7657 L 9.29938,-34.3101 L 9.14774,-34.8714 L 9.03667,-35.4509 L 8.96854,-36.0497
 L 8.94568,-36.6693 L 8.97044,-37.3107 L 9.04517,-37.9754 L 9.17221,-38.6644 L 9.22832,-38.9973 L 9.25153,-39.3272
 L 9.24333,-39.6528 L 9.20518,-39.973 L 9.13853,-40.2865 L 9.04486,-40.5919 L 8.92563,-40.8881 L 8.7823,-41.1738
 L 8.61632,-41.4476 L 8.42918,-41.7085 L 8.22232,-41.955 L 7.99721,-42.1859 L 7.75533,-42.4 L 7.49811,-42.596
 L 7.22704,-42.7726 L 6.94356,-42.9286 L 6.64915,-43.0627 L 6.34529,-43.1737 L 6.03342,-43.2602 L 5.715,-43.3211
 L 5.41896,-43.3548 L 5.12411,-43.3695 L 4.83134,-43.3656 L 4.54149,-43.3436 L 4.25543,-43.3038 L 3.97404,-43.2468
 L 3.6982,-43.173 L 3.42877,-43.0828 L 3.16661,-42.9766 L 2.91261,-42.855 L 2.66763,-42.7183 L 2.43256,-42.567
 L 2.20822,-42.4015 L 1.99554,-42.2223 L 1.79535,-42.0298 L 1.60855,-41.8244 L 1.43599,-41.6067 L 1.27853,-41.377
 L 1.13707,-41.1357 L 1.01247,-40.8834 L 0.897186,-40.6038 L 0.800186,-40.3184 L 0.721634,-40.0282 L 0.661713,-39.7346
 L 0.620605,-39.4387 L 0.59848,-39.1417 L 0.595505,-38.8448 L 0.611877,-38.5492 L 0.647766,-38.2561 L 0.703339,-37.9668
 L 0.778793,-37.6824 L 0.874283,-37.4041 L 0.990005,-37.1331 L 1.12613,-36.8707 L 1.28284,-36.618 L 1.4603,-36.3762
 L 1.65869,-36.1465 L 1.87819,-35.9302 L 2.11899,-35.7284 L 2.38124,-35.5424 L 2.60645,-35.3881 L 2.81569,-35.2302
 L 3.00955,-35.0685 L 3.1886,-34.9028 L 3.35336,-34.7332 L 3.50443,-34.5594 L 3.64235,-34.3813 L 3.76768,-34.199
 L 3.881,-34.0122 L 3.98285,-33.8208 L 4.07381,-33.6248 L 4.15442,-33.424 L 4.22525,-33.2183 L 4.28687,-33.0077
 L 4.33981,-32.792 L 4.38467,-32.5711 L 4.42201,-32.3449 L 4.45236,-32.1134 L 4.4763,-31.8763 L 4.49438,-31.6336
 L 4.49934,-31.559 L 4.50569,-31.4847 L 4.51335,-31.4104 L 4.52223,-31.3363 L 4.53226,-31.2623 L 4.5433,-31.1885
 L 4.55533,-31.1147 L 4.56821,-31.0411 L 4.58188,-30.9675 L 4.59625,-30.8941 L 4.61122,-30.8207 L 4.62671,-30.7474
 L 4.64264,-30.6741 L 4.65892,-30.6009 L 4.67546,-30.5278 L 4.69217,-30.4547 L 4.72574,-30.3085 L 4.74245,-30.2355
 L 4.75897,-30.1625 L 4.59668,-28.3422 L 4.5983,-27.2179 L 4.75587,-26.1212 L 5.05257,-25.0532 L 5.47147,-24.0147
 L 5.99567,-23.0069 L 6.60831,-22.0308 L 7.29247,-21.0874 L 8.03128,-20.1777 L 8.80783,-19.3027 L 9.60526,-18.4635
 L 10.4066,-17.6611 L 11.1951,-16.8964 L 11.9538,-16.1706 L 12.6657,-15.4846 L 13.314,-14.8395 L 13.8819,-14.2362
 L 14.3524,-13.6759 L 14.7086,-13.1595 L 14.9337,-12.688 L 15.0107,-12.2625 L 14.9742,-11.8784 L 14.8745,-11.5273
 L 14.7186,-11.2049 L 14.5134,-10.9069 L 14.2655,-10.629 L 13.9821,-10.3668 L 13.6699,-10.1159 L 13.3358,-9.87213
 L 12.9867,-9.63103 L 12.6294,-9.38829 L 12.2709,-9.13957 L 11.918,-8.88054 L 11.5775,-8.60684 L 11.2564,-8.31415
 L 10.9616,-7.99812 L 10.6998,-7.65442 L 10.478,-7.2787 L 10.3031,-6.86664 L 10.1818,-6.41386 L 10.1212,-5.91608
 L 10.0928,-5.41843 L 10.0653,-4.96695 L 10.0409,-4.55853 L 10.0219,-4.19006 L 10.0105,-3.85844 L 10.0088,-3.56058
 L 10.0193,-3.29335 L 10.044,-3.05367 L 10.0853,-2.83842 L 10.1454,-2.6445 L 10.2266,-2.46881 L 10.331,-2.30826
 L 10.4609,-2.15973 L 10.6186,-2.02011 L 10.8063,-1.88631 L 11.0262,-1.75522 L 11.2806,-1.62373 L 11.5717,-1.48875
 L 11.9018,-1.34718 L 12.2731,-1.19591 L 12.8268,-1.04912 L 13.691,-0.917786 L 14.8313,-0.801895 L 16.2133,-0.701462
 L 17.8023,-0.61647 L 19.5638,-0.546936 L 21.4634,-0.492859 L 23.4666,-0.454224 L 25.5387,-0.431046 L 27.6454,-0.423325
 z
" stroke="black" fill="lightgray" stroke-width="0.5"/>
</svg>
