  0
SECTION
  2
BLOCKS
  0
ENDSEC
  0
SECTION
  2
ENTITIES
  0
LINE
  8
0
 10
0.173721
 20
-1.42116
 11
2.37875
 21
-1.39647
  0
LINE
  8
0
 10
2.37875
 20
-1.39647
 11
4.51033
 21
-1.35533
  0
LINE
  8
0
 10
4.51033
 20
-1.35533
 11
6.53171
 21
-1.29773
  0
LINE
  8
0
 10
6.53171
 20
-1.29773
 11
8.40613
 21
-1.22368
  0
LINE
  8
0
 10
8.40613
 20
-1.22368
 11
10.0969
 21
-1.13316
  0
LINE
  8
0
 10
10.0969
 20
-1.13316
 11
11.5672
 21
-1.02618
  0
LINE
  8
0
 10
11.5672
 20
-1.02618
 11
12.7804
 21
-0.902756
  0
LINE
  8
0
 10
12.7804
 20
-0.902756
 11
13.6998
 21
-0.762878
  0
LINE
  8
0
 10
13.6998
 20
-0.762878
 11
14.2885
 21
-0.606537
  0
LINE
  8
0
 10
14.2885
 20
-0.606537
 11
14.6838
 21
-0.445572
  0
LINE
  8
0
 10
14.6838
 20
-0.445572
 11
15.0351
 21
-0.294907
  0
LINE
  8
0
 10
15.0351
 20
-0.294907
 11
15.345
 21
-0.15123
  0
LINE
  8
0
 10
15.345
 20
-0.15123
 11
15.6157
 21
-0.0112762
  0
LINE
  8
0
 10
15.6157
 20
-0.0112762
 11
15.8497
 21
0.128296
  0
LINE
  8
0
 10
15.8497
 20
0.128296
 11
16.0494
 21
0.270752
  0
LINE
  8
0
 10
16.0494
 20
0.270752
 11
16.2171
 21
0.419403
  0
LINE
  8
0
 10
16.2171
 20
0.419403
 11
16.3553
 21
0.57756
  0
LINE
  8
0
 10
16.3553
 20
0.57756
 11
16.4662
 21
0.748505
  0
LINE
  8
0
 10
16.4662
 20
0.748505
 11
16.5524
 21
0.935547
  0
LINE
  8
0
 10
16.5524
 20
0.935547
 11
16.6163
 21
1.14198
  0
LINE
  8
0
 10
16.6163
 20
1.14198
 11
16.6601
 21
1.37111
  0
LINE
  8
0
 10
16.6601
 20
1.37111
 11
16.6863
 21
1.62624
  0
LINE
  8
0
 10
16.6863
 20
1.62624
 11
16.6973
 21
1.91064
  0
LINE
  8
0
 10
16.6973
 20
1.91064
 11
16.6955
 21
2.22765
  0
LINE
  8
0
 10
16.6955
 20
2.22765
 11
16.6833
 21
2.58055
  0
LINE
  8
0
 10
16.6833
 20
2.58055
 11
16.6631
 21
2.97263
  0
LINE
  8
0
 10
16.6631
 20
2.97263
 11
16.6372
 21
3.40721
  0
LINE
  8
0
 10
16.6372
 20
3.40721
 11
16.608
 21
3.88757
  0
LINE
  8
0
 10
16.608
 20
3.88757
 11
16.578
 21
4.41702
  0
LINE
  8
0
 10
16.578
 20
4.41702
 11
16.5184
 21
4.94722
  0
LINE
  8
0
 10
16.5184
 20
4.94722
 11
16.4027
 21
5.43056
  0
LINE
  8
0
 10
16.4027
 20
5.43056
 11
16.2367
 21
5.87149
  0
LINE
  8
0
 10
16.2367
 20
5.87149
 11
16.0264
 21
6.27444
  0
LINE
  8
0
 10
16.0264
 20
6.27444
 11
15.7774
 21
6.64381
  0
LINE
  8
0
 10
15.7774
 20
6.64381
 11
15.4957
 21
6.98407
  0
LINE
  8
0
 10
15.4957
 20
6.98407
 11
15.1871
 21
7.29962
  0
LINE
  8
0
 10
15.1871
 20
7.29962
 11
14.8574
 21
7.59489
  0
LINE
  8
0
 10
14.8574
 20
7.59489
 11
14.5124
 21
7.87433
  0
LINE
  8
0
 10
14.5124
 20
7.87433
 11
14.158
 21
8.14235
  0
LINE
  8
0
 10
14.158
 20
8.14235
 11
13.7999
 21
8.40338
  0
LINE
  8
0
 10
13.7999
 20
8.40338
 11
13.4442
 21
8.66187
  0
LINE
  8
0
 10
13.4442
 20
8.66187
 11
13.0964
 21
8.92223
  0
LINE
  8
0
 10
13.0964
 20
8.92223
 11
12.7626
 21
9.18887
  0
LINE
  8
0
 10
12.7626
 20
9.18887
 11
12.4485
 21
9.46626
  0
LINE
  8
0
 10
12.4485
 20
9.46626
 11
12.16
 21
9.7588
  0
LINE
  8
0
 10
12.16
 20
9.7588
 11
11.9028
 21
10.071
  0
LINE
  8
0
 10
11.9028
 20
10.071
 11
11.6829
 21
10.4071
  0
LINE
  8
0
 10
11.6829
 20
10.4071
 11
11.506
 21
10.7717
  0
LINE
  8
0
 10
11.506
 20
10.7717
 11
11.3781
 21
11.1692
  0
LINE
  8
0
 10
11.3781
 20
11.1692
 11
11.3276
 21
11.4324
  0
LINE
  8
0
 10
11.3276
 20
11.4324
 11
11.2938
 21
11.7256
  0
LINE
  8
0
 10
11.2938
 20
11.7256
 11
11.2705
 21
12.0497
  0
LINE
  8
0
 10
11.2705
 20
12.0497
 11
11.2513
 21
12.4061
  0
LINE
  8
0
 10
11.2513
 20
12.4061
 11
11.2299
 21
12.7957
  0
LINE
  8
0
 10
11.2299
 20
12.7957
 11
11.2003
 21
13.2197
  0
LINE
  8
0
 10
11.2003
 20
13.2197
 11
11.156
 21
13.6793
  0
LINE
  8
0
 10
11.156
 20
13.6793
 11
11.0909
 21
14.1756
  0
LINE
  8
0
 10
11.0909
 20
14.1756
 11
10.9987
 21
14.7098
  0
LINE
  8
0
 10
10.9987
 20
14.7098
 11
10.8732
 21
15.283
  0
LINE
  8
0
 10
10.8732
 20
15.283
 11
10.708
 21
15.8963
  0
LINE
  8
0
 10
10.708
 20
15.8963
 11
10.4969
 21
16.5509
  0
LINE
  8
0
 10
10.4969
 20
16.5509
 11
10.2338
 21
17.248
  0
LINE
  8
0
 10
10.2338
 20
17.248
 11
9.91228
 21
17.9885
  0
LINE
  8
0
 10
9.91228
 20
17.9885
 11
9.52614
 21
18.7738
  0
LINE
  8
0
 10
9.52614
 20
18.7738
 11
9.06915
 21
19.6049
  0
LINE
  8
0
 10
9.06915
 20
19.6049
 11
8.53503
 21
20.483
  0
LINE
  8
0
 10
8.53503
 20
20.483
 11
7.91754
 21
21.4092
  0
LINE
  8
0
 10
7.91754
 20
21.4092
 11
7.21042
 21
22.3847
  0
LINE
  8
0
 10
7.21042
 20
22.3847
 11
6.40742
 21
23.4106
  0
LINE
  8
0
 10
6.40742
 20
23.4106
 11
6.26643
 21
23.5768
  0
LINE
  8
0
 10
6.26643
 20
23.5768
 11
6.10703
 21
23.754
  0
LINE
  8
0
 10
6.10703
 20
23.754
 11
5.93242
 21
23.9411
  0
LINE
  8
0
 10
5.93242
 20
23.9411
 11
5.74583
 21
24.137
  0
LINE
  8
0
 10
5.74583
 20
24.137
 11
5.55051
 21
24.3403
  0
LINE
  8
0
 10
5.55051
 20
24.3403
 11
5.34964
 21
24.55
  0
LINE
  8
0
 10
5.34964
 20
24.55
 11
5.14647
 21
24.765
  0
LINE
  8
0
 10
5.14647
 20
24.765
 11
4.94421
 21
24.9841
  0
LINE
  8
0
 10
4.94421
 20
24.9841
 11
4.74609
 21
25.2061
  0
LINE
  8
0
 10
4.74609
 20
25.2061
 11
4.55534
 21
25.4298
  0
LINE
  8
0
 10
4.55534
 20
25.4298
 11
4.37517
 21
25.6541
  0
LINE
  8
0
 10
4.37517
 20
25.6541
 11
4.2088
 21
25.8779
  0
LINE
  8
0
 10
4.2088
 20
25.8779
 11
4.05946
 21
26.1
  0
LINE
  8
0
 10
4.05946
 20
26.1
 11
3.93037
 21
26.3193
  0
LINE
  8
0
 10
3.93037
 20
26.3193
 11
3.82475
 21
26.5345
  0
LINE
  8
0
 10
3.82475
 20
26.5345
 11
3.74585
 21
26.7445
  0
LINE
  8
0
 10
3.74585
 20
26.7445
 11
3.69684
 21
26.9482
  0
LINE
  8
0
 10
3.69684
 20
26.9482
 11
3.68098
 21
27.1445
  0
LINE
  8
0
 10
3.68098
 20
27.1445
 11
3.70149
 21
27.3321
  0
LINE
  8
0
 10
3.70149
 20
27.3321
 11
3.7616
 21
27.5099
  0
LINE
  8
0
 10
3.7616
 20
27.5099
 11
3.92999
 21
27.5759
  0
LINE
  8
0
 10
3.92999
 20
27.5759
 11
4.11958
 21
27.6037
  0
LINE
  8
0
 10
4.11958
 20
27.6037
 11
4.32841
 21
27.5952
  0
LINE
  8
0
 10
4.32841
 20
27.5952
 11
4.55455
 21
27.5519
  0
LINE
  8
0
 10
4.55455
 20
27.5519
 11
4.79605
 21
27.4757
  0
LINE
  8
0
 10
4.79605
 20
27.4757
 11
5.05099
 21
27.3684
  0
LINE
  8
0
 10
5.05099
 20
27.3684
 11
5.31741
 21
27.2317
  0
LINE
  8
0
 10
5.31741
 20
27.2317
 11
5.59338
 21
27.0673
  0
LINE
  8
0
 10
5.59338
 20
27.0673
 11
5.87697
 21
26.8771
  0
LINE
  8
0
 10
5.87697
 20
26.8771
 11
6.16621
 21
26.6628
  0
LINE
  8
0
 10
6.16621
 20
26.6628
 11
6.4592
 21
26.426
  0
LINE
  8
0
 10
6.4592
 20
26.426
 11
6.75397
 21
26.1687
  0
LINE
  8
0
 10
6.75397
 20
26.1687
 11
7.04858
 21
25.8926
  0
LINE
  8
0
 10
7.04858
 20
25.8926
 11
7.34113
 21
25.5994
  0
LINE
  8
0
 10
7.34113
 20
25.5994
 11
7.62964
 21
25.2908
  0
LINE
  8
0
 10
7.62964
 20
25.2908
 11
7.91217
 21
24.9687
  0
LINE
  8
0
 10
7.91217
 20
24.9687
 11
8.18681
 21
24.6348
  0
LINE
  8
0
 10
8.18681
 20
24.6348
 11
8.4516
 21
24.2909
  0
LINE
  8
0
 10
8.4516
 20
24.2909
 11
8.70462
 21
23.9387
  0
LINE
  8
0
 10
8.70462
 20
23.9387
 11
8.94389
 21
23.5799
  0
LINE
  8
0
 10
8.94389
 20
23.5799
 11
9.07616
 21
23.3748
  0
LINE
  8
0
 10
9.07616
 20
23.3748
 11
9.20935
 21
23.1701
  0
LINE
  8
0
 10
9.20935
 20
23.1701
 11
9.34344
 21
22.9658
  0
LINE
  8
0
 10
9.34344
 20
22.9658
 11
9.47836
 21
22.7618
  0
LINE
  8
0
 10
9.47836
 20
22.7618
 11
9.61406
 21
22.5582
  0
LINE
  8
0
 10
9.61406
 20
22.5582
 11
9.75047
 21
22.355
  0
LINE
  8
0
 10
9.75047
 20
22.355
 11
9.88754
 21
22.152
  0
LINE
  8
0
 10
9.88754
 20
22.152
 11
10.0252
 21
21.9493
  0
LINE
  8
0
 10
10.0252
 20
21.9493
 11
10.1634
 21
21.7469
  0
LINE
  8
0
 10
10.1634
 20
21.7469
 11
10.3021
 21
21.5448
  0
LINE
  8
0
 10
10.3021
 20
21.5448
 11
10.4412
 21
21.3429
  0
LINE
  8
0
 10
10.4412
 20
21.3429
 11
10.5807
 21
21.1413
  0
LINE
  8
0
 10
10.5807
 20
21.1413
 11
10.7205
 21
20.9398
  0
LINE
  8
0
 10
10.7205
 20
20.9398
 11
10.8605
 21
20.7385
  0
LINE
  8
0
 10
10.8605
 20
20.7385
 11
11.0007
 21
20.5374
  0
LINE
  8
0
 10
11.0007
 20
20.5374
 11
11.1411
 21
20.3364
  0
LINE
  8
0
 10
11.1411
 20
20.3364
 11
11.2815
 21
20.1355
  0
LINE
  8
0
 10
11.2815
 20
20.1355
 11
11.7026
 21
19.5336
  0
LINE
  8
0
 10
11.7026
 20
19.5336
 11
11.8145
 21
19.3872
  0
LINE
  8
0
 10
11.8145
 20
19.3872
 11
11.9327
 21
19.258
  0
LINE
  8
0
 10
11.9327
 20
19.258
 11
12.0563
 21
19.146
  0
LINE
  8
0
 10
12.0563
 20
19.146
 11
12.1844
 21
19.051
  0
LINE
  8
0
 10
12.1844
 20
19.051
 11
12.3162
 21
18.973
  0
LINE
  8
0
 10
12.3162
 20
18.973
 11
12.4508
 21
18.9117
  0
LINE
  8
0
 10
12.4508
 20
18.9117
 11
12.5874
 21
18.8671
  0
LINE
  8
0
 10
12.5874
 20
18.8671
 11
12.725
 21
18.8391
  0
LINE
  8
0
 10
12.725
 20
18.8391
 11
12.8628
 21
18.8276
  0
LINE
  8
0
 10
12.8628
 20
18.8276
 11
13
 21
18.8324
  0
LINE
  8
0
 10
13
 20
18.8324
 11
13.1356
 21
18.8535
  0
LINE
  8
0
 10
13.1356
 20
18.8535
 11
13.2688
 21
18.8907
  0
LINE
  8
0
 10
13.2688
 20
18.8907
 11
13.3987
 21
18.9439
  0
LINE
  8
0
 10
13.3987
 20
18.9439
 11
13.5245
 21
19.013
  0
LINE
  8
0
 10
13.5245
 20
19.013
 11
13.6453
 21
19.098
  0
LINE
  8
0
 10
13.6453
 20
19.098
 11
13.7602
 21
19.1986
  0
LINE
  8
0
 10
13.7602
 20
19.1986
 11
13.8684
 21
19.3148
  0
LINE
  8
0
 10
13.8684
 20
19.3148
 11
13.969
 21
19.4465
  0
LINE
  8
0
 10
13.969
 20
19.4465
 11
14.0611
 21
19.5935
  0
LINE
  8
0
 10
14.0611
 20
19.5935
 11
14.1438
 21
19.7558
  0
LINE
  8
0
 10
14.1438
 20
19.7558
 11
14.16
 21
19.7924
  0
LINE
  8
0
 10
14.16
 20
19.7924
 11
14.1756
 21
19.8294
  0
LINE
  8
0
 10
14.1756
 20
19.8294
 11
14.1907
 21
19.8666
  0
LINE
  8
0
 10
14.1907
 20
19.8666
 11
14.2054
 21
19.9043
  0
LINE
  8
0
 10
14.2054
 20
19.9043
 11
14.2198
 21
19.9422
  0
LINE
  8
0
 10
14.2198
 20
19.9422
 11
14.2339
 21
19.9806
  0
LINE
  8
0
 10
14.2339
 20
19.9806
 11
14.2477
 21
20.0194
  0
LINE
  8
0
 10
14.2477
 20
20.0194
 11
14.2614
 21
20.0586
  0
LINE
  8
0
 10
14.2614
 20
20.0586
 11
14.275
 21
20.0983
  0
LINE
  8
0
 10
14.275
 20
20.0983
 11
14.2885
 21
20.1386
  0
LINE
  8
0
 10
14.2885
 20
20.1386
 11
14.302
 21
20.1793
  0
LINE
  8
0
 10
14.302
 20
20.1793
 11
14.3156
 21
20.2206
  0
LINE
  8
0
 10
14.3156
 20
20.2206
 11
14.3572
 21
20.3481
  0
LINE
  8
0
 10
14.3572
 20
20.3481
 11
14.3715
 21
20.3919
  0
LINE
  8
0
 10
14.3715
 20
20.3919
 11
14.3863
 21
20.4364
  0
LINE
  8
0
 10
14.3863
 20
20.4364
 11
14.4014
 21
20.4816
  0
LINE
  8
0
 10
14.4014
 20
20.4816
 11
14.417
 21
20.5275
  0
LINE
  8
0
 10
14.417
 20
20.5275
 11
14.4331
 21
20.5742
  0
LINE
  8
0
 10
14.4331
 20
20.5742
 11
14.6241
 21
20.414
  0
LINE
  8
0
 10
14.6241
 20
20.414
 11
14.8141
 21
20.2814
  0
LINE
  8
0
 10
14.8141
 20
20.2814
 11
15.0031
 21
20.1746
  0
LINE
  8
0
 10
15.0031
 20
20.1746
 11
15.1909
 21
20.0919
  0
LINE
  8
0
 10
15.1909
 20
20.0919
 11
15.3778
 21
20.0316
  0
LINE
  8
0
 10
15.3778
 20
20.0316
 11
15.5636
 21
19.9918
  0
LINE
  8
0
 10
15.5636
 20
19.9918
 11
15.7484
 21
19.9708
  0
LINE
  8
0
 10
15.7484
 20
19.9708
 11
15.9322
 21
19.9669
  0
LINE
  8
0
 10
15.9322
 20
19.9669
 11
16.1149
 21
19.9783
  0
LINE
  8
0
 10
16.1149
 20
19.9783
 11
16.2967
 21
20.0032
  0
LINE
  8
0
 10
16.2967
 20
20.0032
 11
16.4774
 21
20.0399
  0
LINE
  8
0
 10
16.4774
 20
20.0399
 11
16.6572
 21
20.0866
  0
LINE
  8
0
 10
16.6572
 20
20.0866
 11
16.8359
 21
20.1415
  0
LINE
  8
0
 10
16.8359
 20
20.1415
 11
17.0136
 21
20.203
  0
LINE
  8
0
 10
17.0136
 20
20.203
 11
17.1904
 21
20.2691
  0
LINE
  8
0
 10
17.1904
 20
20.2691
 11
17.3662
 21
20.3383
  0
LINE
  8
0
 10
17.3662
 20
20.3383
 11
17.541
 21
20.4087
  0
LINE
  8
0
 10
17.541
 20
20.4087
 11
17.7149
 21
20.4785
  0
LINE
  8
0
 10
17.7149
 20
20.4785
 11
17.8877
 21
20.5461
  0
LINE
  8
0
 10
17.8877
 20
20.5461
 11
18.0597
 21
20.6095
  0
LINE
  8
0
 10
18.0597
 20
20.6095
 11
18.4815
 21
20.7725
  0
LINE
  8
0
 10
18.4815
 20
20.7725
 11
18.8746
 21
20.951
  0
LINE
  8
0
 10
18.8746
 20
20.951
 11
19.2389
 21
21.1449
  0
LINE
  8
0
 10
19.2389
 20
21.1449
 11
19.5742
 21
21.3539
  0
LINE
  8
0
 10
19.5742
 20
21.3539
 11
19.8802
 21
21.5777
  0
LINE
  8
0
 10
19.8802
 20
21.5777
 11
20.1567
 21
21.8161
  0
LINE
  8
0
 10
20.1567
 20
21.8161
 11
20.4035
 21
22.0688
  0
LINE
  8
0
 10
20.4035
 20
22.0688
 11
20.6203
 21
22.3355
  0
LINE
  8
0
 10
20.6203
 20
22.3355
 11
20.8071
 21
22.616
  0
LINE
  8
0
 10
20.8071
 20
22.616
 11
20.9635
 21
22.9101
  0
LINE
  8
0
 10
20.9635
 20
22.9101
 11
21.0893
 21
23.2174
  0
LINE
  8
0
 10
21.0893
 20
23.2174
 11
21.1844
 21
23.5376
  0
LINE
  8
0
 10
21.1844
 20
23.5376
 11
21.2485
 21
23.8706
  0
LINE
  8
0
 10
21.2485
 20
23.8706
 11
21.2813
 21
24.2161
  0
LINE
  8
0
 10
21.2813
 20
24.2161
 11
21.2828
 21
24.5738
  0
LINE
  8
0
 10
21.2828
 20
24.5738
 11
21.2526
 21
24.9434
  0
LINE
  8
0
 10
21.2526
 20
24.9434
 11
21.1906
 21
25.3248
  0
LINE
  8
0
 10
21.1906
 20
25.3248
 11
21.0965
 21
25.7175
  0
LINE
  8
0
 10
21.0965
 20
25.7175
 11
20.9702
 21
26.1214
  0
LINE
  8
0
 10
20.9702
 20
26.1214
 11
20.8113
 21
26.5362
  0
LINE
  8
0
 10
20.8113
 20
26.5362
 11
20.5597
 21
27.1364
  0
LINE
  8
0
 10
20.5597
 20
27.1364
 11
20.3064
 21
27.736
  0
LINE
  8
0
 10
20.3064
 20
27.736
 11
20.0515
 21
28.335
  0
LINE
  8
0
 10
20.0515
 20
28.335
 11
19.795
 21
28.9333
  0
LINE
  8
0
 10
19.795
 20
28.9333
 11
19.537
 21
29.5309
  0
LINE
  8
0
 10
19.537
 20
29.5309
 11
19.2775
 21
30.128
  0
LINE
  8
0
 10
19.2775
 20
30.128
 11
19.0166
 21
30.7245
  0
LINE
  8
0
 10
19.0166
 20
30.7245
 11
18.7544
 21
31.3204
  0
LINE
  8
0
 10
18.7544
 20
31.3204
 11
18.4908
 21
31.9157
  0
LINE
  8
0
 10
18.4908
 20
31.9157
 11
18.2259
 21
32.5105
  0
LINE
  8
0
 10
18.2259
 20
32.5105
 11
17.9598
 21
33.1047
  0
LINE
  8
0
 10
17.9598
 20
33.1047
 11
17.6925
 21
33.6985
  0
LINE
  8
0
 10
17.6925
 20
33.6985
 11
17.424
 21
34.2917
  0
LINE
  8
0
 10
17.424
 20
34.2917
 11
17.1544
 21
34.8845
  0
LINE
  8
0
 10
17.1544
 20
34.8845
 11
16.8838
 21
35.4768
  0
LINE
  8
0
 10
16.8838
 20
35.4768
 11
16.6121
 21
36.0686
  0
LINE
  8
0
 10
16.6121
 20
36.0686
 11
16.3395
 21
36.66
  0
LINE
  8
0
 10
16.3395
 20
36.66
 11
16.0659
 21
37.2511
  0
LINE
  8
0
 10
16.0659
 20
37.2511
 11
15.7914
 21
37.8416
  0
LINE
  8
0
 10
15.7914
 20
37.8416
 11
15.5161
 21
38.4319
  0
LINE
  8
0
 10
15.5161
 20
38.4319
 11
15.3204
 21
38.8592
  0
LINE
  8
0
 10
15.3204
 20
38.8592
 11
15.1328
 21
39.2871
  0
LINE
  8
0
 10
15.1328
 20
39.2871
 11
14.954
 21
39.716
  0
LINE
  8
0
 10
14.954
 20
39.716
 11
14.7849
 21
40.1458
  0
LINE
  8
0
 10
14.7849
 20
40.1458
 11
14.6263
 21
40.577
  0
LINE
  8
0
 10
14.6263
 20
40.577
 11
14.4788
 21
41.0095
  0
LINE
  8
0
 10
14.4788
 20
41.0095
 11
14.3434
 21
41.4437
  0
LINE
  8
0
 10
14.3434
 20
41.4437
 11
14.2207
 21
41.8797
  0
LINE
  8
0
 10
14.2207
 20
41.8797
 11
14.1116
 21
42.3176
  0
LINE
  8
0
 10
14.1116
 20
42.3176
 11
14.0168
 21
42.7578
  0
LINE
  8
0
 10
14.0168
 20
42.7578
 11
13.9372
 21
43.2003
  0
LINE
  8
0
 10
13.9372
 20
43.2003
 11
13.8735
 21
43.6455
  0
LINE
  8
0
 10
13.8735
 20
43.6455
 11
13.8265
 21
44.0933
  0
LINE
  8
0
 10
13.8265
 20
44.0933
 11
13.797
 21
44.5442
  0
LINE
  8
0
 10
13.797
 20
44.5442
 11
13.7858
 21
44.9982
  0
LINE
  8
0
 10
13.7858
 20
44.9982
 11
13.7936
 21
45.4555
  0
LINE
  8
0
 10
13.7936
 20
45.4555
 11
13.8212
 21
45.9163
  0
LINE
  8
0
 10
13.8212
 20
45.9163
 11
13.8695
 21
46.3808
  0
LINE
  8
0
 10
13.8695
 20
46.3808
 11
13.9391
 21
46.8493
  0
LINE
  8
0
 10
13.9391
 20
46.8493
 11
14.0309
 21
47.3219
  0
LINE
  8
0
 10
14.0309
 20
47.3219
 11
14.0335
 21
47.3368
  0
LINE
  8
0
 10
14.0335
 20
47.3368
 11
14.0348
 21
47.3522
  0
LINE
  8
0
 10
14.0348
 20
47.3522
 11
14.0349
 21
47.3679
  0
LINE
  8
0
 10
14.0349
 20
47.3679
 11
14.034
 21
47.384
  0
LINE
  8
0
 10
14.034
 20
47.384
 11
14.0321
 21
47.4006
  0
LINE
  8
0
 10
14.0321
 20
47.4006
 11
14.0292
 21
47.4177
  0
LINE
  8
0
 10
14.0292
 20
47.4177
 11
14.0256
 21
47.4353
  0
LINE
  8
0
 10
14.0256
 20
47.4353
 11
14.0212
 21
47.4535
  0
LINE
  8
0
 10
14.0212
 20
47.4535
 11
14.0162
 21
47.4722
  0
LINE
  8
0
 10
14.0162
 20
47.4722
 11
14.0107
 21
47.4916
  0
LINE
  8
0
 10
14.0107
 20
47.4916
 11
14.0046
 21
47.5117
  0
LINE
  8
0
 10
14.0046
 20
47.5117
 11
13.9982
 21
47.5324
  0
LINE
  8
0
 10
13.9982
 20
47.5324
 11
13.9845
 21
47.5761
  0
LINE
  8
0
 10
13.9845
 20
47.5761
 11
13.9774
 21
47.5992
  0
LINE
  8
0
 10
13.9774
 20
47.5992
 11
13.9702
 21
47.623
  0
LINE
  8
0
 10
13.9702
 20
47.623
 11
13.9631
 21
47.6478
  0
LINE
  8
0
 10
13.9631
 20
47.6478
 11
13.9561
 21
47.6734
  0
LINE
  8
0
 10
13.9561
 20
47.6734
 11
13.9493
 21
47.7
  0
LINE
  8
0
 10
13.9493
 20
47.7
 11
13.9428
 21
47.7276
  0
LINE
  8
0
 10
13.9428
 20
47.7276
 11
13.5651
 21
47.7582
  0
LINE
  8
0
 10
13.5651
 20
47.7582
 11
13.1929
 21
47.7694
  0
LINE
  8
0
 10
13.1929
 20
47.7694
 11
12.8259
 21
47.7621
  0
LINE
  8
0
 10
12.8259
 20
47.7621
 11
12.4639
 21
47.7373
  0
LINE
  8
0
 10
12.4639
 20
47.7373
 11
12.1067
 21
47.6962
  0
LINE
  8
0
 10
12.1067
 20
47.6962
 11
11.7541
 21
47.6398
  0
LINE
  8
0
 10
11.7541
 20
47.6398
 11
11.4059
 21
47.569
  0
LINE
  8
0
 10
11.4059
 20
47.569
 11
11.0619
 21
47.485
  0
LINE
  8
0
 10
11.0619
 20
47.485
 11
10.7218
 21
47.3887
  0
LINE
  8
0
 10
10.7218
 20
47.3887
 11
10.3854
 21
47.2813
  0
LINE
  8
0
 10
10.3854
 20
47.2813
 11
10.0526
 21
47.1637
  0
LINE
  8
0
 10
10.0526
 20
47.1637
 11
9.72305
 21
47.0369
  0
LINE
  8
0
 10
9.72305
 20
47.0369
 11
9.39661
 21
46.9021
  0
LINE
  8
0
 10
9.39661
 20
46.9021
 11
9.07304
 21
46.7602
  0
LINE
  8
0
 10
9.07304
 20
46.7602
 11
8.75214
 21
46.6123
  0
LINE
  8
0
 10
8.75214
 20
46.6123
 11
8.43367
 21
46.4595
  0
LINE
  8
0
 10
8.43367
 20
46.4595
 11
8.11743
 21
46.3027
  0
LINE
  8
0
 10
8.11743
 20
46.3027
 11
7.80322
 21
46.143
  0
LINE
  8
0
 10
7.80322
 20
46.143
 11
7.49083
 21
45.9814
  0
LINE
  8
0
 10
7.49083
 20
45.9814
 11
7.18001
 21
45.819
  0
LINE
  8
0
 10
7.18001
 20
45.819
 11
7.07654
 21
45.9453
  0
LINE
  8
0
 10
7.07654
 20
45.9453
 11
6.97455
 21
46.0702
  0
LINE
  8
0
 10
6.97455
 20
46.0702
 11
6.87393
 21
46.1938
  0
LINE
  8
0
 10
6.87393
 20
46.1938
 11
6.77457
 21
46.3161
  0
LINE
  8
0
 10
6.77457
 20
46.3161
 11
6.67636
 21
46.4371
  0
LINE
  8
0
 10
6.67636
 20
46.4371
 11
6.48299
 21
46.6756
  0
LINE
  8
0
 10
6.48299
 20
46.6756
 11
6.38759
 21
46.7931
  0
LINE
  8
0
 10
6.38759
 20
46.7931
 11
6.29291
 21
46.9096
  0
LINE
  8
0
 10
6.29291
 20
46.9096
 11
6.19884
 21
47.0251
  0
LINE
  8
0
 10
6.19884
 20
47.0251
 11
6.10529
 21
47.1396
  0
LINE
  8
0
 10
6.10529
 20
47.1396
 11
6.01212
 21
47.2531
  0
LINE
  8
0
 10
6.01212
 20
47.2531
 11
5.91924
 21
47.3658
  0
LINE
  8
0
 10
5.91924
 20
47.3658
 11
5.82652
 21
47.4776
  0
LINE
  8
0
 10
5.82652
 20
47.4776
 11
5.7339
 21
47.5886
  0
LINE
  8
0
 10
5.7339
 20
47.5886
 11
5.64122
 21
47.6989
  0
LINE
  8
0
 10
5.64122
 20
47.6989
 11
5.5484
 21
47.8084
  0
LINE
  8
0
 10
5.5484
 20
47.8084
 11
5.45532
 21
47.9173
  0
LINE
  8
0
 10
5.45532
 20
47.9173
 11
5.36188
 21
48.0255
  0
LINE
  8
0
 10
5.36188
 20
48.0255
 11
5.26796
 21
48.1332
  0
LINE
  8
0
 10
5.26796
 20
48.1332
 11
5.20348
 21
48.2032
  0
LINE
  8
0
 10
5.20348
 20
48.2032
 11
5.13716
 21
48.2678
  0
LINE
  8
0
 10
5.13716
 20
48.2678
 11
5.06917
 21
48.327
  0
LINE
  8
0
 10
5.06917
 20
48.327
 11
4.99966
 21
48.3803
  0
LINE
  8
0
 10
4.99966
 20
48.3803
 11
4.92885
 21
48.4276
  0
LINE
  8
0
 10
4.92885
 20
48.4276
 11
4.85686
 21
48.4686
  0
LINE
  8
0
 10
4.85686
 20
48.4686
 11
4.78386
 21
48.503
  0
LINE
  8
0
 10
4.78386
 20
48.503
 11
4.71005
 21
48.5307
  0
LINE
  8
0
 10
4.71005
 20
48.5307
 11
4.63559
 21
48.5513
  0
LINE
  8
0
 10
4.63559
 20
48.5513
 11
4.56064
 21
48.5645
  0
LINE
  8
0
 10
4.56064
 20
48.5645
 11
4.48537
 21
48.5702
  0
LINE
  8
0
 10
4.48537
 20
48.5702
 11
4.40994
 21
48.5681
  0
LINE
  8
0
 10
4.40994
 20
48.5681
 11
4.33453
 21
48.5579
  0
LINE
  8
0
 10
4.33453
 20
48.5579
 11
4.25934
 21
48.5394
  0
LINE
  8
0
 10
4.25934
 20
48.5394
 11
4.18448
 21
48.5123
  0
LINE
  8
0
 10
4.18448
 20
48.5123
 11
4.11017
 21
48.4763
  0
LINE
  8
0
 10
4.11017
 20
48.4763
 11
4.03654
 21
48.4313
  0
LINE
  8
0
 10
4.03654
 20
48.4313
 11
3.96379
 21
48.3769
  0
LINE
  8
0
 10
3.96379
 20
48.3769
 11
3.89207
 21
48.3129
  0
LINE
  8
0
 10
3.89207
 20
48.3129
 11
3.82156
 21
48.2391
  0
LINE
  8
0
 10
3.82156
 20
48.2391
 11
3.70158
 21
48.1035
  0
LINE
  8
0
 10
3.70158
 20
48.1035
 11
3.58192
 21
47.9676
  0
LINE
  8
0
 10
3.58192
 20
47.9676
 11
3.46265
 21
47.8313
  0
LINE
  8
0
 10
3.46265
 20
47.8313
 11
3.34381
 21
47.6947
  0
LINE
  8
0
 10
3.34381
 20
47.6947
 11
3.22548
 21
47.5576
  0
LINE
  8
0
 10
3.22548
 20
47.5576
 11
3.1077
 21
47.4201
  0
LINE
  8
0
 10
3.1077
 20
47.4201
 11
2.99052
 21
47.2821
  0
LINE
  8
0
 10
2.99052
 20
47.2821
 11
2.87402
 21
47.1435
  0
LINE
  8
0
 10
2.87402
 20
47.1435
 11
2.75827
 21
47.0043
  0
LINE
  8
0
 10
2.75827
 20
47.0043
 11
2.64328
 21
46.8646
  0
LINE
  8
0
 10
2.64328
 20
46.8646
 11
2.52916
 21
46.7241
  0
LINE
  8
0
 10
2.52916
 20
46.7241
 11
2.41592
 21
46.583
  0
LINE
  8
0
 10
2.41592
 20
46.583
 11
2.30367
 21
46.4411
  0
LINE
  8
0
 10
2.30367
 20
46.4411
 11
2.19243
 21
46.2985
  0
LINE
  8
0
 10
2.19243
 20
46.2985
 11
2.08226
 21
46.155
  0
LINE
  8
0
 10
2.08226
 20
46.155
 11
1.97324
 21
46.0107
  0
LINE
  8
0
 10
1.97324
 20
46.0107
 11
1.8654
 21
45.8654
  0
LINE
  8
0
 10
1.8654
 20
45.8654
 11
1.75883
 21
45.7192
  0
LINE
  8
0
 10
1.75883
 20
45.7192
 11
1.65356
 21
45.5721
  0
LINE
  8
0
 10
1.65356
 20
45.5721
 11
1.54967
 21
45.4239
  0
LINE
  8
0
 10
1.54967
 20
45.4239
 11
1.49901
 21
45.3471
  0
LINE
  8
0
 10
1.49901
 20
45.3471
 11
1.45164
 21
45.268
  0
LINE
  8
0
 10
1.45164
 20
45.268
 11
1.40727
 21
45.1869
  0
LINE
  8
0
 10
1.40727
 20
45.1869
 11
1.36566
 21
45.1038
  0
LINE
  8
0
 10
1.36566
 20
45.1038
 11
1.32654
 21
45.019
  0
LINE
  8
0
 10
1.32654
 20
45.019
 11
1.28964
 21
44.9326
  0
LINE
  8
0
 10
1.28964
 20
44.9326
 11
1.2547
 21
44.8448
  0
LINE
  8
0
 10
1.2547
 20
44.8448
 11
1.22145
 21
44.7557
  0
LINE
  8
0
 10
1.22145
 20
44.7557
 11
1.18964
 21
44.6654
  0
LINE
  8
0
 10
1.18964
 20
44.6654
 11
1.15897
 21
44.5742
  0
LINE
  8
0
 10
1.15897
 20
44.5742
 11
1.12921
 21
44.4821
  0
LINE
  8
0
 10
1.12921
 20
44.4821
 11
1.1001
 21
44.3894
  0
LINE
  8
0
 10
1.1001
 20
44.3894
 11
1.07135
 21
44.2961
  0
LINE
  8
0
 10
1.07135
 20
44.2961
 11
1.04269
 21
44.2025
  0
LINE
  8
0
 10
1.04269
 20
44.2025
 11
1.01389
 21
44.1088
  0
LINE
  8
0
 10
1.01389
 20
44.1088
 11
0.984665
 21
44.0149
  0
LINE
  8
0
 10
0.984665
 20
44.0149
 11
0.954742
 21
43.9212
  0
LINE
  8
0
 10
0.954742
 20
43.9212
 11
0.923889
 21
43.8278
  0
LINE
  8
0
 10
0.923889
 20
43.8278
 11
0.8918
 21
43.7348
  0
LINE
  8
0
 10
0.8918
 20
43.7348
 11
0.858231
 21
43.6424
  0
LINE
  8
0
 10
0.858231
 20
43.6424
 11
0.384064
 21
43.6788
  0
LINE
  8
0
 10
0.384064
 20
43.6788
 11
-0.0807953
 21
43.6922
  0
LINE
  8
0
 10
-0.0807953
 20
43.6922
 11
-0.53653
 21
43.6832
  0
LINE
  8
0
 10
-0.53653
 20
43.6832
 11
-0.983383
 21
43.6523
  0
LINE
  8
0
 10
-0.983383
 20
43.6523
 11
-1.42154
 21
43.6001
  0
LINE
  8
0
 10
-1.42154
 20
43.6001
 11
-1.85123
 21
43.5271
  0
LINE
  8
0
 10
-1.85123
 20
43.5271
 11
-2.27263
 21
43.4339
  0
LINE
  8
0
 10
-2.27263
 20
43.4339
 11
-2.68597
 21
43.3212
  0
LINE
  8
0
 10
-2.68597
 20
43.3212
 11
-3.09146
 21
43.1894
  0
LINE
  8
0
 10
-3.09146
 20
43.1894
 11
-3.48932
 21
43.0391
  0
LINE
  8
0
 10
-3.48932
 20
43.0391
 11
-3.87973
 21
42.871
  0
LINE
  8
0
 10
-3.87973
 20
42.871
 11
-4.26292
 21
42.6856
  0
LINE
  8
0
 10
-4.26292
 20
42.6856
 11
-4.63908
 21
42.4834
  0
LINE
  8
0
 10
-4.63908
 20
42.4834
 11
-5.00845
 21
42.265
  0
LINE
  8
0
 10
-5.00845
 20
42.265
 11
-5.37122
 21
42.0311
  0
LINE
  8
0
 10
-5.37122
 20
42.0311
 11
-5.7276
 21
41.7821
  0
LINE
  8
0
 10
-5.7276
 20
41.7821
 11
-6.07779
 21
41.5186
  0
LINE
  8
0
 10
-6.07779
 20
41.5186
 11
-6.42201
 21
41.2413
  0
LINE
  8
0
 10
-6.42201
 20
41.2413
 11
-6.76047
 21
40.9507
  0
LINE
  8
0
 10
-6.76047
 20
40.9507
 11
-7.09338
 21
40.6473
  0
LINE
  8
0
 10
-7.09338
 20
40.6473
 11
-7.74506
 21
40.0213
  0
LINE
  8
0
 10
-7.74506
 20
40.0213
 11
-8.36696
 21
39.3922
  0
LINE
  8
0
 10
-8.36696
 20
39.3922
 11
-8.95963
 21
38.7587
  0
LINE
  8
0
 10
-8.95963
 20
38.7587
 11
-9.52359
 21
38.1192
  0
LINE
  8
0
 10
-9.52359
 20
38.1192
 11
-10.0594
 21
37.4724
  0
LINE
  8
0
 10
-10.0594
 20
37.4724
 11
-10.5676
 21
36.8168
  0
LINE
  8
0
 10
-10.5676
 20
36.8168
 11
-11.0488
 21
36.1511
  0
LINE
  8
0
 10
-11.0488
 20
36.1511
 11
-11.5034
 21
35.4738
  0
LINE
  8
0
 10
-11.5034
 20
35.4738
 11
-11.932
 21
34.7834
  0
LINE
  8
0
 10
-11.932
 20
34.7834
 11
-12.3352
 21
34.0786
  0
LINE
  8
0
 10
-12.3352
 20
34.0786
 11
-12.7135
 21
33.3579
  0
LINE
  8
0
 10
-12.7135
 20
33.3579
 11
-13.0675
 21
32.6199
  0
LINE
  8
0
 10
-13.0675
 20
32.6199
 11
-13.3976
 21
31.8632
  0
LINE
  8
0
 10
-13.3976
 20
31.8632
 11
-13.7045
 21
31.0863
  0
LINE
  8
0
 10
-13.7045
 20
31.0863
 11
-13.9886
 21
30.2879
  0
LINE
  8
0
 10
-13.9886
 20
30.2879
 11
-14.2505
 21
29.4664
  0
LINE
  8
0
 10
-14.2505
 20
29.4664
 11
-14.4908
 21
28.6206
  0
LINE
  8
0
 10
-14.4908
 20
28.6206
 11
-14.7101
 21
27.7489
  0
LINE
  8
0
 10
-14.7101
 20
27.7489
 11
-14.9087
 21
26.85
  0
LINE
  8
0
 10
-14.9087
 20
26.85
 11
-15.0873
 21
25.9223
  0
LINE
  8
0
 10
-15.0873
 20
25.9223
 11
-15.1555
 21
25.498
  0
LINE
  8
0
 10
-15.1555
 20
25.498
 11
-15.2289
 21
24.9598
  0
LINE
  8
0
 10
-15.2289
 20
24.9598
 11
-15.3067
 21
24.3212
  0
LINE
  8
0
 10
-15.3067
 20
24.3212
 11
-15.3876
 21
23.5956
  0
LINE
  8
0
 10
-15.3876
 20
23.5956
 11
-15.4705
 21
22.7961
  0
LINE
  8
0
 10
-15.4705
 20
22.7961
 11
-15.5544
 21
21.9364
  0
LINE
  8
0
 10
-15.5544
 20
21.9364
 11
-15.6382
 21
21.0296
  0
LINE
  8
0
 10
-15.6382
 20
21.0296
 11
-15.7207
 21
20.0892
  0
LINE
  8
0
 10
-15.7207
 20
20.0892
 11
-15.8008
 21
19.1284
  0
LINE
  8
0
 10
-15.8008
 20
19.1284
 11
-15.8775
 21
18.1608
  0
LINE
  8
0
 10
-15.8775
 20
18.1608
 11
-15.9497
 21
17.1996
  0
LINE
  8
0
 10
-15.9497
 20
17.1996
 11
-16.0162
 21
16.2582
  0
LINE
  8
0
 10
-16.0162
 20
16.2582
 11
-16.076
 21
15.3499
  0
LINE
  8
0
 10
-16.076
 20
15.3499
 11
-16.1279
 21
14.4881
  0
LINE
  8
0
 10
-16.1279
 20
14.4881
 11
-16.1708
 21
13.6862
  0
LINE
  8
0
 10
-16.1708
 20
13.6862
 11
-16.2037
 21
12.9575
  0
LINE
  8
0
 10
-16.2037
 20
12.9575
 11
-16.2254
 21
12.3154
  0
LINE
  8
0
 10
-16.2254
 20
12.3154
 11
-16.2349
 21
11.7733
  0
LINE
  8
0
 10
-16.2349
 20
11.7733
 11
-16.231
 21
11.3444
  0
LINE
  8
0
 10
-16.231
 20
11.3444
 11
-16.2127
 21
11.0422
  0
LINE
  8
0
 10
-16.2127
 20
11.0422
 11
-16.199
 21
10.6174
  0
LINE
  8
0
 10
-16.199
 20
10.6174
 11
-16.2528
 21
10.233
  0
LINE
  8
0
 10
-16.2528
 20
10.233
 11
-16.367
 21
9.88377
  0
LINE
  8
0
 10
-16.367
 20
9.88377
 11
-16.5345
 21
9.56473
  0
LINE
  8
0
 10
-16.5345
 20
9.56473
 11
-16.7484
 21
9.27075
  0
LINE
  8
0
 10
-16.7484
 20
9.27075
 11
-17.0014
 21
8.99675
  0
LINE
  8
0
 10
-17.0014
 20
8.99675
 11
-17.2867
 21
8.73767
  0
LINE
  8
0
 10
-17.2867
 20
8.73767
 11
-17.597
 21
8.48842
  0
LINE
  8
0
 10
-17.597
 20
8.48842
 11
-17.9255
 21
8.2439
  0
LINE
  8
0
 10
-17.9255
 20
8.2439
 11
-18.265
 21
7.99904
  0
LINE
  8
0
 10
-18.265
 20
7.99904
 11
-18.6084
 21
7.74875
  0
LINE
  8
0
 10
-18.6084
 20
7.74875
 11
-18.9488
 21
7.48796
  0
LINE
  8
0
 10
-18.9488
 20
7.48796
 11
-19.279
 21
7.21158
  0
LINE
  8
0
 10
-19.279
 20
7.21158
 11
-19.592
 21
6.91454
  0
LINE
  8
0
 10
-19.592
 20
6.91454
 11
-19.8808
 21
6.59174
  0
LINE
  8
0
 10
-19.8808
 20
6.59174
 11
-20.1383
 21
6.23808
  0
LINE
  8
0
 10
-20.1383
 20
6.23808
 11
-20.3574
 21
5.84853
  0
LINE
  8
0
 10
-20.3574
 20
5.84853
 11
-20.5311
 21
5.41795
  0
LINE
  8
0
 10
-20.5311
 20
5.41795
 11
-20.6524
 21
4.94131
  0
LINE
  8
0
 10
-20.6524
 20
4.94131
 11
-20.7141
 21
4.4135
  0
LINE
  8
0
 10
-20.7141
 20
4.4135
 11
-20.7441
 21
3.88356
  0
LINE
  8
0
 10
-20.7441
 20
3.88356
 11
-20.7733
 21
3.40282
  0
LINE
  8
0
 10
-20.7733
 20
3.40282
 11
-20.7992
 21
2.96797
  0
LINE
  8
0
 10
-20.7992
 20
2.96797
 11
-20.8194
 21
2.57568
  0
LINE
  8
0
 10
-20.8194
 20
2.57568
 11
-20.8316
 21
2.22269
  0
LINE
  8
0
 10
-20.8316
 20
2.22269
 11
-20.8335
 21
1.90565
  0
LINE
  8
0
 10
-20.8335
 20
1.90565
 11
-20.8224
 21
1.62129
  0
LINE
  8
0
 10
-20.8224
 20
1.62129
 11
-20.7962
 21
1.36629
  0
LINE
  8
0
 10
-20.7962
 20
1.36629
 11
-20.7524
 21
1.13733
  0
LINE
  8
0
 10
-20.7524
 20
1.13733
 11
-20.6886
 21
0.931137
  0
LINE
  8
0
 10
-20.6886
 20
0.931137
 11
-20.6024
 21
0.744385
  0
LINE
  8
0
 10
-20.6024
 20
0.744385
 11
-20.4914
 21
0.573776
  0
LINE
  8
0
 10
-20.4914
 20
0.573776
 11
-20.3532
 21
0.416
  0
LINE
  8
0
 10
-20.3532
 20
0.416
 11
-20.1855
 21
0.267761
  0
LINE
  8
0
 10
-20.1855
 20
0.267761
 11
-19.9859
 21
0.125748
  0
LINE
  8
0
 10
-19.9859
 20
0.125748
 11
-19.7519
 21
-0.0133362
  0
LINE
  8
0
 10
-19.7519
 20
-0.0133362
 11
-19.4811
 21
-0.152802
  0
LINE
  8
0
 10
-19.4811
 20
-0.152802
 11
-19.1713
 21
-0.295959
  0
LINE
  8
0
 10
-19.1713
 20
-0.295959
 11
-18.8199
 21
-0.446091
  0
LINE
  8
0
 10
-18.8199
 20
-0.446091
 11
-18.4246
 21
-0.606537
  0
LINE
  8
0
 10
-18.4246
 20
-0.606537
 11
-17.8359
 21
-0.762878
  0
LINE
  8
0
 10
-17.8359
 20
-0.762878
 11
-16.9166
 21
-0.902756
  0
LINE
  8
0
 10
-16.9166
 20
-0.902756
 11
-15.7034
 21
-1.02618
  0
LINE
  8
0
 10
-15.7034
 20
-1.02618
 11
-14.233
 21
-1.13316
  0
LINE
  8
0
 10
-14.233
 20
-1.13316
 11
-12.5423
 21
-1.22368
  0
LINE
  8
0
 10
-12.5423
 20
-1.22368
 11
-10.6678
 21
-1.29773
  0
LINE
  8
0
 10
-10.6678
 20
-1.29773
 11
-8.64645
 21
-1.35533
  0
LINE
  8
0
 10
-8.64645
 20
-1.35533
 11
-6.51488
 21
-1.39647
  0
LINE
  8
0
 10
-6.51488
 20
-1.39647
 11
-4.30984
 21
-1.42116
  0
LINE
  8
0
 10
-4.30984
 20
-1.42116
 11
-2.06805
 21
-1.42938
  0
LINE
  8
0
 10
-2.06805
 20
-1.42938
 11
0.173721
 21
-1.42116
  0
ENDSEC
  0
SECTION
  2
OBJECTS
  0
DICTIONARY
  0
ENDSEC
  0
EOF
