<?xml version="1.0" standalone="no"?>
<!DOCTYPE svg PUBLIC "-//W3C//DTD SVG 1.1//EN" "http://www.w3.org/Graphics/SVG/1.1/DTD/svg11.dtd">
<svg width="36mm" height="51mm" viewBox="9 -51 36 51" xmlns="http://www.w3.org/2000/svg" version="1.1">
<title>OpenSCAD Model</title>
<path d="
M 29.2973,-0.486588 L 31.3572,-0.509689 L 33.3484,-0.548187 L 35.2368,-0.602081 L 36.988,-0.671371 L 38.5677,-0.756073
 L 39.9415,-0.856155 L 41.0752,-0.971649 L 41.9345,-1.10254 L 42.485,-1.24883 L 42.8543,-1.39859 L 43.1825,-1.53879
 L 43.4719,-1.6725 L 43.7247,-1.8028 L 43.9432,-1.93277 L 44.1296,-2.06551 L 44.2861,-2.20406 L 44.4151,-2.35153
 L 44.5186,-2.51099 L 44.599,-2.68552 L 44.6586,-2.87819 L 44.6994,-3.0921 L 44.7238,-3.33032 L 44.734,-3.59593
 L 44.7323,-3.89201 L 44.7209,-4.22165 L 44.702,-4.58791 L 44.6779,-4.99387 L 44.6507,-5.44263 L 44.6228,-5.93724
 L 44.5824,-6.32031 L 44.5054,-6.67509 L 44.395,-7.00368 L 44.2542,-7.30823 L 44.0862,-7.59084 L 43.8942,-7.85364
 L 43.6811,-8.09877 L 43.4501,-8.32834 L 43.2042,-8.54448 L 42.9467,-8.74933 L 42.6806,-8.94498 L 42.409,-9.13358
 L 42.135,-9.31725 L 41.8617,-9.49811 L 41.5922,-9.67828 L 41.3297,-9.85991 L 41.0771,-10.0451 L 40.8377,-10.236
 L 40.6145,-10.4347 L 40.4107,-10.6433 L 40.4403,-10.6782 L 40.4687,-10.714 L 40.496,-10.7507 L 40.522,-10.7883
 L 40.5468,-10.8268 L 40.5702,-10.8661 L 40.5923,-10.9063 L 40.613,-10.9474 L 40.6323,-10.9892 L 40.6501,-11.0318
 L 40.6664,-11.0752 L 40.6812,-11.1193 L 40.6944,-11.1642 L 40.7059,-11.2097 L 40.7158,-11.256 L 40.724,-11.3029
 L 40.7304,-11.3505 L 40.735,-11.3987 L 40.7378,-11.4476 L 40.7388,-11.497 L 40.7365,-11.5737 L 40.7297,-11.6492
 L 40.7186,-11.7235 L 40.7034,-11.7962 L 40.684,-11.8674 L 40.6607,-11.937 L 40.6335,-12.0046 L 40.6027,-12.0704
 L 40.5684,-12.134 L 40.5306,-12.1955 L 40.4896,-12.2547 L 40.4454,-12.3113 L 40.3982,-12.3654 L 40.3481,-12.4168
 L 40.2953,-12.4654 L 40.2398,-12.511 L 40.1819,-12.5535 L 40.1216,-12.5928 L 40.059,-12.6287 L 39.9944,-12.6612
 L 39.6123,-12.9594 L 39.207,-13.2949 L 38.7823,-13.6651 L 38.3419,-14.0676 L 37.8894,-14.5 L 37.4287,-14.96
 L 36.9633,-15.4451 L 36.4971,-15.9529 L 36.0337,-16.4809 L 35.5768,-17.0268 L 35.13,-17.5882 L 34.6972,-18.1626
 L 34.2821,-18.7476 L 33.8882,-19.3408 L 33.5194,-19.9399 L 33.1793,-20.5423 L 32.8717,-21.1457 L 32.6002,-21.7477
 L 32.3685,-22.3458 L 32.1804,-22.9376 L 32.0262,-23.5031 L 31.8947,-24.021 L 31.7844,-24.4931 L 31.6937,-24.9217
 L 31.621,-25.3087 L 31.5646,-25.656 L 31.523,-25.9658 L 31.4945,-26.24 L 31.4775,-26.4807 L 31.4704,-26.6898
 L 31.4716,-26.8695 L 31.4796,-27.0217 L 31.4926,-27.1484 L 31.5091,-27.2516 L 31.5275,-27.3335 L 31.5462,-27.3959
 L 31.5635,-27.441 L 31.5778,-27.4706 L 31.5876,-27.487 L 31.5912,-27.492 L 31.6196,-27.4903 L 31.7014,-27.4856
 L 31.8314,-27.4786 L 32.0046,-27.4699 L 32.2159,-27.4601 L 32.4601,-27.4499 L 32.7322,-27.4398 L 33.0271,-27.4306
 L 33.3396,-27.4227 L 33.6647,-27.417 L 33.9972,-27.414 L 34.3322,-27.4142 L 34.6643,-27.4185 L 34.9886,-27.4273
 L 35.3,-27.4414 L 35.5934,-27.4613 L 35.8636,-27.4876 L 36.1055,-27.5211 L 36.3141,-27.5623 L 36.4843,-27.6119
 L 36.6275,-27.6794 L 36.7587,-27.7733 L 36.8778,-27.8914 L 36.9847,-28.0315 L 37.0793,-28.1913 L 37.1616,-28.3686
 L 37.2315,-28.5611 L 37.2888,-28.7666 L 37.3336,-28.9827 L 37.3658,-29.2074 L 37.3852,-29.4381 L 37.3918,-29.6729
 L 37.3855,-29.9093 L 37.3663,-30.1451 L 37.3341,-30.3781 L 37.2887,-30.6061 L 37.2302,-30.8267 L 37.1584,-31.0377
 L 37.0732,-31.2368 L 36.9746,-31.4219 L 36.8075,-31.6674 L 36.6047,-31.9049 L 36.3709,-32.134 L 36.1109,-32.3542
 L 35.8296,-32.565 L 35.5317,-32.7658 L 35.222,-32.9562 L 34.9053,-33.1356 L 34.5864,-33.3036 L 34.2701,-33.4596
 L 33.9612,-33.6032 L 33.6645,-33.7338 L 33.3847,-33.851 L 33.1267,-33.9541 L 32.8952,-34.0428 L 32.6951,-34.1165
 L 32.5311,-34.1746 L 32.4081,-34.2168 L 32.3307,-34.2425 L 32.3038,-34.2512 L 32.318,-34.2688 L 32.6559,-34.5185
 L 32.9815,-34.7834 L 33.2941,-35.0631 L 33.5933,-35.3571 L 33.8784,-35.6648 L 34.1491,-35.9856 L 34.4047,-36.3192
 L 34.6447,-36.6648 L 34.8686,-37.0221 L 35.0758,-37.3905 L 35.2658,-37.7694 L 35.4381,-38.1583 L 35.5921,-38.5568
 L 35.7273,-38.9642 L 35.8432,-39.3801 L 35.9392,-39.8039 L 36.0148,-40.2351 L 36.0695,-40.6732 L 36.1027,-41.1176
 L 36.1139,-41.5678 L 36.0843,-42.2986 L 35.9972,-43.0133 L 35.8548,-43.7094 L 35.6595,-44.3847 L 35.4135,-45.0369
 L 35.1191,-45.6637 L 34.7785,-46.2627 L 34.3942,-46.8318 L 33.9684,-47.3685 L 33.5033,-47.8706 L 33.0013,-48.3358
 L 32.4646,-48.7618 L 31.8956,-49.1463 L 31.2966,-49.487 L 30.6697,-49.7816 L 30.0174,-50.0278 L 29.3419,-50.2233
 L 28.6455,-50.3658 L 27.9305,-50.4529 L 27.1992,-50.4825 L 26.4683,-50.453 L 25.7537,-50.3658 L 25.0576,-50.2235
 L 24.3823,-50.0281 L 23.7301,-49.7821 L 23.1033,-49.4877 L 22.5043,-49.1472 L 21.9352,-48.7629 L 21.3985,-48.337
 L 20.8963,-47.8719 L 20.4311,-47.3699 L 20.0051,-46.8333 L 19.6206,-46.2643 L 19.2799,-45.6652 L 18.9853,-45.0384
 L 18.7392,-44.386 L 18.5437,-43.7105 L 18.4012,-43.0141 L 18.314,-42.2991 L 18.2845,-41.5678 L 18.2954,-41.1233
 L 18.3277,-40.6844 L 18.381,-40.2515 L 18.4547,-39.8254 L 18.5483,-39.4063 L 18.6614,-38.9949 L 18.7933,-38.5917
 L 18.9436,-38.1972 L 19.1118,-37.8119 L 19.2974,-37.4363 L 19.4998,-37.071 L 19.7186,-36.7164 L 19.9531,-36.3731
 L 20.203,-36.0415 L 20.4678,-35.7223 L 20.7468,-35.4159 L 21.0396,-35.1228 L 21.3457,-34.8436 L 21.6646,-34.5788
 L 21.9957,-34.3288 L 21.9604,-34.2547 L 21.9335,-34.2461 L 21.8561,-34.2205 L 21.7329,-34.1784 L 21.5688,-34.1203
 L 21.3685,-34.0468 L 21.1369,-33.9583 L 20.8787,-33.8553 L 20.5987,-33.7384 L 20.3018,-33.6079 L 19.9928,-33.4645
 L 19.6764,-33.3086 L 19.3574,-33.1407 L 19.0407,-32.9613 L 18.731,-32.7709 L 18.4332,-32.57 L 18.152,-32.3591
 L 17.8922,-32.1387 L 17.6587,-31.9093 L 17.4563,-31.6714 L 17.2896,-31.4254 L 17.1915,-31.2404 L 17.1068,-31.0412
 L 17.0352,-30.8302 L 16.9769,-30.6096 L 16.9317,-30.3817 L 16.8995,-30.1486 L 16.8803,-29.9128 L 16.874,-29.6764
 L 16.8805,-29.4417 L 16.8998,-29.2109 L 16.9318,-28.9863 L 16.9765,-28.7701 L 17.0336,-28.5647 L 17.1033,-28.3722
 L 17.1855,-28.1949 L 17.2799,-28.035 L 17.3867,-27.8949 L 17.5057,-27.7768 L 17.6368,-27.6829 L 17.78,-27.6154
 L 17.9501,-27.5663 L 18.1587,-27.5255 L 18.4007,-27.4923 L 18.6709,-27.4661 L 18.9642,-27.4464 L 19.2756,-27.4324
 L 19.5999,-27.4236 L 19.9321,-27.4193 L 20.267,-27.4189 L 20.5996,-27.4218 L 20.9247,-27.4274 L 21.2372,-27.4351
 L 21.532,-27.4442 L 21.8042,-27.4541 L 22.0484,-27.4641 L 22.2596,-27.4738 L 22.4328,-27.4823 L 22.5629,-27.4892
 L 22.6446,-27.4938 L 22.673,-27.4955 L 22.6766,-27.4905 L 22.6863,-27.4743 L 22.7006,-27.4447 L 22.7178,-27.3998
 L 22.7363,-27.3375 L 22.7545,-27.2558 L 22.7708,-27.1528 L 22.7836,-27.0262 L 22.7914,-26.8742 L 22.7925,-26.6947
 L 22.7853,-26.4856 L 22.7683,-26.2451 L 22.7397,-25.9709 L 22.6981,-25.6611 L 22.6418,-25.3137 L 22.5692,-24.9266
 L 22.4787,-24.4978 L 22.3687,-24.0253 L 22.2376,-23.5071 L 22.0839,-22.9411 L 21.8981,-22.3485 L 21.6739,-21.7491
 L 21.4146,-21.1455 L 21.1233,-20.5401 L 20.803,-19.9353 L 20.4569,-19.3338 L 20.0881,-18.7378 L 19.6998,-18.1499
 L 19.2951,-17.5726 L 18.8771,-17.0083 L 18.449,-16.4595 L 18.0138,-15.9287 L 17.5747,-15.4183 L 17.1348,-14.9309
 L 16.6973,-14.4688 L 16.2652,-14.0347 L 15.8418,-13.6308 L 15.4301,-13.2597 L 15.0332,-12.924 L 14.6544,-12.6259
 L 14.5955,-12.5916 L 14.5387,-12.5544 L 14.4838,-12.5144 L 14.4312,-12.4716 L 14.3809,-12.4263 L 14.333,-12.3784
 L 14.2877,-12.3281 L 14.245,-12.2755 L 14.205,-12.2207 L 14.168,-12.1638 L 14.1339,-12.1048 L 14.103,-12.044
 L 14.0752,-11.9813 L 14.0508,-11.917 L 14.0298,-11.851 L 14.0124,-11.7835 L 13.9986,-11.7146 L 13.9887,-11.6445
 L 13.9826,-11.5731 L 13.9806,-11.5005 L 13.981,-11.4673 L 13.9824,-11.4344 L 13.9846,-11.4017 L 13.9876,-11.3693
 L 13.9915,-11.3372 L 13.9962,-11.3054 L 14.0017,-11.2738 L 14.008,-11.2425 L 14.0151,-11.2115 L 14.0229,-11.1808
 L 14.0315,-11.1504 L 14.0408,-11.1203 L 14.0508,-11.0905 L 14.0615,-11.061 L 14.0728,-11.0317 L 14.0849,-11.0028
 L 14.0976,-10.9742 L 14.1109,-10.9459 L 14.1248,-10.9179 L 14.1393,-10.8902 L 13.9445,-10.6691 L 13.7265,-10.4584
 L 13.4888,-10.2558 L 13.2348,-10.0592 L 12.968,-9.86636 L 12.6918,-9.67514 L 12.4098,-9.48332 L 12.1254,-9.28874
 L 11.842,-9.0892 L 11.5632,-8.88249 L 11.2923,-8.66646 L 11.0329,-8.43889 L 10.7884,-8.1976 L 10.5623,-7.94041
 L 10.3581,-7.66513 L 10.1792,-7.36958 L 10.0291,-7.05154 L 9.91118,-6.70886 L 9.82903,-6.33934 L 9.78604,-5.94077
 L 9.75816,-5.44615 L 9.73103,-4.99739 L 9.70691,-4.59142 L 9.688,-4.22514 L 9.67657,-3.89549 L 9.67487,-3.59937
 L 9.68509,-3.33369 L 9.7095,-3.09541 L 9.75035,-2.88139 L 9.80986,-2.6886 L 9.89027,-2.51393 L 9.99382,-2.35429
 L 10.1227,-2.20662 L 10.2793,-2.06781 L 10.4657,-1.93481 L 10.6842,-1.80452 L 10.937,-1.67386 L 11.2264,-1.53975
 L 11.5546,-1.39909 L 11.9239,-1.24883 L 12.4739,-1.10254 L 13.3327,-0.971649 L 14.466,-0.856155 L 15.8395,-0.756073
 L 17.4189,-0.671371 L 19.1698,-0.602081 L 21.058,-0.548187 L 23.0492,-0.509689 L 25.109,-0.486588 L 27.2031,-0.478882
 z
" stroke="black" fill="lightgray" stroke-width="0.5"/>
</svg>
