<?xml version="1.0" encoding="utf-8"?>
<!-- Generator: Adobe Illustrator 25.2.1, SVG Export Plug-In . SVG Version: 6.00 Build 0)  -->
<svg version="1.1" id="Laag_1" xmlns="http://www.w3.org/2000/svg" xmlns:xlink="http://www.w3.org/1999/xlink" x="0px" y="0px"
	 viewBox="0 0 155.91 144.57" style="enable-background:new 0 0 155.91 144.57;" xml:space="preserve">
<path d="M149.12,24.19c-5.27-4.23-13.02-3.16-17.36,2.37c-2.92,3.72-3,8.1-1.67,12.14c2.41,7.3-6.62,21.49-14,26.3
	c-0.34-5.74-0.93-11.37-0.94-17.01c-0.01-7.32,1.29-14.3,6.54-20.06c4.44-4.86,4.56-10.52,0.75-15.85
	c-2.98-4.17-8.69-5.88-13.62-4.07c-6.09,2.24-9.12,6.97-7.9,13.72c2.92,16.17-4.56,29.63-10.76,44.78
	C86.19,49.1,82.47,33.04,89,16.65c1.82-4.56-0.14-9.95-3.95-12.82c-4.09-3.08-9.99-2.89-14.65,0.48c-4.04,2.92-5.77,7.4-3.8,12.34
	c6.56,16.39,2.55,32.45-0.84,48.86C58,54.48,52.52,35.99,54.78,21.8c0.99-6.19-2.27-11.71-7.56-13.7
	c-5.32-2.01-11.91,0.1-15.03,4.78c-2.81,4.23-2.55,11.95,2.14,15.86c2.32,1.92,4.21,3.94,4.84,8.05c1.41,9.26,0.68,18.16,0.22,28.13
	C30.51,56.64,23.09,48.23,26,34.97c1.38-6.31-3.73-12.3-9.8-13.2c-5.6-0.82-11.14,2.04-13.33,6.91C0.52,33.9,1.59,40.46,6.75,43.82
	c4.41,2.88,5.7,6.44,5.99,11.08c0.08,1.41,0.44,2.79,0.75,4.17l-0.46,5.16c-1.55,21.5,29.57,37.98,29.52,45.58
	c-0.05,7.6-13.33,8.13-13.86,17.99c-0.53,9.86-1.32,10.41,6.1,13.38c7.31,2.92,79.84,2.92,87.15,0c7.42-2.97,6.62-3.52,6.1-13.38
	c-0.53-9.86-13.86-9.89-13.86-17.99c0-8.1,31.08-24.09,29.52-45.58l-1.16-7.95c0.91-5.22,2.88-9.06,7.49-13.24
	c0.38-0.34,1.02-0.97,1.49-1.49C155.3,37.44,154.53,28.53,149.12,24.19z"/>
</svg>
