<?xml version="1.0" encoding="utf-8"?>
<!-- Generator: Adobe Illustrator 25.2.1, SVG Export Plug-In . SVG Version: 6.00 Build 0)  -->
<svg version="1.1" id="Laag_1" xmlns="http://www.w3.org/2000/svg" xmlns:xlink="http://www.w3.org/1999/xlink" x="0px" y="0px"
	 viewBox="0 0 155.91 144.57" style="enable-background:new 0 0 155.91 144.57;" xml:space="preserve">
<path d="M112.85,109.49c0-8.14,31.23-24.2,29.67-45.8c-1.56-21.6-25.74-40.83-57.49-22.61V29.59h11.95V12.67H85.01V1.48h-7.96h-0.37
	h-7.96v11.19H56.75v16.92h11.95v11.48C36.94,22.86,12.76,42.08,11.2,63.68c-1.56,21.6,29.72,38.17,29.67,45.8
	c-0.05,7.64-13.4,8.17-13.92,18.08c-0.53,9.91-1.33,10.46,6.13,13.45c7.34,2.94,80.24,2.94,87.58,0c7.46-2.98,6.66-3.54,6.13-13.45
	C126.25,117.66,112.85,117.62,112.85,109.49z M39.93,69.47c-1.01-7.23,4.88-11.61,11.44-9.92c6.56,1.68,12.45,5.89,12.45,5.89v24.73
	l-5.89-0.17C57.93,89.99,40.94,76.7,39.93,69.47z M102.19,111.78c-0.47,1.49-1.85,2.44-3.33,2.44c-0.35,0-0.71-0.05-1.06-0.17
	c-0.09-0.03-9.39-2.93-21.57-2.93c-10.92,0-20.45,2.91-20.55,2.94c-1.84,0.57-3.8-0.46-4.38-2.31c-0.57-1.84,0.46-3.8,2.3-4.38
	c0.43-0.13,10.6-3.25,22.62-3.25c13.33,0,23.28,3.13,23.7,3.26C101.76,107.97,102.78,109.94,102.19,111.78z M96.5,89.99l-5.89,0.17
	V65.43c0,0,5.89-4.21,12.45-5.89c6.56-1.68,12.45,2.69,11.44,9.92C113.49,76.7,96.5,89.99,96.5,89.99z"/>
</svg>
