<?xml version="1.0" encoding="utf-8"?>
<!-- Generator: Adobe Illustrator 25.2.1, SVG Export Plug-In . SVG Version: 6.00 Build 0)  -->
<svg version="1.1" id="Laag_1" xmlns="http://www.w3.org/2000/svg" xmlns:xlink="http://www.w3.org/1999/xlink" x="0px" y="0px"
	 viewBox="0 0 155.91 144.57" style="enable-background:new 0 0 155.91 144.57;" xml:space="preserve">
<style type="text/css">
	.st0{fill:none;stroke:#ED1C24;stroke-width:1.013;stroke-miterlimit:10;}
</style>
<path class="st0" d="M53.92,120.78"/>
<path d="M123.51,41.07c3.48-7.24,3.02-23.52,2.32-26.93c-0.7-3.42-2.09-5.23-10.22-6.23c-8.13-1-11.61,0.6-12.77,3.82
	c-1.16,3.22-1.16,7.03-2.09,12.26c-0.5,2.79-12.07,5.23-11.84,0.2c0.23-5.02,0.23-18.69,0.23-18.69s0.44-3.87-12.08-4.01
	C64.56,1.62,65,5.49,65,5.49s0,13.67,0.23,18.69c0.23,5.02-11.35,2.59-11.84-0.2c-0.93-5.23-0.93-9.04-2.09-12.26
	c-1.16-3.22-4.64-4.82-12.77-3.82c-8.13,1-9.52,2.81-10.22,6.23c-0.7,3.42-1.16,19.7,2.32,26.93c4.59,9.55,15.45,14.94,15.45,14.94
	l-5.42,52.31l-0.12,0c-1.15,0.63-1.94,1.83-1.94,3.24c0,0.64,0.18,1.23,0.46,1.75c-3.49,4.35-12.08,6.3-12.5,14.22
	c-0.53,9.93-1.33,10.49,6.14,13.48c7.36,2.94,80.44,2.94,87.8,0c7.48-2.99,6.67-3.55,6.14-13.48c-0.41-7.62-8.4-9.42-12.1-13.52
	c0.58-0.65,0.94-1.5,0.94-2.45c0-1.48-0.88-2.75-2.14-3.35l-0.06,0l-4.86-52.2C108.43,56.01,118.92,50.62,123.51,41.07z M102,111.7
	c-0.48,1.49-1.85,2.44-3.34,2.44c-0.35,0-0.71-0.05-1.07-0.17c-0.09-0.03-9.41-2.94-21.63-2.94c-10.94,0-20.5,2.92-20.6,2.94
	c-1.85,0.57-3.81-0.46-4.39-2.31c-0.57-1.85,0.46-3.81,2.31-4.39c0.43-0.13,10.63-3.26,22.68-3.26c13.37,0,23.34,3.14,23.76,3.27
	C101.57,107.88,102.59,109.85,102,111.7z"/>
</svg>
