<?xml version="1.0" standalone="no"?>
<!DOCTYPE svg PUBLIC "-//W3C//DTD SVG 1.1//EN"
"http://www.w3.org/Graphics/SVG/1.1/DTD/svg11.dtd">
<svg width="231.78" height="216.605" viewBox="0 0 4828.74 4512.6" version="1.1"
xmlns="http://www.w3.org/2000/svg"
xmlns:xlink="http://www.w3.org/1999/xlink">
<circle cx="958.661" cy="2831.5" r="27.5591" style=""/>
<circle cx="958.661" cy="2231.5" r="27.5591" style=""/>
<circle cx="1627.95" cy="2994.49" r="27.5591" style=""/>
<circle cx="1903.54" cy="2979.53" r="27.5591" style=""/>
<circle cx="1903.54" cy="3579.53" r="27.5591" style=""/>
<circle cx="1627.95" cy="3594.49" r="27.5591" style=""/>
<circle cx="1627.95" cy="3870.08" r="27.5591" style=""/>
<circle cx="1627.95" cy="4470.08" r="27.5591" style=""/>
<circle cx="3360.24" cy="4485.04" r="27.5591" style=""/>
<circle cx="3360.24" cy="3885.04" r="27.5591" style=""/>
<circle cx="3360.24" cy="3579.53" r="27.5591" style=""/>
<circle cx="3124.02" cy="3594.49" r="27.5591" style=""/>
<circle cx="2612.2" cy="3603.94" r="27.5591" style=""/>
<circle cx="2612.2" cy="3003.94" r="27.5591" style=""/>
<circle cx="3124.02" cy="2994.49" r="27.5591" style=""/>
<circle cx="3360.24" cy="2979.53" r="27.5591" style=""/>
<circle cx="1490.16" cy="523.622" r="31.4961" style=""/>
<circle cx="1687.01" cy="523.622" r="31.4961" style=""/>
<circle cx="131.89" cy="4148.82" r="35.4331" style=""/>
<circle cx="131.89" cy="3948.82" r="35.4331" style=""/>
<circle cx="131.89" cy="3594.49" r="35.4331" style=""/>
<circle cx="131.89" cy="3394.49" r="35.4331" style=""/>
<circle cx="4777.56" cy="3315.75" r="35.4331" style=""/>
<circle cx="4777.56" cy="3515.75" r="35.4331" style=""/>
<circle cx="4777.56" cy="3948.82" r="35.4331" style=""/>
<circle cx="4777.56" cy="4148.82" r="35.4331" style=""/>
<circle cx="2605.91" cy="1959.84" r="39.3701" style=""/>
<circle cx="2405.91" cy="1959.84" r="39.3701" style=""/>
<circle cx="2205.91" cy="1959.84" r="39.3701" style=""/>
<circle cx="2005.91" cy="1959.84" r="39.3701" style=""/>
<circle cx="1805.91" cy="1959.84" r="39.3701" style=""/>
<circle cx="1605.91" cy="1959.84" r="39.3701" style=""/>
<circle cx="1405.91" cy="1959.84" r="39.3701" style=""/>
<circle cx="1205.91" cy="1959.84" r="39.3701" style=""/>
<circle cx="1005.91" cy="1959.84" r="39.3701" style=""/>
<circle cx="805.906" cy="1959.84" r="39.3701" style=""/>
<circle cx="605.906" cy="1959.84" r="39.3701" style=""/>
<circle cx="405.906" cy="1959.84" r="39.3701" style=""/>
<circle cx="205.906" cy="1959.84" r="39.3701" style=""/>
<circle cx="205.906" cy="759.843" r="39.3701" style=""/>
<circle cx="405.906" cy="759.843" r="39.3701" style=""/>
<circle cx="605.906" cy="759.843" r="39.3701" style=""/>
<circle cx="805.906" cy="759.843" r="39.3701" style=""/>
<circle cx="1005.91" cy="759.843" r="39.3701" style=""/>
<circle cx="1194.88" cy="150.157" r="39.3701" style=""/>
<circle cx="1205.91" cy="759.843" r="39.3701" style=""/>
<circle cx="1405.91" cy="759.843" r="39.3701" style=""/>
<circle cx="1605.91" cy="759.843" r="39.3701" style=""/>
<circle cx="1805.91" cy="759.843" r="39.3701" style=""/>
<circle cx="2005.91" cy="759.843" r="39.3701" style=""/>
<circle cx="2375.98" cy="150.157" r="39.3701" style=""/>
<circle cx="2205.91" cy="759.843" r="39.3701" style=""/>
<circle cx="2405.91" cy="759.843" r="39.3701" style=""/>
<circle cx="2605.91" cy="759.843" r="39.3701" style=""/>
<circle cx="2805.91" cy="759.843" r="39.3701" style=""/>
<circle cx="3005.91" cy="759.843" r="39.3701" style=""/>
<circle cx="2805.91" cy="1959.84" r="39.3701" style=""/>
<circle cx="3005.91" cy="1959.84" r="39.3701" style=""/>
<circle cx="4501.97" cy="2248.03" r="39.3701" style=""/>
<circle cx="4501.97" cy="2846.46" r="39.3701" style=""/>
<circle cx="1194.88" cy="4373.23" r="43.3071" style=""/>
<circle cx="1194.88" cy="4173.23" r="43.3071" style=""/>
<circle cx="1194.88" cy="3973.23" r="43.3071" style=""/>
<circle cx="1194.88" cy="3515.75" r="43.3071" style=""/>
<circle cx="1194.88" cy="3315.75" r="43.3071" style=""/>
<circle cx="1194.88" cy="3115.75" r="43.3071" style=""/>
<circle cx="3793.31" cy="3076.38" r="43.3071" style=""/>
<circle cx="3793.31" cy="3276.38" r="43.3071" style=""/>
<circle cx="3793.31" cy="3476.38" r="43.3071" style=""/>
<circle cx="3793.31" cy="3988.19" r="43.3071" style=""/>
<circle cx="3793.31" cy="4188.19" r="43.3071" style=""/>
<circle cx="3793.31" cy="4388.19" r="43.3071" style=""/>
<circle cx="722.441" cy="3915.75" r="46.8504" style=""/>
<circle cx="722.441" cy="3715.75" r="46.8504" style=""/>
<circle cx="722.441" cy="3515.75" r="46.8504" style=""/>
<circle cx="168.11" cy="2649.61" r="46.8504" style=""/>
<circle cx="368.11" cy="2649.61" r="46.8504" style=""/>
<circle cx="46.8504" cy="129.921" r="46.8504" style=""/>
<circle cx="246.85" cy="129.921" r="46.8504" style=""/>
<circle cx="446.85" cy="129.921" r="46.8504" style=""/>
<circle cx="646.85" cy="129.921" r="46.8504" style=""/>
<circle cx="4226.38" cy="3555.12" r="46.8504" style=""/>
<circle cx="4226.38" cy="3755.12" r="46.8504" style=""/>
<circle cx="4226.38" cy="3955.12" r="46.8504" style=""/>
<circle cx="3793.31" cy="444.882" r="51.1811" style=""/>
<circle cx="3793.31" cy="51.1811" r="51.1811" style=""/>
<circle cx="4777.56" cy="51.1811" r="51.1811" style=""/>
<circle cx="4777.56" cy="444.882" r="51.1811" style=""/>
</svg>
