<?xml version="1.0" standalone="no"?>
<!DOCTYPE svg PUBLIC "-//W3C//DTD SVG 1.1//EN"
"http://www.w3.org/Graphics/SVG/1.1/DTD/svg11.dtd">
<svg width="259.272" height="240.378" viewBox="0 0 5401.5 5007.87" version="1.1"
xmlns="http://www.w3.org/2000/svg"
xmlns:xlink="http://www.w3.org/1999/xlink">
<g fill-rule="evenodd"><path d="M 23.6219,4787.48 L 23.6219,771.573 L 25.1349,756.212 L 29.6157,741.441 L 36.892,727.827 L 46.6844,715.895 L 125.344,637.235 L 134.74,629.211 L 145.275,622.755 L 156.69,618.027 L 168.704,615.142 L 181.022,614.173 L 414.094,614.173 L 414.094,338.581 L 415.607,323.22 L 420.088,308.449 L 427.364,294.835 L 433.54,287.31 L 437.414,280.601 L 446.997,269.958 L 458.583,261.54 L 471.666,255.715 L 485.674,252.737 L 499.995,252.737 L 514.004,255.715 L 527.087,261.54 L 538.673,269.958 L 548.255,280.601 L 552.132,287.314 L 558.304,294.835 L 565.58,308.449 L 570.061,323.22 L 571.574,338.581 L 571.574,672.155 L 573.211,677.552 L 574.724,692.913 L 573.211,708.275 L 568.73,723.046 L 561.454,736.659 L 551.662,748.591 L 539.73,758.383 L 526.117,765.66 L 511.346,770.14 L 495.984,771.653 L 213.637,771.653 L 181.102,804.188 L 181.102,2779.53 L 383.656,2779.53 L 392.926,2775.4 L 406.934,2772.42 L 421.255,2772.42 L 435.263,2775.4 L 448.346,2781.23 L 459.933,2789.64 L 469.515,2800.29 L 473.393,2807 L 479.564,2814.52 L 486.84,2828.13 L 491.321,2842.91 L 492.834,2858.27 L 491.321,2873.63 L 486.84,2888.4 L 479.564,2902.01 L 473.395,2909.53 L 469.515,2916.25 L 459.933,2926.89 L 448.346,2935.31 L 435.263,2941.14 L 421.255,2944.11 L 406.934,2944.11 L 392.926,2941.14 L 383.654,2937.01 L 181.102,2937.01 L 181.102,3960.63 L 299.132,3960.63 L 299.132,3803.15 L 300.645,3787.79 L 305.126,3773.02 L 307.008,3769.5 L 307.008,3751.97 L 307.438,3747.88 L 308.71,3743.96 L 310.767,3740.4 L 313.521,3737.34 L 316.85,3734.92 L 320.61,3733.25 L 324.635,3732.39 L 326.693,3732.28 L 344.221,3732.28 L 347.74,3730.4 L 362.511,3725.92 L 377.872,3724.41 L 393.234,3725.92 L 408.005,3730.4 L 411.523,3732.28 L 429.055,3732.28 L 431.113,3732.39 L 435.138,3733.25 L 438.898,3734.92 L 442.227,3737.34 L 444.981,3740.4 L 447.038,3743.96 L 448.31,3747.88 L 448.74,3751.97 L 448.74,3769.5 L 450.618,3773.02 L 455.099,3787.79 L 456.612,3803.15 L 456.612,3845.67 L 968.424,3845.67 L 983.786,3847.18 L 998.557,3851.66 L 1012.17,3858.94 L 1019.69,3865.11 L 1026.41,3868.99 L 1037.05,3878.57 L 1045.47,3890.16 L 1051.29,3903.24 L 1054.27,3917.25 L 1054.27,3931.57 L 1051.29,3945.58 L 1045.47,3958.66 L 1037.05,3970.25 L 1026.41,3979.83 L 1019.69,3983.71 L 1012.17,3989.88 L 998.557,3997.16 L 983.786,4001.64 L 968.424,4003.15 L 456.612,4003.15 L 456.612,4157.48 L 455.099,4172.84 L 450.618,4187.61 L 448.74,4191.13 L 448.74,4208.66 L 448.31,4212.75 L 447.038,4216.67 L 444.981,4220.23 L 442.227,4223.29 L 438.898,4225.71 L 435.138,4227.38 L 431.113,4228.24 L 429.055,4228.35 L 411.52,4228.35 L 408.005,4230.23 L 393.234,4234.71 L 377.872,4236.22 L 362.511,4234.71 L 347.74,4230.23 L 344.224,4228.35 L 324.635,4228.24 L 320.61,4227.38 L 316.85,4225.71 L 313.521,4223.29 L 310.767,4220.23 L 308.71,4216.67 L 307.438,4212.75 L 307.008,4208.66 L 307.008,4191.13 L 305.126,4187.61 L 300.645,4172.84 L 299.132,4157.48 L 299.132,4118.11 L 181.102,4118.11 L 181.102,4754.86 L 253.008,4826.77 L 4872.82,4826.77 L 5220.39,4479.19 L 5220.39,4071.98 L 5187.78,4039.37 L 5102.28,4039.37 L 5102.28,4157.48 L 5100.77,4172.84 L 5096.29,4187.61 L 5094.41,4191.13 L 5094.41,4208.66 L 5093.98,4212.75 L 5092.71,4216.67 L 5090.65,4220.23 L 5087.9,4223.29 L 5084.57,4225.71 L 5080.81,4227.38 L 5076.78,4228.24 L 5074.72,4228.35 L 5057.19,4228.35 L 5053.67,4230.23 L 5038.9,4234.71 L 5023.54,4236.22 L 5008.18,4234.71 L 4993.41,4230.23 L 4989.89,4228.35 L 4972.36,4228.35 L 4970.3,4228.24 L 4966.28,4227.38 L 4962.52,4225.71 L 4959.19,4223.29 L 4956.44,4220.23 L 4954.38,4216.67 L 4953.11,4212.75 L 4952.68,4208.66 L 4952.68,4197.97 L 4797.23,4042.52 L 4472.36,4042.52 L 4457,4041.01 L 4442.23,4036.53 L 4428.62,4029.25 L 4421.1,4023.08 L 4414.38,4019.2 L 4403.74,4009.62 L 4395.32,3998.03 L 4389.49,3984.95 L 4386.52,3970.94 L 4386.52,3956.62 L 4389.49,3942.61 L 4395.32,3929.53 L 4403.74,3917.94 L 4414.38,3908.36 L 4421.09,3904.48 L 4428.62,3898.31 L 4442.23,3891.03 L 4457,3886.55 L 4472.36,3885.04 L 4829.84,3885.04 L 4845.2,3886.55 L 4859.97,3891.03 L 4873.59,3898.31 L 4885.52,3908.1 L 4944.8,3967.38 L 4944.8,3724.41 L 4946.31,3709.05 L 4950.8,3694.28 L 4952.68,3690.76 L 4952.68,3673.23 L 4953.11,3669.14 L 4954.38,3665.22 L 4956.44,3661.66 L 4959.19,3658.6 L 4962.52,3656.18 L 4966.28,3654.51 L 4970.3,3653.65 L 4972.36,3653.54 L 4989.89,3653.54 L 4993.41,3651.66 L 5008.18,3647.18 L 5023.54,3645.67 L 5038.9,3647.18 L 5053.67,3651.66 L 5057.19,3653.54 L 5074.72,3653.54 L 5076.78,3653.65 L 5080.81,3654.51 L 5084.57,3656.18 L 5087.9,3658.6 L 5090.65,3661.66 L 5092.71,3665.22 L 5093.98,3669.14 L 5094.41,3673.23 L 5094.41,3690.76 L 5096.29,3694.28 L 5100.77,3709.05 L 5102.28,3724.41 L 5102.28,3881.89 L 5220.39,3881.89 L 5235.75,3883.4 L 5250.52,3887.88 L 5264.14,3895.16 L 5276.07,3904.95 L 5354.81,3983.69 L 5364.6,3995.62 L 5371.88,4009.24 L 5376.36,4024.01 L 5377.87,4039.37 L 5377.87,4511.81 L 5376.36,4527.17 L 5371.88,4541.94 L 5364.6,4555.55 L 5354.81,4567.49 L 4961.11,4961.19 L 4951.71,4969.21 L 4941.18,4975.67 L 4929.76,4980.4 L 4917.75,4983.28 L 4905.43,4984.25 L 220.392,4984.25 L 208.074,4983.28 L 196.06,4980.4 L 184.644,4975.67 L 174.109,4969.21 L 164.714,4961.19 L 46.6839,4843.16 L 36.8918,4831.22 L 29.6155,4817.61 L 25.1349,4802.84 L 23.6219,4787.48 z " style="fill-opacity:1.000000;fill:rgb(167,241,217);stroke:rgb(0,0,0);stroke-width:2"/></g>
<g fill-rule="evenodd"><path d="M 224.331,356.299 L 224.331,320.866 L 225.828,306.623 L 230.253,293.003 L 237.414,280.601 L 246.997,269.958 L 258.583,261.54 L 271.666,255.715 L 285.674,252.737 L 299.995,252.737 L 314.004,255.715 L 327.087,261.54 L 338.673,269.958 L 348.255,280.601 L 355.416,293.003 L 359.842,306.623 L 361.339,320.866 L 361.339,356.299 L 359.842,370.542 L 355.416,384.162 L 348.255,396.565 L 338.673,407.208 L 327.087,415.625 L 314.004,421.45 L 299.995,424.428 L 285.674,424.428 L 271.666,421.45 L 258.583,415.625 L 246.997,407.208 L 237.414,396.565 L 230.253,384.162 L 225.828,370.542 L 224.331,356.299 z " style="fill-opacity:1.000000;fill:rgb(42,130,200);stroke:rgb(0,0,0);stroke-width:2"/></g>
<g fill-rule="evenodd"><path d="M 299.132,4357.48 L 300.645,4342.12 L 305.126,4327.35 L 312.402,4313.73 L 322.194,4301.8 L 334.126,4292.01 L 347.74,4284.73 L 362.511,4280.25 L 377.872,4278.74 L 702.739,4278.74 L 882.205,4099.27 L 882.205,4075.59 L 882.635,4071.5 L 883.907,4067.58 L 885.964,4064.02 L 888.718,4060.96 L 892.047,4058.54 L 895.807,4056.87 L 899.832,4056.01 L 930.354,4055.91 L 938.292,4051.66 L 953.063,4047.18 L 968.424,4045.67 L 983.786,4047.18 L 998.557,4051.66 L 1006.49,4055.91 L 1037.02,4056.01 L 1041.04,4056.87 L 1044.8,4058.54 L 1048.13,4060.96 L 1050.89,4064.02 L 1052.94,4067.58 L 1054.22,4071.5 L 1054.65,4075.59 L 1054.65,4099.28 L 1258.52,4303.15 L 1440.87,4303.15 L 1456.23,4304.66 L 1471,4309.14 L 1484.61,4316.42 L 1496.54,4326.21 L 1506.34,4338.14 L 1513.61,4351.76 L 1515.94,4358.71 L 1518.09,4366.53 L 1518.52,4370.88 L 1519.2,4374.05 L 1519.61,4381.89 L 1519.2,4389.73 L 1518.52,4392.9 L 1518.09,4397.25 L 1515.94,4405.07 L 1513.61,4412.02 L 1506.34,4425.63 L 1496.54,4437.57 L 1484.61,4447.36 L 1471,4454.64 L 1456.23,4459.12 L 1440.87,4460.63 L 1225.9,4460.63 L 1210.54,4459.12 L 1195.77,4454.64 L 1182.16,4447.36 L 1170.23,4437.57 L 968.424,4235.76 L 791.032,4413.16 L 779.1,4422.95 L 765.487,4430.23 L 750.716,4434.71 L 735.354,4436.22 L 377.872,4436.22 L 362.511,4434.71 L 347.74,4430.23 L 334.126,4422.95 L 322.194,4413.16 L 312.402,4401.22 L 305.126,4387.61 L 300.645,4372.84 L 299.132,4357.48 z " style="fill-opacity:1.000000;fill:rgb(216,254,67);stroke:rgb(0,0,0);stroke-width:2"/></g>
<g fill-rule="evenodd"><path d="M 299.132,3603.15 L 300.645,3587.79 L 305.126,3573.02 L 312.402,3559.4 L 322.194,3547.47 L 334.126,3537.68 L 347.74,3530.4 L 362.511,3525.92 L 377.872,3524.41 L 847.164,3524.41 L 862.526,3525.92 L 877.297,3530.4 L 890.91,3537.68 L 902.842,3547.47 L 968.424,3613.05 L 1112.75,3468.73 L 1124.68,3458.94 L 1138.29,3451.66 L 1153.06,3447.18 L 1168.42,3445.67 L 1440.87,3445.67 L 1456.23,3447.18 L 1471,3451.66 L 1484.61,3458.94 L 1496.54,3468.73 L 1506.34,3480.66 L 1513.61,3494.28 L 1515.94,3501.23 L 1518.09,3509.05 L 1518.52,3513.4 L 1519.2,3516.57 L 1519.61,3524.41 L 1519.2,3532.25 L 1518.52,3535.42 L 1518.09,3539.77 L 1515.94,3547.59 L 1513.61,3554.54 L 1506.34,3568.15 L 1496.54,3580.09 L 1484.61,3589.88 L 1471,3597.16 L 1456.23,3601.64 L 1440.87,3603.15 L 1201.04,3603.15 L 1045.31,3758.88 L 1037.05,3770.25 L 1026.41,3779.83 L 1019.69,3783.71 L 1012.17,3789.88 L 998.557,3797.16 L 983.786,3801.64 L 968.424,3803.15 L 953.063,3801.64 L 938.292,3797.16 L 924.678,3789.88 L 917.157,3783.71 L 910.443,3779.83 L 899.8,3770.25 L 891.546,3758.89 L 814.549,3681.89 L 377.872,3681.89 L 362.511,3680.38 L 347.74,3675.9 L 334.126,3668.62 L 322.194,3658.83 L 312.402,3646.89 L 305.126,3633.28 L 300.645,3618.51 L 299.132,3603.15 z " style="fill-opacity:1.000000;fill:rgb(77,152,85);stroke:rgb(0,0,0);stroke-width:2"/></g>
<g fill-rule="evenodd"><path d="M 388.898,2231.5 L 388.898,2105.51 L 514.882,2105.51 L 514.882,2231.5 L 388.898,2231.5 z " style="fill-opacity:1.000000;fill:rgb(140,226,179);stroke:rgb(0,0,0);stroke-width:2"/></g>
<g fill-rule="evenodd"><path d="M 388.898,968.504 L 390.274,955.407 L 394.344,942.883 L 400.928,931.478 L 409.74,921.692 L 420.394,913.951 L 432.424,908.595 L 445.305,905.857 L 458.474,905.857 L 471.355,908.595 L 483.386,913.951 L 494.04,921.692 L 502.851,931.478 L 509.436,942.883 L 513.505,955.407 L 514.882,968.504 L 513.505,981.601 L 509.436,994.125 L 502.851,1005.53 L 494.04,1015.32 L 483.386,1023.06 L 471.355,1028.41 L 458.474,1031.15 L 445.305,1031.15 L 432.424,1028.41 L 420.394,1023.06 L 409.74,1015.32 L 400.928,1005.53 L 394.344,994.125 L 390.274,981.601 L 388.898,968.504 z " style="fill-opacity:1.000000;fill:rgb(71,23,17);stroke:rgb(0,0,0);stroke-width:2"/></g>
<g fill-rule="evenodd"><path d="M 535.354,2858.27 L 535.354,2740.16 L 536.867,2724.8 L 541.348,2710.02 L 548.624,2696.41 L 558.416,2684.48 L 973.148,2269.75 L 973.148,1911.35 L 596.21,1534.42 L 586.418,1522.48 L 579.142,1508.87 L 574.661,1494.1 L 573.148,1478.74 L 573.148,851.967 L 574.117,839.649 L 577.002,827.634 L 581.731,816.219 L 588.187,805.684 L 596.212,796.288 L 614.094,778.407 L 614.094,338.581 L 615.607,323.22 L 620.088,308.449 L 627.364,294.835 L 633.54,287.31 L 637.414,280.601 L 646.997,269.958 L 658.583,261.54 L 671.666,255.715 L 685.674,252.737 L 699.995,252.737 L 714.004,255.715 L 727.087,261.54 L 738.673,269.958 L 748.255,280.601 L 752.132,287.314 L 758.304,294.835 L 765.58,308.449 L 770.061,323.22 L 771.574,338.581 L 771.574,653.543 L 1362.13,653.543 L 1362.13,358.857 L 1363.85,342.487 L 1368.12,328.725 L 1375.4,315.111 L 1377.16,312.576 L 1385.19,303.179 L 1388.18,300.343 L 1397.12,293.387 L 1401.5,290.667 L 1410.73,286.111 L 1416.53,283.972 L 1425.5,281.63 L 1429.32,281.254 L 1432.64,280.549 L 1436.48,280.549 L 1440.87,280.117 L 1445.26,280.549 L 1449.1,280.549 L 1452.41,281.254 L 1456.23,281.63 L 1465.2,283.972 L 1471,286.111 L 1480.24,290.667 L 1484.61,293.387 L 1493.55,300.343 L 1496.54,303.179 L 1504.57,312.576 L 1506.34,315.111 L 1513.61,328.725 L 1518.09,343.496 L 1519.61,358.858 L 1519.61,653.543 L 1736.14,653.543 L 1751.5,655.056 L 1766.27,659.537 L 1779.89,666.813 L 1791.82,676.605 L 1801.61,688.537 L 1808.89,702.151 L 1813.37,716.922 L 1814.88,732.283 L 1813.37,747.645 L 1808.89,762.416 L 1801.61,776.029 L 1791.82,787.961 L 1779.89,797.753 L 1766.27,805.03 L 1751.5,809.51 L 1736.14,811.023 L 771.574,811.023 L 770.605,823.341 L 767.72,835.356 L 762.992,846.771 L 756.535,857.307 L 748.51,866.702 L 730.628,884.584 L 730.628,1204.72 L 3494.86,1204.72 L 3527.48,1172.11 L 3527.48,259.841 L 3528.99,244.48 L 3533.47,229.709 L 3540.75,216.095 L 3550.54,204.163 L 3562.47,194.371 L 3576.09,187.095 L 3590.86,182.614 L 3606.22,181.101 L 5181.02,181.101 L 5196.38,182.614 L 5211.15,187.095 L 5224.77,194.371 L 5236.7,204.163 L 5354.81,322.273 L 5364.6,334.205 L 5371.88,347.819 L 5376.36,362.59 L 5377.87,377.951 L 5377.87,2937.01 L 5376.36,2952.37 L 5371.88,2967.14 L 5364.6,2980.75 L 5354.81,2992.68 L 5236.7,3110.79 L 5224.77,3120.59 L 5211.15,3127.86 L 5196.38,3132.34 L 5181.02,3133.86 L 4118.03,3133.86 L 4118.03,3285.04 L 4117.62,3292.88 L 4116.95,3296.06 L 4116.52,3300.4 L 4114.36,3308.22 L 4112.04,3315.17 L 4104.76,3328.78 L 4094.97,3340.72 L 4083.04,3350.51 L 4069.42,3357.79 L 4054.65,3362.27 L 4039.29,3363.78 L 3802.61,3363.78 L 3583.16,3583.23 L 3571.23,3593.03 L 3557.61,3600.3 L 3542.84,3604.78 L 3527.48,3606.3 L 3212.52,3606.3 L 3212.52,3928.01 L 3299.46,4014.96 L 3936.14,4014.96 L 3951.5,4016.47 L 3966.27,4020.95 L 3979.89,4028.23 L 3991.82,4038.02 L 4094.97,4141.17 L 4104.76,4153.1 L 4112.04,4166.72 L 4114.36,4173.67 L 4116.52,4181.49 L 4116.95,4185.83 L 4117.62,4189.01 L 4118.03,4196.85 L 4117.62,4204.69 L 4116.94,4207.87 L 4116.52,4212.21 L 4114.36,4220.03 L 4112.04,4226.98 L 4104.76,4240.59 L 4094.97,4252.53 L 4083.04,4262.32 L 4069.42,4269.6 L 4054.65,4274.08 L 4039.29,4275.59 L 4023.93,4274.08 L 4009.16,4269.6 L 3995.54,4262.32 L 3983.61,4252.53 L 3903.52,4172.44 L 3266.85,4172.44 L 3251.49,4170.93 L 3236.72,4166.45 L 3223.1,4159.17 L 3211.17,4149.38 L 3078.1,4016.31 L 3070.08,4006.91 L 3063.62,3996.38 L 3058.89,3984.96 L 3056.01,3972.95 L 3055.04,3960.63 L 3055.04,3606.3 L 2543.23,3606.3 L 2543.23,4354.33 L 2541.72,4369.69 L 2537.23,4384.46 L 2529.96,4398.07 L 2520.17,4410.01 L 2508.23,4419.8 L 2494.62,4427.08 L 2479.85,4431.56 L 2464.49,4433.07 L 2064.03,4433.07 L 1901.83,4595.27 L 1929.61,4623.06 L 1939.41,4634.99 L 1946.68,4648.61 L 1951.16,4663.38 L 1952.68,4678.74 L 1951.16,4694.1 L 1946.68,4708.87 L 1939.41,4722.48 L 1929.61,4734.42 L 1917.68,4744.21 L 1904.07,4751.49 L 1889.3,4755.97 L 1873.94,4757.48 L 1858.57,4755.97 L 1843.8,4751.49 L 1830.19,4744.21 L 1818.26,4734.42 L 1744.47,4660.63 L 1440.87,4660.63 L 1425.5,4659.12 L 1410.73,4654.64 L 1397.12,4647.36 L 1385.19,4637.57 L 1375.4,4625.63 L 1368.12,4612.02 L 1365.8,4605.07 L 1363.64,4597.25 L 1363.21,4592.9 L 1362.54,4589.73 L 1362.13,4581.89 L 1362.54,4574.05 L 1363.21,4570.88 L 1363.64,4566.53 L 1365.8,4558.71 L 1368.12,4551.76 L 1375.4,4538.14 L 1385.19,4526.21 L 1397.12,4516.42 L 1410.73,4509.14 L 1425.5,4504.66 L 1440.87,4503.15 L 1771.24,4503.15 L 1975.74,4298.65 L 1985.13,4290.63 L 1995.67,4284.17 L 2007.08,4279.44 L 2019.1,4276.56 L 2031.42,4275.59 L 2385.75,4275.59 L 2385.75,3606.3 L 2024.66,3606.3 L 1952.68,3678.28 L 1952.68,3803.15 L 1951.16,3818.51 L 1946.68,3833.28 L 1939.41,3846.89 L 1929.61,3858.83 L 1917.68,3868.62 L 1904.07,3875.9 L 1889.3,3880.38 L 1873.94,3881.89 L 1858.57,3880.38 L 1843.8,3875.9 L 1830.19,3868.62 L 1818.26,3858.83 L 1762.58,3803.15 L 1440.87,3803.15 L 1425.5,3801.64 L 1410.73,3797.16 L 1397.12,3789.88 L 1385.19,3780.09 L 1375.4,3768.15 L 1368.12,3754.54 L 1365.8,3747.59 L 1363.64,3739.77 L 1363.21,3735.42 L 1362.54,3732.25 L 1362.13,3724.41 L 1362.54,3716.57 L 1363.21,3713.4 L 1363.64,3709.05 L 1365.8,3701.23 L 1368.12,3694.28 L 1375.4,3680.66 L 1385.19,3668.73 L 1397.12,3658.94 L 1410.73,3651.66 L 1425.5,3647.18 L 1440.87,3645.67 L 1795.2,3645.67 L 1796.71,3630.31 L 1801.19,3615.54 L 1808.47,3601.92 L 1818.26,3589.99 L 1936.37,3471.88 L 1945.76,3463.86 L 1956.3,3457.4 L 1967.71,3452.67 L 1979.73,3449.79 L 1992.05,3448.82 L 3494.86,3448.82 L 3625.18,3318.5 L 3550.54,3243.86 L 3540.75,3231.93 L 3533.47,3218.32 L 3528.99,3203.55 L 3527.48,3188.19 L 3528.99,3172.82 L 3533.47,3158.05 L 3540.75,3144.44 L 3550.54,3132.51 L 3562.48,3122.72 L 3576.09,3115.44 L 3590.86,3110.96 L 3606.22,3109.45 L 3621.58,3110.96 L 3636.35,3115.44 L 3649.97,3122.72 L 3661.9,3132.51 L 3735.69,3206.3 L 3960.55,3206.3 L 3960.55,3055.12 L 3962.06,3039.76 L 3966.54,3024.98 L 3973.82,3011.37 L 3983.61,2999.44 L 3995.54,2989.65 L 4009.16,2982.37 L 4023.93,2977.89 L 4039.29,2976.38 L 5148.41,2976.38 L 5220.39,2904.39 L 5220.39,410.566 L 5148.41,338.581 L 3684.96,338.581 L 3684.96,1204.72 L 3683.45,1220.08 L 3678.97,1234.86 L 3671.69,1248.47 L 3661.9,1260.4 L 3583.16,1339.14 L 3571.23,1348.93 L 3557.61,1356.21 L 3542.84,1360.69 L 3527.48,1362.2 L 730.628,1362.2 L 730.628,1446.12 L 1107.57,1823.06 L 1117.36,1834.99 L 1124.63,1848.61 L 1129.12,1863.38 L 1130.63,1878.74 L 1130.63,2302.36 L 1129.12,2317.72 L 1124.63,2332.49 L 1117.36,2346.11 L 1107.57,2358.04 L 692.834,2772.77 L 692.834,2858.27 L 691.321,2873.63 L 686.84,2888.4 L 682.598,2896.34 L 682.598,2924.8 L 682.168,2928.9 L 680.897,2932.81 L 678.839,2936.37 L 676.085,2939.43 L 672.756,2941.85 L 668.996,2943.52 L 664.971,2944.38 L 565.276,2944.49 L 563.218,2944.38 L 559.193,2943.52 L 555.433,2941.85 L 552.104,2939.43 L 549.35,2936.37 L 547.292,2932.81 L 546.021,2928.9 L 545.591,2924.8 L 545.591,2896.34 L 541.348,2888.4 L 536.867,2873.63 L 535.354,2858.27 z " style="fill-opacity:1.000000;fill:rgb(152,84,47);stroke:rgb(0,0,0);stroke-width:2"/></g>
<g fill-rule="evenodd"><path d="M 588.898,2168.5 L 590.274,2155.41 L 594.344,2142.88 L 600.928,2131.48 L 609.74,2121.69 L 620.394,2113.95 L 632.424,2108.59 L 645.305,2105.86 L 658.474,2105.86 L 671.355,2108.59 L 683.386,2113.95 L 694.04,2121.69 L 702.851,2131.48 L 709.436,2142.88 L 713.505,2155.41 L 714.882,2168.5 L 713.505,2181.6 L 709.436,2194.13 L 702.851,2205.53 L 694.04,2215.32 L 683.386,2223.06 L 671.355,2228.41 L 658.474,2231.15 L 645.305,2231.15 L 632.424,2228.41 L 620.394,2223.06 L 609.74,2215.32 L 600.928,2205.53 L 594.344,2194.13 L 590.274,2181.6 L 588.898,2168.5 z " style="fill-opacity:1.000000;fill:rgb(17,45,5);stroke:rgb(0,0,0);stroke-width:2"/></g>
<g fill-rule="evenodd"><path d="M 788.898,2168.5 L 790.274,2155.41 L 794.344,2142.88 L 800.928,2131.48 L 809.74,2121.69 L 820.394,2113.95 L 832.424,2108.59 L 845.305,2105.86 L 858.474,2105.86 L 871.355,2108.59 L 883.386,2113.95 L 894.04,2121.69 L 902.851,2131.48 L 909.436,2142.88 L 913.505,2155.41 L 914.882,2168.5 L 913.505,2181.6 L 909.436,2194.13 L 902.851,2205.53 L 894.04,2215.32 L 883.386,2223.06 L 871.355,2228.41 L 858.474,2231.15 L 845.305,2231.15 L 832.424,2228.41 L 820.394,2223.06 L 809.74,2215.32 L 800.928,2205.53 L 794.344,2194.13 L 790.274,2181.6 L 788.898,2168.5 z " style="fill-opacity:1.000000;fill:rgb(88,245,107);stroke:rgb(0,0,0);stroke-width:2"/></g>
<g fill-rule="evenodd"><path d="M 788.898,968.504 L 790.274,955.407 L 794.344,942.883 L 800.928,931.478 L 809.74,921.692 L 820.394,913.951 L 832.424,908.595 L 845.305,905.857 L 858.474,905.857 L 871.355,908.595 L 883.386,913.951 L 894.04,921.692 L 902.851,931.478 L 909.436,942.883 L 913.505,955.407 L 914.882,968.504 L 913.505,981.601 L 909.436,994.125 L 902.851,1005.53 L 894.04,1015.32 L 883.386,1023.06 L 871.355,1028.41 L 858.474,1031.15 L 845.305,1031.15 L 832.424,1028.41 L 820.394,1023.06 L 809.74,1015.32 L 800.928,1005.53 L 794.344,994.125 L 790.274,981.601 L 788.898,968.504 z " style="fill-opacity:1.000000;fill:rgb(214,136,7);stroke:rgb(0,0,0);stroke-width:2"/></g>
<g fill-rule="evenodd"><path d="M 814.094,338.581 L 814.094,296.061 L 815.607,280.7 L 820.088,265.929 L 827.364,252.315 L 837.156,240.383 L 1030.86,46.6835 L 1042.79,36.8911 L 1056.4,29.6147 L 1071.17,25.134 L 1086.53,23.621 L 2365.47,23.621 L 2380.83,25.134 L 2395.6,29.6147 L 2409.22,36.8911 L 2421.15,46.6835 L 2654.58,280.117 L 2760.35,280.117 L 2772.67,281.086 L 2784.69,283.971 L 2796.1,288.699 L 2806.64,295.155 L 2816.03,303.18 L 3107.57,594.716 L 3117.36,606.648 L 3124.63,620.261 L 3129.12,635.032 L 3130.63,650.393 L 3130.63,968.503 L 3129.12,983.865 L 3124.63,998.636 L 3117.36,1012.25 L 3107.57,1024.18 L 3095.63,1033.97 L 3082.02,1041.25 L 3067.25,1045.73 L 3051.89,1047.24 L 3036.53,1045.73 L 3021.76,1041.25 L 3008.14,1033.97 L 2996.21,1024.18 L 2986.42,1012.25 L 2979.14,998.636 L 2974.66,983.865 L 2973.15,968.503 L 2973.15,683.008 L 2727.74,437.597 L 2562.91,437.598 L 2560.86,437.491 L 2556.83,436.635 L 2553.07,434.961 L 2549.74,432.542 L 2546.99,429.484 L 2544.93,425.92 L 2543.66,422.006 L 2543.23,417.913 L 2543.23,391.473 L 2332.86,181.101 L 2011.73,181.101 L 2011.73,732.283 L 2010.22,747.645 L 2005.74,762.416 L 1998.46,776.029 L 1988.67,787.961 L 1976.74,797.753 L 1963.12,805.03 L 1948.35,809.51 L 1932.99,811.023 L 1917.63,809.51 L 1902.86,805.03 L 1889.25,797.753 L 1877.31,787.961 L 1867.52,776.029 L 1860.25,762.416 L 1855.76,747.645 L 1854.25,732.283 L 1854.25,181.101 L 1119.15,181.101 L 971.574,328.676 L 971.574,338.581 L 970.061,353.943 L 965.58,368.714 L 961.339,376.65 L 961.339,405.118 L 960.908,409.211 L 959.637,413.125 L 957.579,416.689 L 954.825,419.747 L 951.496,422.166 L 947.737,423.84 L 943.711,424.695 L 844.016,424.803 L 841.958,424.695 L 837.933,423.84 L 834.173,422.166 L 830.844,419.747 L 828.09,416.689 L 826.033,413.125 L 824.761,409.211 L 824.331,405.118 L 824.331,376.652 L 820.088,368.714 L 815.607,353.943 L 814.094,338.581 z " style="fill-opacity:1.000000;fill:rgb(153,146,72);stroke:rgb(0,0,0);stroke-width:2"/></g>
<g fill-rule="evenodd"><path d="M 988.898,968.504 L 990.274,955.407 L 994.344,942.883 L 1000.93,931.478 L 1009.74,921.692 L 1020.39,913.951 L 1032.42,908.595 L 1045.31,905.857 L 1058.47,905.857 L 1071.36,908.595 L 1083.39,913.951 L 1094.04,921.692 L 1102.85,931.478 L 1109.44,942.883 L 1113.51,955.407 L 1114.88,968.504 L 1113.51,981.601 L 1109.44,994.125 L 1102.85,1005.53 L 1094.04,1015.32 L 1083.39,1023.06 L 1071.36,1028.41 L 1058.47,1031.15 L 1045.31,1031.15 L 1032.42,1028.41 L 1020.39,1023.06 L 1009.74,1015.32 L 1000.93,1005.53 L 994.344,994.125 L 990.274,981.601 L 988.898,968.504 z " style="fill-opacity:1.000000;fill:rgb(51,98,65);stroke:rgb(0,0,0);stroke-width:2"/></g>
<g fill-rule="evenodd"><path d="M 1125.9,2440.16 L 1127.42,2424.8 L 1131.9,2410.02 L 1139.17,2396.41 L 1148.97,2384.48 L 1173.15,2360.3 L 1173.15,2168.5 L 1174.66,2153.14 L 1179.14,2138.37 L 1186.42,2124.76 L 1196.21,2112.83 L 1208.14,2103.03 L 1221.76,2095.76 L 1236.53,2091.28 L 1251.89,2089.76 L 1267.25,2091.28 L 1282.02,2095.76 L 1295.63,2103.03 L 1307.57,2112.83 L 1317.36,2124.76 L 1324.63,2138.37 L 1329.12,2153.14 L 1330.63,2168.5 L 1330.63,2392.91 L 1329.66,2405.23 L 1326.77,2417.25 L 1322.05,2428.66 L 1315.59,2439.2 L 1307.57,2448.59 L 1260.32,2495.83 L 1248.39,2505.63 L 1234.78,2512.9 L 1220.01,2517.38 L 1204.64,2518.9 L 1189.28,2517.38 L 1174.51,2512.9 L 1160.9,2505.63 L 1148.97,2495.83 L 1139.17,2483.9 L 1131.9,2470.29 L 1127.42,2455.52 L 1125.9,2440.16 z " style="fill-opacity:1.000000;fill:rgb(243,13,35);stroke:rgb(0,0,0);stroke-width:2"/></g>
<g fill-rule="evenodd"><path d="M 1125.9,3040.16 L 1127.42,3024.8 L 1131.9,3010.03 L 1139.17,2996.41 L 1148.97,2984.48 L 1160.9,2974.69 L 1174.51,2967.41 L 1189.28,2962.93 L 1204.64,2961.42 L 1220,2962.93 L 1234.78,2967.41 L 1248.39,2974.69 L 1260.32,2984.48 L 1345.36,3069.52 L 1353.39,3078.91 L 1359.84,3089.45 L 1364.57,3100.86 L 1367.45,3112.88 L 1368.42,3125.2 L 1368.42,3140.61 L 1424.33,3196.52 L 1473.37,3147.47 L 1482.77,3139.45 L 1493.3,3132.99 L 1504.72,3128.26 L 1516.73,3125.38 L 1529.05,3124.41 L 1873.94,3124.41 L 1889.3,3125.92 L 1904.07,3130.4 L 1917.68,3137.68 L 1929.61,3147.47 L 1939.41,3159.4 L 1946.68,3173.02 L 1951.16,3187.79 L 1952.68,3203.15 L 1951.16,3218.51 L 1946.68,3233.28 L 1939.41,3246.89 L 1929.61,3258.83 L 1917.68,3268.62 L 1904.07,3275.9 L 1889.3,3280.38 L 1873.94,3281.89 L 1561.67,3281.89 L 1519.61,3323.95 L 1519.61,3399.41 L 1463.57,3399.41 L 1456.23,3401.64 L 1440.87,3403.15 L 1425.5,3401.64 L 1418.16,3399.41 L 1362.13,3399.41 L 1362.13,3357.02 L 1234.01,3228.9 L 1224.21,3216.97 L 1216.94,3203.36 L 1212.46,3188.59 L 1210.94,3173.23 L 1210.94,3157.81 L 1148.97,3095.84 L 1139.17,3083.9 L 1131.9,3070.29 L 1127.42,3055.52 L 1125.9,3040.16 z " style="fill-opacity:1.000000;fill:rgb(229,95,48);stroke:rgb(0,0,0);stroke-width:2"/></g>
<g fill-rule="evenodd"><path d="M 1188.9,968.504 L 1190.27,955.407 L 1194.34,942.883 L 1200.93,931.478 L 1209.74,921.692 L 1220.39,913.951 L 1232.42,908.595 L 1245.31,905.857 L 1258.47,905.857 L 1271.36,908.595 L 1283.39,913.951 L 1294.04,921.692 L 1302.85,931.478 L 1309.44,942.883 L 1313.51,955.407 L 1314.88,968.504 L 1313.51,981.601 L 1309.44,994.125 L 1302.85,1005.53 L 1294.04,1015.32 L 1283.39,1023.06 L 1271.36,1028.41 L 1258.47,1031.15 L 1245.31,1031.15 L 1232.42,1028.41 L 1220.39,1023.06 L 1209.74,1015.32 L 1200.93,1005.53 L 1194.34,994.125 L 1190.27,981.601 L 1188.9,968.504 z " style="fill-opacity:1.000000;fill:rgb(209,200,237);stroke:rgb(0,0,0);stroke-width:2"/></g>
<g fill-rule="evenodd"><path d="M 1362.13,4256.89 L 1362.13,4106.89 L 1418.16,4106.89 L 1425.5,4104.66 L 1440.87,4103.15 L 1738.17,4103.15 L 1818.26,4023.06 L 1830.19,4013.27 L 1843.8,4005.99 L 1858.57,4001.51 L 1873.94,4000 L 2070.79,4000 L 2070.79,3788.19 L 2072.3,3772.83 L 2076.78,3758.05 L 2084.06,3744.44 L 2093.85,3732.51 L 2105.78,3722.72 L 2119.39,3715.44 L 2134.16,3710.96 L 2149.53,3709.45 L 2164.89,3710.96 L 2179.66,3715.44 L 2193.27,3722.72 L 2205.2,3732.51 L 2215,3744.44 L 2222.27,3758.05 L 2226.75,3772.83 L 2228.27,3788.19 L 2228.27,4078.74 L 2226.75,4094.1 L 2222.27,4108.87 L 2215,4122.48 L 2205.2,4134.42 L 2193.27,4144.21 L 2179.66,4151.49 L 2164.89,4155.97 L 2149.53,4157.48 L 1906.55,4157.48 L 1826.46,4237.57 L 1814.53,4247.36 L 1800.92,4254.64 L 1786.15,4259.12 L 1770.79,4260.63 L 1440.87,4260.63 L 1425.5,4259.12 L 1418.16,4256.89 L 1362.13,4256.89 z " style="fill-opacity:1.000000;fill:rgb(97,12,75);stroke:rgb(0,0,0);stroke-width:2"/></g>
<g fill-rule="evenodd"><path d="M 1373.15,2790.55 L 1373.15,2168.5 L 1374.66,2153.14 L 1379.14,2138.37 L 1386.42,2124.76 L 1396.21,2112.83 L 1408.14,2103.03 L 1421.75,2095.76 L 1436.52,2091.28 L 1451.89,2089.76 L 1467.25,2091.28 L 1482.02,2095.76 L 1495.63,2103.03 L 1507.56,2112.83 L 1517.36,2124.76 L 1524.63,2138.37 L 1529.11,2153.14 L 1530.63,2168.5 L 1530.63,2757.94 L 1630.96,2858.27 L 2149.53,2858.27 L 2164.89,2859.78 L 2179.66,2864.26 L 2193.27,2871.54 L 2205.2,2881.33 L 2215,2893.26 L 2222.27,2906.87 L 2226.75,2921.65 L 2228.27,2937.01 L 2228.27,3188.19 L 2226.75,3203.55 L 2222.27,3218.32 L 2215,3231.93 L 2205.2,3243.86 L 2193.27,3253.66 L 2179.66,3260.93 L 2164.89,3265.41 L 2149.53,3266.93 L 2134.16,3265.41 L 2119.39,3260.93 L 2105.78,3253.66 L 2093.85,3243.86 L 2084.06,3231.93 L 2076.78,3218.32 L 2072.3,3203.55 L 2070.79,3188.19 L 2070.79,3015.75 L 1598.35,3015.75 L 1582.98,3014.23 L 1568.21,3009.75 L 1554.6,3002.48 L 1542.67,2992.69 L 1396.21,2846.23 L 1388.18,2836.83 L 1381.73,2826.3 L 1377,2814.88 L 1374.12,2802.87 L 1373.15,2790.55 z " style="fill-opacity:1.000000;fill:rgb(2,53,57);stroke:rgb(0,0,0);stroke-width:2"/></g>
<g fill-rule="evenodd"><path d="M 1388.9,968.504 L 1390.27,955.407 L 1394.34,942.883 L 1400.93,931.478 L 1409.74,921.692 L 1420.39,913.951 L 1432.42,908.595 L 1445.31,905.857 L 1458.47,905.857 L 1471.36,908.595 L 1483.39,913.951 L 1494.04,921.692 L 1502.85,931.478 L 1509.44,942.883 L 1513.51,955.407 L 1514.88,968.504 L 1513.51,981.601 L 1509.44,994.125 L 1502.85,1005.53 L 1494.04,1015.32 L 1483.39,1023.06 L 1471.36,1028.41 L 1458.47,1031.15 L 1445.31,1031.15 L 1432.42,1028.41 L 1420.39,1023.06 L 1409.74,1015.32 L 1400.93,1005.53 L 1394.34,994.125 L 1390.27,981.601 L 1388.9,968.504 z " style="fill-opacity:1.000000;fill:rgb(129,132,184);stroke:rgb(0,0,0);stroke-width:2"/></g>
<g fill-rule="evenodd"><path d="M 1573.15,2596.85 L 1573.15,2168.5 L 1574.66,2153.14 L 1579.14,2138.37 L 1586.42,2124.76 L 1596.21,2112.83 L 1608.14,2103.03 L 1621.76,2095.76 L 1636.53,2091.28 L 1651.89,2089.76 L 1667.25,2091.28 L 1682.02,2095.76 L 1695.63,2103.03 L 1707.57,2112.83 L 1717.36,2124.76 L 1724.63,2138.37 L 1729.12,2153.14 L 1730.63,2168.5 L 1730.63,2564.23 L 1788.44,2622.05 L 2346.38,2622.05 L 2361.74,2623.56 L 2376.51,2628.04 L 2390.12,2635.32 L 2402.05,2645.11 L 2913.87,3156.92 L 2923.66,3168.85 L 2930.93,3182.46 L 2935.42,3197.24 L 2936.93,3212.6 L 2935.42,3227.96 L 2930.93,3242.73 L 2923.66,3256.34 L 2913.87,3268.27 L 2901.93,3278.07 L 2888.32,3285.34 L 2873.55,3289.82 L 2858.19,3291.34 L 2842.83,3289.82 L 2828.06,3285.34 L 2814.44,3278.07 L 2802.51,3268.27 L 2313.76,2779.53 L 1755.83,2779.53 L 1740.46,2778.01 L 1725.69,2773.53 L 1712.08,2766.26 L 1700.15,2756.46 L 1596.21,2652.53 L 1586.42,2640.59 L 1579.14,2626.98 L 1574.66,2612.21 L 1573.15,2596.85 z " style="fill-opacity:1.000000;fill:rgb(20,162,156);stroke:rgb(0,0,0);stroke-width:2"/></g>
<g fill-rule="evenodd"><path d="M 1588.9,968.504 L 1590.27,955.407 L 1594.34,942.883 L 1600.93,931.478 L 1609.74,921.692 L 1620.39,913.951 L 1632.42,908.595 L 1645.31,905.857 L 1658.47,905.857 L 1671.36,908.595 L 1683.39,913.951 L 1694.04,921.692 L 1702.85,931.478 L 1709.44,942.883 L 1713.51,955.407 L 1714.88,968.504 L 1713.51,981.601 L 1709.44,994.125 L 1702.85,1005.53 L 1694.04,1015.32 L 1683.39,1023.06 L 1671.36,1028.41 L 1658.47,1031.15 L 1645.31,1031.15 L 1632.42,1028.41 L 1620.39,1023.06 L 1609.74,1015.32 L 1600.93,1005.53 L 1594.34,994.125 L 1590.27,981.601 L 1588.9,968.504 z " style="fill-opacity:1.000000;fill:rgb(180,90,103);stroke:rgb(0,0,0);stroke-width:2"/></g>
<g fill-rule="evenodd"><path d="M 1773.15,2363.78 L 1773.15,2168.5 L 1774.66,2153.14 L 1779.14,2138.37 L 1786.42,2124.76 L 1796.21,2112.83 L 1808.14,2103.03 L 1821.76,2095.76 L 1836.53,2091.28 L 1851.89,2089.76 L 1867.25,2091.28 L 1882.02,2095.76 L 1895.63,2103.03 L 1907.57,2112.83 L 1917.36,2124.76 L 1924.63,2138.37 L 1929.12,2153.14 L 1930.63,2168.5 L 1930.63,2331.16 L 2024.66,2425.19 L 2670.79,2425.19 L 2683.1,2426.16 L 2695.12,2429.05 L 2706.53,2433.78 L 2717.07,2440.23 L 2726.46,2448.26 L 3425.68,3147.47 L 3435.47,3159.4 L 3442.74,3173.02 L 3447.23,3187.79 L 3448.74,3203.15 L 3447.23,3218.51 L 3442.74,3233.28 L 3435.47,3246.89 L 3425.68,3258.83 L 3413.74,3268.62 L 3400.13,3275.9 L 3385.36,3280.38 L 3370,3281.89 L 3354.64,3280.38 L 3339.87,3275.9 L 3326.25,3268.62 L 3314.32,3258.83 L 2638.17,2582.68 L 1992.05,2582.68 L 1976.68,2581.16 L 1961.91,2576.68 L 1948.3,2569.41 L 1936.37,2559.61 L 1796.21,2419.46 L 1788.19,2410.06 L 1781.73,2399.53 L 1777,2388.11 L 1774.12,2376.1 L 1773.15,2363.78 z " style="fill-opacity:1.000000;fill:rgb(42,202,229);stroke:rgb(0,0,0);stroke-width:2"/></g>
<g fill-rule="evenodd"><path d="M 1788.9,968.504 L 1790.27,955.407 L 1794.34,942.883 L 1800.93,931.478 L 1809.74,921.692 L 1820.39,913.951 L 1832.42,908.595 L 1845.31,905.857 L 1858.47,905.857 L 1871.36,908.595 L 1883.39,913.951 L 1894.04,921.692 L 1902.85,931.478 L 1909.44,942.883 L 1913.51,955.407 L 1914.88,968.504 L 1913.51,981.601 L 1909.44,994.125 L 1902.85,1005.53 L 1894.04,1015.32 L 1883.39,1023.06 L 1871.36,1028.41 L 1858.47,1031.15 L 1845.31,1031.15 L 1832.42,1028.41 L 1820.39,1023.06 L 1809.74,1015.32 L 1800.93,1005.53 L 1794.34,994.125 L 1790.27,981.601 L 1788.9,968.504 z " style="fill-opacity:1.000000;fill:rgb(72,233,197);stroke:rgb(0,0,0);stroke-width:2"/></g>
<g fill-rule="evenodd"><path d="M 1973.15,2168.5 L 1973.15,1735.43 L 1974.12,1723.11 L 1977,1711.1 L 1981.73,1699.68 L 1988.19,1689.15 L 1996.21,1679.75 L 2133.22,1542.75 L 2145.15,1532.95 L 2158.76,1525.68 L 2173.53,1521.2 L 2188.9,1519.68 L 3960.55,1519.68 L 3960.55,722.81 L 3957.69,721.879 L 3944.14,714.06 L 3932.52,703.596 L 3923.33,690.945 L 3916.97,676.659 L 3913.72,661.362 L 3913.72,645.724 L 3916.97,630.428 L 3923.33,616.142 L 3932.52,603.49 L 3944.14,593.026 L 3957.69,585.207 L 3972.56,580.375 L 3988.11,578.74 L 4015.94,578.74 L 4023.93,576.316 L 4039.29,574.803 L 5023.54,574.803 L 5038.9,576.316 L 5046.9,578.74 L 5074.72,578.74 L 5090.28,580.375 L 5105.15,585.207 L 5118.69,593.026 L 5130.31,603.49 L 5139.51,616.142 L 5145.87,630.428 L 5149.12,645.724 L 5149.12,661.362 L 5145.87,676.659 L 5139.51,690.945 L 5130.31,703.596 L 5118.69,714.06 L 5105.15,721.879 L 5090.28,726.712 L 5074.72,728.346 L 5046.89,728.346 L 5038.9,730.77 L 5023.54,732.283 L 4118.03,732.283 L 4118.03,1598.43 L 4116.52,1613.79 L 4112.04,1628.56 L 4104.76,1642.17 L 4094.97,1654.1 L 4083.04,1663.9 L 4069.42,1671.17 L 4054.65,1675.65 L 4039.29,1677.17 L 2221.51,1677.17 L 2130.63,1768.05 L 2130.63,2168.5 L 2129.12,2183.86 L 2124.63,2198.64 L 2117.36,2212.25 L 2107.57,2224.18 L 2095.63,2233.97 L 2082.02,2241.25 L 2067.25,2245.73 L 2051.89,2247.24 L 2036.53,2245.73 L 2021.76,2241.25 L 2008.14,2233.97 L 1996.21,2224.18 L 1986.42,2212.25 L 1979.14,2198.64 L 1974.66,2183.86 L 1973.15,2168.5 z " style="fill-opacity:1.000000;fill:rgb(241,176,196);stroke:rgb(0,0,0);stroke-width:2"/></g>
<g fill-rule="evenodd"><path d="M 1988.9,968.504 L 1990.27,955.407 L 1994.34,942.883 L 2000.93,931.478 L 2009.74,921.692 L 2020.39,913.951 L 2032.42,908.595 L 2045.31,905.857 L 2058.47,905.857 L 2071.36,908.595 L 2083.39,913.951 L 2094.04,921.692 L 2102.85,931.478 L 2109.44,942.883 L 2113.51,955.407 L 2114.88,968.504 L 2113.51,981.601 L 2109.44,994.125 L 2102.85,1005.53 L 2094.04,1015.32 L 2083.39,1023.06 L 2071.36,1028.41 L 2058.47,1031.15 L 2045.31,1031.15 L 2032.42,1028.41 L 2020.39,1023.06 L 2009.74,1015.32 L 2000.93,1005.53 L 1994.34,994.125 L 1990.27,981.601 L 1988.9,968.504 z " style="fill-opacity:1.000000;fill:rgb(21,138,229);stroke:rgb(0,0,0);stroke-width:2"/></g>
<g fill-rule="evenodd"><path d="M 2173.15,2168.5 L 2173.15,1968.5 L 2174.66,1953.14 L 2179.14,1938.37 L 2186.42,1924.76 L 2196.21,1912.83 L 2290.7,1818.34 L 2302.63,1808.55 L 2316.24,1801.27 L 2331.01,1796.79 L 2346.38,1795.27 L 4275.51,1795.27 L 4290.87,1796.79 L 4305.64,1801.27 L 4319.26,1808.55 L 4331.19,1818.34 L 4803.63,2290.78 L 4811.65,2300.17 L 4818.11,2310.71 L 4822.84,2322.12 L 4825.72,2334.14 L 4826.69,2346.46 L 4826.69,2535.43 L 4669.21,2535.43 L 4669.21,2379.07 L 4242.89,1952.76 L 2378.99,1952.76 L 2330.63,2001.12 L 2330.63,2168.5 L 2329.12,2183.86 L 2324.63,2198.64 L 2317.36,2212.25 L 2307.57,2224.18 L 2295.63,2233.97 L 2282.02,2241.25 L 2267.25,2245.73 L 2251.89,2247.24 L 2236.53,2245.73 L 2221.76,2241.25 L 2208.14,2233.97 L 2196.21,2224.18 L 2186.42,2212.25 L 2179.14,2198.64 L 2174.66,2183.86 L 2173.15,2168.5 z " style="fill-opacity:1.000000;fill:rgb(155,77,57);stroke:rgb(0,0,0);stroke-width:2"/></g>
<g fill-rule="evenodd"><path d="M 2188.9,968.504 L 2190.27,955.407 L 2194.34,942.883 L 2200.93,931.478 L 2209.74,921.692 L 2220.39,913.951 L 2232.42,908.595 L 2245.31,905.857 L 2258.47,905.857 L 2271.36,908.595 L 2283.39,913.951 L 2294.04,921.692 L 2302.85,931.478 L 2309.44,942.883 L 2313.51,955.407 L 2314.88,968.504 L 2313.51,981.601 L 2309.44,994.125 L 2302.85,1005.53 L 2294.04,1015.32 L 2283.39,1023.06 L 2271.36,1028.41 L 2258.47,1031.15 L 2245.31,1031.15 L 2232.42,1028.41 L 2220.39,1023.06 L 2209.74,1015.32 L 2200.93,1005.53 L 2194.34,994.125 L 2190.27,981.601 L 2188.9,968.504 z " style="fill-opacity:1.000000;fill:rgb(246,247,232);stroke:rgb(0,0,0);stroke-width:2"/></g>
<g fill-rule="evenodd"><path d="M 2388.9,2168.5 L 2390.27,2155.41 L 2394.34,2142.88 L 2400.93,2131.48 L 2409.74,2121.69 L 2420.39,2113.95 L 2432.42,2108.59 L 2445.31,2105.86 L 2458.47,2105.86 L 2471.36,2108.59 L 2483.39,2113.95 L 2494.04,2121.69 L 2502.85,2131.48 L 2509.44,2142.88 L 2513.51,2155.41 L 2514.88,2168.5 L 2513.51,2181.6 L 2509.44,2194.13 L 2502.85,2205.53 L 2494.04,2215.32 L 2483.39,2223.06 L 2471.36,2228.41 L 2458.47,2231.15 L 2445.31,2231.15 L 2432.42,2228.41 L 2420.39,2223.06 L 2409.74,2215.32 L 2400.93,2205.53 L 2394.34,2194.13 L 2390.27,2181.6 L 2388.9,2168.5 z " style="fill-opacity:1.000000;fill:rgb(161,5,211);stroke:rgb(0,0,0);stroke-width:2"/></g>
<g fill-rule="evenodd"><path d="M 2388.9,968.504 L 2390.27,955.407 L 2394.34,942.883 L 2400.93,931.478 L 2409.74,921.692 L 2420.39,913.951 L 2432.42,908.595 L 2445.31,905.857 L 2458.47,905.857 L 2471.36,908.595 L 2483.39,913.951 L 2494.04,921.692 L 2502.85,931.478 L 2509.44,942.883 L 2513.51,955.407 L 2514.88,968.504 L 2513.51,981.601 L 2509.44,994.125 L 2502.85,1005.53 L 2494.04,1015.32 L 2483.39,1023.06 L 2471.36,1028.41 L 2458.47,1031.15 L 2445.31,1031.15 L 2432.42,1028.41 L 2420.39,1023.06 L 2409.74,1015.32 L 2400.93,1005.53 L 2394.34,994.125 L 2390.27,981.601 L 2388.9,968.504 z " style="fill-opacity:1.000000;fill:rgb(254,237,165);stroke:rgb(0,0,0);stroke-width:2"/></g>
<g fill-rule="evenodd"><path d="M 2588.9,2168.5 L 2590.27,2155.41 L 2594.34,2142.88 L 2600.93,2131.48 L 2609.74,2121.69 L 2620.39,2113.95 L 2632.42,2108.59 L 2645.31,2105.86 L 2658.47,2105.86 L 2671.36,2108.59 L 2683.39,2113.95 L 2694.04,2121.69 L 2702.85,2131.48 L 2709.44,2142.88 L 2713.51,2155.41 L 2714.88,2168.5 L 2713.51,2181.6 L 2709.44,2194.13 L 2702.85,2205.53 L 2694.04,2215.32 L 2683.39,2223.06 L 2671.36,2228.41 L 2658.47,2231.15 L 2645.31,2231.15 L 2632.42,2228.41 L 2620.39,2223.06 L 2609.74,2215.32 L 2600.93,2205.53 L 2594.34,2194.13 L 2590.27,2181.6 L 2588.9,2168.5 z " style="fill-opacity:1.000000;fill:rgb(213,243,217);stroke:rgb(0,0,0);stroke-width:2"/></g>
<g fill-rule="evenodd"><path d="M 2588.9,968.504 L 2590.27,955.407 L 2594.34,942.883 L 2600.93,931.478 L 2609.74,921.692 L 2620.39,913.951 L 2632.42,908.595 L 2645.31,905.857 L 2658.47,905.857 L 2671.36,908.595 L 2683.39,913.951 L 2694.04,921.692 L 2702.85,931.478 L 2709.44,942.883 L 2713.51,955.407 L 2714.88,968.504 L 2713.51,981.601 L 2709.44,994.125 L 2702.85,1005.53 L 2694.04,1015.32 L 2683.39,1023.06 L 2671.36,1028.41 L 2658.47,1031.15 L 2645.31,1031.15 L 2632.42,1028.41 L 2620.39,1023.06 L 2609.74,1015.32 L 2600.93,1005.53 L 2594.34,994.125 L 2590.27,981.601 L 2588.9,968.504 z " style="fill-opacity:1.000000;fill:rgb(228,91,250);stroke:rgb(0,0,0);stroke-width:2"/></g>
<g fill-rule="evenodd"><path d="M 2779.45,4157.48 L 2779.45,3812.6 L 2780.96,3797.24 L 2785.44,3782.46 L 2792.72,3768.85 L 2802.51,3756.92 L 2814.44,3747.13 L 2828.06,3739.85 L 2842.83,3735.37 L 2858.19,3733.86 L 2873.55,3735.37 L 2888.32,3739.85 L 2901.93,3747.13 L 2913.87,3756.92 L 2923.66,3768.85 L 2930.93,3782.46 L 2935.42,3797.24 L 2936.93,3812.6 L 2936.93,4124.86 L 3427.02,4614.96 L 3909.82,4614.96 L 3960.55,4564.23 L 3960.55,4521.85 L 4016.58,4521.85 L 4023.93,4519.62 L 4039.29,4518.11 L 4054.65,4519.62 L 4062,4521.85 L 4118.03,4521.85 L 4118.03,4671.85 L 4075.64,4671.85 L 3998.12,4749.38 L 3986.19,4759.17 L 3972.57,4766.45 L 3957.8,4770.93 L 3942.44,4772.44 L 3394.41,4772.44 L 3379.05,4770.93 L 3364.28,4766.45 L 3350.66,4759.17 L 3338.73,4749.38 L 2802.51,4213.16 L 2792.72,4201.22 L 2785.44,4187.61 L 2780.96,4172.84 L 2779.45,4157.48 z " style="fill-opacity:1.000000;fill:rgb(108,195,81);stroke:rgb(0,0,0);stroke-width:2"/></g>
<g fill-rule="evenodd"><path d="M 2788.9,2168.5 L 2790.27,2155.41 L 2794.34,2142.88 L 2800.93,2131.48 L 2809.74,2121.69 L 2820.39,2113.95 L 2832.42,2108.59 L 2845.31,2105.86 L 2858.47,2105.86 L 2871.36,2108.59 L 2883.39,2113.95 L 2894.04,2121.69 L 2902.85,2131.48 L 2909.44,2142.88 L 2913.51,2155.41 L 2914.88,2168.5 L 2913.51,2181.6 L 2909.44,2194.13 L 2902.85,2205.53 L 2894.04,2215.32 L 2883.39,2223.06 L 2871.36,2228.41 L 2858.47,2231.15 L 2845.31,2231.15 L 2832.42,2228.41 L 2820.39,2223.06 L 2809.74,2215.32 L 2800.93,2205.53 L 2794.34,2194.13 L 2790.27,2181.6 L 2788.9,2168.5 z " style="fill-opacity:1.000000;fill:rgb(226,32,174);stroke:rgb(0,0,0);stroke-width:2"/></g>
<g fill-rule="evenodd"><path d="M 2788.9,968.504 L 2790.27,955.407 L 2794.34,942.883 L 2800.93,931.478 L 2809.74,921.692 L 2820.39,913.951 L 2832.42,908.595 L 2845.31,905.857 L 2858.47,905.857 L 2871.36,908.595 L 2883.39,913.951 L 2894.04,921.692 L 2902.85,931.478 L 2909.44,942.883 L 2913.51,955.407 L 2914.88,968.504 L 2913.51,981.601 L 2909.44,994.125 L 2902.85,1005.53 L 2894.04,1015.32 L 2883.39,1023.06 L 2871.36,1028.41 L 2858.47,1031.15 L 2845.31,1031.15 L 2832.42,1028.41 L 2820.39,1023.06 L 2809.74,1015.32 L 2800.93,1005.53 L 2794.34,994.125 L 2790.27,981.601 L 2788.9,968.504 z " style="fill-opacity:1.000000;fill:rgb(12,225,6);stroke:rgb(0,0,0);stroke-width:2"/></g>
<g fill-rule="evenodd"><path d="M 2988.9,2168.5 L 2990.27,2155.41 L 2994.34,2142.88 L 3000.93,2131.48 L 3009.74,2121.69 L 3020.39,2113.95 L 3032.42,2108.59 L 3045.31,2105.86 L 3058.47,2105.86 L 3071.36,2108.59 L 3083.39,2113.95 L 3094.04,2121.69 L 3102.85,2131.48 L 3109.44,2142.88 L 3113.51,2155.41 L 3114.88,2168.5 L 3113.51,2181.6 L 3109.44,2194.13 L 3102.85,2205.53 L 3094.04,2215.32 L 3083.39,2223.06 L 3071.36,2228.41 L 3058.47,2231.15 L 3045.31,2231.15 L 3032.42,2228.41 L 3020.39,2223.06 L 3009.74,2215.32 L 3000.93,2205.53 L 2994.34,2194.13 L 2990.27,2181.6 L 2988.9,2168.5 z " style="fill-opacity:1.000000;fill:rgb(152,109,97);stroke:rgb(0,0,0);stroke-width:2"/></g>
<g fill-rule="evenodd"><path d="M 3188.9,2168.5 L 3190.27,2155.41 L 3194.34,2142.88 L 3200.93,2131.48 L 3209.74,2121.69 L 3220.39,2113.95 L 3232.42,2108.59 L 3245.31,2105.86 L 3258.47,2105.86 L 3271.36,2108.59 L 3283.39,2113.95 L 3294.04,2121.69 L 3302.85,2131.48 L 3309.44,2142.88 L 3313.51,2155.41 L 3314.88,2168.5 L 3313.51,2181.6 L 3309.44,2194.13 L 3302.85,2205.53 L 3294.04,2215.32 L 3283.39,2223.06 L 3271.36,2228.41 L 3258.47,2231.15 L 3245.31,2231.15 L 3232.42,2228.41 L 3220.39,2223.06 L 3209.74,2215.32 L 3200.93,2205.53 L 3194.34,2194.13 L 3190.27,2181.6 L 3188.9,2168.5 z " style="fill-opacity:1.000000;fill:rgb(255,52,161);stroke:rgb(0,0,0);stroke-width:2"/></g>
<g fill-rule="evenodd"><path d="M 3188.9,968.504 L 3190.27,955.407 L 3194.34,942.883 L 3200.93,931.478 L 3209.74,921.692 L 3220.39,913.951 L 3232.42,908.595 L 3245.31,905.857 L 3258.47,905.857 L 3271.36,908.595 L 3283.39,913.951 L 3294.04,921.692 L 3302.85,931.478 L 3309.44,942.883 L 3313.51,955.407 L 3314.88,968.504 L 3313.51,981.601 L 3309.44,994.125 L 3302.85,1005.53 L 3294.04,1015.32 L 3283.39,1023.06 L 3271.36,1028.41 L 3258.47,1031.15 L 3245.31,1031.15 L 3232.42,1028.41 L 3220.39,1023.06 L 3209.74,1015.32 L 3200.93,1005.53 L 3194.34,994.125 L 3190.27,981.601 L 3188.9,968.504 z " style="fill-opacity:1.000000;fill:rgb(30,25,253);stroke:rgb(0,0,0);stroke-width:2"/></g>
<g fill-rule="evenodd"><path d="M 3291.26,3803.15 L 3292.77,3787.79 L 3297.25,3773.02 L 3304.53,3759.4 L 3314.32,3747.47 L 3326.25,3737.68 L 3339.87,3730.4 L 3354.64,3725.92 L 3370,3724.41 L 3560.06,3724.41 L 3570.47,3718.03 L 3581.89,3713.3 L 3593.9,3710.42 L 3606.22,3709.45 L 3903.53,3709.45 L 3960.55,3652.42 L 3960.55,3610.04 L 4016.59,3610.04 L 4023.93,3607.81 L 4039.29,3606.3 L 4054.65,3607.81 L 4061.99,3610.04 L 4118.03,3610.04 L 4118.03,3760.04 L 4075.64,3760.04 L 3991.82,3843.87 L 3979.89,3853.66 L 3966.27,3860.93 L 3951.5,3865.41 L 3936.14,3866.93 L 3637.42,3866.93 L 3627.01,3873.31 L 3615.59,3878.04 L 3603.58,3880.92 L 3591.26,3881.89 L 3370,3881.89 L 3354.64,3880.38 L 3339.87,3875.9 L 3326.25,3868.62 L 3314.32,3858.83 L 3304.53,3846.89 L 3297.25,3833.28 L 3292.77,3818.51 L 3291.26,3803.15 z " style="fill-opacity:1.000000;fill:rgb(54,80,233);stroke:rgb(0,0,0);stroke-width:2"/></g>
<g fill-rule="evenodd"><path d="M 3960.55,4396.85 L 3960.96,4389.01 L 3961.63,4385.86 L 3962.06,4381.49 L 3964.22,4373.67 L 3966.54,4366.72 L 3973.82,4353.1 L 3983.61,4341.17 L 3995.54,4331.38 L 4009.16,4324.1 L 4023.93,4319.62 L 4039.29,4318.11 L 4206.68,4318.11 L 4395.48,4129.3 L 4403.74,4117.94 L 4414.38,4108.36 L 4421.09,4104.48 L 4428.62,4098.31 L 4442.23,4091.03 L 4457,4086.55 L 4472.36,4085.04 L 4487.72,4086.55 L 4502.49,4091.03 L 4516.11,4098.31 L 4523.63,4104.48 L 4530.34,4108.36 L 4540.99,4117.94 L 4549.4,4129.53 L 4555.23,4142.61 L 4558.21,4156.62 L 4558.21,4170.94 L 4555.23,4184.95 L 4551.1,4194.22 L 4551.1,4203.6 L 4626.24,4278.74 L 5023.54,4278.74 L 5038.9,4280.25 L 5053.67,4284.73 L 5067.29,4292.01 L 5079.22,4301.8 L 5089.01,4313.73 L 5096.29,4327.35 L 5100.77,4342.12 L 5102.28,4357.48 L 5100.77,4372.84 L 5096.29,4387.61 L 5089.01,4401.22 L 5079.22,4413.16 L 5067.29,4422.95 L 5053.67,4430.23 L 5038.9,4434.71 L 5023.54,4436.22 L 4593.62,4436.22 L 4581.3,4435.25 L 4569.29,4432.37 L 4557.87,4427.64 L 4547.34,4421.18 L 4537.94,4413.16 L 4436.14,4311.35 L 4294.97,4452.53 L 4283.04,4462.32 L 4269.42,4469.6 L 4254.65,4474.08 L 4239.29,4475.59 L 4039.29,4475.59 L 4023.93,4474.08 L 4009.16,4469.6 L 3995.54,4462.32 L 3983.61,4452.53 L 3973.82,4440.59 L 3966.54,4426.98 L 3964.22,4420.03 L 3962.06,4412.21 L 3961.63,4407.85 L 3960.96,4404.69 L 3960.55,4396.85 z " style="fill-opacity:1.000000;fill:rgb(183,129,143);stroke:rgb(0,0,0);stroke-width:2"/></g>
<g fill-rule="evenodd"><path d="M 3960.55,3485.04 L 3960.96,3477.2 L 3961.63,3474.04 L 3962.06,3469.68 L 3964.22,3461.86 L 3966.54,3454.91 L 3973.82,3441.29 L 3983.61,3429.36 L 3995.54,3419.57 L 4009.16,3412.29 L 4023.93,3407.81 L 4039.29,3406.3 L 4272.36,3406.3 L 4287.72,3407.81 L 4302.49,3412.29 L 4316.11,3419.57 L 4328.04,3429.36 L 4373.94,3475.26 L 4380.46,3468.73 L 4392.39,3458.94 L 4406.01,3451.66 L 4420.78,3447.18 L 4436.14,3445.67 L 5023.54,3445.67 L 5038.9,3447.18 L 5053.67,3451.66 L 5067.29,3458.94 L 5079.22,3468.73 L 5089.01,3480.66 L 5096.29,3494.28 L 5100.77,3509.05 L 5102.28,3524.41 L 5100.77,3539.77 L 5096.29,3554.54 L 5089.01,3568.15 L 5079.22,3580.09 L 5067.29,3589.88 L 5053.67,3597.16 L 5038.9,3601.64 L 5023.54,3603.15 L 4501.83,3603.15 L 4528.04,3629.36 L 4537.83,3641.29 L 4545.11,3654.91 L 4549.59,3669.68 L 4551.1,3685.04 L 4551.1,3699.63 L 4554.82,3703.39 L 4556.88,3706.95 L 4558.15,3710.87 L 4558.58,3714.96 L 4558.58,3812.6 L 4558.15,3816.69 L 4556.88,3820.61 L 4554.82,3824.17 L 4552.07,3827.23 L 4548.74,3829.65 L 4544.98,3831.32 L 4540.96,3832.18 L 4538.9,3832.28 L 4510.43,3832.28 L 4502.49,3836.53 L 4487.72,3841.01 L 4472.36,3842.52 L 4457,3841.01 L 4442.23,3836.53 L 4434.29,3832.28 L 4405.83,3832.28 L 4403.77,3832.18 L 4399.74,3831.32 L 4395.98,3829.65 L 4392.65,3827.23 L 4389.9,3824.17 L 4387.84,3820.61 L 4386.57,3816.69 L 4386.14,3812.6 L 4386.14,3714.96 L 4386.64,3710.67 L 4239.75,3563.78 L 4039.29,3563.78 L 4023.93,3562.27 L 4009.16,3557.79 L 3995.54,3550.51 L 3983.61,3540.72 L 3973.82,3528.78 L 3966.54,3515.17 L 3964.22,3508.22 L 3962.06,3500.4 L 3961.63,3496.04 L 3960.96,3492.88 L 3960.55,3485.04 z " style="fill-opacity:1.000000;fill:rgb(195,58,30);stroke:rgb(0,0,0);stroke-width:2"/></g>
</svg>
