%TF.GenerationSoftware,KiCad,Pcbnew,9.0.6*%
%TF.CreationDate,2025-12-12T16:48:18+01:00*%
%TF.ProjectId,oppakkerV3-mosfeds,6f707061-6b6b-4657-9256-332d6d6f7366,rev?*%
%TF.SameCoordinates,Original*%
%TF.FileFunction,Copper,L2,Bot*%
%TF.FilePolarity,Positive*%
%FSLAX46Y46*%
G04 Gerber Fmt 4.6, Leading zero omitted, Abs format (unit mm)*
G04 Created by KiCad (PCBNEW 9.0.6) date 2025-12-12 16:48:18*
%MOMM*%
%LPD*%
G01*
G04 APERTURE LIST*
G04 Aperture macros list*
%AMRoundRect*
0 Rectangle with rounded corners*
0 $1 Rounding radius*
0 $2 $3 $4 $5 $6 $7 $8 $9 X,Y pos of 4 corners*
0 Add a 4 corners polygon primitive as box body*
4,1,4,$2,$3,$4,$5,$6,$7,$8,$9,$2,$3,0*
0 Add four circle primitives for the rounded corners*
1,1,$1+$1,$2,$3*
1,1,$1+$1,$4,$5*
1,1,$1+$1,$6,$7*
1,1,$1+$1,$8,$9*
0 Add four rect primitives between the rounded corners*
20,1,$1+$1,$2,$3,$4,$5,0*
20,1,$1+$1,$4,$5,$6,$7,0*
20,1,$1+$1,$6,$7,$8,$9,0*
20,1,$1+$1,$8,$9,$2,$3,0*%
G04 Aperture macros list end*
%TA.AperFunction,ComponentPad*%
%ADD10C,1.400000*%
%TD*%
%TA.AperFunction,ComponentPad*%
%ADD11O,1.900000X3.200000*%
%TD*%
%TA.AperFunction,ComponentPad*%
%ADD12R,2.000000X1.905000*%
%TD*%
%TA.AperFunction,ComponentPad*%
%ADD13O,2.000000X1.905000*%
%TD*%
%TA.AperFunction,ComponentPad*%
%ADD14RoundRect,0.250000X-0.845000X0.620000X-0.845000X-0.620000X0.845000X-0.620000X0.845000X0.620000X0*%
%TD*%
%TA.AperFunction,ComponentPad*%
%ADD15O,2.190000X1.740000*%
%TD*%
%TA.AperFunction,ComponentPad*%
%ADD16RoundRect,0.250000X0.845000X-0.620000X0.845000X0.620000X-0.845000X0.620000X-0.845000X-0.620000X0*%
%TD*%
%TA.AperFunction,ComponentPad*%
%ADD17C,1.800000*%
%TD*%
%TA.AperFunction,ComponentPad*%
%ADD18R,1.800000X1.800000*%
%TD*%
%TA.AperFunction,ComponentPad*%
%ADD19R,2.000000X2.000000*%
%TD*%
%TA.AperFunction,ComponentPad*%
%ADD20C,2.000000*%
%TD*%
%TA.AperFunction,Conductor*%
%ADD21C,2.000000*%
%TD*%
G04 APERTURE END LIST*
D10*
%TO.P,R7,2*%
%TO.N,Net-(J3-Pin_2)*%
X182190000Y-60000000D03*
%TO.P,R7,1*%
%TO.N,Net-(Q3-G)*%
X189810000Y-60000000D03*
%TD*%
D11*
%TO.P,SW1,1,1*%
%TO.N,/GND*%
X175000000Y-80500000D03*
X175000000Y-93000000D03*
%TO.P,SW1,2,2*%
%TO.N,Net-(J3-Pin_3)*%
X170000000Y-80500000D03*
X170000000Y-93000000D03*
%TD*%
D10*
%TO.P,R12,1*%
%TO.N,/+48V*%
X203500000Y-68190000D03*
%TO.P,R12,2*%
%TO.N,Net-(D4-A)*%
X203500000Y-75810000D03*
%TD*%
%TO.P,R11,1*%
%TO.N,Net-(Q4-G)*%
X188810000Y-79000000D03*
%TO.P,R11,2*%
%TO.N,/GND*%
X181190000Y-79000000D03*
%TD*%
%TO.P,R10,1*%
%TO.N,Net-(Q4-G)*%
X188810000Y-73000000D03*
%TO.P,R10,2*%
%TO.N,Net-(J3-Pin_1)*%
X181190000Y-73000000D03*
%TD*%
%TO.P,R9,1*%
%TO.N,/+48V*%
X203500000Y-64810000D03*
%TO.P,R9,2*%
%TO.N,Net-(D3-A)*%
X203500000Y-57190000D03*
%TD*%
%TO.P,R8,1*%
%TO.N,Net-(Q3-G)*%
X189810000Y-66000000D03*
%TO.P,R8,2*%
%TO.N,/GND*%
X182190000Y-66000000D03*
%TD*%
%TO.P,R6,1*%
%TO.N,/+48V*%
X203500000Y-44690000D03*
%TO.P,R6,2*%
%TO.N,Net-(D2-A)*%
X203500000Y-52310000D03*
%TD*%
%TO.P,R5,1*%
%TO.N,Net-(Q2-G)*%
X189000000Y-51500000D03*
%TO.P,R5,2*%
%TO.N,Net-(J3-Pin_5)*%
X181380000Y-51500000D03*
%TD*%
%TO.P,R4,1*%
%TO.N,Net-(Q2-G)*%
X189120000Y-44500000D03*
%TO.P,R4,2*%
%TO.N,/GND*%
X181500000Y-44500000D03*
%TD*%
%TO.P,R3,1*%
%TO.N,/+48V*%
X203500000Y-38310000D03*
%TO.P,R3,2*%
%TO.N,Net-(D1-A)*%
X203500000Y-30690000D03*
%TD*%
%TO.P,R2,1*%
%TO.N,Net-(Q1-G)*%
X189620000Y-38500000D03*
%TO.P,R2,2*%
%TO.N,Net-(J3-Pin_6)*%
X182000000Y-38500000D03*
%TD*%
%TO.P,R1,1*%
%TO.N,Net-(Q1-G)*%
X189620000Y-33000000D03*
%TO.P,R1,2*%
%TO.N,/GND*%
X182000000Y-33000000D03*
%TD*%
D12*
%TO.P,Q4,1,G*%
%TO.N,Net-(Q4-G)*%
X196000000Y-77080000D03*
D13*
%TO.P,Q4,2,D*%
%TO.N,Net-(D4-K)*%
X196000000Y-74540000D03*
%TO.P,Q4,3,S*%
%TO.N,/GND*%
X196000000Y-72000000D03*
%TD*%
D12*
%TO.P,Q3,1,G*%
%TO.N,Net-(Q3-G)*%
X196000000Y-65040000D03*
D13*
%TO.P,Q3,2,D*%
%TO.N,Net-(D3-K)*%
X196000000Y-62500000D03*
%TO.P,Q3,3,S*%
%TO.N,/GND*%
X196000000Y-59960000D03*
%TD*%
D12*
%TO.P,Q2,1,G*%
%TO.N,Net-(Q2-G)*%
X196000000Y-50580000D03*
D13*
%TO.P,Q2,2,D*%
%TO.N,Net-(D2-K)*%
X196000000Y-48040000D03*
%TO.P,Q2,3,S*%
%TO.N,/GND*%
X196000000Y-45500000D03*
%TD*%
D12*
%TO.P,Q1,1,G*%
%TO.N,Net-(Q1-G)*%
X196000000Y-37540000D03*
D13*
%TO.P,Q1,2,D*%
%TO.N,Net-(D1-K)*%
X196000000Y-35000000D03*
%TO.P,Q1,3,S*%
%TO.N,/GND*%
X196000000Y-32460000D03*
%TD*%
D14*
%TO.P,J5,1,Pin_1*%
%TO.N,/+3.3V*%
X167500000Y-32000000D03*
D15*
%TO.P,J5,2,Pin_2*%
%TO.N,/GND*%
X167500000Y-34540000D03*
%TD*%
D14*
%TO.P,J4,1,Pin_1*%
%TO.N,/+48V*%
X176500000Y-29500000D03*
D15*
%TO.P,J4,2,Pin_2*%
%TO.N,/+3.3V*%
X176500000Y-32040000D03*
%TO.P,J4,3,Pin_3*%
%TO.N,/GND*%
X176500000Y-34580000D03*
%TD*%
D16*
%TO.P,J3,1,Pin_1*%
%TO.N,Net-(J3-Pin_1)*%
X172500000Y-75040000D03*
D15*
%TO.P,J3,2,Pin_2*%
%TO.N,Net-(J3-Pin_2)*%
X172500000Y-72500000D03*
%TO.P,J3,3,Pin_3*%
%TO.N,Net-(J3-Pin_3)*%
X172500000Y-69960000D03*
%TO.P,J3,4,Pin_4*%
%TO.N,Net-(BZ1--)*%
X172500000Y-67420000D03*
%TO.P,J3,5,Pin_5*%
%TO.N,Net-(J3-Pin_5)*%
X172500000Y-64880000D03*
%TO.P,J3,6,Pin_6*%
%TO.N,Net-(J3-Pin_6)*%
X172500000Y-62340000D03*
%TD*%
D14*
%TO.P,J2,1,Pin_1*%
%TO.N,Net-(D3-K)*%
X211000000Y-64460000D03*
D15*
%TO.P,J2,2,Pin_2*%
%TO.N,/+48V*%
X211000000Y-67000000D03*
%TO.P,J2,3,Pin_3*%
%TO.N,Net-(D4-K)*%
X211000000Y-69540000D03*
%TD*%
D16*
%TO.P,J1,1,Pin_1*%
%TO.N,Net-(D2-K)*%
X211000000Y-44580000D03*
D15*
%TO.P,J1,2,Pin_2*%
%TO.N,/+48V*%
X211000000Y-42040000D03*
%TO.P,J1,3,Pin_3*%
%TO.N,Net-(D1-K)*%
X211000000Y-39500000D03*
%TD*%
D17*
%TO.P,D4,2,A*%
%TO.N,Net-(D4-A)*%
X211000000Y-77040000D03*
D18*
%TO.P,D4,1,K*%
%TO.N,Net-(D4-K)*%
X211000000Y-74500000D03*
%TD*%
%TO.P,D3,1,K*%
%TO.N,Net-(D3-K)*%
X211000000Y-59500000D03*
D17*
%TO.P,D3,2,A*%
%TO.N,Net-(D3-A)*%
X211000000Y-56960000D03*
%TD*%
D18*
%TO.P,D2,1,K*%
%TO.N,Net-(D2-K)*%
X211000000Y-49000000D03*
D17*
%TO.P,D2,2,A*%
%TO.N,Net-(D2-A)*%
X211000000Y-51540000D03*
%TD*%
D18*
%TO.P,D1,1,K*%
%TO.N,Net-(D1-K)*%
X209960000Y-34000000D03*
D17*
%TO.P,D1,2,A*%
%TO.N,Net-(D1-A)*%
X212500000Y-34000000D03*
%TD*%
D19*
%TO.P,BZ1,1,+*%
%TO.N,/GND*%
X175000000Y-47000000D03*
D20*
%TO.P,BZ1,2,-*%
%TO.N,Net-(BZ1--)*%
X167400000Y-47000000D03*
%TD*%
D21*
%TO.N,/+48V*%
X215000000Y-67000000D02*
X215500000Y-66500000D01*
X211000000Y-67000000D02*
X215000000Y-67000000D01*
X215500000Y-66500000D02*
X215460000Y-66460000D01*
X215460000Y-66460000D02*
X215460000Y-42040000D01*
%TO.N,/+3.3V*%
X167500000Y-32000000D02*
X176460000Y-32000000D01*
X176460000Y-32000000D02*
X176500000Y-32040000D01*
%TO.N,/GND*%
X167500000Y-34540000D02*
X176460000Y-34540000D01*
X176460000Y-34540000D02*
X176500000Y-34580000D01*
%TO.N,Net-(BZ1--)*%
X172500000Y-67420000D02*
X169920000Y-67420000D01*
X169920000Y-67420000D02*
X167000000Y-64500000D01*
X167000000Y-64500000D02*
X167000000Y-51000000D01*
X167000000Y-51000000D02*
X167400000Y-50600000D01*
X167400000Y-50600000D02*
X167400000Y-47000000D01*
%TO.N,Net-(J3-Pin_5)*%
X172500000Y-64880000D02*
X174620000Y-64880000D01*
X174620000Y-64880000D02*
X175500000Y-64000000D01*
X175500000Y-64000000D02*
X175500000Y-56500000D01*
X175500000Y-56500000D02*
X177000000Y-55000000D01*
X177000000Y-55000000D02*
X177880000Y-55000000D01*
X177880000Y-55000000D02*
X181380000Y-51500000D01*
%TO.N,Net-(J3-Pin_6)*%
X179500000Y-38500000D02*
X177000000Y-41000000D01*
X172500000Y-52500000D02*
X172500000Y-62340000D01*
X172000000Y-52000000D02*
X172500000Y-52500000D01*
X177000000Y-41000000D02*
X172000000Y-41000000D01*
X172000000Y-41000000D02*
X172000000Y-52000000D01*
X182000000Y-38500000D02*
X179500000Y-38500000D01*
%TO.N,/GND*%
X186000000Y-42000000D02*
X186000000Y-33000000D01*
X182000000Y-33000000D02*
X186000000Y-33000000D01*
X176500000Y-34580000D02*
X180420000Y-34580000D01*
X180420000Y-34580000D02*
X182000000Y-33000000D01*
X181500000Y-44500000D02*
X177500000Y-44500000D01*
X177500000Y-44500000D02*
X175000000Y-47000000D01*
X186000000Y-56500000D02*
X186000000Y-44500000D01*
X181500000Y-44500000D02*
X186000000Y-44500000D01*
%TO.N,Net-(Q2-G)*%
X196000000Y-50580000D02*
X190000000Y-50580000D01*
X189120000Y-49700000D02*
X190000000Y-50580000D01*
X189120000Y-44500000D02*
X189120000Y-49700000D01*
%TO.N,/GND*%
X186000000Y-31000000D02*
X186500000Y-30500000D01*
X194040000Y-30500000D02*
X196000000Y-32460000D01*
X186000000Y-33000000D02*
X186000000Y-31000000D01*
X186500000Y-30500000D02*
X194040000Y-30500000D01*
%TO.N,Net-(Q1-G)*%
X189620000Y-33000000D02*
X189620000Y-36580000D01*
X189620000Y-36580000D02*
X190580000Y-37540000D01*
X196000000Y-37540000D02*
X190580000Y-37540000D01*
X190580000Y-37540000D02*
X189620000Y-38500000D01*
%TO.N,/GND*%
X186000000Y-44500000D02*
X186000000Y-42000000D01*
X186000000Y-42000000D02*
X195500000Y-42000000D01*
X195500000Y-42000000D02*
X195500000Y-45000000D01*
X195500000Y-45000000D02*
X196000000Y-45500000D01*
%TO.N,Net-(Q2-G)*%
X190000000Y-50580000D02*
X189920000Y-50580000D01*
X189920000Y-50580000D02*
X189000000Y-51500000D01*
%TO.N,/GND*%
X185000000Y-68810000D02*
X186000000Y-67810000D01*
X195500000Y-55500000D02*
X195500000Y-56000000D01*
X186000000Y-67810000D02*
X186000000Y-56500000D01*
X195500000Y-56000000D02*
X196000000Y-56500000D01*
X186000000Y-56500000D02*
X187000000Y-55500000D01*
X187000000Y-55500000D02*
X195500000Y-55500000D01*
X196000000Y-56500000D02*
X196000000Y-59960000D01*
%TO.N,Net-(J3-Pin_2)*%
X177000000Y-72500000D02*
X178500000Y-71000000D01*
X178500000Y-71000000D02*
X178500000Y-63690000D01*
X178500000Y-63690000D02*
X182190000Y-60000000D01*
X172500000Y-72500000D02*
X177000000Y-72500000D01*
%TO.N,Net-(J3-Pin_3)*%
X170000000Y-80500000D02*
X168000000Y-78500000D01*
X168000000Y-78500000D02*
X168000000Y-71365000D01*
X168000000Y-71365000D02*
X169405000Y-69960000D01*
X169405000Y-69960000D02*
X172500000Y-69960000D01*
X170000000Y-93000000D02*
X170000000Y-80500000D01*
%TO.N,/GND*%
X175000000Y-93000000D02*
X175000000Y-80500000D01*
X175000000Y-80500000D02*
X179690000Y-80500000D01*
X179690000Y-80500000D02*
X181190000Y-79000000D01*
%TO.N,Net-(J3-Pin_1)*%
X172500000Y-75040000D02*
X179150000Y-75040000D01*
X179150000Y-75040000D02*
X181190000Y-73000000D01*
%TO.N,Net-(Q3-G)*%
X189810000Y-60000000D02*
X189810000Y-66000000D01*
X196000000Y-65040000D02*
X196000000Y-66000000D01*
X196000000Y-66000000D02*
X189810000Y-66000000D01*
%TO.N,/GND*%
X185000000Y-68810000D02*
X185000000Y-70000000D01*
X194000000Y-70000000D02*
X185000000Y-70000000D01*
X196000000Y-72000000D02*
X194000000Y-70000000D01*
%TO.N,Net-(Q4-G)*%
X188810000Y-73000000D02*
X188810000Y-79000000D01*
%TO.N,/GND*%
X182190000Y-66000000D02*
X185000000Y-68810000D01*
X185000000Y-70000000D02*
X185000000Y-75190000D01*
X185000000Y-75190000D02*
X181190000Y-79000000D01*
%TO.N,Net-(Q4-G)*%
X188810000Y-79000000D02*
X194080000Y-79000000D01*
X194080000Y-79000000D02*
X196000000Y-77080000D01*
%TO.N,Net-(D4-K)*%
X211000000Y-74500000D02*
X211000000Y-72000000D01*
X198960000Y-74540000D02*
X201500000Y-72000000D01*
X196000000Y-74540000D02*
X198960000Y-74540000D01*
X201500000Y-72000000D02*
X211000000Y-72000000D01*
%TO.N,/+48V*%
X211000000Y-42040000D02*
X215460000Y-42040000D01*
X215500000Y-42000000D02*
X215500000Y-29000000D01*
X215500000Y-29000000D02*
X214000000Y-27500000D01*
X215460000Y-42040000D02*
X215500000Y-42000000D01*
X214000000Y-27500000D02*
X178500000Y-27500000D01*
X178500000Y-27500000D02*
X176500000Y-29500000D01*
%TO.N,Net-(D1-K)*%
X209960000Y-34000000D02*
X207500000Y-34000000D01*
X207500000Y-34000000D02*
X206500000Y-35000000D01*
X206500000Y-35000000D02*
X196000000Y-35000000D01*
%TO.N,Net-(D1-A)*%
X212500000Y-31000000D02*
X212000000Y-30500000D01*
X212500000Y-34000000D02*
X212500000Y-31000000D01*
X212000000Y-30500000D02*
X211810000Y-30690000D01*
X211810000Y-30690000D02*
X203500000Y-30690000D01*
%TO.N,Net-(D1-K)*%
X211000000Y-39500000D02*
X209960000Y-38460000D01*
X209960000Y-38460000D02*
X209960000Y-34000000D01*
%TO.N,/+48V*%
X206150000Y-42040000D02*
X203845000Y-44345000D01*
X203500000Y-38310000D02*
X203500000Y-44000000D01*
X203500000Y-44000000D02*
X203845000Y-44345000D01*
X211000000Y-42040000D02*
X206150000Y-42040000D01*
X203845000Y-44345000D02*
X203500000Y-44690000D01*
%TO.N,Net-(D2-K)*%
X211000000Y-44580000D02*
X211000000Y-49000000D01*
X211000000Y-49000000D02*
X207500000Y-49000000D01*
X207500000Y-49000000D02*
X206540000Y-48040000D01*
X206540000Y-48040000D02*
X196000000Y-48040000D01*
%TO.N,Net-(D2-A)*%
X211000000Y-51540000D02*
X210040000Y-52500000D01*
X210040000Y-52500000D02*
X207500000Y-52500000D01*
X207310000Y-52310000D02*
X203500000Y-52310000D01*
X207500000Y-52500000D02*
X207310000Y-52310000D01*
%TO.N,Net-(D3-A)*%
X203500000Y-57190000D02*
X204690000Y-56000000D01*
X204690000Y-56000000D02*
X210040000Y-56000000D01*
X210040000Y-56000000D02*
X211000000Y-56960000D01*
%TO.N,Net-(D3-K)*%
X211000000Y-59500000D02*
X209000000Y-61500000D01*
X209000000Y-61500000D02*
X206500000Y-61500000D01*
X200000000Y-62500000D02*
X196000000Y-62500000D01*
X206500000Y-61500000D02*
X200000000Y-61500000D01*
X211000000Y-64460000D02*
X209460000Y-64460000D01*
X200000000Y-61500000D02*
X200000000Y-62500000D01*
X209460000Y-64460000D02*
X206500000Y-61500000D01*
%TO.N,/+48V*%
X203500000Y-64810000D02*
X203500000Y-65810000D01*
X203500000Y-65810000D02*
X204690000Y-67000000D01*
X211000000Y-67000000D02*
X204690000Y-67000000D01*
X204690000Y-67000000D02*
X203500000Y-68190000D01*
%TO.N,Net-(D4-K)*%
X211000000Y-72000000D02*
X211000000Y-69540000D01*
%TO.N,Net-(D4-A)*%
X203500000Y-75810000D02*
X204730000Y-77040000D01*
X204730000Y-77040000D02*
X211000000Y-77040000D01*
%TD*%
M02*
