%TF.GenerationSoftware,KiCad,Pcbnew,9.0.6*%
%TF.CreationDate,2025-12-17T13:18:16+01:00*%
%TF.ProjectId,oppakkerV4,6f707061-6b6b-4657-9256-342e6b696361,rev?*%
%TF.SameCoordinates,Original*%
%TF.FileFunction,Copper,L1,Top*%
%TF.FilePolarity,Positive*%
%FSLAX46Y46*%
G04 Gerber Fmt 4.6, Leading zero omitted, Abs format (unit mm)*
G04 Created by KiCad (PCBNEW 9.0.6) date 2025-12-17 13:18:16*
%MOMM*%
%LPD*%
G01*
G04 APERTURE LIST*
G04 Aperture macros list*
%AMRoundRect*
0 Rectangle with rounded corners*
0 $1 Rounding radius*
0 $2 $3 $4 $5 $6 $7 $8 $9 X,Y pos of 4 corners*
0 Add a 4 corners polygon primitive as box body*
4,1,4,$2,$3,$4,$5,$6,$7,$8,$9,$2,$3,0*
0 Add four circle primitives for the rounded corners*
1,1,$1+$1,$2,$3*
1,1,$1+$1,$4,$5*
1,1,$1+$1,$6,$7*
1,1,$1+$1,$8,$9*
0 Add four rect primitives between the rounded corners*
20,1,$1+$1,$2,$3,$4,$5,0*
20,1,$1+$1,$4,$5,$6,$7,0*
20,1,$1+$1,$6,$7,$8,$9,0*
20,1,$1+$1,$8,$9,$2,$3,0*%
G04 Aperture macros list end*
%TA.AperFunction,ComponentPad*%
%ADD10RoundRect,0.250000X0.620000X0.845000X-0.620000X0.845000X-0.620000X-0.845000X0.620000X-0.845000X0*%
%TD*%
%TA.AperFunction,ComponentPad*%
%ADD11O,1.740000X2.190000*%
%TD*%
%TA.AperFunction,ComponentPad*%
%ADD12O,3.200000X1.900000*%
%TD*%
%TA.AperFunction,ComponentPad*%
%ADD13R,2.000000X2.000000*%
%TD*%
%TA.AperFunction,ComponentPad*%
%ADD14C,2.000000*%
%TD*%
%TA.AperFunction,ComponentPad*%
%ADD15C,1.600000*%
%TD*%
%TA.AperFunction,ComponentPad*%
%ADD16RoundRect,0.250000X0.750000X0.750000X-0.750000X0.750000X-0.750000X-0.750000X0.750000X-0.750000X0*%
%TD*%
%TA.AperFunction,ComponentPad*%
%ADD17C,1.400000*%
%TD*%
%TA.AperFunction,ComponentPad*%
%ADD18RoundRect,0.250000X0.650000X-0.650000X0.650000X0.650000X-0.650000X0.650000X-0.650000X-0.650000X0*%
%TD*%
%TA.AperFunction,ComponentPad*%
%ADD19C,1.800000*%
%TD*%
%TA.AperFunction,ComponentPad*%
%ADD20R,2.000000X1.905000*%
%TD*%
%TA.AperFunction,ComponentPad*%
%ADD21O,2.000000X1.905000*%
%TD*%
%TA.AperFunction,ComponentPad*%
%ADD22RoundRect,0.250000X0.845000X-0.620000X0.845000X0.620000X-0.845000X0.620000X-0.845000X-0.620000X0*%
%TD*%
%TA.AperFunction,ComponentPad*%
%ADD23O,2.190000X1.740000*%
%TD*%
%TA.AperFunction,ComponentPad*%
%ADD24RoundRect,0.250000X-0.650000X0.650000X-0.650000X-0.650000X0.650000X-0.650000X0.650000X0.650000X0*%
%TD*%
%TA.AperFunction,ComponentPad*%
%ADD25RoundRect,0.250000X-0.845000X0.620000X-0.845000X-0.620000X0.845000X-0.620000X0.845000X0.620000X0*%
%TD*%
%TA.AperFunction,ComponentPad*%
%ADD26R,1.600000X1.600000*%
%TD*%
%TA.AperFunction,ComponentPad*%
%ADD27O,1.600000X1.600000*%
%TD*%
%TA.AperFunction,Conductor*%
%ADD28C,2.000000*%
%TD*%
G04 APERTURE END LIST*
D10*
%TO.P,J3,1,Pin_1*%
%TO.N,/GND*%
X91500000Y-156000000D03*
D11*
%TO.P,J3,2,Pin_2*%
%TO.N,/+48V*%
X88960000Y-156000000D03*
%TD*%
D12*
%TO.P,SW1,1,1*%
%TO.N,/GND*%
X135000000Y-123000000D03*
X147500000Y-123000000D03*
%TO.P,SW1,2,2*%
%TO.N,Net-(A1-D6)*%
X135000000Y-128000000D03*
X147500000Y-128000000D03*
%TD*%
D13*
%TO.P,BZ1,1,+*%
%TO.N,Net-(A1-D7)*%
X144000000Y-150900000D03*
D14*
%TO.P,BZ1,2,-*%
%TO.N,/GND*%
X144000000Y-158500000D03*
%TD*%
D15*
%TO.P,C1,1*%
%TO.N,/+3.3V*%
X108250000Y-129000000D03*
%TO.P,C1,2*%
%TO.N,/GND*%
X105750000Y-129000000D03*
%TD*%
D10*
%TO.P,J6,1,Pin_1*%
%TO.N,/+3.3V*%
X95040000Y-124000000D03*
D11*
%TO.P,J6,2,Pin_2*%
%TO.N,/GND*%
X92500000Y-124000000D03*
%TO.P,J6,3,Pin_3*%
%TO.N,/+48V*%
X89960000Y-124000000D03*
%TO.P,J6,4,Pin_4*%
%TO.N,unconnected-(J6-Pin_4-Pad4)*%
X87420000Y-124000000D03*
%TD*%
D16*
%TO.P,C2,1*%
%TO.N,/+3.3V*%
X117000000Y-124257500D03*
D14*
%TO.P,C2,2*%
%TO.N,/GND*%
X102000000Y-124257500D03*
%TD*%
D17*
%TO.P,R4,1*%
%TO.N,Net-(Q2-G)*%
X107500000Y-171500000D03*
%TO.P,R4,2*%
%TO.N,/GND*%
X107500000Y-179120000D03*
%TD*%
D18*
%TO.P,D1,1,K*%
%TO.N,/+48V*%
X147500000Y-167000000D03*
D19*
%TO.P,D1,2,A*%
%TO.N,Net-(D1-A)*%
X147500000Y-164460000D03*
%TD*%
D17*
%TO.P,R5,1*%
%TO.N,Net-(Q2-G)*%
X111000000Y-167810000D03*
%TO.P,R5,2*%
%TO.N,Net-(A1-D3)*%
X111000000Y-160190000D03*
%TD*%
D20*
%TO.P,Q2,1,G*%
%TO.N,Net-(Q2-G)*%
X102000000Y-172810000D03*
D21*
%TO.P,Q2,2,D*%
%TO.N,Net-(D2-A)*%
X102000000Y-175350000D03*
%TO.P,Q2,3,S*%
%TO.N,/GND*%
X102000000Y-177890000D03*
%TD*%
D22*
%TO.P,J1,1,Pin_1*%
%TO.N,Net-(D2-A)*%
X96000000Y-172080000D03*
D23*
%TO.P,J1,2,Pin_2*%
%TO.N,/+48V*%
X96000000Y-169540000D03*
%TO.P,J1,3,Pin_3*%
%TO.N,Net-(D3-A)*%
X96000000Y-167000000D03*
%TD*%
D24*
%TO.P,D4,1,K*%
%TO.N,/+48V*%
X147500000Y-172500000D03*
D19*
%TO.P,D4,2,A*%
%TO.N,Net-(D4-A)*%
X147500000Y-175040000D03*
%TD*%
D17*
%TO.P,R7,1*%
%TO.N,Net-(Q3-G)*%
X126500000Y-168000000D03*
%TO.P,R7,2*%
%TO.N,Net-(A1-D5)*%
X126500000Y-160380000D03*
%TD*%
%TO.P,R2,1*%
%TO.N,Net-(Q1-G)*%
X99000000Y-158310000D03*
%TO.P,R2,2*%
%TO.N,Net-(A1-D2)*%
X99000000Y-150690000D03*
%TD*%
D20*
%TO.P,Q4,1,G*%
%TO.N,Net-(Q4-G)*%
X135000000Y-178080000D03*
D21*
%TO.P,Q4,2,D*%
%TO.N,Net-(D4-A)*%
X135000000Y-175540000D03*
%TO.P,Q4,3,S*%
%TO.N,/GND*%
X135000000Y-173000000D03*
%TD*%
D25*
%TO.P,J2,1,Pin_1*%
%TO.N,Net-(D1-A)*%
X140500000Y-167500000D03*
D23*
%TO.P,J2,2,Pin_2*%
%TO.N,/+48V*%
X140500000Y-170040000D03*
%TO.P,J2,3,Pin_3*%
%TO.N,Net-(D4-A)*%
X140500000Y-172580000D03*
%TD*%
D17*
%TO.P,R1,1*%
%TO.N,Net-(Q1-G)*%
X107500000Y-160380000D03*
%TO.P,R1,2*%
%TO.N,/GND*%
X107500000Y-168000000D03*
%TD*%
%TO.P,R11,1*%
%TO.N,Net-(Q4-G)*%
X129500000Y-179310000D03*
%TO.P,R11,2*%
%TO.N,/GND*%
X129500000Y-171690000D03*
%TD*%
D20*
%TO.P,Q1,1,G*%
%TO.N,Net-(Q1-G)*%
X102000000Y-161920000D03*
D21*
%TO.P,Q1,2,D*%
%TO.N,Net-(D3-A)*%
X102000000Y-164460000D03*
%TO.P,Q1,3,S*%
%TO.N,/GND*%
X102000000Y-167000000D03*
%TD*%
D24*
%TO.P,D2,1,K*%
%TO.N,/+48V*%
X88500000Y-172500000D03*
D19*
%TO.P,D2,2,A*%
%TO.N,Net-(D2-A)*%
X88500000Y-175040000D03*
%TD*%
D17*
%TO.P,R8,1*%
%TO.N,Net-(Q3-G)*%
X129500000Y-167810000D03*
%TO.P,R8,2*%
%TO.N,/GND*%
X129500000Y-160190000D03*
%TD*%
D20*
%TO.P,Q3,1,G*%
%TO.N,Net-(Q3-G)*%
X135000000Y-166500000D03*
D21*
%TO.P,Q3,2,D*%
%TO.N,Net-(D1-A)*%
X135000000Y-163960000D03*
%TO.P,Q3,3,S*%
%TO.N,/GND*%
X135000000Y-161420000D03*
%TD*%
D26*
%TO.P,A1,1,D1/TX*%
%TO.N,unconnected-(A1-D1{slash}TX-Pad1)*%
X89440000Y-147240000D03*
D27*
%TO.P,A1,2,D0/RX*%
%TO.N,unconnected-(A1-D0{slash}RX-Pad2)*%
X91980000Y-147240000D03*
%TO.P,A1,3,~{RESET}*%
%TO.N,unconnected-(A1-~{RESET}-Pad3)*%
X94520000Y-147240000D03*
%TO.P,A1,4,GND*%
%TO.N,/GND*%
X97060000Y-147240000D03*
%TO.P,A1,5,D2*%
%TO.N,Net-(A1-D2)*%
X99600000Y-147240000D03*
%TO.P,A1,6,D3*%
%TO.N,Net-(A1-D3)*%
X102140000Y-147240000D03*
%TO.P,A1,7,D4*%
%TO.N,Net-(A1-D4)*%
X104680000Y-147240000D03*
%TO.P,A1,8,D5*%
%TO.N,Net-(A1-D5)*%
X107220000Y-147240000D03*
%TO.P,A1,9,D6*%
%TO.N,Net-(A1-D6)*%
X109760000Y-147240000D03*
%TO.P,A1,10,D7*%
%TO.N,Net-(A1-D7)*%
X112300000Y-147240000D03*
%TO.P,A1,11,D8*%
%TO.N,unconnected-(A1-D8-Pad11)*%
X114840000Y-147240000D03*
%TO.P,A1,12,D9*%
%TO.N,unconnected-(A1-D9-Pad12)*%
X117380000Y-147240000D03*
%TO.P,A1,13,D10*%
%TO.N,unconnected-(A1-D10-Pad13)*%
X119920000Y-147240000D03*
%TO.P,A1,14,D11*%
%TO.N,unconnected-(A1-D11-Pad14)*%
X122460000Y-147240000D03*
%TO.P,A1,15,D12*%
%TO.N,unconnected-(A1-D12-Pad15)*%
X125000000Y-147240000D03*
%TO.P,A1,16,D13*%
%TO.N,unconnected-(A1-D13-Pad16)*%
X125000000Y-132000000D03*
%TO.P,A1,17,3V3*%
%TO.N,/+3.3V*%
X122460000Y-132000000D03*
%TO.P,A1,18,AREF*%
%TO.N,unconnected-(A1-AREF-Pad18)*%
X119920000Y-132000000D03*
%TO.P,A1,19,A0*%
%TO.N,unconnected-(A1-A0-Pad19)*%
X117380000Y-132000000D03*
%TO.P,A1,20,A1*%
%TO.N,unconnected-(A1-A1-Pad20)*%
X114840000Y-132000000D03*
%TO.P,A1,21,A2*%
%TO.N,unconnected-(A1-A2-Pad21)*%
X112300000Y-132000000D03*
%TO.P,A1,22,A3*%
%TO.N,unconnected-(A1-A3-Pad22)*%
X109760000Y-132000000D03*
%TO.P,A1,23,A4*%
%TO.N,unconnected-(A1-A4-Pad23)*%
X107220000Y-132000000D03*
%TO.P,A1,24,A5*%
%TO.N,unconnected-(A1-A5-Pad24)*%
X104680000Y-132000000D03*
%TO.P,A1,25,A6*%
%TO.N,unconnected-(A1-A6-Pad25)*%
X102140000Y-132000000D03*
%TO.P,A1,26,A7*%
%TO.N,unconnected-(A1-A7-Pad26)*%
X99600000Y-132000000D03*
%TO.P,A1,27,+5V*%
%TO.N,unconnected-(A1-+5V-Pad27)*%
X97060000Y-132000000D03*
%TO.P,A1,28,~{RESET}*%
%TO.N,unconnected-(A1-~{RESET}-Pad28)*%
X94520000Y-132000000D03*
%TO.P,A1,29,GND*%
%TO.N,/GND*%
X91980000Y-132000000D03*
%TO.P,A1,30,VIN*%
%TO.N,unconnected-(A1-VIN-Pad30)*%
X89440000Y-132000000D03*
%TD*%
D17*
%TO.P,R10,1*%
%TO.N,Net-(Q4-G)*%
X120000000Y-168120000D03*
%TO.P,R10,2*%
%TO.N,Net-(A1-D4)*%
X120000000Y-160500000D03*
%TD*%
D18*
%TO.P,D3,1,K*%
%TO.N,/+48V*%
X88500000Y-168000000D03*
D19*
%TO.P,D3,2,A*%
%TO.N,Net-(D3-A)*%
X88500000Y-165460000D03*
%TD*%
D28*
%TO.N,/GND*%
X91500000Y-156000000D02*
X91500000Y-154500000D01*
X91500000Y-154500000D02*
X97060000Y-148940000D01*
X97060000Y-148940000D02*
X97060000Y-147240000D01*
%TO.N,/+48V*%
X85001000Y-171000000D02*
X85001000Y-156000000D01*
X88960000Y-156000000D02*
X85001000Y-156000000D01*
%TO.N,Net-(Q1-G)*%
X99000000Y-158310000D02*
X100080000Y-159390000D01*
X100080000Y-159390000D02*
X100080000Y-160000000D01*
%TO.N,Net-(A1-D2)*%
X99600000Y-147240000D02*
X99600000Y-150090000D01*
X99600000Y-150090000D02*
X99000000Y-150690000D01*
%TO.N,/GND*%
X144000000Y-158500000D02*
X149500000Y-158500000D01*
X149500000Y-158500000D02*
X151000000Y-157000000D01*
X151000000Y-157000000D02*
X151000000Y-124500000D01*
X151000000Y-124500000D02*
X149500000Y-123000000D01*
X149500000Y-123000000D02*
X147500000Y-123000000D01*
X135000000Y-161420000D02*
X135000000Y-158500000D01*
X135000000Y-158500000D02*
X144000000Y-158500000D01*
%TO.N,Net-(A1-D6)*%
X135000000Y-128000000D02*
X147500000Y-128000000D01*
X109760000Y-147240000D02*
X109760000Y-141740000D01*
X109760000Y-141740000D02*
X111500000Y-140000000D01*
X111500000Y-140000000D02*
X135000000Y-140000000D01*
X135000000Y-140000000D02*
X135000000Y-128000000D01*
%TO.N,Net-(A1-D7)*%
X112300000Y-147240000D02*
X112300000Y-144700000D01*
X112300000Y-144700000D02*
X113500000Y-143500000D01*
X113500000Y-143500000D02*
X138000000Y-143500000D01*
X138000000Y-143500000D02*
X144000000Y-149500000D01*
X144000000Y-149500000D02*
X144000000Y-150900000D01*
%TO.N,/GND*%
X129500000Y-135000000D02*
X128500000Y-136000000D01*
X91980000Y-136000000D02*
X91980000Y-138480000D01*
X129500000Y-123000000D02*
X129500000Y-135000000D01*
X135000000Y-123000000D02*
X129500000Y-123000000D01*
X128500000Y-136000000D02*
X91980000Y-136000000D01*
X147500000Y-123000000D02*
X135000000Y-123000000D01*
X92500000Y-129000000D02*
X92500000Y-130000000D01*
X92500000Y-129000000D02*
X102000000Y-129000000D01*
X102000000Y-124257500D02*
X102000000Y-129000000D01*
X102000000Y-129000000D02*
X105750000Y-129000000D01*
%TO.N,/+3.3V*%
X97500000Y-121000000D02*
X108500000Y-121000000D01*
X108250000Y-129000000D02*
X108250000Y-121250000D01*
X108250000Y-121250000D02*
X108500000Y-121000000D01*
X117000000Y-124257500D02*
X118757500Y-124257500D01*
X118757500Y-124257500D02*
X122460000Y-127960000D01*
X122460000Y-127960000D02*
X122460000Y-132000000D01*
X95040000Y-123460000D02*
X97500000Y-121000000D01*
X95040000Y-124000000D02*
X95040000Y-123460000D01*
X108500000Y-121000000D02*
X113742500Y-121000000D01*
X113742500Y-121000000D02*
X117000000Y-124257500D01*
%TO.N,/GND*%
X92500000Y-124000000D02*
X92500000Y-129000000D01*
X91980000Y-130520000D02*
X91980000Y-132000000D01*
X92500000Y-130000000D02*
X91980000Y-130520000D01*
X91980000Y-132000000D02*
X91980000Y-136000000D01*
X91980000Y-138480000D02*
X97060000Y-143560000D01*
X97060000Y-143560000D02*
X97060000Y-147240000D01*
%TO.N,/+48V*%
X85001000Y-156000000D02*
X85001000Y-129499000D01*
X85001000Y-129499000D02*
X86000000Y-128500000D01*
X86000000Y-128500000D02*
X90000000Y-128500000D01*
X90000000Y-128500000D02*
X89960000Y-128460000D01*
X89960000Y-128460000D02*
X89960000Y-124000000D01*
X147500000Y-170000000D02*
X150000000Y-170000000D01*
X151000000Y-177000000D02*
X146000000Y-182000000D01*
X85001000Y-180501000D02*
X85001000Y-171000000D01*
X150000000Y-170000000D02*
X151000000Y-171000000D01*
X146000000Y-182000000D02*
X86500000Y-182000000D01*
X85001000Y-171000000D02*
X88000000Y-171000000D01*
X151000000Y-171000000D02*
X151000000Y-177000000D01*
X88000000Y-171000000D02*
X88500000Y-170500000D01*
X86500000Y-182000000D02*
X85001000Y-180501000D01*
X147500000Y-167000000D02*
X147500000Y-170000000D01*
%TO.N,Net-(A1-D5)*%
X107220000Y-147240000D02*
X107220000Y-149720000D01*
X107220000Y-149720000D02*
X109000000Y-151500000D01*
X109000000Y-151500000D02*
X117620000Y-151500000D01*
X117620000Y-151500000D02*
X126500000Y-160380000D01*
%TO.N,Net-(A1-D4)*%
X104680000Y-147240000D02*
X104680000Y-152680000D01*
X104680000Y-152680000D02*
X106000000Y-154000000D01*
X106000000Y-154000000D02*
X113500000Y-154000000D01*
X113500000Y-154000000D02*
X120000000Y-160500000D01*
%TO.N,Net-(A1-D3)*%
X102140000Y-147240000D02*
X102140000Y-155140000D01*
X102140000Y-155140000D02*
X104000000Y-157000000D01*
X104000000Y-157000000D02*
X111000000Y-157000000D01*
X111000000Y-157000000D02*
X111000000Y-160190000D01*
%TO.N,/GND*%
X109000000Y-164500000D02*
X115000000Y-164500000D01*
X109500000Y-175000000D02*
X115000000Y-175000000D01*
X106610000Y-177890000D02*
X109500000Y-175000000D01*
X106270000Y-177890000D02*
X106610000Y-177890000D01*
X115000000Y-175000000D02*
X115000000Y-164500000D01*
%TO.N,Net-(D1-A)*%
X137960000Y-163960000D02*
X139250000Y-165250000D01*
X147500000Y-164460000D02*
X140040000Y-164460000D01*
X140040000Y-164460000D02*
X139250000Y-165250000D01*
%TO.N,/+48V*%
X147500000Y-170000000D02*
X147500000Y-172500000D01*
%TO.N,Net-(D4-A)*%
X140500000Y-172580000D02*
X140500000Y-173500000D01*
X140500000Y-173500000D02*
X142040000Y-175040000D01*
X142040000Y-175040000D02*
X147500000Y-175040000D01*
%TO.N,/+48V*%
X140500000Y-170040000D02*
X145040000Y-170040000D01*
X145040000Y-170040000D02*
X147500000Y-172500000D01*
%TO.N,Net-(D4-A)*%
X135000000Y-175540000D02*
X137540000Y-175540000D01*
X137540000Y-175540000D02*
X140500000Y-172580000D01*
%TO.N,Net-(Q4-G)*%
X129500000Y-179310000D02*
X133770000Y-179310000D01*
X133770000Y-179310000D02*
X135000000Y-178080000D01*
%TO.N,/GND*%
X123500000Y-164500000D02*
X123500000Y-170000000D01*
X115000000Y-164500000D02*
X123500000Y-164500000D01*
X123500000Y-170000000D02*
X125190000Y-171690000D01*
X125190000Y-171690000D02*
X129500000Y-171690000D01*
X129500000Y-171690000D02*
X133690000Y-171690000D01*
X133690000Y-171690000D02*
X135000000Y-173000000D01*
%TO.N,Net-(Q4-G)*%
X120000000Y-168120000D02*
X120000000Y-172500000D01*
X120000000Y-172500000D02*
X126810000Y-179310000D01*
X126810000Y-179310000D02*
X129500000Y-179310000D01*
%TO.N,Net-(D1-A)*%
X135000000Y-163960000D02*
X137960000Y-163960000D01*
X139250000Y-165250000D02*
X140500000Y-166500000D01*
X140500000Y-166500000D02*
X140500000Y-167500000D01*
%TO.N,Net-(Q3-G)*%
X129500000Y-167810000D02*
X133690000Y-167810000D01*
X133690000Y-167810000D02*
X135000000Y-166500000D01*
%TO.N,/GND*%
X129500000Y-160190000D02*
X130730000Y-161420000D01*
X130730000Y-161420000D02*
X131580000Y-161420000D01*
X107500000Y-168000000D02*
X107500000Y-166000000D01*
X123500000Y-164500000D02*
X128500000Y-164500000D01*
X131580000Y-161420000D02*
X135000000Y-161420000D01*
X107500000Y-166000000D02*
X109000000Y-164500000D01*
X128500000Y-164500000D02*
X131580000Y-161420000D01*
%TO.N,Net-(Q3-G)*%
X126500000Y-168000000D02*
X129310000Y-168000000D01*
X129310000Y-168000000D02*
X129500000Y-167810000D01*
%TO.N,Net-(Q2-G)*%
X111000000Y-167810000D02*
X111000000Y-171500000D01*
%TO.N,Net-(Q1-G)*%
X100080000Y-160000000D02*
X102000000Y-161920000D01*
%TO.N,/GND*%
X106270000Y-177890000D02*
X107500000Y-179120000D01*
X102000000Y-177890000D02*
X106270000Y-177890000D01*
X106500000Y-167000000D02*
X107500000Y-168000000D01*
X102000000Y-167000000D02*
X106500000Y-167000000D01*
%TO.N,/+48V*%
X88500000Y-169500000D02*
X88500000Y-170500000D01*
X88540000Y-169540000D02*
X88500000Y-169500000D01*
X88500000Y-170500000D02*
X88500000Y-172500000D01*
X96000000Y-169540000D02*
X88540000Y-169540000D01*
X88500000Y-168000000D02*
X88500000Y-169500000D01*
%TO.N,Net-(D2-A)*%
X93040000Y-175040000D02*
X96000000Y-172080000D01*
X102000000Y-175350000D02*
X99270000Y-175350000D01*
X88500000Y-175040000D02*
X93040000Y-175040000D01*
X99270000Y-175350000D02*
X96000000Y-172080000D01*
%TO.N,Net-(D3-A)*%
X96000000Y-167000000D02*
X98540000Y-164460000D01*
X98540000Y-164460000D02*
X102000000Y-164460000D01*
X96000000Y-167000000D02*
X94460000Y-165460000D01*
X94460000Y-165460000D02*
X88500000Y-165460000D01*
%TO.N,Net-(Q1-G)*%
X103120000Y-160380000D02*
X107500000Y-160380000D01*
X102000000Y-161500000D02*
X103120000Y-160380000D01*
X102000000Y-161920000D02*
X102000000Y-161500000D01*
%TO.N,Net-(Q2-G)*%
X106190000Y-172810000D02*
X107500000Y-171500000D01*
X102000000Y-172810000D02*
X106190000Y-172810000D01*
X107500000Y-171500000D02*
X111000000Y-171500000D01*
%TD*%
M02*
