M48
; DRILL file {KiCad 9.0.6} date 2025-12-17T13:45:51+0100
; FORMAT={-:-/ absolute / metric / decimal}
; #@! TF.CreationDate,2025-12-17T13:45:51+01:00
; #@! TF.GenerationSoftware,Kicad,Pcbnew,9.0.6
; #@! TF.FileFunction,MixedPlating,1,2
FMAT,2
METRIC
; #@! TA.AperFunction,Plated,PTH,ComponentDrill
T1C0.700
; #@! TA.AperFunction,Plated,PTH,ComponentDrill
T2C0.800
; #@! TA.AperFunction,Plated,PTH,ComponentDrill
T3C0.900
; #@! TA.AperFunction,Plated,PTH,ComponentDrill
T4C1.000
; #@! TA.AperFunction,Plated,PTH,ComponentDrill
T5C1.100
; #@! TA.AperFunction,Plated,PTH,ComponentDrill
T6C1.190
; #@! TA.AperFunction,Plated,PTH,ComponentDrill
T7C1.300
%
G90
G05
T1
X99.0Y-150.69
X99.0Y-158.31
X107.5Y-160.38
X107.5Y-168.0
X107.5Y-171.5
X107.5Y-179.12
X111.0Y-160.19
X111.0Y-167.81
X120.0Y-160.5
X120.0Y-168.12
X126.5Y-160.38
X126.5Y-168.0
X129.5Y-160.19
X129.5Y-167.81
X129.5Y-171.69
X129.5Y-179.31
T2
X105.75Y-129.0
X108.25Y-129.0
T3
X88.5Y-165.46
X88.5Y-168.0
X88.5Y-172.5
X88.5Y-175.04
X147.5Y-164.46
X147.5Y-167.0
X147.5Y-172.5
X147.5Y-175.04
T4
X89.44Y-132.0
X89.44Y-147.24
X91.98Y-132.0
X91.98Y-147.24
X94.52Y-132.0
X94.52Y-147.24
X97.06Y-132.0
X97.06Y-147.24
X99.6Y-132.0
X99.6Y-147.24
X102.0Y-124.257
X102.14Y-132.0
X102.14Y-147.24
X104.68Y-132.0
X104.68Y-147.24
X107.22Y-132.0
X107.22Y-147.24
X109.76Y-132.0
X109.76Y-147.24
X112.3Y-132.0
X112.3Y-147.24
X114.84Y-132.0
X114.84Y-147.24
X117.0Y-124.257
X117.38Y-132.0
X117.38Y-147.24
X119.92Y-132.0
X119.92Y-147.24
X122.46Y-132.0
X122.46Y-147.24
X125.0Y-132.0
X125.0Y-147.24
X144.0Y-150.9
X144.0Y-158.5
T5
X102.0Y-161.92
X102.0Y-164.46
X102.0Y-167.0
X102.0Y-172.81
X102.0Y-175.35
X102.0Y-177.89
X135.0Y-161.42
X135.0Y-163.96
X135.0Y-166.5
X135.0Y-173.0
X135.0Y-175.54
X135.0Y-178.08
T6
X87.42Y-124.0
X88.96Y-156.0
X89.96Y-124.0
X91.5Y-156.0
X92.5Y-124.0
X95.04Y-124.0
X96.0Y-167.0
X96.0Y-169.54
X96.0Y-172.08
X140.5Y-167.5
X140.5Y-170.04
X140.5Y-172.58
T7
X135.0Y-123.0
X135.0Y-128.0
X147.5Y-123.0
X147.5Y-128.0
M30
