%TF.GenerationSoftware,KiCad,Pcbnew,9.0.6*%
%TF.CreationDate,2025-12-10T20:02:50+01:00*%
%TF.ProjectId,oppakkerV3,6f707061-6b6b-4657-9256-332e6b696361,rev?*%
%TF.SameCoordinates,Original*%
%TF.FileFunction,Copper,L2,Bot*%
%TF.FilePolarity,Positive*%
%FSLAX46Y46*%
G04 Gerber Fmt 4.6, Leading zero omitted, Abs format (unit mm)*
G04 Created by KiCad (PCBNEW 9.0.6) date 2025-12-10 20:02:50*
%MOMM*%
%LPD*%
G01*
G04 APERTURE LIST*
G04 Aperture macros list*
%AMRoundRect*
0 Rectangle with rounded corners*
0 $1 Rounding radius*
0 $2 $3 $4 $5 $6 $7 $8 $9 X,Y pos of 4 corners*
0 Add a 4 corners polygon primitive as box body*
4,1,4,$2,$3,$4,$5,$6,$7,$8,$9,$2,$3,0*
0 Add four circle primitives for the rounded corners*
1,1,$1+$1,$2,$3*
1,1,$1+$1,$4,$5*
1,1,$1+$1,$6,$7*
1,1,$1+$1,$8,$9*
0 Add four rect primitives between the rounded corners*
20,1,$1+$1,$2,$3,$4,$5,0*
20,1,$1+$1,$4,$5,$6,$7,0*
20,1,$1+$1,$6,$7,$8,$9,0*
20,1,$1+$1,$8,$9,$2,$3,0*%
G04 Aperture macros list end*
%TA.AperFunction,ComponentPad*%
%ADD10RoundRect,0.250000X0.845000X-0.620000X0.845000X0.620000X-0.845000X0.620000X-0.845000X-0.620000X0*%
%TD*%
%TA.AperFunction,ComponentPad*%
%ADD11O,2.190000X1.740000*%
%TD*%
%TA.AperFunction,ComponentPad*%
%ADD12RoundRect,0.250000X-0.845000X0.620000X-0.845000X-0.620000X0.845000X-0.620000X0.845000X0.620000X0*%
%TD*%
%TA.AperFunction,ComponentPad*%
%ADD13C,2.000000*%
%TD*%
%TA.AperFunction,ComponentPad*%
%ADD14R,2.000000X2.000000*%
%TD*%
%TA.AperFunction,ComponentPad*%
%ADD15R,2.000000X1.905000*%
%TD*%
%TA.AperFunction,ComponentPad*%
%ADD16O,2.000000X1.905000*%
%TD*%
%TA.AperFunction,ComponentPad*%
%ADD17C,1.400000*%
%TD*%
%TA.AperFunction,ComponentPad*%
%ADD18R,1.600000X1.600000*%
%TD*%
%TA.AperFunction,ComponentPad*%
%ADD19O,1.600000X1.600000*%
%TD*%
%TA.AperFunction,ComponentPad*%
%ADD20R,1.800000X1.800000*%
%TD*%
%TA.AperFunction,ComponentPad*%
%ADD21C,1.800000*%
%TD*%
%TA.AperFunction,ComponentPad*%
%ADD22O,1.900000X3.200000*%
%TD*%
%TA.AperFunction,Conductor*%
%ADD23C,0.350000*%
%TD*%
%TA.AperFunction,Conductor*%
%ADD24C,2.000000*%
%TD*%
G04 APERTURE END LIST*
D10*
%TO.P,J4,1,Pin_1*%
%TO.N,/+48V*%
X166000000Y-93580000D03*
D11*
%TO.P,J4,2,Pin_2*%
%TO.N,/+3.3V*%
X166000000Y-91040000D03*
%TO.P,J4,3,Pin_3*%
%TO.N,/GND*%
X166000000Y-88500000D03*
%TD*%
D12*
%TO.P,J2,1,Pin_1*%
%TO.N,Net-(D3-K)*%
X166500000Y-135500000D03*
D11*
%TO.P,J2,2,Pin_2*%
%TO.N,/+48V*%
X166500000Y-138040000D03*
%TO.P,J2,3,Pin_3*%
%TO.N,Net-(D4-K)*%
X166500000Y-140580000D03*
%TD*%
D10*
%TO.P,J1,1,Pin_1*%
%TO.N,Net-(D2-K)*%
X166500000Y-114000000D03*
D11*
%TO.P,J1,2,Pin_2*%
%TO.N,/+48V*%
X166500000Y-111460000D03*
%TO.P,J1,3,Pin_3*%
%TO.N,Net-(D1-K)*%
X166500000Y-108920000D03*
%TD*%
D13*
%TO.P,BZ1,2,-*%
%TO.N,Net-(A1-D6)*%
X135400000Y-91000000D03*
D14*
%TO.P,BZ1,1,+*%
%TO.N,/GND*%
X143000000Y-91000000D03*
%TD*%
D15*
%TO.P,Q3,1,G*%
%TO.N,Net-(Q3-G)*%
X155500000Y-128420000D03*
D16*
%TO.P,Q3,2,D*%
%TO.N,Net-(D3-K)*%
X155500000Y-130960000D03*
%TO.P,Q3,3,S*%
%TO.N,/GND*%
X155500000Y-133500000D03*
%TD*%
D17*
%TO.P,R1,1*%
%TO.N,Net-(Q1-G)*%
X150500000Y-101190000D03*
%TO.P,R1,2*%
%TO.N,/GND*%
X150500000Y-108810000D03*
%TD*%
D18*
%TO.P,A1,1,D1/TX*%
%TO.N,unconnected-(A1-D1{slash}TX-Pad1)*%
X125760000Y-109500000D03*
D19*
%TO.P,A1,2,D0/RX*%
%TO.N,unconnected-(A1-D0{slash}RX-Pad2)*%
X125760000Y-112040000D03*
%TO.P,A1,3,~{RESET}*%
%TO.N,unconnected-(A1-~{RESET}-Pad3)*%
X125760000Y-114580000D03*
%TO.P,A1,4,GND*%
%TO.N,/GND*%
X125760000Y-117120000D03*
%TO.P,A1,5,D2*%
%TO.N,Net-(A1-D2)*%
X125760000Y-119660000D03*
%TO.P,A1,6,D3*%
%TO.N,Net-(A1-D3)*%
X125760000Y-122200000D03*
%TO.P,A1,7,D4*%
%TO.N,Net-(A1-D4)*%
X125760000Y-124740000D03*
%TO.P,A1,8,D5*%
%TO.N,Net-(A1-D5)*%
X125760000Y-127280000D03*
%TO.P,A1,9,D6*%
%TO.N,Net-(A1-D6)*%
X125760000Y-129820000D03*
%TO.P,A1,10,D7*%
%TO.N,Net-(A1-D7)*%
X125760000Y-132360000D03*
%TO.P,A1,11,D8*%
%TO.N,unconnected-(A1-D8-Pad11)*%
X125760000Y-134900000D03*
%TO.P,A1,12,D9*%
%TO.N,unconnected-(A1-D9-Pad12)*%
X125760000Y-137440000D03*
%TO.P,A1,13,D10*%
%TO.N,unconnected-(A1-D10-Pad13)*%
X125760000Y-139980000D03*
%TO.P,A1,14,D11*%
%TO.N,unconnected-(A1-D11-Pad14)*%
X125760000Y-142520000D03*
%TO.P,A1,15,D12*%
%TO.N,unconnected-(A1-D12-Pad15)*%
X125760000Y-145060000D03*
%TO.P,A1,16,D13*%
%TO.N,unconnected-(A1-D13-Pad16)*%
X141000000Y-145060000D03*
%TO.P,A1,17,3V3*%
%TO.N,/+3.3V*%
X141000000Y-142520000D03*
%TO.P,A1,18,AREF*%
%TO.N,unconnected-(A1-AREF-Pad18)*%
X141000000Y-139980000D03*
%TO.P,A1,19,A0*%
%TO.N,unconnected-(A1-A0-Pad19)*%
X141000000Y-137440000D03*
%TO.P,A1,20,A1*%
%TO.N,unconnected-(A1-A1-Pad20)*%
X141000000Y-134900000D03*
%TO.P,A1,21,A2*%
%TO.N,unconnected-(A1-A2-Pad21)*%
X141000000Y-132360000D03*
%TO.P,A1,22,A3*%
%TO.N,unconnected-(A1-A3-Pad22)*%
X141000000Y-129820000D03*
%TO.P,A1,23,A4*%
%TO.N,unconnected-(A1-A4-Pad23)*%
X141000000Y-127280000D03*
%TO.P,A1,24,A5*%
%TO.N,unconnected-(A1-A5-Pad24)*%
X141000000Y-124740000D03*
%TO.P,A1,25,A6*%
%TO.N,unconnected-(A1-A6-Pad25)*%
X141000000Y-122200000D03*
%TO.P,A1,26,A7*%
%TO.N,unconnected-(A1-A7-Pad26)*%
X141000000Y-119660000D03*
%TO.P,A1,27,+5V*%
%TO.N,unconnected-(A1-+5V-Pad27)*%
X141000000Y-117120000D03*
%TO.P,A1,28,~{RESET}*%
%TO.N,unconnected-(A1-~{RESET}-Pad28)*%
X141000000Y-114580000D03*
%TO.P,A1,29,GND*%
%TO.N,unconnected-(A1-GND-Pad29)*%
X141000000Y-112040000D03*
%TO.P,A1,30,VIN*%
%TO.N,unconnected-(A1-VIN-Pad30)*%
X141000000Y-109500000D03*
%TD*%
D17*
%TO.P,R11,1*%
%TO.N,Net-(Q4-G)*%
X150500000Y-141190000D03*
%TO.P,R11,2*%
%TO.N,/GND*%
X150500000Y-148810000D03*
%TD*%
%TO.P,R3,1*%
%TO.N,/+48V*%
X161000000Y-101380000D03*
%TO.P,R3,2*%
%TO.N,Net-(D1-A)*%
X161000000Y-109000000D03*
%TD*%
D15*
%TO.P,Q4,1,G*%
%TO.N,Net-(Q4-G)*%
X155500000Y-142500000D03*
D16*
%TO.P,Q4,2,D*%
%TO.N,Net-(D4-K)*%
X155500000Y-145040000D03*
%TO.P,Q4,3,S*%
%TO.N,/GND*%
X155500000Y-147580000D03*
%TD*%
D20*
%TO.P,D1,1,K*%
%TO.N,Net-(D1-K)*%
X166500000Y-101960000D03*
D21*
%TO.P,D1,2,A*%
%TO.N,Net-(D1-A)*%
X166500000Y-104500000D03*
%TD*%
D20*
%TO.P,D2,1,K*%
%TO.N,Net-(D2-K)*%
X166500000Y-118460000D03*
D21*
%TO.P,D2,2,A*%
%TO.N,Net-(D2-A)*%
X166500000Y-121000000D03*
%TD*%
D17*
%TO.P,R2,1*%
%TO.N,Net-(Q1-G)*%
X151500000Y-99000000D03*
%TO.P,R2,2*%
%TO.N,Net-(A1-D2)*%
X143880000Y-99000000D03*
%TD*%
%TO.P,R4,1*%
%TO.N,Net-(Q2-G)*%
X150500000Y-113690000D03*
%TO.P,R4,2*%
%TO.N,/GND*%
X150500000Y-121310000D03*
%TD*%
D15*
%TO.P,Q2,1,G*%
%TO.N,Net-(Q2-G)*%
X155500000Y-115420000D03*
D16*
%TO.P,Q2,2,D*%
%TO.N,Net-(D2-K)*%
X155500000Y-117960000D03*
%TO.P,Q2,3,S*%
%TO.N,/GND*%
X155500000Y-120500000D03*
%TD*%
D17*
%TO.P,R8,1*%
%TO.N,Net-(Q3-G)*%
X150500000Y-126690000D03*
%TO.P,R8,2*%
%TO.N,/GND*%
X150500000Y-134310000D03*
%TD*%
%TO.P,R10,2*%
%TO.N,Net-(A1-D5)*%
X144380000Y-138000000D03*
%TO.P,R10,1*%
%TO.N,Net-(Q4-G)*%
X152000000Y-138000000D03*
%TD*%
%TO.P,R9,1*%
%TO.N,/+48V*%
X161000000Y-127690000D03*
%TO.P,R9,2*%
%TO.N,Net-(D3-A)*%
X161000000Y-135310000D03*
%TD*%
%TO.P,R6,1*%
%TO.N,/+48V*%
X161000000Y-114690000D03*
%TO.P,R6,2*%
%TO.N,Net-(D2-A)*%
X161000000Y-122310000D03*
%TD*%
D15*
%TO.P,Q1,1,G*%
%TO.N,Net-(Q1-G)*%
X155500000Y-102420000D03*
D16*
%TO.P,Q1,2,D*%
%TO.N,Net-(D1-K)*%
X155500000Y-104960000D03*
%TO.P,Q1,3,S*%
%TO.N,/GND*%
X155500000Y-107500000D03*
%TD*%
D20*
%TO.P,D4,1,K*%
%TO.N,Net-(D4-K)*%
X166637186Y-145000000D03*
D21*
%TO.P,D4,2,A*%
%TO.N,Net-(D4-A)*%
X166637186Y-147540000D03*
%TD*%
D17*
%TO.P,R12,1*%
%TO.N,/+48V*%
X161000000Y-141190000D03*
%TO.P,R12,2*%
%TO.N,Net-(D4-A)*%
X161000000Y-148810000D03*
%TD*%
%TO.P,R5,1*%
%TO.N,Net-(Q2-G)*%
X152000000Y-111500000D03*
%TO.P,R5,2*%
%TO.N,Net-(A1-D3)*%
X144380000Y-111500000D03*
%TD*%
D20*
%TO.P,D3,1,K*%
%TO.N,Net-(D3-K)*%
X166500000Y-128500000D03*
D21*
%TO.P,D3,2,A*%
%TO.N,Net-(D3-A)*%
X166500000Y-131040000D03*
%TD*%
D17*
%TO.P,R7,1*%
%TO.N,Net-(Q3-G)*%
X152000000Y-124500000D03*
%TO.P,R7,2*%
%TO.N,Net-(A1-D4)*%
X144380000Y-124500000D03*
%TD*%
D22*
%TO.P,SW1,2,2*%
%TO.N,Net-(A1-D7)*%
X126000000Y-85500000D03*
X126000000Y-98000000D03*
%TO.P,SW1,1,1*%
%TO.N,/GND*%
X121000000Y-85500000D03*
X121000000Y-98000000D03*
%TD*%
D23*
%TO.N,Net-(A1-D6)*%
X123000000Y-126500000D02*
X123000000Y-104500000D01*
X123000000Y-104500000D02*
X135400000Y-92100000D01*
X135400000Y-92100000D02*
X135400000Y-91000000D01*
%TO.N,Net-(A1-D7)*%
X125760000Y-132360000D02*
X122000000Y-130500000D01*
%TO.N,/GND*%
X135176000Y-83176000D02*
X143000000Y-91000000D01*
X123500000Y-135000000D02*
X120500000Y-132000000D01*
X145500000Y-150500000D02*
X123500000Y-150500000D01*
X121000000Y-85000000D02*
X122824000Y-83176000D01*
X122824000Y-83176000D02*
X135176000Y-83176000D01*
%TO.N,Net-(A1-D7)*%
X122000000Y-130500000D02*
X122000000Y-101500000D01*
%TO.N,/GND*%
X120500000Y-132000000D02*
X120500000Y-98500000D01*
%TO.N,Net-(A1-D7)*%
X122000000Y-101500000D02*
X125500000Y-98000000D01*
%TO.N,/GND*%
X121000000Y-85500000D02*
X121000000Y-85000000D01*
X148000000Y-148000000D02*
X145500000Y-150500000D01*
X123500000Y-150500000D02*
X123500000Y-135000000D01*
%TO.N,Net-(A1-D7)*%
X125500000Y-98000000D02*
X126000000Y-98000000D01*
%TO.N,/GND*%
X120500000Y-98500000D02*
X121000000Y-98000000D01*
X121000000Y-85500000D02*
X121000000Y-98000000D01*
%TO.N,Net-(A1-D7)*%
X126000000Y-85500000D02*
X126000000Y-98000000D01*
%TO.N,/GND*%
X125760000Y-117120000D02*
X124120000Y-117120000D01*
X124000000Y-117000000D02*
X124000000Y-105000000D01*
X124000000Y-105000000D02*
X132500000Y-96500000D01*
X143000000Y-95500000D02*
X143000000Y-91000000D01*
X132500000Y-96500000D02*
X142000000Y-96500000D01*
X124120000Y-117120000D02*
X124000000Y-117000000D01*
X142000000Y-96500000D02*
X143000000Y-95500000D01*
%TO.N,Net-(A1-D2)*%
X144000000Y-101165402D02*
X126476000Y-119660000D01*
D24*
%TO.N,Net-(Q1-G)*%
X151500000Y-99000000D02*
X151500000Y-100190000D01*
X151500000Y-100190000D02*
X150500000Y-101190000D01*
D23*
%TO.N,Net-(A1-D2)*%
X143880000Y-99000000D02*
X144000000Y-99120000D01*
X144000000Y-99120000D02*
X144000000Y-101165402D01*
%TO.N,Net-(A1-D6)*%
X123000000Y-126500000D02*
X125760000Y-129820000D01*
D24*
%TO.N,Net-(D3-K)*%
X164500000Y-128500000D02*
X162000000Y-131000000D01*
X166500000Y-128500000D02*
X164500000Y-128500000D01*
X161960000Y-130960000D02*
X155500000Y-130960000D01*
X162000000Y-131000000D02*
X161960000Y-130960000D01*
D23*
%TO.N,/+3.3V*%
X141000000Y-142520000D02*
X141381694Y-142520000D01*
X141381694Y-142520000D02*
X145956000Y-142500000D01*
X145956000Y-142500000D02*
X145956000Y-92544000D01*
X145956000Y-92544000D02*
X152000000Y-86500000D01*
X152000000Y-86500000D02*
X167500000Y-86500000D01*
X167500000Y-86500000D02*
X168000000Y-87000000D01*
X168000000Y-87000000D02*
X168000000Y-91500000D01*
X168000000Y-91500000D02*
X166460000Y-91500000D01*
X166460000Y-91500000D02*
X166000000Y-91040000D01*
D24*
%TO.N,/+48V*%
X164380000Y-98000000D02*
X166000000Y-98000000D01*
X166000000Y-93580000D02*
X166000000Y-98000000D01*
%TO.N,/GND*%
X166000000Y-88500000D02*
X153500000Y-88500000D01*
X153500000Y-88500000D02*
X148000000Y-94000000D01*
%TO.N,Net-(D1-K)*%
X166500000Y-101960000D02*
X164540000Y-101960000D01*
X164540000Y-101960000D02*
X161540000Y-104960000D01*
X161540000Y-104960000D02*
X155500000Y-104960000D01*
%TO.N,Net-(D2-K)*%
X166500000Y-114000000D02*
X166500000Y-117000000D01*
X164000000Y-117000000D02*
X166500000Y-117000000D01*
X163040000Y-117960000D02*
X164000000Y-117000000D01*
D23*
%TO.N,Net-(A1-D3)*%
X144380000Y-111500000D02*
X142511171Y-113315806D01*
X134646008Y-113306969D02*
X126476000Y-121484000D01*
X126476000Y-121484000D02*
X126476000Y-122200000D01*
X142511171Y-113315806D02*
X134646008Y-113306969D01*
%TO.N,Net-(A1-D4)*%
X144380000Y-124500000D02*
X143487647Y-123452424D01*
X143487647Y-123452424D02*
X126936000Y-123564000D01*
X126936000Y-123564000D02*
X126476000Y-124024000D01*
X126476000Y-124024000D02*
X126476000Y-124740000D01*
%TO.N,Net-(A1-D5)*%
X144380000Y-138000000D02*
X144380000Y-136616884D01*
X126476000Y-127996000D02*
X126476000Y-127280000D01*
X144380000Y-136616884D02*
X144390044Y-133631858D01*
X144390044Y-133631858D02*
X132204000Y-133724000D01*
X132204000Y-133724000D02*
X126476000Y-127996000D01*
D24*
%TO.N,Net-(D2-A)*%
X161000000Y-122310000D02*
X165190000Y-122310000D01*
X165190000Y-122310000D02*
X166500000Y-121000000D01*
%TO.N,Net-(D3-A)*%
X161000000Y-135310000D02*
X162302684Y-135310000D01*
X162302684Y-135310000D02*
X166536342Y-131076342D01*
%TO.N,Net-(D4-A)*%
X161000000Y-148810000D02*
X165367186Y-148810000D01*
X165367186Y-148810000D02*
X166637186Y-147540000D01*
%TO.N,Net-(Q4-G)*%
X150500000Y-141190000D02*
X154190000Y-141190000D01*
X154190000Y-141190000D02*
X155500000Y-142500000D01*
X152000000Y-138000000D02*
X152000000Y-139690000D01*
X152000000Y-139690000D02*
X150500000Y-141190000D01*
%TO.N,Net-(Q3-G)*%
X150500000Y-126690000D02*
X153770000Y-126690000D01*
X153770000Y-126690000D02*
X155500000Y-128420000D01*
X152000000Y-124500000D02*
X152000000Y-125190000D01*
X152000000Y-125190000D02*
X150500000Y-126690000D01*
%TO.N,Net-(Q2-G)*%
X150500000Y-113690000D02*
X153770000Y-113690000D01*
X153770000Y-113690000D02*
X155500000Y-115420000D01*
X152000000Y-111500000D02*
X152000000Y-112190000D01*
X152000000Y-112190000D02*
X150500000Y-113690000D01*
%TO.N,Net-(Q1-G)*%
X150500000Y-101190000D02*
X154270000Y-101190000D01*
X154270000Y-101190000D02*
X155500000Y-102420000D01*
%TO.N,Net-(D2-K)*%
X166500000Y-117000000D02*
X166500000Y-118460000D01*
%TO.N,/+48V*%
X172500000Y-126000000D02*
X172500000Y-111500000D01*
X166500000Y-111460000D02*
X172460000Y-111460000D01*
X172460000Y-111460000D02*
X172500000Y-111500000D01*
X161000000Y-114690000D02*
X164230000Y-111460000D01*
X164230000Y-111460000D02*
X166500000Y-111460000D01*
%TO.N,Net-(D1-K)*%
X166500000Y-101960000D02*
X168960000Y-101960000D01*
X169500000Y-102500000D02*
X169500000Y-106000000D01*
X168960000Y-101960000D02*
X169500000Y-102500000D01*
X169500000Y-106000000D02*
X166580000Y-108920000D01*
X166580000Y-108920000D02*
X166500000Y-108920000D01*
%TO.N,Net-(D1-A)*%
X161000000Y-109000000D02*
X162249870Y-109000000D01*
X162249870Y-109000000D02*
X166624935Y-104624935D01*
%TO.N,/+48V*%
X172500000Y-111500000D02*
X172500000Y-98000000D01*
X166000000Y-98000000D02*
X172500000Y-98000000D01*
X161000000Y-101380000D02*
X164380000Y-98000000D01*
X166500000Y-138040000D02*
X169960000Y-138040000D01*
X169960000Y-138040000D02*
X172500000Y-135500000D01*
X172500000Y-135500000D02*
X172500000Y-126000000D01*
X172500000Y-126000000D02*
X162690000Y-126000000D01*
X162690000Y-126000000D02*
X161000000Y-127690000D01*
%TO.N,Net-(D3-K)*%
X169500000Y-134000000D02*
X169500000Y-129500000D01*
X169500000Y-129500000D02*
X168500000Y-128500000D01*
X166500000Y-135500000D02*
X168000000Y-135500000D01*
X168000000Y-135500000D02*
X169500000Y-134000000D01*
X168500000Y-128500000D02*
X166500000Y-128500000D01*
%TO.N,/+48V*%
X161000000Y-141190000D02*
X164150000Y-138040000D01*
X164150000Y-138040000D02*
X166500000Y-138040000D01*
%TO.N,Net-(D4-K)*%
X166637186Y-145000000D02*
X166637186Y-140717186D01*
X166637186Y-140717186D02*
X166500000Y-140580000D01*
X162637186Y-145040000D02*
X162677186Y-145000000D01*
X162677186Y-145000000D02*
X166637186Y-145000000D01*
%TO.N,/GND*%
X148000000Y-108500000D02*
X148000000Y-121000000D01*
X148000000Y-148000000D02*
X148000000Y-134000000D01*
X150500000Y-134310000D02*
X148310000Y-134310000D01*
X148310000Y-134310000D02*
X148000000Y-134000000D01*
X148000000Y-134000000D02*
X148000000Y-121000000D01*
X150500000Y-121310000D02*
X148310000Y-121310000D01*
X148310000Y-121310000D02*
X148000000Y-121000000D01*
X150500000Y-108810000D02*
X148310000Y-108810000D01*
X148310000Y-108810000D02*
X148000000Y-108500000D01*
X154190000Y-108810000D02*
X150500000Y-108810000D01*
X148000000Y-108500000D02*
X148000000Y-94000000D01*
X155500000Y-107500000D02*
X154190000Y-108810000D01*
D23*
%TO.N,Net-(Q2-G)*%
X152690000Y-111500000D02*
X152000000Y-111500000D01*
%TO.N,Net-(Q3-G)*%
X152690000Y-124500000D02*
X152000000Y-124500000D01*
D24*
%TO.N,/GND*%
X150500000Y-134310000D02*
X154690000Y-134310000D01*
X154690000Y-134310000D02*
X155500000Y-133500000D01*
X150500000Y-121310000D02*
X154690000Y-121310000D01*
X154690000Y-121310000D02*
X155500000Y-120500000D01*
X150500000Y-148810000D02*
X148810000Y-148810000D01*
X148810000Y-148810000D02*
X148000000Y-148000000D01*
X155500000Y-147580000D02*
X151730000Y-147580000D01*
X151730000Y-147580000D02*
X150500000Y-148810000D01*
D23*
%TO.N,Net-(D1-A)*%
X162000000Y-108000000D02*
X161000000Y-109000000D01*
D24*
%TO.N,/GND*%
X155500000Y-147580000D02*
X155500000Y-148000000D01*
%TO.N,Net-(D4-K)*%
X162637186Y-145040000D02*
X155500000Y-145040000D01*
%TO.N,Net-(D2-K)*%
X163040000Y-117960000D02*
X155500000Y-117960000D01*
%TD*%
M02*
