%TF.GenerationSoftware,KiCad,Pcbnew,9.0.6*%
%TF.CreationDate,2025-12-31T10:52:27+01:00*%
%TF.ProjectId,oppakkerV4,6f707061-6b6b-4657-9256-342e6b696361,rev?*%
%TF.SameCoordinates,Original*%
%TF.FileFunction,Copper,L1,Top*%
%TF.FilePolarity,Positive*%
%FSLAX46Y46*%
G04 Gerber Fmt 4.6, Leading zero omitted, Abs format (unit mm)*
G04 Created by KiCad (PCBNEW 9.0.6) date 2025-12-31 10:52:27*
%MOMM*%
%LPD*%
G01*
G04 APERTURE LIST*
G04 Aperture macros list*
%AMRoundRect*
0 Rectangle with rounded corners*
0 $1 Rounding radius*
0 $2 $3 $4 $5 $6 $7 $8 $9 X,Y pos of 4 corners*
0 Add a 4 corners polygon primitive as box body*
4,1,4,$2,$3,$4,$5,$6,$7,$8,$9,$2,$3,0*
0 Add four circle primitives for the rounded corners*
1,1,$1+$1,$2,$3*
1,1,$1+$1,$4,$5*
1,1,$1+$1,$6,$7*
1,1,$1+$1,$8,$9*
0 Add four rect primitives between the rounded corners*
20,1,$1+$1,$2,$3,$4,$5,0*
20,1,$1+$1,$4,$5,$6,$7,0*
20,1,$1+$1,$6,$7,$8,$9,0*
20,1,$1+$1,$8,$9,$2,$3,0*%
G04 Aperture macros list end*
%TA.AperFunction,ComponentPad*%
%ADD10RoundRect,0.250001X1.149999X-1.149999X1.149999X1.149999X-1.149999X1.149999X-1.149999X-1.149999X0*%
%TD*%
%TA.AperFunction,ComponentPad*%
%ADD11C,2.800000*%
%TD*%
%TA.AperFunction,ComponentPad*%
%ADD12RoundRect,0.250001X1.149999X1.149999X-1.149999X1.149999X-1.149999X-1.149999X1.149999X-1.149999X0*%
%TD*%
%TA.AperFunction,ComponentPad*%
%ADD13RoundRect,0.250001X-1.149999X1.149999X-1.149999X-1.149999X1.149999X-1.149999X1.149999X1.149999X0*%
%TD*%
%TA.AperFunction,ComponentPad*%
%ADD14C,1.400000*%
%TD*%
%TA.AperFunction,ComponentPad*%
%ADD15RoundRect,0.250000X0.620000X0.845000X-0.620000X0.845000X-0.620000X-0.845000X0.620000X-0.845000X0*%
%TD*%
%TA.AperFunction,ComponentPad*%
%ADD16O,1.740000X2.190000*%
%TD*%
%TA.AperFunction,ComponentPad*%
%ADD17R,2.000000X1.905000*%
%TD*%
%TA.AperFunction,ComponentPad*%
%ADD18O,2.000000X1.905000*%
%TD*%
%TA.AperFunction,ComponentPad*%
%ADD19C,1.600000*%
%TD*%
%TA.AperFunction,ComponentPad*%
%ADD20O,1.900000X3.200000*%
%TD*%
%TA.AperFunction,ComponentPad*%
%ADD21R,2.000000X2.000000*%
%TD*%
%TA.AperFunction,ComponentPad*%
%ADD22C,2.000000*%
%TD*%
%TA.AperFunction,ComponentPad*%
%ADD23R,1.600000X1.600000*%
%TD*%
%TA.AperFunction,ComponentPad*%
%ADD24O,1.600000X1.600000*%
%TD*%
G04 APERTURE END LIST*
D10*
%TO.P,J4,1,Pin_1*%
%TO.N,Net-(D2-A)*%
X38000000Y-74000000D03*
D11*
%TO.P,J4,2,Pin_2*%
%TO.N,/+48V*%
X38000000Y-69000000D03*
%TO.P,J4,3,Pin_3*%
%TO.N,Net-(D3-A)*%
X38000000Y-64000000D03*
%TO.P,J4,4,Pin_4*%
%TO.N,/+48V*%
X38000000Y-59000000D03*
%TD*%
D12*
%TO.P,J3,1,Pin_1*%
%TO.N,/GND*%
X63250000Y-83480000D03*
D11*
%TO.P,J3,2,Pin_2*%
%TO.N,/+48V*%
X58250000Y-83480000D03*
%TD*%
D13*
%TO.P,J1,1,Pin_1*%
%TO.N,Net-(D1-A)*%
X82500000Y-61500000D03*
D11*
%TO.P,J1,2,Pin_2*%
%TO.N,/+48V*%
X82500000Y-66500000D03*
%TO.P,J1,3,Pin_3*%
%TO.N,Net-(D4-A)*%
X82500000Y-71500000D03*
%TO.P,J1,4,Pin_4*%
%TO.N,/+48V*%
X82500000Y-76500000D03*
%TD*%
D14*
%TO.P,D4,1,K*%
%TO.N,/+48V*%
X83500000Y-88810000D03*
%TO.P,D4,2,A*%
%TO.N,Net-(D4-A)*%
X83500000Y-81190000D03*
%TD*%
%TO.P,D3,1,K*%
%TO.N,/+48V*%
X40190000Y-53000000D03*
%TO.P,D3,2,A*%
%TO.N,Net-(D3-A)*%
X47810000Y-53000000D03*
%TD*%
%TO.P,D2,1,K*%
%TO.N,/+48V*%
X39500000Y-88310000D03*
%TO.P,D2,2,A*%
%TO.N,Net-(D2-A)*%
X39500000Y-80690000D03*
%TD*%
%TO.P,D1,1,K*%
%TO.N,/+48V*%
X97000000Y-58000000D03*
%TO.P,D1,2,A*%
%TO.N,Net-(D1-A)*%
X89380000Y-58000000D03*
%TD*%
%TO.P,R4,1*%
%TO.N,Net-(Q2-G)*%
X54000000Y-72500000D03*
%TO.P,R4,2*%
%TO.N,/GND*%
X54000000Y-80120000D03*
%TD*%
%TO.P,R5,1*%
%TO.N,Net-(Q2-G)*%
X56000000Y-68620000D03*
%TO.P,R5,2*%
%TO.N,Net-(A1-D5)*%
X56000000Y-61000000D03*
%TD*%
D15*
%TO.P,J6,1,Pin_1*%
%TO.N,/+3.3V*%
X61000000Y-24000000D03*
D16*
%TO.P,J6,2,Pin_2*%
%TO.N,/GND*%
X58460000Y-24000000D03*
%TO.P,J6,3,Pin_3*%
%TO.N,/+48V*%
X55920000Y-24000000D03*
%TO.P,J6,4,Pin_4*%
%TO.N,unconnected-(J6-Pin_4-Pad4)*%
X53380000Y-24000000D03*
%TD*%
D17*
%TO.P,Q2,1,G*%
%TO.N,Net-(Q2-G)*%
X47000000Y-74000000D03*
D18*
%TO.P,Q2,2,D*%
%TO.N,Net-(D2-A)*%
X47000000Y-76540000D03*
%TO.P,Q2,3,S*%
%TO.N,/GND*%
X47000000Y-79080000D03*
%TD*%
D14*
%TO.P,R7,1*%
%TO.N,Net-(Q3-G)*%
X65500000Y-68620000D03*
%TO.P,R7,2*%
%TO.N,Net-(A1-D3)*%
X65500000Y-61000000D03*
%TD*%
%TO.P,R2,1*%
%TO.N,Net-(Q1-G)*%
X52500000Y-58310000D03*
%TO.P,R2,2*%
%TO.N,Net-(A1-D7)*%
X52500000Y-50690000D03*
%TD*%
D19*
%TO.P,C1,1*%
%TO.N,/+3.3V*%
X40000000Y-24000000D03*
%TO.P,C1,2*%
%TO.N,/GND*%
X40000000Y-26500000D03*
%TD*%
D17*
%TO.P,Q4,1,G*%
%TO.N,Net-(Q4-G)*%
X73500000Y-74000000D03*
D18*
%TO.P,Q4,2,D*%
%TO.N,Net-(D4-A)*%
X73500000Y-76540000D03*
%TO.P,Q4,3,S*%
%TO.N,/GND*%
X73500000Y-79080000D03*
%TD*%
D20*
%TO.P,SW1,1,1*%
%TO.N,/GND*%
X27500000Y-52000000D03*
X27500000Y-39500000D03*
%TO.P,SW1,2,2*%
%TO.N,Net-(A1-D6)*%
X32500000Y-52000000D03*
X32500000Y-39500000D03*
%TD*%
D14*
%TO.P,R1,1*%
%TO.N,Net-(Q1-G)*%
X52500000Y-61000000D03*
%TO.P,R1,2*%
%TO.N,/GND*%
X52500000Y-68620000D03*
%TD*%
%TO.P,R11,1*%
%TO.N,Net-(Q4-G)*%
X68000000Y-72500000D03*
%TO.P,R11,2*%
%TO.N,/GND*%
X68000000Y-80120000D03*
%TD*%
D21*
%TO.P,BZ1,1,+*%
%TO.N,Net-(A1-D2)*%
X92500000Y-45000000D03*
D22*
%TO.P,BZ1,2,-*%
%TO.N,/GND*%
X92500000Y-52600000D03*
%TD*%
D19*
%TO.P,C2,1*%
%TO.N,/+3.3V*%
X69000000Y-24000000D03*
%TO.P,C2,2*%
%TO.N,/GND*%
X69000000Y-26500000D03*
%TD*%
D17*
%TO.P,Q1,1,G*%
%TO.N,Net-(Q1-G)*%
X47000000Y-62500000D03*
D18*
%TO.P,Q1,2,D*%
%TO.N,Net-(D3-A)*%
X47000000Y-65040000D03*
%TO.P,Q1,3,S*%
%TO.N,/GND*%
X47000000Y-67580000D03*
%TD*%
D14*
%TO.P,R8,1*%
%TO.N,Net-(Q3-G)*%
X69500000Y-68620000D03*
%TO.P,R8,2*%
%TO.N,/GND*%
X69500000Y-61000000D03*
%TD*%
D17*
%TO.P,Q3,1,G*%
%TO.N,Net-(Q3-G)*%
X74500000Y-67000000D03*
D18*
%TO.P,Q3,2,D*%
%TO.N,Net-(D1-A)*%
X74500000Y-64460000D03*
%TO.P,Q3,3,S*%
%TO.N,/GND*%
X74500000Y-61920000D03*
%TD*%
D14*
%TO.P,R10,1*%
%TO.N,Net-(Q4-G)*%
X61000000Y-68620000D03*
%TO.P,R10,2*%
%TO.N,Net-(A1-D4)*%
X61000000Y-61000000D03*
%TD*%
D23*
%TO.P,A1,1,D1/TX*%
%TO.N,unconnected-(A1-D1{slash}TX-Pad1)*%
X80000000Y-47000000D03*
D24*
%TO.P,A1,2,D0/RX*%
%TO.N,unconnected-(A1-D0{slash}RX-Pad2)*%
X77460000Y-47000000D03*
%TO.P,A1,3,~{RESET}*%
%TO.N,unconnected-(A1-~{RESET}-Pad3)*%
X74920000Y-47000000D03*
%TO.P,A1,4,GND*%
%TO.N,/GND*%
X72380000Y-47000000D03*
%TO.P,A1,5,D2*%
%TO.N,Net-(A1-D2)*%
X69840000Y-47000000D03*
%TO.P,A1,6,D3*%
%TO.N,Net-(A1-D3)*%
X67300000Y-47000000D03*
%TO.P,A1,7,D4*%
%TO.N,Net-(A1-D4)*%
X64760000Y-47000000D03*
%TO.P,A1,8,D5*%
%TO.N,Net-(A1-D5)*%
X62220000Y-47000000D03*
%TO.P,A1,9,D6*%
%TO.N,Net-(A1-D6)*%
X59680000Y-47000000D03*
%TO.P,A1,10,D7*%
%TO.N,Net-(A1-D7)*%
X57140000Y-47000000D03*
%TO.P,A1,11,D8*%
%TO.N,unconnected-(A1-D8-Pad11)*%
X54600000Y-47000000D03*
%TO.P,A1,12,D9*%
%TO.N,unconnected-(A1-D9-Pad12)*%
X52060000Y-47000000D03*
%TO.P,A1,13,D10*%
%TO.N,unconnected-(A1-D10-Pad13)*%
X49520000Y-47000000D03*
%TO.P,A1,14,D11*%
%TO.N,unconnected-(A1-D11-Pad14)*%
X46980000Y-47000000D03*
%TO.P,A1,15,D12*%
%TO.N,unconnected-(A1-D12-Pad15)*%
X44440000Y-47000000D03*
%TO.P,A1,16,D13*%
%TO.N,unconnected-(A1-D13-Pad16)*%
X44440000Y-31760000D03*
%TO.P,A1,17,3V3*%
%TO.N,/+3.3V*%
X46980000Y-31760000D03*
%TO.P,A1,18,AREF*%
%TO.N,unconnected-(A1-AREF-Pad18)*%
X49520000Y-31760000D03*
%TO.P,A1,19,A0*%
%TO.N,unconnected-(A1-A0-Pad19)*%
X52060000Y-31760000D03*
%TO.P,A1,20,A1*%
%TO.N,unconnected-(A1-A1-Pad20)*%
X54600000Y-31760000D03*
%TO.P,A1,21,A2*%
%TO.N,unconnected-(A1-A2-Pad21)*%
X57140000Y-31760000D03*
%TO.P,A1,22,A3*%
%TO.N,unconnected-(A1-A3-Pad22)*%
X59680000Y-31760000D03*
%TO.P,A1,23,A4*%
%TO.N,unconnected-(A1-A4-Pad23)*%
X62220000Y-31760000D03*
%TO.P,A1,24,A5*%
%TO.N,unconnected-(A1-A5-Pad24)*%
X64760000Y-31760000D03*
%TO.P,A1,25,A6*%
%TO.N,unconnected-(A1-A6-Pad25)*%
X67300000Y-31760000D03*
%TO.P,A1,26,A7*%
%TO.N,unconnected-(A1-A7-Pad26)*%
X69840000Y-31760000D03*
%TO.P,A1,27,+5V*%
%TO.N,unconnected-(A1-+5V-Pad27)*%
X72380000Y-31760000D03*
%TO.P,A1,28,~{RESET}*%
%TO.N,unconnected-(A1-~{RESET}-Pad28)*%
X74920000Y-31760000D03*
%TO.P,A1,29,GND*%
%TO.N,/GND*%
X77460000Y-31760000D03*
%TO.P,A1,30,VIN*%
%TO.N,unconnected-(A1-VIN-Pad30)*%
X80000000Y-31760000D03*
%TD*%
M02*
