M48
; DRILL file {KiCad 9.0.6} date 2025-12-12T18:10:22+0100
; FORMAT={-:-/ absolute / metric / decimal}
; #@! TF.CreationDate,2025-12-12T18:10:22+01:00
; #@! TF.GenerationSoftware,Kicad,Pcbnew,9.0.6
; #@! TF.FileFunction,MixedPlating,1,2
FMAT,2
METRIC
; #@! TA.AperFunction,Plated,PTH,ComponentDrill
T1C0.700
; #@! TA.AperFunction,Plated,PTH,ComponentDrill
T2C0.900
; #@! TA.AperFunction,Plated,PTH,ComponentDrill
T3C1.000
; #@! TA.AperFunction,Plated,PTH,ComponentDrill
T4C1.100
; #@! TA.AperFunction,Plated,PTH,ComponentDrill
T5C1.190
; #@! TA.AperFunction,Plated,PTH,ComponentDrill
T6C1.300
%
G90
G05
T1
X181.19Y-73.0
X181.19Y-79.0
X181.38Y-51.5
X181.5Y-44.5
X182.0Y-33.0
X182.0Y-38.5
X182.19Y-60.0
X182.19Y-66.0
X188.81Y-73.0
X188.81Y-79.0
X189.0Y-51.5
X189.12Y-44.5
X189.62Y-33.0
X189.62Y-38.5
X189.81Y-60.0
X189.81Y-66.0
X203.5Y-30.69
X203.5Y-38.31
X203.5Y-44.69
X203.5Y-52.31
X203.5Y-57.19
X203.5Y-64.81
X203.5Y-68.19
X203.5Y-75.81
T2
X209.96Y-34.0
X211.0Y-49.0
X211.0Y-51.54
X211.0Y-56.96
X211.0Y-59.5
X211.0Y-74.5
X211.0Y-77.04
X212.5Y-34.0
T3
X167.4Y-47.0
X175.0Y-47.0
T4
X196.0Y-32.46
X196.0Y-35.0
X196.0Y-37.54
X196.0Y-45.5
X196.0Y-48.04
X196.0Y-50.58
X196.0Y-59.96
X196.0Y-62.5
X196.0Y-65.04
X196.0Y-72.0
X196.0Y-74.54
X196.0Y-77.08
T5
X167.5Y-32.0
X167.5Y-34.54
X172.5Y-62.34
X172.5Y-64.88
X172.5Y-67.42
X172.5Y-69.96
X172.5Y-72.5
X172.5Y-75.04
X176.5Y-29.5
X176.5Y-32.04
X176.5Y-34.58
X211.0Y-39.5
X211.0Y-42.04
X211.0Y-44.58
X211.0Y-64.46
X211.0Y-67.0
X211.0Y-69.54
T6
X170.0Y-80.5
X170.0Y-93.0
X175.0Y-80.5
X175.0Y-93.0
M30
