M48
; DRILL file {KiCad 9.0.6} date 2025-12-31T10:56:15+0100
; FORMAT={-:-/ absolute / metric / decimal}
; #@! TF.CreationDate,2025-12-31T10:56:15+01:00
; #@! TF.GenerationSoftware,Kicad,Pcbnew,9.0.6
; #@! TF.FileFunction,MixedPlating,1,2
FMAT,2
METRIC
; #@! TA.AperFunction,Plated,PTH,ComponentDrill
T1C0.700
; #@! TA.AperFunction,Plated,PTH,ComponentDrill
T2C0.800
; #@! TA.AperFunction,Plated,PTH,ComponentDrill
T3C1.000
; #@! TA.AperFunction,Plated,PTH,ComponentDrill
T4C1.100
; #@! TA.AperFunction,Plated,PTH,ComponentDrill
T5C1.190
; #@! TA.AperFunction,Plated,PTH,ComponentDrill
T6C1.300
%
G90
G05
T1
X39.5Y-80.69
X39.5Y-88.31
X40.19Y-53.0
X47.81Y-53.0
X52.5Y-50.69
X52.5Y-58.31
X52.5Y-61.0
X52.5Y-68.62
X54.0Y-72.5
X54.0Y-80.12
X56.0Y-61.0
X56.0Y-68.62
X61.0Y-61.0
X61.0Y-68.62
X65.5Y-61.0
X65.5Y-68.62
X68.0Y-72.5
X68.0Y-80.12
X69.5Y-61.0
X69.5Y-68.62
X83.5Y-81.19
X83.5Y-88.81
X89.38Y-58.0
X97.0Y-58.0
T2
X40.0Y-24.0
X40.0Y-26.5
X69.0Y-24.0
X69.0Y-26.5
T3
X44.44Y-31.76
X44.44Y-47.0
X46.98Y-31.76
X46.98Y-47.0
X49.52Y-31.76
X49.52Y-47.0
X52.06Y-31.76
X52.06Y-47.0
X54.6Y-31.76
X54.6Y-47.0
X57.14Y-31.76
X57.14Y-47.0
X59.68Y-31.76
X59.68Y-47.0
X62.22Y-31.76
X62.22Y-47.0
X64.76Y-31.76
X64.76Y-47.0
X67.3Y-31.76
X67.3Y-47.0
X69.84Y-31.76
X69.84Y-47.0
X72.38Y-31.76
X72.38Y-47.0
X74.92Y-31.76
X74.92Y-47.0
X77.46Y-31.76
X77.46Y-47.0
X80.0Y-31.76
X80.0Y-47.0
X92.5Y-45.0
X92.5Y-52.6
T4
X47.0Y-62.5
X47.0Y-65.04
X47.0Y-67.58
X47.0Y-74.0
X47.0Y-76.54
X47.0Y-79.08
X73.5Y-74.0
X73.5Y-76.54
X73.5Y-79.08
X74.5Y-61.92
X74.5Y-64.46
X74.5Y-67.0
T5
X53.38Y-24.0
X55.92Y-24.0
X58.46Y-24.0
X61.0Y-24.0
T6
X27.5Y-39.5
X27.5Y-52.0
X32.5Y-39.5
X32.5Y-52.0
X38.0Y-59.0
X38.0Y-64.0
X38.0Y-69.0
X38.0Y-74.0
X58.25Y-83.48
X63.25Y-83.48
X82.5Y-61.5
X82.5Y-66.5
X82.5Y-71.5
X82.5Y-76.5
M30
