M48
; DRILL file {KiCad 9.0.6} date 2025-12-11T18:07:06+0100
; FORMAT={-:-/ absolute / metric / decimal}
; #@! TF.CreationDate,2025-12-11T18:07:06+01:00
; #@! TF.GenerationSoftware,Kicad,Pcbnew,9.0.6
; #@! TF.FileFunction,MixedPlating,1,2
FMAT,2
METRIC
; #@! TA.AperFunction,Plated,PTH,ComponentDrill
T1C0.700
; #@! TA.AperFunction,Plated,PTH,ComponentDrill
T2C0.900
; #@! TA.AperFunction,Plated,PTH,ComponentDrill
T3C1.000
; #@! TA.AperFunction,Plated,PTH,ComponentDrill
T4C1.100
; #@! TA.AperFunction,Plated,PTH,ComponentDrill
T5C1.190
; #@! TA.AperFunction,Plated,PTH,ComponentDrill
T6C1.300
%
G90
G05
T1
X143.88Y-99.0
X144.38Y-111.5
X144.38Y-124.5
X144.38Y-138.0
X150.5Y-101.19
X150.5Y-108.81
X150.5Y-113.69
X150.5Y-121.31
X150.5Y-126.69
X150.5Y-134.31
X150.5Y-141.19
X150.5Y-148.81
X151.5Y-99.0
X152.0Y-111.5
X152.0Y-124.5
X152.0Y-138.0
X161.0Y-101.38
X161.0Y-109.0
X161.0Y-114.69
X161.0Y-122.31
X161.0Y-127.69
X161.0Y-135.31
X161.0Y-141.19
X161.0Y-148.81
T2
X166.5Y-101.96
X166.5Y-104.5
X166.5Y-118.46
X166.5Y-121.0
X166.5Y-128.5
X166.5Y-131.04
X166.637Y-145.0
X166.637Y-147.54
T3
X125.76Y-109.5
X125.76Y-112.04
X125.76Y-114.58
X125.76Y-117.12
X125.76Y-119.66
X125.76Y-122.2
X125.76Y-124.74
X125.76Y-127.28
X125.76Y-129.82
X125.76Y-132.36
X125.76Y-134.9
X125.76Y-137.44
X125.76Y-139.98
X125.76Y-142.52
X125.76Y-145.06
X135.4Y-91.0
X141.0Y-109.5
X141.0Y-112.04
X141.0Y-114.58
X141.0Y-117.12
X141.0Y-119.66
X141.0Y-122.2
X141.0Y-124.74
X141.0Y-127.28
X141.0Y-129.82
X141.0Y-132.36
X141.0Y-134.9
X141.0Y-137.44
X141.0Y-139.98
X141.0Y-142.52
X141.0Y-145.06
X143.0Y-91.0
T4
X155.5Y-102.42
X155.5Y-104.96
X155.5Y-107.5
X155.5Y-115.42
X155.5Y-117.96
X155.5Y-120.5
X155.5Y-128.42
X155.5Y-130.96
X155.5Y-133.5
X155.5Y-142.5
X155.5Y-145.04
X155.5Y-147.58
T5
X166.0Y-88.5
X166.0Y-91.04
X166.0Y-93.58
X166.5Y-108.92
X166.5Y-111.46
X166.5Y-114.0
X166.5Y-135.5
X166.5Y-138.04
X166.5Y-140.58
T6
X121.0Y-85.5
X121.0Y-98.0
X126.0Y-85.5
X126.0Y-98.0
M30
