<?xml version="1.0" standalone="no"?>
<!DOCTYPE svg PUBLIC "-//W3C//DTD SVG 1.1//EN"
"http://www.w3.org/Graphics/SVG/1.1/DTD/svg11.dtd">
<svg width="275.565" height="265.886" viewBox="0 0 5740.94 5539.29" version="1.1"
xmlns="http://www.w3.org/2000/svg"
xmlns:xlink="http://www.w3.org/1999/xlink">
<g fill-rule="evenodd"><path d="M 23.6213,5294.49 L 23.6213,3374.8 L 24.7561,3363.28 L 28.1166,3352.2 L 33.5739,3341.99 L 40.9182,3333.04 L 380.288,2993.67 L 389.237,2986.33 L 399.447,2980.87 L 410.525,2977.51 L 422.046,2976.38 L 920.102,2976.38 L 923.415,2970.64 L 938.836,2953.51 L 953.541,2942.83 L 953.541,2735.43 L 954.268,2726.19 L 956.432,2717.18 L 959.978,2708.62 L 964.82,2700.72 L 970.838,2693.67 L 1143.28,2521.23 L 1152.23,2513.89 L 1162.44,2508.43 L 1173.52,2505.07 L 1185.04,2503.94 L 1196.56,2505.07 L 1207.64,2508.43 L 1217.85,2513.89 L 1226.8,2521.23 L 1234.14,2530.18 L 1239.6,2540.39 L 1242.96,2551.47 L 1244.09,2562.99 L 1242.96,2574.51 L 1239.6,2585.59 L 1234.14,2595.8 L 1226.8,2604.75 L 1071.65,2759.89 L 1071.65,2942.82 L 1086.36,2953.51 L 1101.78,2970.64 L 1113.3,2990.6 L 1120.43,3012.51 L 1122.83,3035.43 L 1120.43,3058.35 L 1113.3,3080.27 L 1101.78,3100.23 L 1086.36,3117.35 L 1067.72,3130.9 L 1046.66,3140.27 L 1024.12,3145.07 L 1001.08,3145.07 L 978.534,3140.27 L 957.48,3130.9 L 938.836,3117.35 L 923.415,3100.23 L 920.101,3094.49 L 446.508,3094.49 L 141.732,3399.26 L 141.732,3763.78 L 920.102,3763.78 L 923.415,3758.04 L 938.836,3740.91 L 957.48,3727.37 L 978.534,3717.99 L 1001.08,3713.2 L 1024.12,3713.2 L 1046.66,3717.99 L 1067.72,3727.37 L 1086.36,3740.91 L 1101.78,3758.04 L 1113.3,3778 L 1120.43,3799.92 L 1122.83,3822.83 L 1120.43,3845.75 L 1113.3,3867.67 L 1101.78,3887.63 L 1086.36,3904.76 L 1067.72,3918.3 L 1046.66,3927.68 L 1024.12,3932.47 L 1001.08,3932.47 L 978.534,3927.68 L 957.48,3918.3 L 938.836,3904.76 L 923.415,3887.63 L 920.101,3881.89 L 146.508,3881.89 L 141.732,3886.67 L 141.732,5270.03 L 269.264,5397.56 L 1066.88,5397.56 L 1071.65,5392.78 L 1071.65,5343.31 L 1072.79,5331.78 L 1076.15,5320.71 L 1081.61,5310.5 L 1088.95,5301.55 L 1097.9,5294.2 L 1108.11,5288.75 L 1119.19,5285.39 L 1130.71,5284.25 L 1142.23,5285.39 L 1153.31,5288.75 L 1163.52,5294.2 L 1172.47,5301.55 L 1179.81,5310.5 L 1185.27,5320.71 L 1188.63,5331.78 L 1189.76,5343.31 L 1189.76,5397.56 L 2548.03,5397.56 L 2548.03,5055.6 L 2533.32,5044.91 L 2517.9,5027.79 L 2506.38,5007.83 L 2499.26,4985.91 L 2496.85,4962.99 L 2499.26,4940.07 L 2506.38,4918.16 L 2517.9,4898.2 L 2533.32,4881.07 L 2551.97,4867.52 L 2573.02,4858.15 L 2595.56,4853.36 L 2618.61,4853.36 L 2641.15,4858.15 L 2662.2,4867.52 L 2680.85,4881.07 L 2696.27,4898.2 L 2707.79,4918.16 L 2714.91,4940.07 L 2717.32,4962.99 L 2714.91,4985.91 L 2707.79,5007.83 L 2696.27,5027.79 L 2680.85,5044.91 L 2666.14,5055.6 L 2666.14,5397.56 L 4536.22,5397.56 L 4536.22,5382.68 L 4537.35,5371.15 L 4540.71,5360.08 L 4546.17,5349.87 L 4553.52,5340.92 L 4562.47,5333.57 L 4572.68,5328.12 L 4583.75,5324.76 L 4595.27,5323.62 L 4606.8,5324.76 L 4617.87,5328.12 L 4628.08,5333.57 L 4637.03,5340.92 L 4644.38,5349.87 L 4649.83,5360.08 L 4653.19,5371.15 L 4654.33,5382.68 L 4654.33,5397.56 L 5240.1,5397.56 L 5599.21,5038.45 L 5599.21,4275.59 L 4737.85,4275.59 L 4624.02,4389.42 L 4624.36,4390.47 L 4626.77,4413.39 L 4624.36,4436.31 L 4617.24,4458.22 L 4605.72,4478.18 L 4590.3,4495.31 L 4571.65,4508.85 L 4550.6,4518.23 L 4528.06,4523.02 L 4505.01,4523.02 L 4482.47,4518.23 L 4461.42,4508.85 L 4442.77,4495.31 L 4427.35,4478.18 L 4415.83,4458.22 L 4408.71,4436.31 L 4406.3,4413.39 L 4408.71,4390.47 L 4415.83,4368.55 L 4427.35,4348.59 L 4442.77,4331.46 L 4461.42,4317.92 L 4482.47,4308.54 L 4505.01,4303.75 L 4528.06,4303.75 L 4540.09,4306.31 L 4671.63,4174.78 L 4678.67,4168.76 L 4686.57,4163.92 L 4695.14,4160.37 L 4704.15,4158.21 L 4713.38,4157.48 L 5599.21,4157.48 L 5599.21,3685.04 L 4609.03,3685.04 L 4605.72,3690.78 L 4590.3,3707.91 L 4571.65,3721.45 L 4550.6,3730.83 L 4528.06,3735.62 L 4505.01,3735.62 L 4482.47,3730.83 L 4461.42,3721.45 L 4442.77,3707.91 L 4427.35,3690.78 L 4415.83,3670.82 L 4408.71,3648.9 L 4406.3,3625.98 L 4408.71,3603.06 L 4415.83,3581.15 L 4427.35,3561.19 L 4442.77,3544.06 L 4461.42,3530.52 L 4482.47,3521.14 L 4505.01,3516.35 L 4528.06,3516.35 L 4550.6,3521.14 L 4571.65,3530.52 L 4590.3,3544.06 L 4605.72,3561.19 L 4609.03,3566.93 L 5599.21,3566.93 L 5599.21,1485.09 L 5555.06,1440.94 L 4634.64,1440.94 L 4623.12,1439.81 L 4612.05,1436.45 L 4601.84,1430.99 L 4592.89,1423.65 L 4585.54,1414.7 L 4580.08,1404.49 L 4576.72,1393.41 L 4575.59,1381.89 L 4575.59,382.727 L 4334.59,141.731 L 2493.75,141.731 L 2482.68,152.807 L 2482.68,227.837 L 2486.2,233.948 L 2490.63,247.568 L 2492.13,261.811 L 2492.13,297.244 L 2490.63,311.487 L 2486.2,325.107 L 2479.04,337.51 L 2469.46,348.152 L 2457.87,356.57 L 2444.79,362.395 L 2430.78,365.373 L 2416.46,365.373 L 2402.45,362.395 L 2389.37,356.57 L 2377.78,348.152 L 2368.2,337.51 L 2361.04,325.107 L 2356.62,311.487 L 2355.12,297.244 L 2355.12,261.811 L 2356.62,247.568 L 2361.04,233.948 L 2364.57,227.843 L 2364.57,128.346 L 2365.7,116.825 L 2369.06,105.746 L 2374.52,95.5365 L 2381.86,86.5875 L 2427.53,40.9175 L 2436.48,33.5732 L 2446.69,28.116 L 2457.77,24.7554 L 2469.29,23.6207 L 4359.05,23.6207 L 4370.58,24.7554 L 4381.65,28.116 L 4391.86,33.5732 L 4400.81,40.9175 L 4676.4,316.508 L 4683.75,325.457 L 4689.2,335.666 L 4692.56,346.745 L 4693.7,358.266 L 4693.7,1322.83 L 5579.53,1322.83 L 5588.76,1323.56 L 5597.78,1325.72 L 5606.34,1329.27 L 5614.24,1334.11 L 5621.29,1340.13 L 5700.03,1418.87 L 5707.37,1427.82 L 5712.83,1438.03 L 5716.19,1449.11 L 5717.32,1460.63 L 5717.32,5062.91 L 5716.19,5074.43 L 5712.83,5085.51 L 5707.37,5095.72 L 5700.02,5104.67 L 5306.32,5498.37 L 5299.28,5504.39 L 5291.38,5509.23 L 5282.82,5512.78 L 5273.8,5514.94 L 5264.57,5515.67 L 244.802,5515.67 L 233.281,5514.53 L 222.203,5511.17 L 211.993,5505.72 L 203.044,5498.37 L 40.9182,5336.25 L 33.5739,5327.3 L 28.1166,5317.09 L 24.7561,5306.01 L 23.6213,5294.49 z " style="fill-opacity:1.000000;fill:rgb(167,241,217);stroke:rgb(0,0,0);stroke-width:2"/></g>
<g fill-rule="evenodd"><path d="M 111.024,2535.43 L 111.024,2433.07 L 112.658,2417.52 L 117.491,2402.65 L 125.31,2389.1 L 126.771,2387.48 L 126.771,1596.77 L 125.31,1595.15 L 117.491,1581.61 L 112.658,1566.73 L 111.024,1551.18 L 111.024,1448.82 L 112.658,1433.27 L 117.491,1418.39 L 125.31,1404.85 L 126.771,1403.23 L 126.771,1263.78 L 127.498,1254.54 L 129.662,1245.53 L 133.208,1236.97 L 138.05,1229.07 L 144.068,1222.02 L 183.438,1182.65 L 192.387,1175.31 L 202.597,1169.85 L 213.675,1166.49 L 225.196,1165.35 L 1111.02,1165.35 L 1111.02,535.433 L 973.226,535.433 L 961.705,534.298 L 950.627,530.938 L 940.417,525.48 L 931.468,518.136 L 924.124,509.187 L 918.667,498.977 L 915.306,487.899 L 914.171,476.378 L 914.171,82.6758 L 915.306,71.1547 L 918.667,60.0764 L 924.124,49.8665 L 931.468,40.9175 L 940.417,33.5732 L 950.627,28.116 L 961.705,24.7554 L 973.226,23.6207 L 984.748,24.7554 L 992.833,27.2082 L 1000.92,24.7554 L 1012.44,23.6207 L 1878.74,23.6207 L 1887.98,24.3477 L 1896.99,26.511 L 1905.55,30.0573 L 1913.45,34.8992 L 1920.5,40.9175 L 1959.87,80.2875 L 1967.21,89.2365 L 1972.67,99.4464 L 1976.03,110.525 L 1977.16,122.046 L 1977.16,456.693 L 2523.57,456.693 L 2564.57,415.695 L 2564.57,331.212 L 2561.04,325.107 L 2556.62,311.487 L 2555.12,297.244 L 2555.12,261.811 L 2556.62,247.568 L 2561.04,233.948 L 2568.2,221.545 L 2577.78,210.903 L 2589.37,202.485 L 2602.45,196.66 L 2616.46,193.682 L 2630.78,193.682 L 2644.79,196.66 L 2657.87,202.485 L 2669.46,210.903 L 2679.04,221.545 L 2686.2,233.948 L 2690.63,247.568 L 2692.13,261.811 L 2692.13,297.244 L 2690.63,311.487 L 2686.2,325.107 L 2682.68,331.218 L 2682.68,440.156 L 2681.54,451.677 L 2678.18,462.755 L 2672.72,472.965 L 2665.38,481.914 L 2589.79,557.506 L 2582.74,563.524 L 2574.84,568.366 L 2566.28,571.912 L 2557.27,574.076 L 2548.03,574.803 L 1918.11,574.803 L 1906.59,573.668 L 1895.51,570.308 L 1885.3,564.85 L 1876.35,557.506 L 1869.01,548.557 L 1863.55,538.347 L 1860.19,527.269 L 1859.05,515.748 L 1859.05,146.507 L 1854.28,141.731 L 1032.28,141.731 L 1032.28,417.323 L 1148.7,417.323 L 1150.61,416.469 L 1163.49,413.731 L 1176.66,413.731 L 1189.54,416.469 L 1201.57,421.825 L 1212.23,429.566 L 1221.04,439.352 L 1227.62,450.757 L 1231.69,463.281 L 1233.07,476.378 L 1231.69,489.475 L 1229.13,497.356 L 1229.13,1047.24 L 4060.63,1047.24 L 4060.63,911.526 L 4058.07,903.648 L 4056.69,890.551 L 4058.07,877.454 L 4060.63,869.576 L 4060.63,773.279 L 4059,771.653 L 3611.02,771.653 L 3599.5,770.518 L 3588.42,767.158 L 3578.21,761.7 L 3569.26,754.356 L 3411.78,596.876 L 3404.44,587.927 L 3398.98,577.717 L 3395.62,566.639 L 3394.49,555.118 L 3394.49,497.352 L 3391.93,489.475 L 3390.55,476.378 L 3391.93,463.281 L 3396,450.757 L 3402.58,439.352 L 3411.39,429.566 L 3422.05,421.825 L 3434.08,416.469 L 3446.96,413.731 L 3460.13,413.731 L 3473.01,416.469 L 3485.04,421.825 L 3495.69,429.566 L 3504.51,439.352 L 3511.09,450.757 L 3515.16,463.281 L 3516.54,476.378 L 3515.16,489.475 L 3512.6,497.358 L 3512.6,530.656 L 3635.48,653.543 L 4083.46,653.543 L 4092.7,654.27 L 4101.71,656.433 L 4110.27,659.979 L 4118.18,664.821 L 4125.22,670.84 L 4164.59,710.21 L 4171.21,718.095 L 4176.36,727.01 L 4179.88,736.683 L 4181.66,746.821 L 4181.66,757.115 L 4179.88,767.252 L 4178.74,770.378 L 4178.74,869.572 L 4181.3,877.454 L 4182.68,890.551 L 4181.3,903.648 L 4178.74,911.53 L 4178.74,1360.58 L 4377.22,1559.05 L 5500.79,1559.05 L 5512.31,1560.19 L 5523.39,1563.55 L 5533.6,1569.01 L 5542.54,1576.35 L 5549.89,1585.3 L 5555.35,1595.51 L 5558.71,1606.59 L 5559.84,1618.11 L 5559.84,2334.64 L 5558.71,2346.16 L 5555.35,2357.24 L 5549.89,2367.45 L 5542.54,2376.4 L 5382.12,2536.83 L 5380.96,2547.87 L 5375.87,2563.52 L 5367.64,2577.78 L 5356.62,2590.01 L 5343.31,2599.69 L 5328.27,2606.38 L 5312.17,2609.8 L 5295.71,2609.8 L 5279.6,2606.38 L 5264.57,2599.69 L 5251.99,2590.55 L 4100.05,2590.55 L 3945.67,2744.93 L 3945.67,3214.79 L 3955.31,3227.85 L 3961.68,3242.18 L 3964.94,3257.51 L 3964.94,3273.19 L 3961.68,3288.53 L 3955.31,3302.85 L 3946.09,3315.54 L 3934.44,3326.03 L 3920.86,3333.87 L 3905.95,3338.72 L 3890.35,3340.35 L 3882.87,3340.35 L 3867.28,3338.72 L 3852.37,3333.87 L 3838.79,3326.03 L 3836.99,3324.41 L 3565.35,3324.41 L 3556.11,3323.68 L 3547.1,3321.52 L 3538.54,3317.97 L 3530.64,3313.13 L 3523.59,3307.11 L 3492.91,3276.43 L 3180.34,3589 L 3173.29,3595.02 L 3165.39,3599.86 L 3156.83,3603.41 L 3147.82,3605.57 L 3138.58,3606.3 L 2651.23,3606.3 L 2668.53,3623.6 L 2675.87,3632.54 L 2681.33,3642.75 L 2684.69,3653.83 L 2685.83,3665.35 L 2685.83,4285.04 L 2833.07,4285.04 L 2844.59,4286.17 L 2855.67,4289.53 L 2865.88,4294.99 L 2874.83,4302.34 L 3042.54,4470.05 L 3049.89,4479 L 3055.35,4489.21 L 3058.71,4500.29 L 3059.84,4511.81 L 3059.84,4852.76 L 3093.4,4852.86 L 3097.42,4853.72 L 3101.18,4855.39 L 3104.51,4857.81 L 3107.26,4860.87 L 3109.32,4864.43 L 3110.59,4868.35 L 3111.02,4872.44 L 3111.02,4878.69 L 3333.04,4656.67 L 3341.99,4649.32 L 3352.2,4643.86 L 3363.28,4640.5 L 3374.8,4639.37 L 3701.52,4639.37 L 3729.54,4611.34 L 3729.54,4608.7 L 3732.8,4593.36 L 3739.18,4579.04 L 3748.4,4566.35 L 3760.05,4555.86 L 3773.63,4548.02 L 3788.54,4543.17 L 3804.13,4541.54 L 3811.61,4541.54 L 3827.21,4543.17 L 3842.12,4548.02 L 3855.7,4555.86 L 3867.35,4566.35 L 3876.57,4579.04 L 3882.94,4593.36 L 3886.2,4608.7 L 3886.2,4624.38 L 3882.94,4639.71 L 3876.57,4654.04 L 3867.35,4666.72 L 3855.7,4677.21 L 3842.12,4685.05 L 3827.21,4689.9 L 3816.95,4690.97 L 3767.74,4740.18 L 3758.79,4747.53 L 3748.58,4752.98 L 3737.5,4756.34 L 3725.98,4757.48 L 3399.26,4757.48 L 3151.99,5004.75 L 3143.04,5012.09 L 3132.83,5017.55 L 3121.76,5020.91 L 3111.02,5021.97 L 3111.02,5053.54 L 3110.59,5057.64 L 3109.32,5061.55 L 3107.26,5065.11 L 3104.51,5068.17 L 3101.18,5070.59 L 3097.42,5072.26 L 3093.4,5073.12 L 2908.18,5073.12 L 2904.15,5072.26 L 2900.39,5070.59 L 2897.06,5068.17 L 2894.31,5065.11 L 2892.25,5061.55 L 2890.98,5057.64 L 2890.55,5053.54 L 2890.55,4872.44 L 2890.98,4868.35 L 2892.25,4864.43 L 2894.31,4860.87 L 2897.06,4857.81 L 2900.39,4855.39 L 2904.15,4853.72 L 2908.18,4852.86 L 2910.24,4852.76 L 2941.73,4852.76 L 2941.73,4536.27 L 2808.61,4403.15 L 2651.23,4403.15 L 2314.2,4740.18 L 2305.25,4747.53 L 2295.04,4752.98 L 2283.96,4756.34 L 2272.44,4757.48 L 2260.92,4756.34 L 2249.84,4752.98 L 2239.63,4747.53 L 2230.68,4740.18 L 2166.09,4675.59 L 1770.89,4675.59 L 1769.08,4677.21 L 1755.51,4685.05 L 1740.59,4689.9 L 1725,4691.54 L 1717.52,4691.54 L 1701.93,4689.9 L 1687.01,4685.05 L 1673.44,4677.21 L 1661.78,4666.72 L 1652.57,4654.04 L 1646.19,4639.71 L 1642.93,4624.38 L 1642.93,4608.7 L 1646.19,4593.36 L 1652.57,4579.04 L 1661.78,4566.35 L 1673.44,4555.86 L 1687.01,4548.02 L 1701.93,4543.17 L 1717.52,4541.54 L 1725,4541.54 L 1740.59,4543.17 L 1755.51,4548.02 L 1769.08,4555.86 L 1770.88,4557.48 L 2190.55,4557.48 L 2202.07,4558.61 L 2213.15,4561.97 L 2223.36,4567.43 L 2232.31,4574.78 L 2272.44,4614.91 L 2567.72,4319.63 L 2567.72,3689.82 L 2484.2,3606.3 L 2260.68,3606.3 L 2155.96,3711.02 L 2196.09,3751.15 L 2203.43,3760.1 L 2208.89,3770.31 L 2212.25,3781.39 L 2213.39,3792.91 L 2212.25,3804.43 L 2208.89,3815.51 L 2203.43,3825.72 L 2196.09,3834.67 L 2187.14,3842.01 L 2176.93,3847.47 L 2165.85,3850.83 L 2154.33,3851.97 L 2142.81,3850.83 L 2131.73,3847.47 L 2121.52,3842.01 L 2112.57,3834.67 L 2047.98,3770.08 L 1770.89,3770.08 L 1769.08,3771.7 L 1755.51,3779.54 L 1740.59,3784.38 L 1725,3786.02 L 1717.52,3786.02 L 1701.93,3784.38 L 1687.01,3779.54 L 1673.44,3771.7 L 1661.78,3761.21 L 1652.57,3748.52 L 1646.19,3734.2 L 1642.93,3718.86 L 1642.93,3703.18 L 1646.19,3687.85 L 1652.57,3673.52 L 1661.78,3660.84 L 1673.44,3650.35 L 1687.01,3642.51 L 1701.93,3637.66 L 1717.52,3636.02 L 1725,3636.02 L 1740.59,3637.66 L 1755.51,3642.51 L 1769.08,3650.35 L 1770.88,3651.97 L 2047.98,3651.97 L 2194.46,3505.48 L 2203.41,3498.14 L 2213.62,3492.68 L 2224.7,3489.32 L 2236.22,3488.19 L 3114.12,3488.19 L 3451.15,3151.15 L 3459.04,3144.54 L 3467.95,3139.39 L 3477.63,3135.87 L 3487.77,3134.08 L 3498.06,3134.08 L 3508.2,3135.87 L 3517.87,3139.39 L 3526.79,3144.54 L 3534.67,3151.15 L 3589.81,3206.3 L 3827.56,3206.3 L 3827.56,2720.47 L 3828.28,2711.23 L 3830.45,2702.22 L 3833.99,2693.66 L 3838.84,2685.76 L 3844.85,2678.71 L 4033.83,2489.74 L 4042.78,2482.39 L 4052.99,2476.94 L 4064.07,2473.58 L 4075.59,2472.44 L 5251.99,2472.44 L 5264.57,2463.31 L 5279.6,2456.61 L 5295.71,2453.19 L 5298.73,2453.19 L 5441.73,2310.18 L 5441.73,1677.16 L 4352.75,1677.16 L 4343.52,1676.44 L 4334.51,1674.27 L 4325.94,1670.73 L 4318.04,1665.89 L 4311,1659.87 L 4119.68,1468.55 L 3778.74,1809.5 L 3778.74,2069.57 L 3781.3,2077.45 L 3782.68,2090.55 L 3781.3,2103.65 L 3777.23,2116.17 L 3770.65,2127.58 L 3761.83,2137.36 L 3751.18,2145.1 L 3739.15,2150.46 L 3726.27,2153.2 L 3713.1,2153.2 L 3700.22,2150.46 L 3688.19,2145.1 L 3677.54,2137.36 L 3668.72,2127.58 L 3662.14,2116.17 L 3658.07,2103.65 L 3656.69,2090.55 L 3658.07,2077.45 L 3660.63,2069.58 L 3660.63,1785.04 L 3661.76,1773.52 L 3665.12,1762.44 L 3670.58,1752.23 L 3677.93,1743.28 L 4060.63,1360.58 L 4060.63,1165.35 L 1233.91,1165.35 L 1229.13,1170.13 L 1229.13,1224.41 L 1228,1235.93 L 1224.64,1247.01 L 1219.18,1257.22 L 1211.84,1266.17 L 1202.89,1273.51 L 1192.68,1278.97 L 1181.6,1282.33 L 1170.08,1283.46 L 249.658,1283.46 L 244.882,1288.24 L 244.882,1403.23 L 246.344,1404.85 L 254.163,1418.39 L 258.995,1433.27 L 260.63,1448.82 L 260.63,1551.18 L 258.995,1566.73 L 254.163,1581.61 L 246.344,1595.15 L 244.882,1596.77 L 244.882,2387.48 L 246.344,2389.1 L 254.163,2402.65 L 258.995,2417.52 L 260.63,2433.07 L 260.63,2535.43 L 258.995,2550.99 L 254.163,2565.86 L 246.344,2579.4 L 235.88,2591.02 L 223.228,2600.21 L 208.942,2606.58 L 193.646,2609.83 L 178.008,2609.83 L 162.711,2606.58 L 148.425,2600.21 L 135.774,2591.02 L 125.31,2579.4 L 117.491,2565.86 L 112.658,2550.99 L 111.024,2535.43 z " style="fill-opacity:1.000000;fill:rgb(42,130,200);stroke:rgb(0,0,0);stroke-width:2"/></g>
<g fill-rule="evenodd"><path d="M 504.724,2535.43 L 504.724,2433.07 L 506.359,2417.52 L 511.191,2402.65 L 519.011,2389.1 L 520.471,2387.48 L 520.471,1596.77 L 519.011,1595.15 L 511.191,1581.61 L 506.359,1566.73 L 504.724,1551.18 L 504.724,1448.82 L 506.359,1433.27 L 511.191,1418.39 L 519.011,1404.85 L 529.474,1393.23 L 542.126,1384.04 L 556.412,1377.68 L 571.709,1374.43 L 587.347,1374.43 L 602.643,1377.68 L 616.929,1384.04 L 629.581,1393.23 L 640.045,1404.85 L 647.864,1418.39 L 652.696,1433.27 L 654.331,1448.82 L 654.331,1551.18 L 652.696,1566.73 L 647.864,1581.61 L 640.045,1595.15 L 638.582,1596.77 L 638.582,1755.9 L 2705.51,1755.9 L 2717.03,1757.04 L 2728.11,1760.4 L 2738.32,1765.86 L 2747.27,1773.2 L 2761.44,1787.38 L 2767.46,1794.42 L 2772.3,1802.32 L 2775.85,1810.88 L 2778.01,1819.9 L 2778.74,1829.13 L 2778.74,2069.57 L 2781.3,2077.45 L 2782.68,2090.55 L 2781.3,2103.65 L 2777.23,2116.17 L 2770.65,2127.58 L 2761.83,2137.36 L 2751.18,2145.1 L 2739.15,2150.46 L 2726.27,2153.2 L 2713.1,2153.2 L 2700.22,2150.46 L 2688.19,2145.1 L 2677.54,2137.36 L 2668.72,2127.58 L 2662.14,2116.17 L 2658.07,2103.65 L 2656.69,2090.55 L 2658.07,2077.45 L 2660.63,2069.58 L 2660.63,1874.01 L 638.582,1874.01 L 638.582,2387.48 L 640.045,2389.1 L 647.864,2402.65 L 652.696,2417.52 L 654.331,2433.07 L 654.331,2535.43 L 652.696,2550.99 L 647.864,2565.86 L 640.045,2579.4 L 629.581,2591.02 L 616.929,2600.21 L 602.643,2606.58 L 587.347,2609.83 L 571.709,2609.83 L 556.412,2606.58 L 542.126,2600.21 L 529.474,2591.02 L 519.011,2579.4 L 511.191,2565.86 L 506.359,2550.99 L 504.724,2535.43 z " style="fill-opacity:1.000000;fill:rgb(216,254,67);stroke:rgb(0,0,0);stroke-width:2"/></g>
<g fill-rule="evenodd"><path d="M 902.362,4307.09 L 902.362,4125.98 L 902.792,4121.89 L 904.064,4117.98 L 906.122,4114.41 L 908.875,4111.36 L 912.205,4108.94 L 915.964,4107.26 L 919.99,4106.41 L 1105.21,4106.41 L 1109.23,4107.26 L 1112.99,4108.94 L 1116.32,4111.36 L 1119.08,4114.41 L 1121.13,4117.98 L 1122.4,4121.89 L 1122.83,4125.98 L 1122.83,4157.48 L 1288.19,4157.48 L 1299.71,4158.61 L 1310.79,4161.97 L 1321,4167.43 L 1329.95,4174.78 L 1512.65,4357.48 L 1671.64,4357.48 L 1673.44,4355.86 L 1687.01,4348.02 L 1701.93,4343.17 L 1717.52,4341.54 L 1725,4341.54 L 1740.59,4343.17 L 1755.51,4348.02 L 1769.08,4355.86 L 1780.74,4366.35 L 1789.95,4379.04 L 1796.33,4393.36 L 1799.59,4408.7 L 1799.59,4424.38 L 1796.33,4439.71 L 1789.95,4454.04 L 1780.74,4466.72 L 1769.08,4477.21 L 1755.51,4485.05 L 1740.59,4489.9 L 1725,4491.54 L 1717.52,4491.54 L 1701.93,4489.9 L 1687.01,4485.05 L 1673.44,4477.21 L 1671.63,4475.59 L 1481.94,4475.59 L 1172.47,4785.06 L 1163.52,4792.41 L 1153.31,4797.87 L 1142.23,4801.23 L 1130.71,4802.36 L 1119.19,4801.23 L 1108.11,4797.87 L 1097.9,4792.41 L 1088.95,4785.06 L 1081.61,4776.12 L 1076.15,4765.91 L 1072.79,4754.83 L 1071.65,4743.31 L 1072.79,4731.78 L 1076.15,4720.71 L 1081.61,4710.5 L 1088.95,4701.55 L 1389.32,4401.18 L 1263.73,4275.59 L 1122.83,4275.59 L 1122.83,4307.09 L 1122.4,4311.18 L 1121.13,4315.09 L 1119.08,4318.66 L 1116.32,4321.72 L 1112.99,4324.13 L 1109.23,4325.81 L 1105.21,4326.66 L 922.047,4326.77 L 919.99,4326.66 L 915.964,4325.81 L 912.205,4324.13 L 908.875,4321.72 L 906.122,4318.66 L 904.064,4315.09 L 902.792,4311.18 L 902.362,4307.09 z " style="fill-opacity:1.000000;fill:rgb(77,152,85);stroke:rgb(0,0,0);stroke-width:2"/></g>
<g fill-rule="evenodd"><path d="M 902.362,3429.13 L 904.771,3406.21 L 911.893,3384.3 L 923.415,3364.34 L 938.836,3347.21 L 957.48,3333.67 L 978.534,3324.29 L 1001.08,3319.5 L 1024.12,3319.5 L 1046.66,3324.29 L 1067.72,3333.67 L 1086.36,3347.21 L 1101.78,3364.34 L 1105.1,3370.08 L 1229.13,3370.08 L 1229.13,3232.28 L 1230.27,3220.76 L 1233.63,3209.68 L 1239.09,3199.47 L 1246.43,3190.52 L 1725.98,2710.97 L 1725.98,2562.99 L 1727.12,2551.47 L 1730.48,2540.39 L 1735.94,2530.18 L 1743.28,2521.23 L 1752.23,2513.89 L 1762.44,2508.43 L 1773.52,2505.07 L 1785.04,2503.94 L 1796.56,2505.07 L 1807.64,2508.43 L 1817.85,2513.89 L 1826.8,2521.23 L 1834.14,2530.18 L 1839.6,2540.39 L 1842.96,2551.47 L 1844.09,2562.99 L 1844.09,2735.43 L 1842.96,2746.95 L 1839.6,2758.03 L 1834.14,2768.24 L 1826.8,2777.19 L 1347.24,3256.74 L 1347.24,3370.08 L 1366.93,3370.08 L 1378.45,3371.21 L 1389.53,3374.57 L 1399.74,3380.03 L 1408.69,3387.37 L 1473.28,3451.97 L 1671.64,3451.97 L 1673.44,3450.35 L 1687.01,3442.51 L 1701.93,3437.66 L 1717.52,3436.02 L 1725,3436.02 L 1740.59,3437.66 L 1755.51,3442.51 L 1769.08,3450.35 L 1780.74,3460.84 L 1789.95,3473.52 L 1796.33,3487.85 L 1799.59,3503.18 L 1799.59,3518.86 L 1796.33,3534.2 L 1789.95,3548.52 L 1780.74,3561.21 L 1769.08,3571.7 L 1755.51,3579.54 L 1740.59,3584.38 L 1725,3586.02 L 1717.52,3586.02 L 1701.93,3584.38 L 1687.01,3579.54 L 1673.44,3571.7 L 1671.63,3570.08 L 1448.82,3570.08 L 1437.3,3568.94 L 1426.22,3565.58 L 1416.01,3560.12 L 1407.06,3552.78 L 1342.47,3488.19 L 1105.1,3488.19 L 1101.78,3493.93 L 1086.36,3511.06 L 1067.72,3524.6 L 1046.66,3533.97 L 1024.12,3538.77 L 1001.08,3538.77 L 978.534,3533.97 L 957.48,3524.6 L 938.836,3511.06 L 923.415,3493.93 L 911.893,3473.97 L 904.771,3452.05 L 902.362,3429.13 z " style="fill-opacity:1.000000;fill:rgb(140,226,179);stroke:rgb(0,0,0);stroke-width:2"/></g>
<g fill-rule="evenodd"><path d="M 1107.09,279.528 L 1108.46,266.431 L 1112.53,253.906 L 1119.12,242.502 L 1127.93,232.715 L 1138.58,224.975 L 1150.61,219.618 L 1163.49,216.881 L 1176.66,216.881 L 1189.54,219.618 L 1191.46,220.471 L 1288.19,220.471 L 1297.43,221.198 L 1306.44,223.361 L 1315,226.907 L 1322.9,231.749 L 1329.95,237.768 L 1408.69,316.508 L 1416.03,325.457 L 1421.49,335.666 L 1424.85,346.745 L 1425.98,358.266 L 1425.98,648.766 L 1430.76,653.543 L 2602.31,653.543 L 2764.57,491.286 L 2764.57,362.824 L 2761.63,360.692 L 2758.88,357.634 L 2756.82,354.07 L 2755.55,350.156 L 2755.12,346.063 L 2755.12,212.992 L 2755.55,208.899 L 2756.82,204.985 L 2758.88,201.422 L 2761.63,198.363 L 2764.96,195.944 L 2768.72,194.271 L 2772.75,193.415 L 2872.44,193.307 L 2874.5,193.415 L 2878.52,194.271 L 2882.28,195.944 L 2885.61,198.363 L 2888.37,201.422 L 2890.42,204.985 L 2891.7,208.899 L 2892.13,212.992 L 2892.13,220.471 L 3432.16,220.471 L 3434.08,219.618 L 3446.96,216.881 L 3460.13,216.881 L 3473.01,219.618 L 3485.04,224.975 L 3495.69,232.715 L 3504.51,242.502 L 3511.09,253.906 L 3515.16,266.431 L 3516.54,279.528 L 3515.16,292.624 L 3511.09,305.149 L 3504.51,316.553 L 3495.69,326.34 L 3485.04,334.08 L 3473.01,339.437 L 3460.13,342.175 L 3446.96,342.175 L 3434.08,339.437 L 3432.16,338.581 L 2892.13,338.581 L 2892.13,346.063 L 2891.7,350.156 L 2890.42,354.07 L 2888.37,357.634 L 2885.61,360.692 L 2882.68,362.826 L 2882.68,515.748 L 2881.54,527.269 L 2878.18,538.347 L 2872.72,548.557 L 2865.38,557.506 L 2668.53,754.356 L 2659.58,761.7 L 2649.37,767.158 L 2638.29,770.518 L 2626.77,771.653 L 1778.74,771.653 L 1778.74,869.572 L 1781.3,877.454 L 1782.68,890.551 L 1781.3,903.648 L 1777.23,916.172 L 1770.65,927.577 L 1761.83,937.363 L 1751.18,945.104 L 1739.15,950.46 L 1726.27,953.198 L 1713.1,953.198 L 1700.22,950.46 L 1688.19,945.104 L 1677.54,937.363 L 1668.72,927.577 L 1662.14,916.172 L 1658.07,903.648 L 1656.69,890.551 L 1658.07,877.454 L 1660.63,869.576 L 1660.63,771.653 L 1406.3,771.653 L 1394.78,770.518 L 1383.7,767.158 L 1373.49,761.7 L 1364.54,754.356 L 1325.17,714.986 L 1317.83,706.037 L 1312.37,695.827 L 1309.01,684.749 L 1307.87,673.228 L 1307.87,382.727 L 1263.73,338.581 L 1191.47,338.581 L 1189.54,339.437 L 1176.66,342.175 L 1163.49,342.175 L 1150.61,339.437 L 1138.58,334.08 L 1127.93,326.34 L 1119.12,316.553 L 1112.53,305.149 L 1108.46,292.624 L 1107.09,279.528 z " style="fill-opacity:1.000000;fill:rgb(71,23,17);stroke:rgb(0,0,0);stroke-width:2"/></g>
<g fill-rule="evenodd"><path d="M 1456.69,2090.55 L 1458.07,2077.45 L 1462.14,2064.93 L 1468.72,2053.53 L 1477.54,2043.74 L 1488.19,2036 L 1500.22,2030.64 L 1513.1,2027.9 L 1526.27,2027.9 L 1539.15,2030.64 L 1551.18,2036 L 1561.83,2043.74 L 1570.65,2053.53 L 1577.23,2064.93 L 1581.3,2077.45 L 1582.68,2090.55 L 1581.3,2103.65 L 1577.23,2116.17 L 1570.65,2127.58 L 1561.83,2137.36 L 1551.18,2145.1 L 1539.15,2150.46 L 1526.27,2153.2 L 1513.1,2153.2 L 1500.22,2150.46 L 1488.19,2145.1 L 1477.54,2137.36 L 1468.72,2127.58 L 1462.14,2116.17 L 1458.07,2103.65 L 1456.69,2090.55 z " style="fill-opacity:1.000000;fill:rgb(152,84,47);stroke:rgb(0,0,0);stroke-width:2"/></g>
<g fill-rule="evenodd"><path d="M 1456.69,890.551 L 1458.07,877.454 L 1462.14,864.93 L 1468.72,853.525 L 1477.54,843.739 L 1488.19,835.998 L 1500.22,830.642 L 1513.1,827.904 L 1526.27,827.904 L 1539.15,830.642 L 1551.18,835.998 L 1561.83,843.739 L 1570.65,853.525 L 1577.23,864.93 L 1581.3,877.454 L 1582.68,890.551 L 1581.3,903.648 L 1577.23,916.172 L 1570.65,927.577 L 1561.83,937.363 L 1551.18,945.104 L 1539.15,950.46 L 1526.27,953.198 L 1513.1,953.198 L 1500.22,950.46 L 1488.19,945.104 L 1477.54,937.363 L 1468.72,927.577 L 1462.14,916.172 L 1458.07,903.648 L 1456.69,890.551 z " style="fill-opacity:1.000000;fill:rgb(17,45,5);stroke:rgb(0,0,0);stroke-width:2"/></g>
<g fill-rule="evenodd"><path d="M 1642.52,4291.54 L 1642.52,4141.54 L 1712.74,4141.54 L 1797.61,4056.67 L 1806.56,4049.32 L 1816.77,4043.86 L 1827.85,4040.5 L 1839.37,4039.37 L 2247.98,4039.37 L 2370.87,3916.48 L 2370.87,3792.91 L 2372,3781.39 L 2375.36,3770.31 L 2380.82,3760.1 L 2388.16,3751.15 L 2397.11,3743.81 L 2407.32,3738.35 L 2418.4,3734.99 L 2429.92,3733.86 L 2441.44,3734.99 L 2452.52,3738.35 L 2462.73,3743.81 L 2471.68,3751.15 L 2479.02,3760.1 L 2484.48,3770.31 L 2487.84,3781.39 L 2488.98,3792.91 L 2488.98,3940.94 L 2487.84,3952.46 L 2484.48,3963.54 L 2479.02,3973.75 L 2471.68,3982.7 L 2314.2,4140.18 L 2305.25,4147.53 L 2295.04,4152.98 L 2283.96,4156.34 L 2272.44,4157.48 L 1863.83,4157.48 L 1800,4221.31 L 1800,4291.54 L 1642.52,4291.54 z " style="fill-opacity:1.000000;fill:rgb(88,245,107);stroke:rgb(0,0,0);stroke-width:2"/></g>
<g fill-rule="evenodd"><path d="M 1642.52,3386.02 L 1642.52,3236.02 L 1712.74,3236.02 L 1797.61,3151.15 L 1806.56,3143.81 L 1816.77,3138.35 L 1827.85,3134.99 L 1839.37,3133.86 L 2095.28,3133.86 L 2095.28,2981.1 L 2096.41,2969.58 L 2099.77,2958.5 L 2105.23,2948.29 L 2112.57,2939.34 L 2121.52,2932 L 2131.73,2926.54 L 2142.81,2923.18 L 2154.33,2922.05 L 2165.85,2923.18 L 2176.93,2926.54 L 2187.14,2932 L 2196.09,2939.34 L 2203.43,2948.29 L 2208.89,2958.5 L 2212.25,2969.58 L 2213.39,2981.1 L 2213.39,3192.91 L 2212.25,3204.43 L 2208.89,3215.51 L 2203.43,3225.72 L 2196.09,3234.67 L 2187.14,3242.01 L 2176.93,3247.47 L 2165.85,3250.83 L 2154.33,3251.97 L 1863.83,3251.97 L 1800,3315.8 L 1800,3386.02 L 1642.52,3386.02 z " style="fill-opacity:1.000000;fill:rgb(214,136,7);stroke:rgb(0,0,0);stroke-width:2"/></g>
<g fill-rule="evenodd"><path d="M 1656.69,2090.55 L 1658.07,2077.45 L 1662.14,2064.93 L 1668.72,2053.53 L 1677.54,2043.74 L 1688.19,2036 L 1700.22,2030.64 L 1713.1,2027.9 L 1726.27,2027.9 L 1739.15,2030.64 L 1751.18,2036 L 1761.83,2043.74 L 1770.65,2053.53 L 1777.23,2064.93 L 1781.3,2077.45 L 1782.68,2090.55 L 1781.3,2103.65 L 1777.23,2116.17 L 1770.65,2127.58 L 1761.83,2137.36 L 1751.18,2145.1 L 1739.15,2150.46 L 1726.27,2153.2 L 1713.1,2153.2 L 1700.22,2150.46 L 1688.19,2145.1 L 1677.54,2137.36 L 1668.72,2127.58 L 1662.14,2116.17 L 1658.07,2103.65 L 1656.69,2090.55 z " style="fill-opacity:1.000000;fill:rgb(153,146,72);stroke:rgb(0,0,0);stroke-width:2"/></g>
<g fill-rule="evenodd"><path d="M 1856.69,2090.55 L 1858.07,2077.45 L 1862.14,2064.93 L 1868.72,2053.53 L 1877.54,2043.74 L 1888.19,2036 L 1900.22,2030.64 L 1913.1,2027.9 L 1926.27,2027.9 L 1939.15,2030.64 L 1951.18,2036 L 1961.83,2043.74 L 1970.65,2053.53 L 1977.23,2064.93 L 1981.3,2077.45 L 1982.68,2090.55 L 1981.3,2103.65 L 1977.23,2116.17 L 1970.65,2127.58 L 1961.83,2137.36 L 1951.18,2145.1 L 1939.15,2150.46 L 1926.27,2153.2 L 1913.1,2153.2 L 1900.22,2150.46 L 1888.19,2145.1 L 1877.54,2137.36 L 1868.72,2127.58 L 1862.14,2116.17 L 1858.07,2103.65 L 1856.69,2090.55 z " style="fill-opacity:1.000000;fill:rgb(51,98,65);stroke:rgb(0,0,0);stroke-width:2"/></g>
<g fill-rule="evenodd"><path d="M 1856.69,890.551 L 1858.07,877.454 L 1862.14,864.93 L 1868.72,853.525 L 1877.54,843.739 L 1888.19,835.998 L 1900.22,830.642 L 1913.1,827.904 L 1926.27,827.904 L 1939.15,830.642 L 1951.18,835.998 L 1961.83,843.739 L 1970.65,853.525 L 1977.23,864.93 L 1981.3,877.454 L 1982.68,890.551 L 1981.3,903.648 L 1977.23,916.172 L 1970.65,927.577 L 1961.83,937.363 L 1951.18,945.104 L 1939.15,950.46 L 1926.27,953.198 L 1913.1,953.198 L 1900.22,950.46 L 1888.19,945.104 L 1877.54,937.363 L 1868.72,927.577 L 1862.14,916.172 L 1858.07,903.648 L 1856.69,890.551 z " style="fill-opacity:1.000000;fill:rgb(243,13,35);stroke:rgb(0,0,0);stroke-width:2"/></g>
<g fill-rule="evenodd"><path d="M 2056.69,2090.55 L 2058.07,2077.45 L 2062.14,2064.93 L 2068.72,2053.53 L 2077.54,2043.74 L 2088.19,2036 L 2100.22,2030.64 L 2113.1,2027.9 L 2126.27,2027.9 L 2139.15,2030.64 L 2151.18,2036 L 2161.83,2043.74 L 2170.65,2053.53 L 2177.23,2064.93 L 2181.3,2077.45 L 2182.68,2090.55 L 2181.3,2103.65 L 2177.23,2116.17 L 2170.65,2127.58 L 2161.83,2137.36 L 2151.18,2145.1 L 2139.15,2150.46 L 2126.27,2153.2 L 2113.1,2153.2 L 2100.22,2150.46 L 2088.19,2145.1 L 2077.54,2137.36 L 2068.72,2127.58 L 2062.14,2116.17 L 2058.07,2103.65 L 2056.69,2090.55 z " style="fill-opacity:1.000000;fill:rgb(229,95,48);stroke:rgb(0,0,0);stroke-width:2"/></g>
<g fill-rule="evenodd"><path d="M 2056.69,890.551 L 2058.07,877.454 L 2062.14,864.93 L 2068.72,853.525 L 2077.54,843.739 L 2088.19,835.998 L 2100.22,830.642 L 2113.1,827.904 L 2126.27,827.904 L 2139.15,830.642 L 2151.18,835.998 L 2161.83,843.739 L 2170.65,853.525 L 2177.23,864.93 L 2181.3,877.454 L 2182.68,890.551 L 2181.3,903.648 L 2177.23,916.172 L 2170.65,927.577 L 2161.83,937.363 L 2151.18,945.104 L 2139.15,950.46 L 2126.27,953.198 L 2113.1,953.198 L 2100.22,950.46 L 2088.19,945.104 L 2077.54,937.363 L 2068.72,927.577 L 2062.14,916.172 L 2058.07,903.648 L 2056.69,890.551 z " style="fill-opacity:1.000000;fill:rgb(209,200,237);stroke:rgb(0,0,0);stroke-width:2"/></g>
<g fill-rule="evenodd"><path d="M 2095.28,2381.1 L 2096.41,2369.58 L 2099.77,2358.5 L 2105.23,2348.29 L 2112.57,2339.34 L 2121.52,2332 L 2131.73,2326.54 L 2142.81,2323.18 L 2154.33,2322.05 L 2390.5,2322.05 L 2460.63,2251.92 L 2460.63,2111.53 L 2458.07,2103.65 L 2456.69,2090.55 L 2458.07,2077.45 L 2462.14,2064.93 L 2468.72,2053.53 L 2477.54,2043.74 L 2488.19,2036 L 2500.22,2030.64 L 2513.1,2027.9 L 2526.27,2027.9 L 2539.15,2030.64 L 2551.18,2036 L 2561.83,2043.74 L 2570.65,2053.53 L 2577.23,2064.93 L 2581.3,2077.45 L 2582.68,2090.55 L 2581.3,2103.65 L 2578.74,2111.53 L 2578.74,2276.38 L 2577.6,2287.9 L 2574.24,2298.98 L 2568.79,2309.19 L 2561.44,2318.14 L 2456.72,2422.86 L 2447.77,2430.2 L 2437.56,2435.66 L 2426.48,2439.02 L 2414.96,2440.16 L 2154.33,2440.16 L 2142.81,2439.02 L 2131.73,2435.66 L 2121.52,2430.2 L 2112.57,2422.86 L 2105.23,2413.91 L 2099.77,2403.7 L 2096.41,2392.62 L 2095.28,2381.1 z " style="fill-opacity:1.000000;fill:rgb(97,12,75);stroke:rgb(0,0,0);stroke-width:2"/></g>
<g fill-rule="evenodd"><path d="M 2155.12,297.244 L 2155.12,261.811 L 2156.62,247.568 L 2161.04,233.948 L 2168.2,221.545 L 2177.78,210.903 L 2189.37,202.485 L 2202.45,196.66 L 2216.46,193.682 L 2230.78,193.682 L 2244.79,196.66 L 2257.87,202.485 L 2269.46,210.903 L 2279.04,221.545 L 2286.2,233.948 L 2290.63,247.568 L 2292.13,261.811 L 2292.13,297.244 L 2290.63,311.487 L 2286.2,325.107 L 2279.04,337.51 L 2269.46,348.152 L 2257.87,356.57 L 2244.79,362.395 L 2230.78,365.373 L 2216.46,365.373 L 2202.45,362.395 L 2189.37,356.57 L 2177.78,348.152 L 2168.2,337.51 L 2161.04,325.107 L 2156.62,311.487 L 2155.12,297.244 z " style="fill-opacity:1.000000;fill:rgb(2,53,57);stroke:rgb(0,0,0);stroke-width:2"/></g>
<g fill-rule="evenodd"><path d="M 2256.69,2090.55 L 2258.07,2077.45 L 2262.14,2064.93 L 2268.72,2053.53 L 2277.54,2043.74 L 2288.19,2036 L 2300.22,2030.64 L 2313.1,2027.9 L 2326.27,2027.9 L 2339.15,2030.64 L 2351.18,2036 L 2361.83,2043.74 L 2370.65,2053.53 L 2377.23,2064.93 L 2381.3,2077.45 L 2382.68,2090.55 L 2381.3,2103.65 L 2377.23,2116.17 L 2370.65,2127.58 L 2361.83,2137.36 L 2351.18,2145.1 L 2339.15,2150.46 L 2326.27,2153.2 L 2313.1,2153.2 L 2300.22,2150.46 L 2288.19,2145.1 L 2277.54,2137.36 L 2268.72,2127.58 L 2262.14,2116.17 L 2258.07,2103.65 L 2256.69,2090.55 z " style="fill-opacity:1.000000;fill:rgb(129,132,184);stroke:rgb(0,0,0);stroke-width:2"/></g>
<g fill-rule="evenodd"><path d="M 2256.69,890.551 L 2258.07,877.454 L 2262.14,864.93 L 2268.72,853.525 L 2277.54,843.739 L 2288.19,835.998 L 2300.22,830.642 L 2313.1,827.904 L 2326.27,827.904 L 2339.15,830.642 L 2351.18,835.998 L 2361.83,843.739 L 2370.65,853.525 L 2377.23,864.93 L 2381.3,877.454 L 2382.68,890.551 L 2381.3,903.648 L 2377.23,916.172 L 2370.65,927.577 L 2361.83,937.363 L 2351.18,945.104 L 2339.15,950.46 L 2326.27,953.198 L 2313.1,953.198 L 2300.22,950.46 L 2288.19,945.104 L 2277.54,937.363 L 2268.72,927.577 L 2262.14,916.172 L 2258.07,903.648 L 2256.69,890.551 z " style="fill-opacity:1.000000;fill:rgb(20,162,156);stroke:rgb(0,0,0);stroke-width:2"/></g>
<g fill-rule="evenodd"><path d="M 2370.87,3192.91 L 2370.87,2877.95 L 2372,2866.43 L 2375.36,2855.35 L 2380.82,2845.14 L 2388.16,2836.19 L 2860.63,2363.73 L 2860.63,2111.53 L 2858.07,2103.65 L 2856.69,2090.55 L 2858.07,2077.45 L 2862.14,2064.93 L 2868.72,2053.53 L 2877.54,2043.74 L 2888.19,2036 L 2900.22,2030.64 L 2913.1,2027.9 L 2926.27,2027.9 L 2939.15,2030.64 L 2951.18,2036 L 2961.83,2043.74 L 2970.65,2053.53 L 2977.23,2064.93 L 2981.3,2077.45 L 2982.68,2090.55 L 2981.3,2103.65 L 2978.74,2111.53 L 2978.74,2388.19 L 2977.6,2399.71 L 2974.24,2410.79 L 2968.79,2421 L 2961.44,2429.95 L 2488.98,2902.41 L 2488.98,3192.91 L 2487.84,3204.43 L 2484.48,3215.51 L 2479.02,3225.72 L 2471.68,3234.67 L 2462.73,3242.01 L 2452.52,3247.47 L 2441.44,3250.83 L 2429.92,3251.97 L 2418.4,3250.83 L 2407.32,3247.47 L 2397.11,3242.01 L 2388.16,3234.67 L 2380.82,3225.72 L 2375.36,3215.51 L 2372,3204.43 L 2370.87,3192.91 z " style="fill-opacity:1.000000;fill:rgb(180,90,103);stroke:rgb(0,0,0);stroke-width:2"/></g>
<g fill-rule="evenodd"><path d="M 2456.69,890.551 L 2458.07,877.454 L 2462.14,864.93 L 2468.72,853.525 L 2477.54,843.739 L 2488.19,835.998 L 2500.22,830.642 L 2513.1,827.904 L 2526.27,827.904 L 2539.15,830.642 L 2551.18,835.998 L 2561.83,843.739 L 2570.65,853.525 L 2577.23,864.93 L 2581.3,877.454 L 2582.68,890.551 L 2581.3,903.648 L 2577.23,916.172 L 2570.65,927.577 L 2561.83,937.363 L 2551.18,945.104 L 2539.15,950.46 L 2526.27,953.198 L 2513.1,953.198 L 2500.22,950.46 L 2488.19,945.104 L 2477.54,937.363 L 2468.72,927.577 L 2462.14,916.172 L 2458.07,903.648 L 2456.69,890.551 z " style="fill-opacity:1.000000;fill:rgb(42,202,229);stroke:rgb(0,0,0);stroke-width:2"/></g>
<g fill-rule="evenodd"><path d="M 2656.69,890.551 L 2658.07,877.454 L 2662.14,864.93 L 2668.72,853.525 L 2677.54,843.739 L 2688.19,835.998 L 2700.22,830.642 L 2713.1,827.904 L 2726.27,827.904 L 2739.15,830.642 L 2751.18,835.998 L 2761.83,843.739 L 2770.65,853.525 L 2777.23,864.93 L 2781.3,877.454 L 2782.68,890.551 L 2781.3,903.648 L 2777.23,916.172 L 2770.65,927.577 L 2761.83,937.363 L 2751.18,945.104 L 2739.15,950.46 L 2726.27,953.198 L 2713.1,953.198 L 2700.22,950.46 L 2688.19,945.104 L 2677.54,937.363 L 2668.72,927.577 L 2662.14,916.172 L 2658.07,903.648 L 2656.69,890.551 z " style="fill-opacity:1.000000;fill:rgb(72,233,197);stroke:rgb(0,0,0);stroke-width:2"/></g>
<g fill-rule="evenodd"><path d="M 2764.57,4019.68 L 2764.57,3792.91 L 2765.7,3781.39 L 2769.06,3770.31 L 2774.52,3760.1 L 2781.86,3751.15 L 2790.81,3743.81 L 2801.02,3738.35 L 2812.1,3734.99 L 2823.62,3733.86 L 2835.14,3734.99 L 2846.22,3738.35 L 2856.43,3743.81 L 2865.38,3751.15 L 2872.72,3760.1 L 2878.18,3770.31 L 2881.54,3781.39 L 2882.68,3792.91 L 2882.68,3995.22 L 2926.82,4039.37 L 3689.76,4039.37 L 3701.28,4040.5 L 3712.36,4043.86 L 3722.57,4049.32 L 3731.52,4056.67 L 3816.39,4141.54 L 3886.61,4141.54 L 3886.61,4291.54 L 3729.13,4291.54 L 3729.13,4221.31 L 3665.3,4157.48 L 2902.36,4157.48 L 2890.84,4156.34 L 2879.76,4152.98 L 2869.55,4147.53 L 2860.6,4140.18 L 2781.86,4061.44 L 2774.52,4052.49 L 2769.06,4042.28 L 2765.7,4031.2 L 2764.57,4019.68 z " style="fill-opacity:1.000000;fill:rgb(241,176,196);stroke:rgb(0,0,0);stroke-width:2"/></g>
<g fill-rule="evenodd"><path d="M 2764.57,3192.91 L 2764.57,2838.58 L 2765.7,2827.06 L 2769.06,2815.98 L 2774.52,2805.77 L 2781.86,2796.82 L 3060.63,2518.06 L 3060.63,2111.53 L 3058.07,2103.65 L 3056.69,2090.55 L 3058.07,2077.45 L 3062.14,2064.93 L 3068.72,2053.53 L 3077.54,2043.74 L 3088.19,2036 L 3100.22,2030.64 L 3113.1,2027.9 L 3126.27,2027.9 L 3139.15,2030.64 L 3151.18,2036 L 3161.83,2043.74 L 3170.65,2053.53 L 3177.23,2064.93 L 3181.3,2077.45 L 3182.68,2090.55 L 3181.3,2103.65 L 3178.74,2111.53 L 3178.74,2542.52 L 3177.6,2554.04 L 3174.24,2565.12 L 3168.79,2575.33 L 3161.44,2584.28 L 2882.68,2863.04 L 2882.68,3192.91 L 2881.54,3204.43 L 2878.18,3215.51 L 2872.72,3225.72 L 2865.38,3234.67 L 2856.43,3242.01 L 2846.22,3247.47 L 2835.14,3250.83 L 2823.62,3251.97 L 2812.1,3250.83 L 2801.02,3247.47 L 2790.81,3242.01 L 2781.86,3234.67 L 2774.52,3225.72 L 2769.06,3215.51 L 2765.7,3204.43 L 2764.57,3192.91 z " style="fill-opacity:1.000000;fill:rgb(21,138,229);stroke:rgb(0,0,0);stroke-width:2"/></g>
<g fill-rule="evenodd"><path d="M 2856.69,890.551 L 2858.07,877.454 L 2862.14,864.93 L 2868.72,853.525 L 2877.54,843.739 L 2888.19,835.998 L 2900.22,830.642 L 2913.1,827.904 L 2926.27,827.904 L 2939.15,830.642 L 2951.18,835.998 L 2961.83,843.739 L 2970.65,853.525 L 2977.23,864.93 L 2981.3,877.454 L 2982.68,890.551 L 2981.3,903.648 L 2977.23,916.172 L 2970.65,927.577 L 2961.83,937.363 L 2951.18,945.104 L 2939.15,950.46 L 2926.27,953.198 L 2913.1,953.198 L 2900.22,950.46 L 2888.19,945.104 L 2877.54,937.363 L 2868.72,927.577 L 2862.14,916.172 L 2858.07,903.648 L 2856.69,890.551 z " style="fill-opacity:1.000000;fill:rgb(155,77,57);stroke:rgb(0,0,0);stroke-width:2"/></g>
<g fill-rule="evenodd"><path d="M 3056.69,890.551 L 3058.07,877.454 L 3062.14,864.93 L 3068.72,853.525 L 3077.54,843.739 L 3088.19,835.998 L 3100.22,830.642 L 3113.1,827.904 L 3126.27,827.904 L 3139.15,830.642 L 3151.18,835.998 L 3161.83,843.739 L 3170.65,853.525 L 3177.23,864.93 L 3181.3,877.454 L 3182.68,890.551 L 3181.3,903.648 L 3177.23,916.172 L 3170.65,927.577 L 3161.83,937.363 L 3151.18,945.104 L 3139.15,950.46 L 3126.27,953.198 L 3113.1,953.198 L 3100.22,950.46 L 3088.19,945.104 L 3077.54,937.363 L 3068.72,927.577 L 3062.14,916.172 L 3058.07,903.648 L 3056.69,890.551 z " style="fill-opacity:1.000000;fill:rgb(246,247,232);stroke:rgb(0,0,0);stroke-width:2"/></g>
<g fill-rule="evenodd"><path d="M 3118.9,3792.91 L 3120.03,3781.39 L 3123.39,3770.31 L 3128.85,3760.1 L 3136.19,3751.15 L 3145.14,3743.81 L 3155.35,3738.35 L 3166.43,3734.99 L 3177.95,3733.86 L 3734.59,3733.86 L 3807.87,3660.58 L 3807.87,3590.35 L 3965.35,3590.35 L 3965.35,3740.35 L 3895.13,3740.35 L 3800.81,3834.67 L 3791.86,3842.01 L 3781.65,3847.47 L 3770.58,3850.83 L 3759.05,3851.97 L 3177.95,3851.97 L 3166.43,3850.83 L 3155.35,3847.47 L 3145.14,3842.01 L 3136.19,3834.67 L 3128.85,3825.72 L 3123.39,3815.51 L 3120.03,3804.43 L 3118.9,3792.91 z " style="fill-opacity:1.000000;fill:rgb(161,5,211);stroke:rgb(0,0,0);stroke-width:2"/></g>
<g fill-rule="evenodd"><path d="M 3118.9,3192.91 L 3118.9,2877.95 L 3120.03,2866.43 L 3123.39,2855.35 L 3128.85,2845.14 L 3136.19,2836.19 L 3260.63,2711.76 L 3260.63,2111.53 L 3258.07,2103.65 L 3256.69,2090.55 L 3258.07,2077.45 L 3262.14,2064.93 L 3268.72,2053.53 L 3277.54,2043.74 L 3288.19,2036 L 3300.22,2030.64 L 3313.1,2027.9 L 3326.27,2027.9 L 3339.15,2030.64 L 3351.18,2036 L 3361.83,2043.74 L 3370.65,2053.53 L 3377.23,2064.93 L 3381.3,2077.45 L 3382.68,2090.55 L 3381.3,2103.65 L 3378.74,2111.53 L 3378.74,2736.22 L 3377.6,2747.74 L 3374.24,2758.82 L 3368.79,2769.03 L 3361.44,2777.98 L 3237.01,2902.41 L 3237.01,3192.91 L 3235.87,3204.43 L 3232.51,3215.51 L 3227.05,3225.72 L 3219.71,3234.67 L 3210.76,3242.01 L 3200.55,3247.47 L 3189.47,3250.83 L 3177.95,3251.97 L 3166.43,3250.83 L 3155.35,3247.47 L 3145.14,3242.01 L 3136.19,3234.67 L 3128.85,3225.72 L 3123.39,3215.51 L 3120.03,3204.43 L 3118.9,3192.91 z " style="fill-opacity:1.000000;fill:rgb(254,237,165);stroke:rgb(0,0,0);stroke-width:2"/></g>
<g fill-rule="evenodd"><path d="M 3256.69,890.551 L 3258.07,877.454 L 3262.14,864.93 L 3268.72,853.525 L 3277.54,843.739 L 3288.19,835.998 L 3300.22,830.642 L 3313.1,827.904 L 3326.27,827.904 L 3339.15,830.642 L 3351.18,835.998 L 3361.83,843.739 L 3370.65,853.525 L 3377.23,864.93 L 3381.3,877.454 L 3382.68,890.551 L 3381.3,903.648 L 3377.23,916.172 L 3370.65,927.577 L 3361.83,937.363 L 3351.18,945.104 L 3339.15,950.46 L 3326.27,953.198 L 3313.1,953.198 L 3300.22,950.46 L 3288.19,945.104 L 3277.54,937.363 L 3268.72,927.577 L 3262.14,916.172 L 3258.07,903.648 L 3256.69,890.551 z " style="fill-opacity:1.000000;fill:rgb(213,243,217);stroke:rgb(0,0,0);stroke-width:2"/></g>
<g fill-rule="evenodd"><path d="M 3456.69,2090.55 L 3458.07,2077.45 L 3462.14,2064.93 L 3468.72,2053.53 L 3477.54,2043.74 L 3488.19,2036 L 3500.22,2030.64 L 3513.1,2027.9 L 3526.27,2027.9 L 3539.15,2030.64 L 3551.18,2036 L 3561.83,2043.74 L 3570.65,2053.53 L 3577.23,2064.93 L 3581.3,2077.45 L 3582.68,2090.55 L 3581.3,2103.65 L 3578.74,2111.53 L 3578.74,2267.71 L 4807.03,2267.71 L 5183.44,1891.31 L 5192.39,1883.97 L 5202.6,1878.51 L 5213.68,1875.15 L 5225.2,1874.01 L 5225.2,1854.33 L 5382.68,1854.33 L 5382.68,2011.81 L 5229.97,2011.81 L 4873.25,2368.53 L 4864.3,2375.87 L 4854.09,2381.33 L 4843.02,2384.69 L 4831.49,2385.82 L 3532.28,2385.82 L 3520.76,2384.69 L 3509.68,2381.33 L 3499.47,2375.87 L 3490.52,2368.53 L 3477.93,2355.93 L 3470.58,2346.98 L 3465.12,2336.77 L 3461.76,2325.69 L 3460.63,2314.17 L 3460.63,2111.53 L 3458.07,2103.65 L 3456.69,2090.55 z " style="fill-opacity:1.000000;fill:rgb(228,91,250);stroke:rgb(0,0,0);stroke-width:2"/></g>
<g fill-rule="evenodd"><path d="M 3456.69,890.551 L 3458.07,877.454 L 3462.14,864.93 L 3468.72,853.525 L 3477.54,843.739 L 3488.19,835.998 L 3500.22,830.642 L 3513.1,827.904 L 3526.27,827.904 L 3539.15,830.642 L 3551.18,835.998 L 3561.83,843.739 L 3570.65,853.525 L 3577.23,864.93 L 3581.3,877.454 L 3582.68,890.551 L 3581.3,903.648 L 3577.23,916.172 L 3570.65,927.577 L 3561.83,937.363 L 3551.18,945.104 L 3539.15,950.46 L 3526.27,953.198 L 3513.1,953.198 L 3500.22,950.46 L 3488.19,945.104 L 3477.54,937.363 L 3468.72,927.577 L 3462.14,916.172 L 3458.07,903.648 L 3456.69,890.551 z " style="fill-opacity:1.000000;fill:rgb(108,195,81);stroke:rgb(0,0,0);stroke-width:2"/></g>
<g fill-rule="evenodd"><path d="M 3656.69,890.551 L 3658.07,877.454 L 3662.14,864.93 L 3668.72,853.525 L 3677.54,843.739 L 3688.19,835.998 L 3700.22,830.642 L 3713.1,827.904 L 3726.27,827.904 L 3739.15,830.642 L 3751.18,835.998 L 3761.83,843.739 L 3770.65,853.525 L 3777.23,864.93 L 3781.3,877.454 L 3782.68,890.551 L 3781.3,903.648 L 3777.23,916.172 L 3770.65,927.577 L 3761.83,937.363 L 3751.18,945.104 L 3739.15,950.46 L 3726.27,953.198 L 3713.1,953.198 L 3700.22,950.46 L 3688.19,945.104 L 3677.54,937.363 L 3668.72,927.577 L 3662.14,916.172 L 3658.07,903.648 L 3656.69,890.551 z " style="fill-opacity:1.000000;fill:rgb(226,32,174);stroke:rgb(0,0,0);stroke-width:2"/></g>
<g fill-rule="evenodd"><path d="M 3729.54,4424.38 L 3729.54,4408.7 L 3732.8,4393.36 L 3739.18,4379.04 L 3748.4,4366.35 L 3760.05,4355.86 L 3773.63,4348.02 L 3788.54,4343.17 L 3804.13,4341.54 L 3811.61,4341.54 L 3827.21,4343.17 L 3842.12,4348.02 L 3855.7,4355.86 L 3857.5,4357.48 L 3947.19,4357.48 L 3953.83,4355.47 L 3965.33,4354.33 L 3985.04,4354.33 L 3985.04,4295.27 L 3986.17,4283.75 L 3989.53,4272.67 L 3994.99,4262.46 L 4002.34,4253.52 L 4277.93,3977.93 L 4286.88,3970.58 L 4297.09,3965.12 L 4308.16,3961.76 L 4319.68,3960.63 L 4424.04,3960.63 L 4427.35,3954.89 L 4442.77,3937.76 L 4461.42,3924.22 L 4482.47,3914.84 L 4505.01,3910.05 L 4528.06,3910.05 L 4550.6,3914.84 L 4571.65,3924.22 L 4590.3,3937.76 L 4605.72,3954.89 L 4617.24,3974.85 L 4624.36,3996.77 L 4626.77,4019.69 L 4624.36,4042.6 L 4617.24,4064.52 L 4605.72,4084.48 L 4590.3,4101.61 L 4571.65,4115.15 L 4550.6,4124.53 L 4528.06,4129.32 L 4505.01,4129.32 L 4482.47,4124.53 L 4461.42,4115.15 L 4442.77,4101.61 L 4427.35,4084.48 L 4424.04,4078.74 L 4344.15,4078.74 L 4103.15,4319.74 L 4103.15,4388.92 L 4203.96,4489.74 L 4211.31,4498.69 L 4216.76,4508.9 L 4220.12,4519.97 L 4221.26,4531.5 L 4221.26,4703.88 L 4241,4723.62 L 4595.27,4723.62 L 4606.8,4724.76 L 4617.87,4728.12 L 4628.08,4733.57 L 4637.03,4740.92 L 4644.38,4749.87 L 4649.83,4760.08 L 4653.19,4771.15 L 4654.33,4782.68 L 4653.19,4794.2 L 4649.83,4805.28 L 4644.38,4815.49 L 4637.03,4824.43 L 4628.08,4831.78 L 4617.87,4837.24 L 4606.8,4840.6 L 4595.27,4841.73 L 4216.53,4841.73 L 4205.01,4840.6 L 4193.94,4837.24 L 4183.73,4831.78 L 4174.78,4824.43 L 4120.45,4770.1 L 4113.1,4761.16 L 4107.64,4750.95 L 4104.28,4739.87 L 4103.15,4728.35 L 4103.15,4555.96 L 4019.63,4472.44 L 3986.66,4472.44 L 3980.04,4474.45 L 3968.52,4475.59 L 3965.36,4475.28 L 3962.2,4475.59 L 3857.5,4475.59 L 3855.7,4477.21 L 3842.12,4485.05 L 3827.21,4489.9 L 3811.61,4491.54 L 3804.13,4491.54 L 3788.54,4489.9 L 3773.63,4485.05 L 3760.05,4477.21 L 3748.4,4466.72 L 3739.18,4454.04 L 3732.8,4439.71 L 3729.54,4424.38 z " style="fill-opacity:1.000000;fill:rgb(12,225,6);stroke:rgb(0,0,0);stroke-width:2"/></g>
<g fill-rule="evenodd"><path d="M 3808.28,3473.19 L 3808.28,3457.51 L 3811.54,3442.18 L 3817.92,3427.85 L 3827.14,3415.17 L 3838.79,3404.68 L 3852.37,3396.84 L 3867.28,3391.99 L 3882.87,3390.35 L 3890.35,3390.35 L 3905.95,3391.99 L 3920.86,3396.84 L 3934.44,3404.68 L 3936.24,3406.3 L 4101.52,3406.3 L 4317.3,3190.52 L 4326.25,3183.18 L 4336.46,3177.72 L 4347.53,3174.36 L 4359.05,3173.23 L 4406.3,3173.23 L 4406.3,3141.73 L 4406.73,3137.64 L 4408,3133.73 L 4410.06,3130.16 L 4412.81,3127.1 L 4416.14,3124.68 L 4419.9,3123.01 L 4423.93,3122.16 L 4425.98,3122.05 L 4609.14,3122.16 L 4613.17,3123.01 L 4616.93,3124.68 L 4620.26,3127.1 L 4623.01,3130.16 L 4625.07,3133.73 L 4626.34,3137.64 L 4626.77,3141.73 L 4626.77,3173.23 L 4758.22,3173.23 L 5016.51,2914.93 L 5025.46,2907.59 L 5035.67,2902.13 L 5046.75,2898.77 L 5058.27,2897.64 L 5069.79,2898.77 L 5080.87,2902.13 L 5091.08,2907.59 L 5100.02,2914.93 L 5107.37,2923.88 L 5112.83,2934.09 L 5116.19,2945.17 L 5117.32,2956.69 L 5116.19,2968.21 L 5112.83,2979.29 L 5107.37,2989.5 L 5100.02,2998.45 L 4824.43,3274.04 L 4815.49,3281.38 L 4805.28,3286.84 L 4794.2,3290.2 L 4782.68,3291.34 L 4626.77,3291.34 L 4626.77,3322.83 L 4626.34,3326.93 L 4625.07,3330.84 L 4623.01,3334.41 L 4620.26,3337.46 L 4616.93,3339.88 L 4613.17,3341.56 L 4609.14,3342.41 L 4607.09,3342.52 L 4425.98,3342.52 L 4423.93,3342.41 L 4419.9,3341.56 L 4416.14,3339.88 L 4412.81,3337.46 L 4410.06,3334.41 L 4408,3330.84 L 4406.73,3326.93 L 4406.3,3322.83 L 4406.3,3291.34 L 4383.52,3291.34 L 4167.74,3507.11 L 4158.79,3514.46 L 4148.58,3519.91 L 4137.5,3523.27 L 4125.98,3524.41 L 3936.24,3524.41 L 3934.44,3526.03 L 3920.86,3533.87 L 3905.95,3538.72 L 3890.35,3540.35 L 3882.87,3540.35 L 3867.28,3538.72 L 3852.37,3533.87 L 3838.79,3526.03 L 3827.14,3515.54 L 3817.92,3502.85 L 3811.54,3488.53 L 3808.28,3473.19 z " style="fill-opacity:1.000000;fill:rgb(152,109,97);stroke:rgb(0,0,0);stroke-width:2"/></g>
<g fill-rule="evenodd"><path d="M 3856.69,2090.55 L 3858.07,2077.45 L 3862.14,2064.93 L 3868.72,2053.53 L 3877.54,2043.74 L 3888.19,2036 L 3900.22,2030.64 L 3913.1,2027.9 L 3926.27,2027.9 L 3939.15,2030.64 L 3951.18,2036 L 3961.83,2043.74 L 3970.65,2053.53 L 3977.23,2064.93 L 3981.3,2077.45 L 3982.68,2090.55 L 3981.3,2103.65 L 3977.23,2116.17 L 3970.65,2127.58 L 3961.83,2137.36 L 3951.18,2145.1 L 3939.15,2150.46 L 3926.27,2153.2 L 3913.1,2153.2 L 3900.22,2150.46 L 3888.19,2145.1 L 3877.54,2137.36 L 3868.72,2127.58 L 3862.14,2116.17 L 3858.07,2103.65 L 3856.69,2090.55 z " style="fill-opacity:1.000000;fill:rgb(255,52,161);stroke:rgb(0,0,0);stroke-width:2"/></g>
<g fill-rule="evenodd"><path d="M 3856.69,890.551 L 3858.07,877.454 L 3862.14,864.93 L 3868.72,853.525 L 3877.54,843.739 L 3888.19,835.998 L 3900.22,830.642 L 3913.1,827.904 L 3926.27,827.904 L 3939.15,830.642 L 3951.18,835.998 L 3961.83,843.739 L 3970.65,853.525 L 3977.23,864.93 L 3981.3,877.454 L 3982.68,890.551 L 3981.3,903.648 L 3977.23,916.172 L 3970.65,927.577 L 3961.83,937.363 L 3951.18,945.104 L 3939.15,950.46 L 3926.27,953.198 L 3913.1,953.198 L 3900.22,950.46 L 3888.19,945.104 L 3877.54,937.363 L 3868.72,927.577 L 3862.14,916.172 L 3858.07,903.648 L 3856.69,890.551 z " style="fill-opacity:1.000000;fill:rgb(30,25,253);stroke:rgb(0,0,0);stroke-width:2"/></g>
<g fill-rule="evenodd"><path d="M 4056.69,2090.55 L 4058.07,2077.45 L 4062.14,2064.93 L 4068.72,2053.53 L 4077.54,2043.74 L 4088.19,2036 L 4100.22,2030.64 L 4113.1,2027.9 L 4126.27,2027.9 L 4139.15,2030.64 L 4151.18,2036 L 4161.83,2043.74 L 4170.65,2053.53 L 4177.23,2064.93 L 4181.3,2077.45 L 4182.68,2090.55 L 4181.3,2103.65 L 4177.23,2116.17 L 4170.65,2127.58 L 4161.83,2137.36 L 4151.18,2145.1 L 4139.15,2150.46 L 4126.27,2153.2 L 4113.1,2153.2 L 4100.22,2150.46 L 4088.19,2145.1 L 4077.54,2137.36 L 4068.72,2127.58 L 4062.14,2116.17 L 4058.07,2103.65 L 4056.69,2090.55 z " style="fill-opacity:1.000000;fill:rgb(54,80,233);stroke:rgb(0,0,0);stroke-width:2"/></g>
<g fill-rule="evenodd"><path d="M 4256.69,2153.54 L 4256.69,2027.56 L 4382.68,2027.56 L 4382.68,2153.54 L 4256.69,2153.54 z " style="fill-opacity:1.000000;fill:rgb(183,129,143);stroke:rgb(0,0,0);stroke-width:2"/></g>
<g fill-rule="evenodd"><path d="M 4256.69,890.551 L 4258.07,877.454 L 4262.14,864.93 L 4268.72,853.525 L 4277.54,843.739 L 4288.19,835.998 L 4300.22,830.642 L 4313.1,827.904 L 4326.27,827.904 L 4339.15,830.642 L 4351.18,835.998 L 4361.83,843.739 L 4370.65,853.525 L 4377.23,864.93 L 4381.3,877.454 L 4382.68,890.551 L 4381.3,903.648 L 4377.23,916.172 L 4370.65,927.577 L 4361.83,937.363 L 4351.18,945.104 L 4339.15,950.46 L 4326.27,953.198 L 4313.1,953.198 L 4300.22,950.46 L 4288.19,945.104 L 4277.54,937.363 L 4268.72,927.577 L 4262.14,916.172 L 4258.07,903.648 L 4256.69,890.551 z " style="fill-opacity:1.000000;fill:rgb(195,58,30);stroke:rgb(0,0,0);stroke-width:2"/></g>
</svg>
