<?xml version="1.0" standalone="no"?>
<!DOCTYPE svg PUBLIC "-//W3C//DTD SVG 1.1//EN"
"http://www.w3.org/Graphics/SVG/1.1/DTD/svg11.dtd">
<svg width="282.142" height="270.803" viewBox="0 0 5877.95 5641.73" version="1.1"
xmlns="http://www.w3.org/2000/svg"
xmlns:xlink="http://www.w3.org/1999/xlink">
<g fill-rule="evenodd"><path d="M 23.6202,5616.14 L 23.6202,25.5894 L 24.1968,24.1975 L 25.5887,23.6209 L 5852.36,23.6209 L 5853.75,24.1975 L 5854.33,25.5894 L 5854.33,5616.14 L 5853.75,5617.53 L 5852.36,5618.11 L 25.5887,5618.11 L 24.1968,5617.53 L 23.6202,5616.14M 27.5572,5614.17 L 5850.39,5614.17 L 5850.39,27.5579 L 27.5572,27.5579 L 27.5572,5614.17 z " style="fill-opacity:1.000000;fill:rgb(167,241,217);stroke:rgb(0,0,0);stroke-width:2"/></g>
<g fill-rule="evenodd"><path d="M 297.26,4829.1 L 303.352,4770.62 L 321.41,4715.04 L 350.628,4664.44 L 389.439,4621.3 L 437.373,4586.47 L 490.392,4562.89 L 547.963,4550.72 L 605.99,4550.74 L 663.149,4562.89 L 716.535,4586.66 L 763.811,4621.01 L 802.914,4664.44 L 832.131,4715.04 L 850.19,4770.62 L 856.298,4828.74 L 850.19,4886.86 L 832.131,4942.43 L 802.914,4993.04 L 764.102,5036.18 L 716.535,5070.82 L 663.534,5094.44 L 605.579,5106.76 L 547.551,5106.73 L 490.392,5094.59 L 437.006,5070.82 L 389.73,5036.47 L 350.628,4993.04 L 321.41,4942.43 L 303.352,4886.86 L 297.26,4829.1M 305.139,4828.74 L 311.075,4885.21 L 328.623,4939.22 L 357.015,4988.4 L 395.014,5030.6 L 440.954,5063.98 L 492.832,5087.08 L 548.376,5098.88 L 605.165,5098.88 L 660.709,5087.08 L 712.587,5063.98 L 758.528,5030.6 L 796.526,4988.4 L 824.918,4939.22 L 842.467,4885.21 L 848.402,4828.74 L 842.467,4772.26 L 824.918,4718.26 L 796.526,4669.08 L 758.528,4626.88 L 712.587,4593.5 L 660.709,4570.4 L 605.165,4558.59 L 548.377,4558.59 L 492.832,4570.4 L 440.954,4593.5 L 395.014,4626.88 L 357.015,4669.08 L 328.623,4718.26 L 311.075,4772.26 L 305.139,4828.74 z " style="fill-opacity:1.000000;fill:rgb(42,130,200);stroke:rgb(0,0,0);stroke-width:2"/></g>
<g fill-rule="evenodd"><path d="M 297.26,813.352 L 303.352,754.875 L 321.41,699.296 L 350.628,648.689 L 389.439,605.553 L 437.373,570.727 L 490.392,547.145 L 547.963,534.97 L 605.99,534.992 L 663.149,547.145 L 716.535,570.914 L 763.811,605.262 L 802.914,648.689 L 832.131,699.296 L 850.19,754.875 L 856.298,812.991 L 850.19,871.108 L 832.131,926.685 L 802.914,977.293 L 764.102,1020.43 L 716.535,1055.07 L 663.534,1078.69 L 605.579,1091.01 L 547.551,1090.99 L 490.392,1078.84 L 437.006,1055.07 L 389.73,1020.72 L 350.628,977.293 L 321.41,926.685 L 303.352,871.108 L 297.26,813.352M 305.139,812.991 L 311.075,869.466 L 328.623,923.473 L 357.015,972.653 L 395.014,1014.85 L 440.954,1048.23 L 492.832,1071.33 L 548.376,1083.13 L 605.165,1083.13 L 660.709,1071.33 L 712.587,1048.23 L 758.528,1014.85 L 796.526,972.653 L 824.918,923.473 L 842.467,869.466 L 848.402,812.991 L 842.467,756.516 L 824.918,702.508 L 796.526,653.33 L 758.528,611.129 L 712.587,577.752 L 660.709,554.654 L 605.165,542.844 L 548.377,542.844 L 492.832,554.654 L 440.954,577.752 L 395.014,611.129 L 357.015,653.33 L 328.623,702.508 L 311.075,756.516 L 305.139,812.991 z " style="fill-opacity:1.000000;fill:rgb(216,254,67);stroke:rgb(0,0,0);stroke-width:2"/></g>
<g fill-rule="evenodd"><path d="M 494.268,4824.95 L 495.9,4811.55 L 497.022,4807.36 L 501.243,4795.11 L 507.525,4783.78 L 509.884,4780.14 L 512.61,4776.78 L 521.45,4767.3 L 531.798,4759.5 L 535.428,4757.14 L 547.181,4751.66 L 551.223,4750.11 L 555.404,4748.99 L 568.129,4746.52 L 581.093,4746.29 L 585.413,4746.52 L 589.685,4747.19 L 598.137,4748.99 L 602.319,4750.11 L 606.361,4751.66 L 618.113,4757.14 L 628.733,4764.58 L 632.092,4767.3 L 635.147,4770.35 L 643.658,4780.14 L 646.017,4783.78 L 652.298,4795.11 L 656.519,4807.36 L 657.642,4811.55 L 658.32,4815.83 L 659.447,4828.74 L 658.319,4841.65 L 657.642,4845.93 L 656.52,4850.11 L 652.299,4862.37 L 646.017,4873.7 L 643.658,4877.34 L 640.931,4880.7 L 632.092,4890.18 L 621.743,4897.98 L 618.113,4900.34 L 606.361,4905.82 L 602.319,4907.37 L 598.137,4908.49 L 585.413,4910.96 L 572.449,4911.19 L 568.129,4910.96 L 563.856,4910.29 L 555.404,4908.49 L 551.223,4907.37 L 547.181,4905.82 L 535.428,4900.34 L 524.808,4892.9 L 521.45,4890.18 L 518.394,4887.12 L 509.884,4877.34 L 507.525,4873.7 L 501.242,4862.37 L 497.021,4850.11 L 495.899,4845.93 L 494.268,4832.53 L 494.268,4824.95 z " style="fill-opacity:1.000000;fill:rgb(77,152,85);stroke:rgb(0,0,0);stroke-width:2"/></g>
<g fill-rule="evenodd"><path d="M 494.268,809.203 L 495.9,795.8 L 497.022,791.613 L 501.243,779.361 L 507.525,768.027 L 509.884,764.394 L 512.61,761.028 L 521.45,751.551 L 531.798,743.751 L 535.428,741.393 L 547.181,735.912 L 551.223,734.36 L 555.404,733.24 L 568.129,730.767 L 581.093,730.541 L 585.413,730.767 L 589.685,731.444 L 598.137,733.24 L 602.319,734.36 L 606.361,735.912 L 618.113,741.393 L 628.733,748.831 L 632.092,751.551 L 635.147,754.606 L 643.658,764.394 L 646.017,768.027 L 652.298,779.361 L 656.519,791.613 L 657.642,795.8 L 658.32,800.081 L 659.447,812.992 L 658.319,825.9 L 657.642,830.18 L 656.52,834.365 L 652.299,846.62 L 646.017,857.956 L 643.658,861.588 L 640.931,864.955 L 632.092,874.432 L 621.743,882.232 L 618.113,884.59 L 606.361,890.071 L 602.319,891.623 L 598.137,892.743 L 585.413,895.216 L 572.449,895.442 L 568.129,895.216 L 563.856,894.539 L 555.404,892.743 L 551.223,891.623 L 547.181,890.071 L 535.428,884.59 L 524.808,877.152 L 521.45,874.432 L 518.394,871.377 L 509.884,861.588 L 507.525,857.956 L 501.242,846.62 L 497.021,834.365 L 495.899,830.18 L 494.268,816.781 L 494.268,809.203 z " style="fill-opacity:1.000000;fill:rgb(140,226,179);stroke:rgb(0,0,0);stroke-width:2"/></g>
<g fill-rule="evenodd"><path d="M 1557.34,492.451 L 1558.75,478.962 L 1559.75,472.653 L 1561.41,466.484 L 1565.35,454.352 L 1567.64,448.386 L 1570.54,442.692 L 1576.92,431.644 L 1580.4,426.29 L 1584.42,421.328 L 1592.95,411.848 L 1597.47,407.332 L 1602.43,403.312 L 1612.75,395.814 L 1618.11,392.337 L 1623.79,389.438 L 1635.45,384.248 L 1641.42,381.957 L 1647.59,380.303 L 1660.07,377.651 L 1666.38,376.652 L 1672.75,376.318 L 1685.51,376.318 L 1691.89,376.652 L 1698.19,377.651 L 1710.67,380.303 L 1716.85,381.957 L 1722.82,384.248 L 1734.47,389.438 L 1740.16,392.337 L 1745.51,395.814 L 1755.83,403.312 L 1760.79,407.33 L 1765.31,411.843 L 1773.85,421.323 L 1777.87,426.29 L 1781.35,431.652 L 1787.73,442.7 L 1790.63,448.39 L 1792.92,454.352 L 1796.86,466.484 L 1798.51,472.653 L 1799.51,478.962 L 1800.85,491.652 L 1801.18,498.032 L 1800.85,504.413 L 1799.51,517.099 L 1798.51,523.405 L 1796.86,529.572 L 1792.92,541.706 L 1790.63,547.672 L 1787.73,553.365 L 1781.35,564.411 L 1777.87,569.77 L 1773.85,574.736 L 1765.31,584.216 L 1760.8,588.724 L 1755.85,592.737 L 1745.53,600.239 L 1740.16,603.724 L 1734.46,606.628 L 1722.81,611.816 L 1716.85,614.105 L 1710.67,615.758 L 1698.19,618.41 L 1691.89,619.409 L 1685.51,619.743 L 1672.75,619.743 L 1666.38,619.409 L 1660.07,618.41 L 1647.59,615.758 L 1641.42,614.105 L 1635.46,611.816 L 1623.8,606.628 L 1618.1,603.724 L 1612.74,600.239 L 1602.42,592.737 L 1597.46,588.722 L 1592.95,584.211 L 1584.42,574.731 L 1580.4,569.771 L 1576.92,564.419 L 1570.54,553.373 L 1567.64,547.676 L 1565.35,541.706 L 1561.4,529.572 L 1559.75,523.405 L 1558.75,517.099 L 1557.34,503.614 L 1557.34,492.451 z " style="fill-opacity:1.000000;fill:rgb(71,23,17);stroke:rgb(0,0,0);stroke-width:2"/></g>
<g fill-rule="evenodd"><path d="M 1557.34,5149.28 L 1557.34,5138.12 L 1558.75,5124.63 L 1559.75,5118.32 L 1561.41,5112.15 L 1565.35,5100.02 L 1567.64,5094.06 L 1570.54,5088.36 L 1576.92,5077.31 L 1580.4,5071.96 L 1584.41,5067 L 1592.95,5057.52 L 1597.47,5053 L 1602.43,5048.98 L 1612.75,5041.48 L 1618.11,5038 L 1623.8,5035.1 L 1635.46,5029.91 L 1641.42,5027.63 L 1647.59,5025.97 L 1660.07,5023.32 L 1666.38,5022.32 L 1672.75,5021.99 L 1685.51,5021.99 L 1691.89,5022.32 L 1698.19,5023.32 L 1710.67,5025.97 L 1716.85,5027.63 L 1722.81,5029.91 L 1734.46,5035.1 L 1740.16,5038 L 1745.51,5041.48 L 1755.83,5048.98 L 1760.8,5053 L 1765.31,5057.52 L 1773.85,5067 L 1777.87,5071.96 L 1781.35,5077.32 L 1787.73,5088.37 L 1790.63,5094.06 L 1792.92,5100.02 L 1796.86,5112.15 L 1798.51,5118.32 L 1799.51,5124.63 L 1800.85,5137.32 L 1801.18,5143.7 L 1800.85,5150.08 L 1799.51,5162.77 L 1798.51,5169.08 L 1796.86,5175.25 L 1792.92,5187.38 L 1790.63,5193.34 L 1787.73,5199.03 L 1781.35,5210.08 L 1777.87,5215.44 L 1773.85,5220.41 L 1765.31,5229.89 L 1760.79,5234.4 L 1755.83,5238.42 L 1745.51,5245.92 L 1740.16,5249.39 L 1734.47,5252.29 L 1722.82,5257.48 L 1716.85,5259.77 L 1710.67,5261.43 L 1698.19,5264.08 L 1691.89,5265.08 L 1685.51,5265.41 L 1672.75,5265.41 L 1666.38,5265.08 L 1660.07,5264.08 L 1647.59,5261.43 L 1641.42,5259.77 L 1635.45,5257.48 L 1623.79,5252.29 L 1618.11,5249.39 L 1612.75,5245.92 L 1602.43,5238.42 L 1597.47,5234.4 L 1592.95,5229.88 L 1584.42,5220.4 L 1580.4,5215.44 L 1576.92,5210.08 L 1570.54,5199.03 L 1567.64,5193.34 L 1565.35,5187.38 L 1561.41,5175.25 L 1559.75,5169.08 L 1558.75,5162.77 L 1557.34,5149.28 z " style="fill-opacity:1.000000;fill:rgb(152,84,47);stroke:rgb(0,0,0);stroke-width:2"/></g>
<g fill-rule="evenodd"><path d="M 4077.03,492.451 L 4078.44,478.962 L 4079.44,472.653 L 4081.09,466.484 L 4085.03,454.352 L 4087.32,448.39 L 4090.22,442.7 L 4096.6,431.652 L 4100.08,426.293 L 4104.1,421.328 L 4112.64,411.848 L 4117.15,407.33 L 4122.12,403.309 L 4132.44,395.811 L 4137.79,392.335 L 4143.48,389.438 L 4155.13,384.248 L 4161.1,381.957 L 4167.27,380.303 L 4179.75,377.651 L 4186.06,376.652 L 4192.44,376.318 L 4205.2,376.318 L 4211.57,376.652 L 4217.88,377.651 L 4230.36,380.303 L 4236.53,381.957 L 4242.5,384.246 L 4254.15,389.436 L 4259.84,392.336 L 4265.2,395.814 L 4275.52,403.312 L 4280.48,407.332 L 4285,411.848 L 4293.54,421.328 L 4297.55,426.29 L 4301.03,431.644 L 4307.41,442.692 L 4310.31,448.386 L 4312.6,454.352 L 4316.55,466.484 L 4318.2,472.658 L 4319.2,478.971 L 4320.53,491.661 L 4320.86,498.032 L 4320.53,504.404 L 4319.2,517.09 L 4318.2,523.4 L 4316.55,529.572 L 4312.6,541.706 L 4310.31,547.676 L 4307.41,553.373 L 4301.03,564.419 L 4297.55,569.771 L 4293.54,574.731 L 4285,584.211 L 4280.49,588.722 L 4275.53,592.737 L 4265.21,600.239 L 4259.85,603.725 L 4254.14,606.63 L 4242.49,611.818 L 4236.53,614.106 L 4230.36,615.758 L 4217.88,618.41 L 4211.57,619.409 L 4205.2,619.743 L 4192.44,619.743 L 4186.06,619.409 L 4179.75,618.41 L 4167.27,615.758 L 4161.11,614.105 L 4155.14,611.816 L 4143.49,606.628 L 4137.79,603.726 L 4132.43,600.243 L 4122.11,592.741 L 4117.15,588.724 L 4112.64,584.211 L 4104.1,574.731 L 4100.08,569.767 L 4096.6,564.411 L 4090.22,553.365 L 4087.32,547.672 L 4085.03,541.706 L 4081.09,529.572 L 4079.44,523.405 L 4078.44,517.099 L 4077.03,503.614 L 4077.03,492.451 z " style="fill-opacity:1.000000;fill:rgb(17,45,5);stroke:rgb(0,0,0);stroke-width:2"/></g>
<g fill-rule="evenodd"><path d="M 4108.46,5147.85 L 4108.46,5139.55 L 4110.24,5124.87 L 4111.47,5120.29 L 4116.1,5106.87 L 4122.98,5094.45 L 4125.56,5090.48 L 4134.88,5079.76 L 4138.23,5076.41 L 4141.91,5073.42 L 4153.54,5065.28 L 4166.41,5059.28 L 4170.83,5057.58 L 4175.41,5056.35 L 4189.35,5053.64 L 4194.08,5053.4 L 4208.28,5053.64 L 4212.96,5054.39 L 4226.8,5057.58 L 4239.87,5063.13 L 4244.1,5065.28 L 4248.07,5067.86 L 4259.41,5076.41 L 4269.09,5086.79 L 4272.08,5090.48 L 4274.66,5094.45 L 4281.54,5106.87 L 4286.16,5120.29 L 4287.39,5124.87 L 4288.13,5129.56 L 4289.37,5143.7 L 4288.13,5157.84 L 4287.39,5162.53 L 4286.16,5167.11 L 4281.54,5180.53 L 4274.66,5192.95 L 4272.07,5196.92 L 4262.76,5207.64 L 4259.41,5210.99 L 4255.73,5213.97 L 4248.07,5219.53 L 4244.1,5222.12 L 4239.87,5224.27 L 4231.22,5228.12 L 4226.8,5229.82 L 4222.22,5231.05 L 4208.28,5233.75 L 4203.55,5234 L 4189.35,5233.75 L 4175.41,5231.05 L 4170.83,5229.82 L 4166.41,5228.12 L 4153.54,5222.12 L 4149.57,5219.54 L 4138.23,5210.99 L 4128.54,5200.61 L 4125.56,5196.92 L 4122.98,5192.95 L 4116.1,5180.53 L 4111.47,5167.11 L 4110.24,5162.53 L 4108.46,5147.85 z " style="fill-opacity:1.000000;fill:rgb(88,245,107);stroke:rgb(0,0,0);stroke-width:2"/></g>
<g fill-rule="evenodd"><path d="M 5021.67,4829.1 L 5027.76,4770.62 L 5045.82,4715.04 L 5075.04,4664.44 L 5113.85,4621.3 L 5161.78,4586.47 L 5214.8,4562.89 L 5272.37,4550.72 L 5330.4,4550.74 L 5387.56,4562.89 L 5440.94,4586.66 L 5488.22,4621.01 L 5527.32,4664.44 L 5556.54,4715.04 L 5574.6,4770.62 L 5580.71,4828.74 L 5574.6,4886.86 L 5556.54,4942.43 L 5527.32,4993.04 L 5488.51,5036.18 L 5440.94,5070.82 L 5387.94,5094.44 L 5329.99,5106.76 L 5271.96,5106.73 L 5214.8,5094.59 L 5161.42,5070.82 L 5114.14,5036.47 L 5075.04,4993.04 L 5045.82,4942.43 L 5027.76,4886.86 L 5021.67,4829.1M 5029.55,4828.74 L 5035.48,4885.21 L 5053.03,4939.22 L 5081.43,4988.4 L 5119.42,5030.6 L 5165.36,5063.98 L 5217.24,5087.08 L 5272.79,5098.88 L 5329.57,5098.88 L 5385.12,5087.08 L 5437,5063.98 L 5482.94,5030.6 L 5520.93,4988.4 L 5549.33,4939.22 L 5566.88,4885.21 L 5572.81,4828.74 L 5566.88,4772.26 L 5549.33,4718.26 L 5520.93,4669.08 L 5482.94,4626.88 L 5437,4593.5 L 5385.12,4570.4 L 5329.57,4558.59 L 5272.79,4558.59 L 5217.24,4570.4 L 5165.36,4593.5 L 5119.42,4626.88 L 5081.43,4669.08 L 5053.03,4718.26 L 5035.48,4772.26 L 5029.55,4828.74 z " style="fill-opacity:1.000000;fill:rgb(214,136,7);stroke:rgb(0,0,0);stroke-width:2"/></g>
<g fill-rule="evenodd"><path d="M 5021.67,813.352 L 5027.76,754.875 L 5045.82,699.296 L 5075.04,648.689 L 5113.85,605.553 L 5161.78,570.727 L 5214.8,547.145 L 5272.37,534.97 L 5330.4,534.992 L 5387.56,547.145 L 5440.94,570.914 L 5488.22,605.262 L 5527.32,648.689 L 5556.54,699.296 L 5574.6,754.875 L 5580.71,812.991 L 5574.6,871.108 L 5556.54,926.685 L 5527.32,977.293 L 5488.51,1020.43 L 5440.94,1055.07 L 5387.94,1078.69 L 5329.99,1091.01 L 5271.96,1090.99 L 5214.8,1078.84 L 5161.42,1055.07 L 5114.14,1020.72 L 5075.04,977.294 L 5045.82,926.685 L 5027.76,871.108 L 5021.67,813.352M 5029.55,812.991 L 5035.48,869.466 L 5053.03,923.473 L 5081.43,972.653 L 5119.42,1014.85 L 5165.36,1048.23 L 5217.24,1071.33 L 5272.79,1083.13 L 5329.57,1083.13 L 5385.12,1071.33 L 5437,1048.23 L 5482.94,1014.85 L 5520.93,972.653 L 5549.33,923.473 L 5566.88,869.466 L 5572.81,812.991 L 5566.88,756.516 L 5549.33,702.508 L 5520.93,653.33 L 5482.94,611.129 L 5437,577.752 L 5385.12,554.654 L 5329.57,542.844 L 5272.79,542.844 L 5217.24,554.654 L 5165.36,577.752 L 5119.42,611.129 L 5081.43,653.33 L 5053.03,702.508 L 5035.48,756.516 L 5029.55,812.991 z " style="fill-opacity:1.000000;fill:rgb(153,146,72);stroke:rgb(0,0,0);stroke-width:2"/></g>
<g fill-rule="evenodd"><path d="M 5218.68,4824.96 L 5220.31,4811.55 L 5224.1,4799.15 L 5225.65,4795.11 L 5227.62,4791.25 L 5234.29,4780.14 L 5242.8,4770.36 L 5245.86,4767.3 L 5249.22,4764.58 L 5259.84,4757.14 L 5271.59,4751.66 L 5275.63,4750.11 L 5279.81,4748.99 L 5292.54,4746.52 L 5305.5,4746.29 L 5309.82,4746.52 L 5314.09,4747.19 L 5322.55,4748.99 L 5326.73,4750.11 L 5330.77,4751.66 L 5342.52,4757.14 L 5353.14,4764.58 L 5356.5,4767.3 L 5359.56,4770.35 L 5368.07,4780.14 L 5370.43,4783.78 L 5376.71,4795.11 L 5378.26,4799.15 L 5382.05,4811.55 L 5383.63,4824.42 L 5383.86,4828.74 L 5383.63,4833.06 L 5382.05,4845.93 L 5378.26,4858.32 L 5376.71,4862.36 L 5370.43,4873.7 L 5368.07,4877.34 L 5365.34,4880.7 L 5356.5,4890.18 L 5353.14,4892.9 L 5342.52,4900.34 L 5330.77,4905.82 L 5326.73,4907.37 L 5322.55,4908.49 L 5309.82,4910.96 L 5296.86,4911.19 L 5292.54,4910.96 L 5288.27,4910.29 L 5279.81,4908.49 L 5275.63,4907.37 L 5271.59,4905.82 L 5263.69,4902.3 L 5259.84,4900.34 L 5256.21,4897.98 L 5245.86,4890.18 L 5242.8,4887.12 L 5234.29,4877.34 L 5227.62,4866.23 L 5225.65,4862.37 L 5224.1,4858.32 L 5220.31,4845.93 L 5218.68,4832.52 L 5218.68,4824.96 z " style="fill-opacity:1.000000;fill:rgb(51,98,65);stroke:rgb(0,0,0);stroke-width:2"/></g>
<g fill-rule="evenodd"><path d="M 5218.68,809.212 L 5220.31,795.8 L 5224.1,783.404 L 5225.65,779.362 L 5227.62,775.504 L 5234.29,764.394 L 5242.8,754.612 L 5245.86,751.551 L 5249.22,748.828 L 5259.84,741.392 L 5271.59,735.912 L 5275.63,734.36 L 5279.81,733.24 L 5292.54,730.767 L 5305.5,730.541 L 5309.82,730.767 L 5314.09,731.443 L 5322.55,733.239 L 5326.73,734.36 L 5330.77,735.913 L 5342.52,741.393 L 5353.14,748.828 L 5356.5,751.549 L 5359.56,754.606 L 5368.07,764.394 L 5370.43,768.027 L 5376.71,779.366 L 5378.26,783.404 L 5382.05,795.8 L 5383.63,808.668 L 5383.86,812.992 L 5383.63,817.316 L 5382.05,830.18 L 5378.26,842.576 L 5376.71,846.616 L 5370.43,857.956 L 5368.07,861.588 L 5365.34,864.955 L 5356.5,874.434 L 5353.14,877.155 L 5342.52,884.59 L 5330.77,890.07 L 5326.73,891.622 L 5322.55,892.744 L 5309.82,895.216 L 5296.86,895.442 L 5292.54,895.216 L 5288.27,894.539 L 5279.81,892.743 L 5275.63,891.623 L 5271.59,890.071 L 5263.69,886.555 L 5259.84,884.591 L 5256.21,882.235 L 5245.86,874.431 L 5242.8,871.371 L 5234.29,861.589 L 5227.62,850.479 L 5225.65,846.62 L 5224.1,842.576 L 5220.31,830.18 L 5218.68,816.771 L 5218.68,809.212 z " style="fill-opacity:1.000000;fill:rgb(243,13,35);stroke:rgb(0,0,0);stroke-width:2"/></g>
</svg>
