<?xml version="1.0" standalone="no"?>
<!DOCTYPE svg PUBLIC "-//W3C//DTD SVG 1.1//EN"
"http://www.w3.org/Graphics/SVG/1.1/DTD/svg11.dtd">
<svg width="282.142" height="270.803" viewBox="0 0 5877.95 5641.73" version="1.1"
xmlns="http://www.w3.org/2000/svg"
xmlns:xlink="http://www.w3.org/1999/xlink">
<polyline points="285.451,813.357 291.801,873.563 310.621,931.487 341.073,984.233 381.827,1029.5 431.101,1065.3 486.743,1090.07 546.313,1102.73 605.573,1102.82 608.033,1102.56 665.989,1090.24 668.341,1089.48 722.447,1065.29 771.053,1029.98 772.881,1028.33 812.469,984.231 842.919,931.487 861.741,873.561 868.107,812.991 861.741,752.419 842.919,694.491 812.467,641.747 771.713,596.485 722.439,560.685 666.799,535.911 607.227,523.247 547.967,523.159 545.519,523.415 486.749,535.909 432.573,559.935 430.431,561.171 382.497,595.997 380.659,597.653 341.071,641.749 310.621,694.491 291.799,752.423 285.451,813.357 289.385,813.355 295.649,753.239 313.921,696.861 343.807,644.751 384.169,599.701 432.745,564.355 487.963,539.653 547.145,527.137 606.815,527.159 665.583,539.655 720.471,564.093 769.661,599.991 809.733,644.751 839.323,696.093 857.677,752.441 864.171,812.991 857.891,872.743 839.323,929.885 808.767,982.559 769.375,1026.28 721.169,1061.43 665.967,1086.18 605.575,1098.88 546.725,1098.82 487.959,1086.33 432.377,1061.44 384.461,1026.57 344.257,981.921 313.921,929.117 295.649,872.745 289.385,813.355" style="stroke:rgb(167,241,217);stroke-width:15.748031;fill:none;stroke-opacity:0.5;stroke-linecap:round;stroke-linejoin:round;;fill:none"/>
<polyline points="285.451,813.357 291.801,873.563 310.621,931.487 341.073,984.233 381.827,1029.5 431.101,1065.3 486.743,1090.07 546.313,1102.73 605.573,1102.82 608.033,1102.56 665.989,1090.24 668.341,1089.48 722.447,1065.29 771.053,1029.98 772.881,1028.33 812.469,984.231 842.919,931.487 861.741,873.561 868.107,812.991 861.741,752.419 842.919,694.491 812.467,641.747 771.713,596.485 722.439,560.685 666.799,535.911 607.227,523.247 547.967,523.159 545.519,523.415 486.749,535.909 432.573,559.935 430.431,561.171 382.497,595.997 380.659,597.653 341.071,641.749 310.621,694.491 291.799,752.423 285.451,813.357 289.385,813.355 295.649,753.239 313.921,696.861 343.807,644.751 384.169,599.701 432.745,564.355 487.963,539.653 547.145,527.137 606.815,527.159 665.583,539.655 720.471,564.093 769.661,599.991 809.733,644.751 839.323,696.093 857.677,752.441 864.171,812.991 857.891,872.743 839.323,929.885 808.767,982.559 769.375,1026.28 721.169,1061.43 665.967,1086.18 605.575,1098.88 546.725,1098.82 487.959,1086.33 432.377,1061.44 384.461,1026.57 344.257,981.921 313.921,929.117 295.649,872.745 289.385,813.355" style="stroke:rgb(0,0,0);stroke-width:1px;fill:none;stroke-opacity:1;stroke-linecap:round;stroke-linejoin:round;;fill:none"/>
<polyline points="317.013,812.991 322.669,867.001 339.451,918.651 366.603,965.685 402.943,1006.04 446.879,1037.97 496.493,1060.06 549.615,1071.35 603.925,1071.35 657.047,1060.06 706.661,1037.97 750.597,1006.04 786.937,965.685 814.089,918.651 830.871,867.001 836.549,812.991 830.871,758.979 814.089,707.327 786.937,660.295 750.597,619.937 706.661,588.015 657.045,565.925 603.925,554.631 549.615,554.631 496.495,565.925 446.879,588.015 402.943,619.937 366.603,660.295 339.451,707.327 322.669,758.979 317.013,812.991 313.057,812.991 318.819,867.819 335.855,920.251 363.421,967.997 400.311,1008.97 444.913,1041.37 495.277,1063.8 549.203,1075.26 604.337,1075.26 658.263,1063.8 708.627,1041.37 753.229,1008.97 790.119,967.997 817.685,920.251 834.721,867.819 840.483,812.991 834.721,758.161 817.685,705.727 790.121,657.983 753.229,617.011 708.627,584.607 658.261,562.183 604.337,550.717 549.203,550.717 495.279,562.183 444.913,584.607 400.311,617.011 363.419,657.983 335.855,705.727 318.819,758.161 313.057,812.991 482.457,816.695 484.491,833.235 485.855,838.209 490.077,850.465 497.195,863.679 499.979,868.019 510.043,879.727 513.099,882.781 517.375,886.327 530.435,895.291 542.189,900.773 548.165,903.029 561.401,906.089 567.511,907.007 572.655,907.249 585.617,907.021 601.193,904.149 606.551,902.647 611.351,900.773 623.105,895.291 628.851,891.661 640.727,882.485 649.567,873.009 653.561,868.019 656.345,863.679 662.627,852.343 667.685,838.209 669.049,833.235 670.083,826.927 671.211,814.019 670.083,799.053 669.305,793.953 667.685,787.765 663.463,775.513 656.345,762.301 653.561,757.961 644.059,746.857 639.523,742.373 635.507,739.157 623.105,730.689 611.351,725.207 605.375,722.951 592.139,719.891 586.029,718.973 580.885,718.731 565.875,719.173 553.151,721.645 546.989,723.333 542.189,725.207 528.995,731.489 524.689,734.319 512.813,743.495 503.973,752.971 499.979,757.961 497.195,762.301 490.077,775.513 485.855,787.765 484.175,794.371 482.545,807.775 482.459,816.779 486.393,816.779 486.451,808.249 488.083,794.847 489.415,789.573 493.797,776.795 500.637,764.209 503.279,760.105 506.491,756.071 515.691,746.179 527.507,737.147 532.099,734.255 543.851,728.775 548.399,727.007 553.901,725.509 567.991,722.893 580.955,722.667 586.643,722.989 600.175,725.633 605.141,727.007 609.181,728.559 621.441,734.255 633.689,742.711 637.659,745.981 640.715,749.037 649.599,759.227 652.903,764.209 659.185,775.543 663.963,789.047 665.419,794.567 666.163,799.395 667.291,813.675 666.095,827.131 665.247,832.217 663.965,836.927 659.185,850.435 652.619,862.243 650.261,865.875 647.049,869.909 637.849,879.801 626.483,888.519 622.401,891.191 609.689,897.205 605.141,898.973 600.175,900.347 586.913,902.943 572.585,903.313 566.897,902.991 553.365,900.347 548.399,898.973 544.359,897.421 532.099,891.725 519.851,883.269 515.881,879.999 512.825,876.943 503.941,866.753 500.637,861.771 493.797,849.183 489.575,836.927 488.293,832.217 486.393,816.779 482.457,816.695" style="stroke:rgb(167,241,217);stroke-width:15.748031;fill:none;stroke-opacity:0.5;stroke-linecap:round;stroke-linejoin:round;;fill:none"/>
<polyline points="317.013,812.991 322.669,867.001 339.451,918.651 366.603,965.685 402.943,1006.04 446.879,1037.97 496.493,1060.06 549.615,1071.35 603.925,1071.35 657.047,1060.06 706.661,1037.97 750.597,1006.04 786.937,965.685 814.089,918.651 830.871,867.001 836.549,812.991 830.871,758.979 814.089,707.327 786.937,660.295 750.597,619.937 706.661,588.015 657.045,565.925 603.925,554.631 549.615,554.631 496.495,565.925 446.879,588.015 402.943,619.937 366.603,660.295 339.451,707.327 322.669,758.979 317.013,812.991 313.057,812.991 318.819,867.819 335.855,920.251 363.421,967.997 400.311,1008.97 444.913,1041.37 495.277,1063.8 549.203,1075.26 604.337,1075.26 658.263,1063.8 708.627,1041.37 753.229,1008.97 790.119,967.997 817.685,920.251 834.721,867.819 840.483,812.991 834.721,758.161 817.685,705.727 790.121,657.983 753.229,617.011 708.627,584.607 658.261,562.183 604.337,550.717 549.203,550.717 495.279,562.183 444.913,584.607 400.311,617.011 363.419,657.983 335.855,705.727 318.819,758.161 313.057,812.991 482.457,816.695 484.491,833.235 485.855,838.209 490.077,850.465 497.195,863.679 499.979,868.019 510.043,879.727 513.099,882.781 517.375,886.327 530.435,895.291 542.189,900.773 548.165,903.029 561.401,906.089 567.511,907.007 572.655,907.249 585.617,907.021 601.193,904.149 606.551,902.647 611.351,900.773 623.105,895.291 628.851,891.661 640.727,882.485 649.567,873.009 653.561,868.019 656.345,863.679 662.627,852.343 667.685,838.209 669.049,833.235 670.083,826.927 671.211,814.019 670.083,799.053 669.305,793.953 667.685,787.765 663.463,775.513 656.345,762.301 653.561,757.961 644.059,746.857 639.523,742.373 635.507,739.157 623.105,730.689 611.351,725.207 605.375,722.951 592.139,719.891 586.029,718.973 580.885,718.731 565.875,719.173 553.151,721.645 546.989,723.333 542.189,725.207 528.995,731.489 524.689,734.319 512.813,743.495 503.973,752.971 499.979,757.961 497.195,762.301 490.077,775.513 485.855,787.765 484.175,794.371 482.545,807.775 482.459,816.779 486.393,816.779 486.451,808.249 488.083,794.847 489.415,789.573 493.797,776.795 500.637,764.209 503.279,760.105 506.491,756.071 515.691,746.179 527.507,737.147 532.099,734.255 543.851,728.775 548.399,727.007 553.901,725.509 567.991,722.893 580.955,722.667 586.643,722.989 600.175,725.633 605.141,727.007 609.181,728.559 621.441,734.255 633.689,742.711 637.659,745.981 640.715,749.037 649.599,759.227 652.903,764.209 659.185,775.543 663.963,789.047 665.419,794.567 666.163,799.395 667.291,813.675 666.095,827.131 665.247,832.217 663.965,836.927 659.185,850.435 652.619,862.243 650.261,865.875 647.049,869.909 637.849,879.801 626.483,888.519 622.401,891.191 609.689,897.205 605.141,898.973 600.175,900.347 586.913,902.943 572.585,903.313 566.897,902.991 553.365,900.347 548.399,898.973 544.359,897.421 532.099,891.725 519.851,883.269 515.881,879.999 512.825,876.943 503.941,866.753 500.637,861.771 493.797,849.183 489.575,836.927 488.293,832.217 486.393,816.779 482.457,816.695" style="stroke:rgb(0,0,0);stroke-width:1px;fill:none;stroke-opacity:1;stroke-linecap:round;stroke-linejoin:round;;fill:none"/>
<polyline points="1545.53,503.613 1547.01,518.329 1548.34,526.459 1550.17,533.217 1554.11,545.353 1557.12,553.037 1560.31,559.277 1566.69,570.323 1570.49,576.203 1575.64,582.631 1584.17,592.111 1589.11,597.071 1595.47,602.289 1605.79,609.791 1611.67,613.625 1619,617.415 1630.65,622.603 1637.19,625.129 1645.13,627.309 1657.61,629.961 1664.53,631.071 1672.75,631.551 1685.51,631.551 1693.73,631.071 1700.65,629.961 1713.13,627.309 1719.9,625.511 1727.61,622.603 1739.26,617.415 1745.52,614.245 1751.96,610.141 1763.28,601.913 1769.15,597.073 1773.66,592.565 1782.62,582.637 1787.77,576.201 1791.57,570.315 1797.95,559.269 1801.65,551.903 1804.15,545.353 1808.09,533.217 1810.18,525.249 1811.25,518.333 1812.59,505.647 1812.97,497.411 1812.59,490.415 1811.25,477.725 1809.92,469.595 1808.09,462.831 1804.15,450.701 1801.15,443.027 1797.96,436.793 1791.58,425.745 1787.05,418.857 1782.62,413.419 1774.08,403.939 1769.14,398.977 1762.77,393.757 1752.45,386.259 1746.59,382.431 1739.27,378.649 1727.62,373.459 1721.08,370.931 1713.13,368.749 1700.65,366.097 1693.73,364.987 1685.51,364.507 1672.75,364.507 1664.53,364.987 1657.61,366.097 1645.13,368.749 1637.18,370.931 1630.64,373.459 1618.99,378.649 1612.74,381.813 1606.32,385.909 1595.49,393.757 1590.03,398.153 1584.17,403.945 1575.64,413.425 1570.49,419.855 1566.69,425.737 1560.31,436.785 1556.61,444.153 1554.11,450.701 1550.17,462.831 1548.09,470.803 1547.01,477.729 1545.59,491.219 1545.53,503.613 1549.47,503.613 1549.51,491.629 1550.92,478.139 1551.97,471.419 1553.92,464.049 1557.86,451.915 1560.62,444.809 1563.72,438.753 1570.1,427.705 1574.28,421.333 1578.56,416.057 1587.38,406.279 1592.51,401.211 1597.8,396.941 1608.12,389.443 1613.82,385.731 1620.59,382.243 1632.24,377.053 1639.38,374.349 1645.95,372.599 1658.43,369.947 1665.14,368.873 1672.34,368.453 1685.51,368.443 1692.3,368.787 1699.83,369.947 1712.31,372.599 1718.89,374.349 1726.02,377.053 1737.67,382.243 1744.45,385.731 1750.14,389.443 1760.79,397.191 1766.36,401.759 1770.87,406.273 1779.7,416.053 1783.99,421.333 1788.17,427.713 1794.55,438.761 1797.64,444.813 1800.4,451.915 1804.46,464.445 1806.29,471.419 1807.29,477.729 1808.68,490.825 1809.04,497.619 1808.67,505.233 1807.34,517.919 1806.12,525.441 1804.35,532.003 1800.41,544.137 1797.64,551.245 1794.54,557.301 1787.95,568.699 1783.99,574.725 1779.7,580.003 1771.16,589.483 1765.76,594.841 1760.47,599.105 1749.81,606.841 1743.74,610.739 1738.04,613.643 1726.01,619.009 1718.88,621.709 1712.31,623.459 1699.83,626.111 1693.12,627.185 1685.51,627.615 1672.75,627.615 1665.96,627.271 1658.84,626.185 1645.95,623.459 1638.6,621.455 1632.25,619.009 1620.23,613.643 1613.81,610.325 1608.11,606.607 1597.79,599.105 1591.89,594.287 1587.1,589.479 1578.56,579.999 1574.28,574.725 1570.1,568.355 1563.52,556.947 1560.29,550.497 1557.86,544.137 1553.91,532.003 1551.97,524.635 1550.92,517.919 1549.47,503.613" style="stroke:rgb(167,241,217);stroke-width:15.748031;fill:none;stroke-opacity:0.5;stroke-linecap:round;stroke-linejoin:round;;fill:none"/>
<polyline points="1545.53,503.613 1547.01,518.329 1548.34,526.459 1550.17,533.217 1554.11,545.353 1557.12,553.037 1560.31,559.277 1566.69,570.323 1570.49,576.203 1575.64,582.631 1584.17,592.111 1589.11,597.071 1595.47,602.289 1605.79,609.791 1611.67,613.625 1619,617.415 1630.65,622.603 1637.19,625.129 1645.13,627.309 1657.61,629.961 1664.53,631.071 1672.75,631.551 1685.51,631.551 1693.73,631.071 1700.65,629.961 1713.13,627.309 1719.9,625.511 1727.61,622.603 1739.26,617.415 1745.52,614.245 1751.96,610.141 1763.28,601.913 1769.15,597.073 1773.66,592.565 1782.62,582.637 1787.77,576.201 1791.57,570.315 1797.95,559.269 1801.65,551.903 1804.15,545.353 1808.09,533.217 1810.18,525.249 1811.25,518.333 1812.59,505.647 1812.97,497.411 1812.59,490.415 1811.25,477.725 1809.92,469.595 1808.09,462.831 1804.15,450.701 1801.15,443.027 1797.96,436.793 1791.58,425.745 1787.05,418.857 1782.62,413.419 1774.08,403.939 1769.14,398.977 1762.77,393.757 1752.45,386.259 1746.59,382.431 1739.27,378.649 1727.62,373.459 1721.08,370.931 1713.13,368.749 1700.65,366.097 1693.73,364.987 1685.51,364.507 1672.75,364.507 1664.53,364.987 1657.61,366.097 1645.13,368.749 1637.18,370.931 1630.64,373.459 1618.99,378.649 1612.74,381.813 1606.32,385.909 1595.49,393.757 1590.03,398.153 1584.17,403.945 1575.64,413.425 1570.49,419.855 1566.69,425.737 1560.31,436.785 1556.61,444.153 1554.11,450.701 1550.17,462.831 1548.09,470.803 1547.01,477.729 1545.59,491.219 1545.53,503.613 1549.47,503.613 1549.51,491.629 1550.92,478.139 1551.97,471.419 1553.92,464.049 1557.86,451.915 1560.62,444.809 1563.72,438.753 1570.1,427.705 1574.28,421.333 1578.56,416.057 1587.38,406.279 1592.51,401.211 1597.8,396.941 1608.12,389.443 1613.82,385.731 1620.59,382.243 1632.24,377.053 1639.38,374.349 1645.95,372.599 1658.43,369.947 1665.14,368.873 1672.34,368.453 1685.51,368.443 1692.3,368.787 1699.83,369.947 1712.31,372.599 1718.89,374.349 1726.02,377.053 1737.67,382.243 1744.45,385.731 1750.14,389.443 1760.79,397.191 1766.36,401.759 1770.87,406.273 1779.7,416.053 1783.99,421.333 1788.17,427.713 1794.55,438.761 1797.64,444.813 1800.4,451.915 1804.46,464.445 1806.29,471.419 1807.29,477.729 1808.68,490.825 1809.04,497.619 1808.67,505.233 1807.34,517.919 1806.12,525.441 1804.35,532.003 1800.41,544.137 1797.64,551.245 1794.54,557.301 1787.95,568.699 1783.99,574.725 1779.7,580.003 1771.16,589.483 1765.76,594.841 1760.47,599.105 1749.81,606.841 1743.74,610.739 1738.04,613.643 1726.01,619.009 1718.88,621.709 1712.31,623.459 1699.83,626.111 1693.12,627.185 1685.51,627.615 1672.75,627.615 1665.96,627.271 1658.84,626.185 1645.95,623.459 1638.6,621.455 1632.25,619.009 1620.23,613.643 1613.81,610.325 1608.11,606.607 1597.79,599.105 1591.89,594.287 1587.1,589.479 1578.56,579.999 1574.28,574.725 1570.1,568.355 1563.52,556.947 1560.29,550.497 1557.86,544.137 1553.91,532.003 1551.97,524.635 1550.92,517.919 1549.47,503.613" style="stroke:rgb(0,0,0);stroke-width:1px;fill:none;stroke-opacity:1;stroke-linecap:round;stroke-linejoin:round;;fill:none"/>
<polyline points="4065.22,503.613 4066.69,518.329 4068.03,526.459 4069.86,533.217 4073.8,545.353 4076.8,553.033 4080,559.269 4086.37,570.315 4090.17,576.199 4095.32,582.631 4103.86,592.111 4108.8,597.073 4115.16,602.293 4125.48,609.795 4131.36,613.627 4138.68,617.415 4150.34,622.603 4156.87,625.129 4164.82,627.307 4177.3,629.959 4184.21,631.071 4192.44,631.551 4205.2,631.551 4212.19,631.201 4220.34,629.959 4232.81,627.307 4239.58,625.511 4247.29,622.605 4258.95,617.417 4265.21,614.247 4271.64,610.141 4282.47,602.289 4287.92,597.897 4293.35,592.559 4302.31,582.631 4307.45,576.203 4311.25,570.323 4317.63,559.277 4321.34,551.907 4323.83,545.353 4327.78,533.217 4329.86,525.245 4330.94,518.321 4332.27,505.633 4332.66,497.411 4332.27,490.427 4330.94,477.735 4329.61,469.601 4327.78,462.831 4323.83,450.701 4320.83,443.023 4317.64,436.785 4311.26,425.737 4307.46,419.855 4302.31,413.425 4293.77,403.945 4288.83,398.979 4282.46,393.757 4272.14,386.259 4266.27,382.431 4258.95,378.647 4247.3,373.457 4240.76,370.931 4232.81,368.751 4220.34,366.099 4213.42,364.987 4205.2,364.507 4192.44,364.507 4184.21,364.987 4177.3,366.099 4164.82,368.751 4156.87,370.931 4150.33,373.459 4138.67,378.649 4132.43,381.813 4126.01,385.905 4115.18,393.753 4109.72,398.151 4103.86,403.945 4095.32,413.425 4090.17,419.861 4086.37,425.745 4079.99,436.793 4076.3,444.157 4073.8,450.701 4069.86,462.831 4067.77,470.803 4066.69,477.729 4065.28,491.219 4065.22,503.613 4069.15,503.613 4069.19,491.629 4070.61,478.139 4071.66,471.419 4073.6,464.049 4077.54,451.915 4080.3,444.813 4083.4,438.761 4089.78,427.713 4093.96,421.337 4098.25,416.057 4107.07,406.279 4112.2,401.209 4117.49,396.937 4127.81,389.439 4133.5,385.731 4140.28,382.243 4151.93,377.053 4159.06,374.351 4165.64,372.599 4178.11,369.947 4184.83,368.873 4192.02,368.453 4205.2,368.443 4211.99,368.787 4219.52,369.947 4232,372.599 4238.57,374.349 4245.7,377.051 4257.35,382.241 4264.13,385.731 4269.83,389.443 4280.47,397.191 4286.05,401.763 4290.85,406.577 4299.39,416.057 4304.16,421.999 4307.85,427.705 4314.23,438.753 4317.66,445.563 4320.09,451.915 4324.15,464.445 4325.98,471.425 4326.97,477.739 4328.36,490.837 4328.73,497.619 4328.36,505.225 4327.03,517.911 4325.8,525.437 4324.03,532.003 4320.09,544.137 4317.33,551.249 4314.23,557.309 4307.63,568.707 4303.67,574.725 4299.39,579.999 4290.85,589.479 4285.44,594.839 4280.16,599.105 4269.5,606.841 4264.13,610.327 4257.72,613.645 4245.69,619.011 4238.56,621.709 4232,623.459 4219.52,626.111 4212.8,627.185 4205.2,627.615 4192.44,627.615 4185.65,627.271 4178.52,626.185 4165.64,623.459 4158.28,621.455 4151.94,619.009 4139.91,613.643 4133.5,610.327 4127.8,606.611 4117.48,599.109 4111.58,594.289 4106.78,589.479 4098.25,579.999 4093.96,574.721 4089.78,568.347 4083.21,556.939 4079.97,550.493 4077.54,544.137 4073.6,532.003 4071.66,524.635 4070.61,517.919 4069.15,503.613" style="stroke:rgb(167,241,217);stroke-width:15.748031;fill:none;stroke-opacity:0.5;stroke-linecap:round;stroke-linejoin:round;;fill:none"/>
<polyline points="4065.22,503.613 4066.69,518.329 4068.03,526.459 4069.86,533.217 4073.8,545.353 4076.8,553.033 4080,559.269 4086.37,570.315 4090.17,576.199 4095.32,582.631 4103.86,592.111 4108.8,597.073 4115.16,602.293 4125.48,609.795 4131.36,613.627 4138.68,617.415 4150.34,622.603 4156.87,625.129 4164.82,627.307 4177.3,629.959 4184.21,631.071 4192.44,631.551 4205.2,631.551 4212.19,631.201 4220.34,629.959 4232.81,627.307 4239.58,625.511 4247.29,622.605 4258.95,617.417 4265.21,614.247 4271.64,610.141 4282.47,602.289 4287.92,597.897 4293.35,592.559 4302.31,582.631 4307.45,576.203 4311.25,570.323 4317.63,559.277 4321.34,551.907 4323.83,545.353 4327.78,533.217 4329.86,525.245 4330.94,518.321 4332.27,505.633 4332.66,497.411 4332.27,490.427 4330.94,477.735 4329.61,469.601 4327.78,462.831 4323.83,450.701 4320.83,443.023 4317.64,436.785 4311.26,425.737 4307.46,419.855 4302.31,413.425 4293.77,403.945 4288.83,398.979 4282.46,393.757 4272.14,386.259 4266.27,382.431 4258.95,378.647 4247.3,373.457 4240.76,370.931 4232.81,368.751 4220.34,366.099 4213.42,364.987 4205.2,364.507 4192.44,364.507 4184.21,364.987 4177.3,366.099 4164.82,368.751 4156.87,370.931 4150.33,373.459 4138.67,378.649 4132.43,381.813 4126.01,385.905 4115.18,393.753 4109.72,398.151 4103.86,403.945 4095.32,413.425 4090.17,419.861 4086.37,425.745 4079.99,436.793 4076.3,444.157 4073.8,450.701 4069.86,462.831 4067.77,470.803 4066.69,477.729 4065.28,491.219 4065.22,503.613 4069.15,503.613 4069.19,491.629 4070.61,478.139 4071.66,471.419 4073.6,464.049 4077.54,451.915 4080.3,444.813 4083.4,438.761 4089.78,427.713 4093.96,421.337 4098.25,416.057 4107.07,406.279 4112.2,401.209 4117.49,396.937 4127.81,389.439 4133.5,385.731 4140.28,382.243 4151.93,377.053 4159.06,374.351 4165.64,372.599 4178.11,369.947 4184.83,368.873 4192.02,368.453 4205.2,368.443 4211.99,368.787 4219.52,369.947 4232,372.599 4238.57,374.349 4245.7,377.051 4257.35,382.241 4264.13,385.731 4269.83,389.443 4280.47,397.191 4286.05,401.763 4290.85,406.577 4299.39,416.057 4304.16,421.999 4307.85,427.705 4314.23,438.753 4317.66,445.563 4320.09,451.915 4324.15,464.445 4325.98,471.425 4326.97,477.739 4328.36,490.837 4328.73,497.619 4328.36,505.225 4327.03,517.911 4325.8,525.437 4324.03,532.003 4320.09,544.137 4317.33,551.249 4314.23,557.309 4307.63,568.707 4303.67,574.725 4299.39,579.999 4290.85,589.479 4285.44,594.839 4280.16,599.105 4269.5,606.841 4264.13,610.327 4257.72,613.645 4245.69,619.011 4238.56,621.709 4232,623.459 4219.52,626.111 4212.8,627.185 4205.2,627.615 4192.44,627.615 4185.65,627.271 4178.52,626.185 4165.64,623.459 4158.28,621.455 4151.94,619.009 4139.91,613.643 4133.5,610.327 4127.8,606.611 4117.48,599.109 4111.58,594.289 4106.78,589.479 4098.25,579.999 4093.96,574.721 4089.78,568.347 4083.21,556.939 4079.97,550.493 4077.54,544.137 4073.6,532.003 4071.66,524.635 4070.61,517.919 4069.15,503.613" style="stroke:rgb(0,0,0);stroke-width:1px;fill:none;stroke-opacity:1;stroke-linecap:round;stroke-linejoin:round;;fill:none"/>
<polyline points="5009.86,813.357 5016.21,873.565 5035.03,931.487 5065.48,984.233 5106.24,1029.5 5155.51,1065.3 5211.15,1090.07 5270.72,1102.73 5329.98,1102.82 5332.44,1102.56 5390.4,1090.24 5392.75,1089.48 5446.85,1065.29 5495.46,1029.98 5497.29,1028.33 5536.88,984.231 5567.33,931.487 5586.15,873.561 5592.52,812.991 5586.15,752.419 5567.33,694.491 5536.87,641.747 5496.12,596.485 5446.85,560.685 5391.21,535.911 5331.63,523.247 5272.38,523.159 5269.93,523.415 5211.16,535.909 5156.98,559.935 5154.84,561.171 5106.91,595.997 5105.07,597.653 5065.48,641.749 5035.03,694.491 5016.21,752.423 5009.86,813.357 5013.79,813.355 5020.06,753.239 5038.33,696.861 5068.22,644.751 5108.58,599.701 5157.15,564.355 5212.37,539.653 5271.55,527.137 5331.22,527.159 5389.99,539.655 5444.88,564.093 5494.07,599.991 5533.69,644.059 5563.36,695.357 5582.09,752.441 5588.58,812.991 5582.3,872.743 5563.73,929.887 5533.17,982.559 5493.78,1026.28 5445.58,1061.43 5390.38,1086.18 5329.98,1098.88 5271.13,1098.82 5212.37,1086.33 5156.79,1061.44 5108.87,1026.57 5068.67,981.921 5038.33,929.117 5020.06,872.745 5013.79,813.355" style="stroke:rgb(167,241,217);stroke-width:15.748031;fill:none;stroke-opacity:0.5;stroke-linecap:round;stroke-linejoin:round;;fill:none"/>
<polyline points="5009.86,813.357 5016.21,873.565 5035.03,931.487 5065.48,984.233 5106.24,1029.5 5155.51,1065.3 5211.15,1090.07 5270.72,1102.73 5329.98,1102.82 5332.44,1102.56 5390.4,1090.24 5392.75,1089.48 5446.85,1065.29 5495.46,1029.98 5497.29,1028.33 5536.88,984.231 5567.33,931.487 5586.15,873.561 5592.52,812.991 5586.15,752.419 5567.33,694.491 5536.87,641.747 5496.12,596.485 5446.85,560.685 5391.21,535.911 5331.63,523.247 5272.38,523.159 5269.93,523.415 5211.16,535.909 5156.98,559.935 5154.84,561.171 5106.91,595.997 5105.07,597.653 5065.48,641.749 5035.03,694.491 5016.21,752.423 5009.86,813.357 5013.79,813.355 5020.06,753.239 5038.33,696.861 5068.22,644.751 5108.58,599.701 5157.15,564.355 5212.37,539.653 5271.55,527.137 5331.22,527.159 5389.99,539.655 5444.88,564.093 5494.07,599.991 5533.69,644.059 5563.36,695.357 5582.09,752.441 5588.58,812.991 5582.3,872.743 5563.73,929.887 5533.17,982.559 5493.78,1026.28 5445.58,1061.43 5390.38,1086.18 5329.98,1098.88 5271.13,1098.82 5212.37,1086.33 5156.79,1061.44 5108.87,1026.57 5068.67,981.921 5038.33,929.117 5020.06,872.745 5013.79,813.355" style="stroke:rgb(0,0,0);stroke-width:1px;fill:none;stroke-opacity:1;stroke-linecap:round;stroke-linejoin:round;;fill:none"/>
<polyline points="5041.42,812.991 5047.08,867.001 5063.86,918.651 5091.01,965.685 5127.35,1006.04 5171.29,1037.97 5220.9,1060.06 5274.02,1071.35 5328.33,1071.35 5381.45,1060.06 5431.07,1037.97 5475.01,1006.04 5511.34,965.685 5538.5,918.651 5555.28,867.001 5560.96,812.991 5555.28,758.979 5538.5,707.327 5511.34,660.295 5475.01,619.937 5431.07,588.015 5381.45,565.925 5328.33,554.631 5274.02,554.631 5220.9,565.925 5171.29,588.015 5127.35,619.937 5091.01,660.295 5063.86,707.327 5047.08,758.979 5041.42,812.991 5037.46,812.989 5043.23,867.819 5060.26,920.251 5087.83,967.997 5124.72,1008.97 5169.32,1041.37 5219.69,1063.8 5273.61,1075.26 5328.74,1075.26 5382.67,1063.8 5433.04,1041.37 5477.64,1008.97 5514.53,967.997 5542.09,920.251 5559.13,867.819 5564.89,812.991 5559.13,758.161 5542.09,705.727 5514.53,657.983 5477.64,617.011 5433.04,584.607 5382.67,562.183 5328.74,550.717 5273.61,550.717 5219.69,562.183 5169.32,584.607 5124.72,617.011 5087.83,657.983 5060.26,705.727 5043.23,758.161 5037.46,812.989 5206.86,816.687 5209.01,833.631 5212.8,846.027 5214.62,850.849 5217.49,856.561 5224.17,867.671 5234.44,879.721 5238.75,883.861 5249.1,891.665 5253.41,894.493 5258.89,897.343 5266.79,900.859 5272.57,903.029 5285.81,906.089 5291.92,907.007 5297.06,907.249 5310.02,907.023 5324.8,904.335 5329.78,903.029 5335.76,900.771 5347.51,895.291 5359.91,886.827 5365.13,882.487 5373.98,873.009 5377.24,869.019 5380.33,864.385 5387.73,850.845 5389.55,846.027 5393.34,833.631 5395.35,818.755 5395.65,813.609 5395.35,807.227 5393.77,794.359 5389.55,779.951 5387.73,775.133 5380.75,762.301 5377.97,757.961 5368.47,746.857 5363.93,742.369 5359.91,739.153 5347.51,730.689 5335.76,725.209 5329.78,722.951 5316.54,719.891 5310.44,718.973 5305.29,718.731 5290.28,719.173 5277.56,721.645 5271.4,723.333 5266.6,725.207 5253.07,731.717 5242.45,739.153 5237.5,743.199 5233.88,746.863 5224.17,758.309 5217.49,769.419 5214.62,775.129 5212.8,779.951 5208.59,794.369 5206.95,807.783 5206.86,816.771 5210.8,816.771 5210.86,808.259 5212.78,793.497 5216.75,780.581 5218.63,775.785 5220.87,771.447 5228.35,759.227 5237.23,749.043 5240.9,745.431 5244.26,742.707 5255.32,734.941 5268.26,728.775 5272.81,727.007 5278.31,725.509 5292.4,722.893 5305.36,722.667 5311.05,722.989 5324.58,725.633 5328.77,726.753 5333.59,728.561 5345.85,734.255 5358.09,742.707 5362.07,745.979 5365.12,749.037 5374.01,759.227 5377.31,764.209 5384.06,776.543 5385.79,781.101 5389.86,794.839 5391.49,808.255 5391.72,812.579 5391.49,817.727 5389.86,831.139 5385.79,844.877 5383.6,850.431 5377.31,861.771 5374.67,865.875 5371.1,870.323 5362.26,879.803 5357.65,883.603 5347.04,891.039 5334.1,897.205 5329.55,898.971 5324.58,900.347 5311.32,902.943 5296.99,903.313 5291.31,902.991 5277.77,900.347 5272.81,898.973 5268.77,897.421 5260.49,893.747 5255.55,891.193 5251.47,888.521 5241.12,880.719 5236.85,876.535 5228.35,866.753 5220.6,854.053 5218.63,850.193 5216.75,845.397 5212.49,831.131 5210.8,816.771 5206.86,816.687" style="stroke:rgb(167,241,217);stroke-width:15.748031;fill:none;stroke-opacity:0.5;stroke-linecap:round;stroke-linejoin:round;;fill:none"/>
<polyline points="5041.42,812.991 5047.08,867.001 5063.86,918.651 5091.01,965.685 5127.35,1006.04 5171.29,1037.97 5220.9,1060.06 5274.02,1071.35 5328.33,1071.35 5381.45,1060.06 5431.07,1037.97 5475.01,1006.04 5511.34,965.685 5538.5,918.651 5555.28,867.001 5560.96,812.991 5555.28,758.979 5538.5,707.327 5511.34,660.295 5475.01,619.937 5431.07,588.015 5381.45,565.925 5328.33,554.631 5274.02,554.631 5220.9,565.925 5171.29,588.015 5127.35,619.937 5091.01,660.295 5063.86,707.327 5047.08,758.979 5041.42,812.991 5037.46,812.989 5043.23,867.819 5060.26,920.251 5087.83,967.997 5124.72,1008.97 5169.32,1041.37 5219.69,1063.8 5273.61,1075.26 5328.74,1075.26 5382.67,1063.8 5433.04,1041.37 5477.64,1008.97 5514.53,967.997 5542.09,920.251 5559.13,867.819 5564.89,812.991 5559.13,758.161 5542.09,705.727 5514.53,657.983 5477.64,617.011 5433.04,584.607 5382.67,562.183 5328.74,550.717 5273.61,550.717 5219.69,562.183 5169.32,584.607 5124.72,617.011 5087.83,657.983 5060.26,705.727 5043.23,758.161 5037.46,812.989 5206.86,816.687 5209.01,833.631 5212.8,846.027 5214.62,850.849 5217.49,856.561 5224.17,867.671 5234.44,879.721 5238.75,883.861 5249.1,891.665 5253.41,894.493 5258.89,897.343 5266.79,900.859 5272.57,903.029 5285.81,906.089 5291.92,907.007 5297.06,907.249 5310.02,907.023 5324.8,904.335 5329.78,903.029 5335.76,900.771 5347.51,895.291 5359.91,886.827 5365.13,882.487 5373.98,873.009 5377.24,869.019 5380.33,864.385 5387.73,850.845 5389.55,846.027 5393.34,833.631 5395.35,818.755 5395.65,813.609 5395.35,807.227 5393.77,794.359 5389.55,779.951 5387.73,775.133 5380.75,762.301 5377.97,757.961 5368.47,746.857 5363.93,742.369 5359.91,739.153 5347.51,730.689 5335.76,725.209 5329.78,722.951 5316.54,719.891 5310.44,718.973 5305.29,718.731 5290.28,719.173 5277.56,721.645 5271.4,723.333 5266.6,725.207 5253.07,731.717 5242.45,739.153 5237.5,743.199 5233.88,746.863 5224.17,758.309 5217.49,769.419 5214.62,775.129 5212.8,779.951 5208.59,794.369 5206.95,807.783 5206.86,816.771 5210.8,816.771 5210.86,808.259 5212.78,793.497 5216.75,780.581 5218.63,775.785 5220.87,771.447 5228.35,759.227 5237.23,749.043 5240.9,745.431 5244.26,742.707 5255.32,734.941 5268.26,728.775 5272.81,727.007 5278.31,725.509 5292.4,722.893 5305.36,722.667 5311.05,722.989 5324.58,725.633 5328.77,726.753 5333.59,728.561 5345.85,734.255 5358.09,742.707 5362.07,745.979 5365.12,749.037 5374.01,759.227 5377.31,764.209 5384.06,776.543 5385.79,781.101 5389.86,794.839 5391.49,808.255 5391.72,812.579 5391.49,817.727 5389.86,831.139 5385.79,844.877 5383.6,850.431 5377.31,861.771 5374.67,865.875 5371.1,870.323 5362.26,879.803 5357.65,883.603 5347.04,891.039 5334.1,897.205 5329.55,898.971 5324.58,900.347 5311.32,902.943 5296.99,903.313 5291.31,902.991 5277.77,900.347 5272.81,898.973 5268.77,897.421 5260.49,893.747 5255.55,891.193 5251.47,888.521 5241.12,880.719 5236.85,876.535 5228.35,866.753 5220.6,854.053 5218.63,850.193 5216.75,845.397 5212.49,831.131 5210.8,816.771 5206.86,816.687" style="stroke:rgb(0,0,0);stroke-width:1px;fill:none;stroke-opacity:1;stroke-linecap:round;stroke-linejoin:round;;fill:none"/>
<polyline points="5206.86,4832.44 5210.8,4832.52 5212.49,4846.88 5216.75,4861.15 5218.63,4865.94 5220.6,4869.8 5228.35,4882.5 5236.85,4892.28 5241.12,4896.47 5251.47,4904.27 5255.55,4906.94 5260.49,4909.5 5268.77,4913.17 5272.81,4914.72 5277.77,4916.1 5291.31,4918.74 5296.99,4919.06 5311.32,4918.69 5324.58,4916.1 5329.55,4914.72 5334.1,4912.95 5347.04,4906.79 5357.65,4899.35 5362.26,4895.55 5371.1,4886.07 5374.67,4881.62 5377.31,4877.52 5383.6,4866.18 5385.79,4860.63 5389.86,4846.89 5391.49,4833.48 5391.72,4829.15 5391.49,4824 5389.86,4810.59 5385.79,4796.85 5384.06,4792.29 5377.31,4779.96 5374.01,4774.98 5365.12,4764.79 5362.07,4761.73 5358.09,4758.46 5345.85,4750 5333.59,4744.31 5328.77,4742.5 5324.58,4741.38 5311.05,4738.74 5305.36,4738.42 5292.4,4738.64 5278.31,4741.26 5272.81,4742.76 5268.26,4744.52 5255.32,4750.69 5244.26,4758.46 5240.9,4761.18 5237.23,4764.79 5228.35,4774.98 5220.87,4787.2 5218.63,4791.53 5216.75,4796.33 5212.78,4809.25 5210.86,4824.01 5210.8,4832.52 5206.86,4832.52 5206.95,4823.53 5208.59,4810.12 5212.8,4795.7 5214.62,4790.88 5217.49,4785.17 5224.17,4774.06 5233.88,4762.61 5237.5,4758.95 5242.45,4754.9 5253.07,4747.47 5266.6,4740.96 5271.4,4739.08 5277.56,4737.39 5290.28,4734.92 5305.29,4734.48 5310.44,4734.72 5316.54,4735.64 5329.78,4738.7 5335.76,4740.96 5347.51,4746.44 5359.91,4754.9 5363.93,4758.12 5368.47,4762.61 5377.97,4773.71 5380.75,4778.05 5387.73,4790.88 5389.55,4795.7 5393.77,4810.11 5395.35,4822.98 5395.65,4829.36 5395.35,4834.5 5393.34,4849.38 5389.55,4861.78 5387.73,4866.59 5380.33,4880.13 5377.24,4884.77 5373.98,4888.76 5365.13,4898.24 5359.91,4902.58 5347.51,4911.04 5335.76,4916.52 5329.78,4918.78 5324.8,4920.08 5310.02,4922.77 5297.06,4923 5291.92,4922.76 5285.81,4921.84 5272.57,4918.78 5266.79,4916.61 5258.89,4913.09 5253.41,4910.24 5249.1,4907.41 5238.75,4899.61 5234.44,4895.47 5224.17,4883.42 5217.49,4872.31 5214.62,4866.6 5212.8,4861.78 5209.01,4849.38 5206.86,4832.44 5037.46,4828.74 5043.23,4773.91 5060.26,4721.48 5087.83,4673.73 5124.72,4632.76 5169.32,4600.36 5219.69,4577.93 5273.61,4566.47 5328.74,4566.47 5382.67,4577.93 5433.04,4600.36 5477.64,4632.76 5514.53,4673.73 5542.09,4721.48 5559.13,4773.91 5564.89,4828.74 5559.13,4883.57 5542.09,4936 5514.53,4983.75 5477.64,5024.72 5433.04,5057.12 5382.67,5079.55 5328.74,5091.01 5273.61,5091.01 5219.69,5079.55 5169.32,5057.12 5124.72,5024.72 5087.83,4983.75 5060.26,4936 5043.23,4883.57 5037.46,4828.74 5041.42,4828.74 5047.08,4774.73 5063.86,4723.08 5091.01,4676.04 5127.35,4635.69 5171.29,4603.76 5220.9,4581.67 5274.02,4570.38 5328.33,4570.38 5381.45,4581.67 5431.07,4603.76 5475.01,4635.69 5511.34,4676.04 5538.5,4723.08 5555.28,4774.73 5560.96,4828.74 5555.28,4882.75 5538.5,4934.4 5511.34,4981.43 5475.01,5021.79 5431.07,5053.71 5381.45,5075.8 5328.33,5087.09 5274.02,5087.09 5220.9,5075.8 5171.29,5053.71 5127.35,5021.79 5091.01,4981.43 5063.86,4934.4 5047.08,4882.75 5041.42,4828.74" style="stroke:rgb(167,241,217);stroke-width:15.748031;fill:none;stroke-opacity:0.5;stroke-linecap:round;stroke-linejoin:round;;fill:none"/>
<polyline points="5206.86,4832.44 5210.8,4832.52 5212.49,4846.88 5216.75,4861.15 5218.63,4865.94 5220.6,4869.8 5228.35,4882.5 5236.85,4892.28 5241.12,4896.47 5251.47,4904.27 5255.55,4906.94 5260.49,4909.5 5268.77,4913.17 5272.81,4914.72 5277.77,4916.1 5291.31,4918.74 5296.99,4919.06 5311.32,4918.69 5324.58,4916.1 5329.55,4914.72 5334.1,4912.95 5347.04,4906.79 5357.65,4899.35 5362.26,4895.55 5371.1,4886.07 5374.67,4881.62 5377.31,4877.52 5383.6,4866.18 5385.79,4860.63 5389.86,4846.89 5391.49,4833.48 5391.72,4829.15 5391.49,4824 5389.86,4810.59 5385.79,4796.85 5384.06,4792.29 5377.31,4779.96 5374.01,4774.98 5365.12,4764.79 5362.07,4761.73 5358.09,4758.46 5345.85,4750 5333.59,4744.31 5328.77,4742.5 5324.58,4741.38 5311.05,4738.74 5305.36,4738.42 5292.4,4738.64 5278.31,4741.26 5272.81,4742.76 5268.26,4744.52 5255.32,4750.69 5244.26,4758.46 5240.9,4761.18 5237.23,4764.79 5228.35,4774.98 5220.87,4787.2 5218.63,4791.53 5216.75,4796.33 5212.78,4809.25 5210.86,4824.01 5210.8,4832.52 5206.86,4832.52 5206.95,4823.53 5208.59,4810.12 5212.8,4795.7 5214.62,4790.88 5217.49,4785.17 5224.17,4774.06 5233.88,4762.61 5237.5,4758.95 5242.45,4754.9 5253.07,4747.47 5266.6,4740.96 5271.4,4739.08 5277.56,4737.39 5290.28,4734.92 5305.29,4734.48 5310.44,4734.72 5316.54,4735.64 5329.78,4738.7 5335.76,4740.96 5347.51,4746.44 5359.91,4754.9 5363.93,4758.12 5368.47,4762.61 5377.97,4773.71 5380.75,4778.05 5387.73,4790.88 5389.55,4795.7 5393.77,4810.11 5395.35,4822.98 5395.65,4829.36 5395.35,4834.5 5393.34,4849.38 5389.55,4861.78 5387.73,4866.59 5380.33,4880.13 5377.24,4884.77 5373.98,4888.76 5365.13,4898.24 5359.91,4902.58 5347.51,4911.04 5335.76,4916.52 5329.78,4918.78 5324.8,4920.08 5310.02,4922.77 5297.06,4923 5291.92,4922.76 5285.81,4921.84 5272.57,4918.78 5266.79,4916.61 5258.89,4913.09 5253.41,4910.24 5249.1,4907.41 5238.75,4899.61 5234.44,4895.47 5224.17,4883.42 5217.49,4872.31 5214.62,4866.6 5212.8,4861.78 5209.01,4849.38 5206.86,4832.44 5037.46,4828.74 5043.23,4773.91 5060.26,4721.48 5087.83,4673.73 5124.72,4632.76 5169.32,4600.36 5219.69,4577.93 5273.61,4566.47 5328.74,4566.47 5382.67,4577.93 5433.04,4600.36 5477.64,4632.76 5514.53,4673.73 5542.09,4721.48 5559.13,4773.91 5564.89,4828.74 5559.13,4883.57 5542.09,4936 5514.53,4983.75 5477.64,5024.72 5433.04,5057.12 5382.67,5079.55 5328.74,5091.01 5273.61,5091.01 5219.69,5079.55 5169.32,5057.12 5124.72,5024.72 5087.83,4983.75 5060.26,4936 5043.23,4883.57 5037.46,4828.74 5041.42,4828.74 5047.08,4774.73 5063.86,4723.08 5091.01,4676.04 5127.35,4635.69 5171.29,4603.76 5220.9,4581.67 5274.02,4570.38 5328.33,4570.38 5381.45,4581.67 5431.07,4603.76 5475.01,4635.69 5511.34,4676.04 5538.5,4723.08 5555.28,4774.73 5560.96,4828.74 5555.28,4882.75 5538.5,4934.4 5511.34,4981.43 5475.01,5021.79 5431.07,5053.71 5381.45,5075.8 5328.33,5087.09 5274.02,5087.09 5220.9,5075.8 5171.29,5053.71 5127.35,5021.79 5091.01,4981.43 5063.86,4934.4 5047.08,4882.75 5041.42,4828.74" style="stroke:rgb(0,0,0);stroke-width:1px;fill:none;stroke-opacity:1;stroke-linecap:round;stroke-linejoin:round;;fill:none"/>
<polyline points="5013.79,4829.1 5020.06,4888.49 5038.33,4944.87 5068.67,4997.67 5108.87,5042.32 5156.79,5077.19 5212.37,5102.07 5271.13,5114.57 5329.98,5114.63 5390.38,5101.93 5445.58,5077.18 5493.78,5042.02 5533.17,4998.31 5563.73,4945.64 5582.3,4888.49 5588.58,4828.74 5582.09,4768.19 5563.36,4711.11 5533.69,4659.81 5494.07,4615.74 5444.88,4579.84 5389.99,4555.4 5331.22,4542.91 5271.55,4542.89 5212.37,4555.4 5157.15,4580.1 5108.58,4615.45 5068.22,4660.5 5038.33,4712.61 5020.06,4768.99 5013.79,4829.1 5009.86,4829.11 5016.21,4768.17 5035.03,4710.24 5065.48,4657.5 5105.07,4613.4 5106.91,4611.75 5154.84,4576.92 5156.98,4575.68 5211.16,4551.66 5269.93,4539.17 5272.38,4538.91 5331.63,4539 5391.21,4551.66 5446.85,4576.43 5496.12,4612.23 5536.87,4657.5 5567.33,4710.24 5586.15,4768.17 5592.52,4828.74 5586.15,4889.31 5567.33,4947.24 5536.88,4999.98 5497.29,5044.08 5495.46,5045.72 5446.85,5081.04 5392.75,5105.22 5390.4,5105.99 5332.44,5118.31 5329.98,5118.57 5270.72,5118.48 5211.15,5105.82 5155.51,5081.04 5106.24,5045.24 5065.48,4999.98 5035.03,4947.24 5016.21,4889.31 5009.86,4829.11" style="stroke:rgb(167,241,217);stroke-width:15.748031;fill:none;stroke-opacity:0.5;stroke-linecap:round;stroke-linejoin:round;;fill:none"/>
<polyline points="5013.79,4829.1 5020.06,4888.49 5038.33,4944.87 5068.67,4997.67 5108.87,5042.32 5156.79,5077.19 5212.37,5102.07 5271.13,5114.57 5329.98,5114.63 5390.38,5101.93 5445.58,5077.18 5493.78,5042.02 5533.17,4998.31 5563.73,4945.64 5582.3,4888.49 5588.58,4828.74 5582.09,4768.19 5563.36,4711.11 5533.69,4659.81 5494.07,4615.74 5444.88,4579.84 5389.99,4555.4 5331.22,4542.91 5271.55,4542.89 5212.37,4555.4 5157.15,4580.1 5108.58,4615.45 5068.22,4660.5 5038.33,4712.61 5020.06,4768.99 5013.79,4829.1 5009.86,4829.11 5016.21,4768.17 5035.03,4710.24 5065.48,4657.5 5105.07,4613.4 5106.91,4611.75 5154.84,4576.92 5156.98,4575.68 5211.16,4551.66 5269.93,4539.17 5272.38,4538.91 5331.63,4539 5391.21,4551.66 5446.85,4576.43 5496.12,4612.23 5536.87,4657.5 5567.33,4710.24 5586.15,4768.17 5592.52,4828.74 5586.15,4889.31 5567.33,4947.24 5536.88,4999.98 5497.29,5044.08 5495.46,5045.72 5446.85,5081.04 5392.75,5105.22 5390.4,5105.99 5332.44,5118.31 5329.98,5118.57 5270.72,5118.48 5211.15,5105.82 5155.51,5081.04 5106.24,5045.24 5065.48,4999.98 5035.03,4947.24 5016.21,4889.31 5009.86,4829.11" style="stroke:rgb(0,0,0);stroke-width:1px;fill:none;stroke-opacity:1;stroke-linecap:round;stroke-linejoin:round;;fill:none"/>
<polyline points="4100.58,5147.85 4102.43,5163.48 4104.03,5169.67 4109.21,5184.35 4116.09,5196.77 4118.96,5201.21 4122.78,5205.98 4133.49,5217.28 4144.83,5225.83 4149.25,5228.72 4163.59,5235.47 4168.01,5237.17 4173.37,5238.65 4189.21,5241.63 4203.41,5241.88 4208.69,5241.62 4223.72,5238.77 4228.84,5237.42 4234.04,5235.47 4247.67,5229.13 4252.7,5225.9 4260.68,5220.09 4264.98,5216.56 4268.7,5212.81 4278.02,5202.09 4281.54,5196.77 4288.98,5183.1 4293.77,5169.15 4295,5164.56 4295.91,5159.07 4297.21,5144.38 4295.98,5128.87 4294.99,5122.84 4293.61,5117.73 4288.43,5103.05 4281.26,5090.17 4278.19,5085.52 4274.85,5081.42 4264.15,5070.12 4252.36,5061.26 4247.67,5058.26 4243.44,5056.11 4229.87,5050.33 4214.73,5046.71 4209.51,5045.87 4194.22,5045.52 4187.85,5045.91 4173.37,5048.75 4168.01,5050.23 4163.59,5051.93 4150.21,5058.14 4137.39,5066.97 4133.27,5070.29 4129.31,5074.19 4119.61,5085.31 4116.09,5090.64 4109.21,5103.05 4104.03,5117.73 4102.43,5123.92 4100.64,5138.6 4100.58,5147.85 4096.65,5147.85 4096.73,5138.12 4098.52,5123.45 4100.31,5116.45 4104.93,5103.02 4112.65,5088.73 4115.65,5084.04 4125.96,5072.01 4129.88,5068.06 4134.48,5064.25 4146.77,5055.61 4161.42,5048.58 4166.6,5046.55 4173.16,5044.76 4187.1,5042.05 4193.46,5041.6 4210.13,5041.98 4215.62,5042.88 4231.41,5046.71 4244.48,5052.26 4250.53,5055.38 4255.18,5058.43 4268.04,5068.35 4277.73,5078.74 4281.98,5084.04 4284.99,5088.73 4291.87,5101.15 4297.33,5116.45 4298.8,5121.82 4299.9,5128.53 4301.13,5142.67 4299.9,5158.87 4299.05,5164.37 4297.33,5170.95 4292.7,5184.38 4284.98,5198.67 4281.98,5203.36 4271.11,5215.99 4266.84,5220.17 4255.02,5229.09 4250.53,5232.02 4244.67,5235.06 4231.03,5240.84 4225.28,5242.45 4210.54,5245.35 4204.17,5245.8 4187.1,5245.35 4173.16,5242.64 4166.6,5240.84 4161.42,5238.82 4147.11,5232.02 4142.46,5228.97 4129.59,5219.05 4119.91,5208.66 4115.65,5203.36 4112.65,5198.67 4105.77,5186.26 4100.31,5170.95 4098.84,5165.58 4096.65,5147.85" style="stroke:rgb(167,241,217);stroke-width:15.748031;fill:none;stroke-opacity:0.5;stroke-linecap:round;stroke-linejoin:round;;fill:none"/>
<polyline points="4100.58,5147.85 4102.43,5163.48 4104.03,5169.67 4109.21,5184.35 4116.09,5196.77 4118.96,5201.21 4122.78,5205.98 4133.49,5217.28 4144.83,5225.83 4149.25,5228.72 4163.59,5235.47 4168.01,5237.17 4173.37,5238.65 4189.21,5241.63 4203.41,5241.88 4208.69,5241.62 4223.72,5238.77 4228.84,5237.42 4234.04,5235.47 4247.67,5229.13 4252.7,5225.9 4260.68,5220.09 4264.98,5216.56 4268.7,5212.81 4278.02,5202.09 4281.54,5196.77 4288.98,5183.1 4293.77,5169.15 4295,5164.56 4295.91,5159.07 4297.21,5144.38 4295.98,5128.87 4294.99,5122.84 4293.61,5117.73 4288.43,5103.05 4281.26,5090.17 4278.19,5085.52 4274.85,5081.42 4264.15,5070.12 4252.36,5061.26 4247.67,5058.26 4243.44,5056.11 4229.87,5050.33 4214.73,5046.71 4209.51,5045.87 4194.22,5045.52 4187.85,5045.91 4173.37,5048.75 4168.01,5050.23 4163.59,5051.93 4150.21,5058.14 4137.39,5066.97 4133.27,5070.29 4129.31,5074.19 4119.61,5085.31 4116.09,5090.64 4109.21,5103.05 4104.03,5117.73 4102.43,5123.92 4100.64,5138.6 4100.58,5147.85 4096.65,5147.85 4096.73,5138.12 4098.52,5123.45 4100.31,5116.45 4104.93,5103.02 4112.65,5088.73 4115.65,5084.04 4125.96,5072.01 4129.88,5068.06 4134.48,5064.25 4146.77,5055.61 4161.42,5048.58 4166.6,5046.55 4173.16,5044.76 4187.1,5042.05 4193.46,5041.6 4210.13,5041.98 4215.62,5042.88 4231.41,5046.71 4244.48,5052.26 4250.53,5055.38 4255.18,5058.43 4268.04,5068.35 4277.73,5078.74 4281.98,5084.04 4284.99,5088.73 4291.87,5101.15 4297.33,5116.45 4298.8,5121.82 4299.9,5128.53 4301.13,5142.67 4299.9,5158.87 4299.05,5164.37 4297.33,5170.95 4292.7,5184.38 4284.98,5198.67 4281.98,5203.36 4271.11,5215.99 4266.84,5220.17 4255.02,5229.09 4250.53,5232.02 4244.67,5235.06 4231.03,5240.84 4225.28,5242.45 4210.54,5245.35 4204.17,5245.8 4187.1,5245.35 4173.16,5242.64 4166.6,5240.84 4161.42,5238.82 4147.11,5232.02 4142.46,5228.97 4129.59,5219.05 4119.91,5208.66 4115.65,5203.36 4112.65,5198.67 4105.77,5186.26 4100.31,5170.95 4098.84,5165.58 4096.65,5147.85" style="stroke:rgb(0,0,0);stroke-width:1px;fill:none;stroke-opacity:1;stroke-linecap:round;stroke-linejoin:round;;fill:none"/>
<polyline points="1549.47,5149.28 1550.92,5163.59 1551.97,5170.31 1553.92,5177.68 1557.86,5189.81 1560.28,5196.16 1563.52,5202.61 1570.1,5214.02 1574.28,5220.39 1578.56,5225.67 1587.38,5235.45 1592.51,5240.52 1597.8,5244.79 1608.12,5252.29 1614.53,5256.41 1620.59,5259.49 1632.24,5264.68 1638.59,5267.12 1645.95,5269.13 1658.84,5271.86 1665.96,5272.94 1672.75,5273.29 1685.51,5273.29 1693.12,5272.86 1699.83,5271.78 1712.31,5269.13 1718.89,5267.38 1726.02,5264.68 1738.04,5259.31 1744.45,5256 1749.8,5252.52 1760.46,5244.79 1765.75,5240.52 1771.16,5235.16 1779.7,5225.68 1783.99,5220.39 1787.96,5214.36 1794.55,5202.96 1797.64,5196.91 1800.4,5189.81 1804.35,5177.68 1806.12,5171.11 1807.34,5163.59 1808.67,5150.9 1809.04,5143.29 1808.67,5136.49 1807.29,5123.4 1806.29,5117.09 1804.46,5110.12 1800.4,5097.59 1797.98,5091.24 1794.55,5084.43 1788.17,5073.38 1784.47,5067.67 1779.7,5061.73 1771.16,5052.25 1766.36,5047.43 1760.79,5042.86 1750.14,5035.11 1744.44,5031.4 1737.66,5027.91 1726.01,5022.72 1719.66,5020.27 1712.31,5018.27 1699.83,5015.62 1692.3,5014.46 1685.51,5014.11 1672.34,5014.12 1665.14,5014.54 1658.43,5015.62 1645.95,5018.27 1638.6,5020.27 1632.25,5022.72 1620.6,5027.91 1613.82,5031.4 1608.12,5035.11 1597.8,5042.61 1592.51,5046.88 1587.38,5051.95 1578.56,5061.73 1574.27,5067.01 1570.1,5073.38 1563.72,5084.42 1560.62,5090.48 1557.86,5097.59 1553.92,5109.72 1551.97,5117.09 1550.92,5123.81 1549.51,5137.3 1549.47,5149.28 1545.53,5149.28 1545.59,5136.89 1547.01,5123.4 1548.09,5116.47 1550.17,5108.5 1554.11,5096.37 1556.61,5089.82 1560.31,5082.46 1566.69,5071.41 1570.49,5065.53 1575.63,5059.1 1584.17,5049.62 1589.11,5044.65 1595.49,5039.43 1605.81,5031.93 1611.68,5028.1 1619,5024.31 1630.65,5019.13 1637.19,5016.6 1644.53,5014.56 1657.61,5011.77 1664.53,5010.66 1672.75,5010.18 1685.51,5010.18 1693.73,5010.66 1700.65,5011.77 1713.13,5014.42 1721.07,5016.6 1727.61,5019.13 1739.26,5024.31 1746.59,5028.1 1752.45,5031.93 1762.77,5039.43 1769.15,5044.65 1774.09,5049.61 1782.63,5059.09 1787.05,5064.53 1791.58,5071.42 1797.96,5082.46 1801.15,5088.7 1804.15,5096.37 1808.09,5108.5 1809.92,5115.27 1811.25,5123.4 1812.59,5136.08 1812.97,5143.08 1812.59,5151.31 1811.25,5164 1810.17,5170.92 1808.09,5178.89 1804.15,5191.03 1801.65,5197.57 1797.96,5204.93 1791.58,5215.98 1787.77,5221.87 1782.62,5228.31 1774.08,5237.79 1768.22,5243.58 1762.77,5247.97 1751.94,5255.82 1745.52,5259.92 1739.27,5263.08 1727.62,5268.27 1721.08,5270.8 1713.13,5272.98 1700.65,5275.63 1693.73,5276.74 1685.51,5277.22 1672.75,5277.22 1664.53,5276.74 1657.61,5275.63 1645.13,5272.98 1637.18,5270.8 1630.64,5268.27 1618.99,5263.08 1611.67,5259.3 1605.81,5255.47 1595.49,5247.97 1589.12,5242.75 1584.17,5237.78 1575.64,5228.3 1571.22,5222.87 1566.69,5215.99 1560.31,5204.94 1557.11,5198.7 1554.11,5191.03 1550.17,5178.89 1548.34,5172.13 1547.01,5164 1545.53,5149.28" style="stroke:rgb(167,241,217);stroke-width:15.748031;fill:none;stroke-opacity:0.5;stroke-linecap:round;stroke-linejoin:round;;fill:none"/>
<polyline points="1549.47,5149.28 1550.92,5163.59 1551.97,5170.31 1553.92,5177.68 1557.86,5189.81 1560.28,5196.16 1563.52,5202.61 1570.1,5214.02 1574.28,5220.39 1578.56,5225.67 1587.38,5235.45 1592.51,5240.52 1597.8,5244.79 1608.12,5252.29 1614.53,5256.41 1620.59,5259.49 1632.24,5264.68 1638.59,5267.12 1645.95,5269.13 1658.84,5271.86 1665.96,5272.94 1672.75,5273.29 1685.51,5273.29 1693.12,5272.86 1699.83,5271.78 1712.31,5269.13 1718.89,5267.38 1726.02,5264.68 1738.04,5259.31 1744.45,5256 1749.8,5252.52 1760.46,5244.79 1765.75,5240.52 1771.16,5235.16 1779.7,5225.68 1783.99,5220.39 1787.96,5214.36 1794.55,5202.96 1797.64,5196.91 1800.4,5189.81 1804.35,5177.68 1806.12,5171.11 1807.34,5163.59 1808.67,5150.9 1809.04,5143.29 1808.67,5136.49 1807.29,5123.4 1806.29,5117.09 1804.46,5110.12 1800.4,5097.59 1797.98,5091.24 1794.55,5084.43 1788.17,5073.38 1784.47,5067.67 1779.7,5061.73 1771.16,5052.25 1766.36,5047.43 1760.79,5042.86 1750.14,5035.11 1744.44,5031.4 1737.66,5027.91 1726.01,5022.72 1719.66,5020.27 1712.31,5018.27 1699.83,5015.62 1692.3,5014.46 1685.51,5014.11 1672.34,5014.12 1665.14,5014.54 1658.43,5015.62 1645.95,5018.27 1638.6,5020.27 1632.25,5022.72 1620.6,5027.91 1613.82,5031.4 1608.12,5035.11 1597.8,5042.61 1592.51,5046.88 1587.38,5051.95 1578.56,5061.73 1574.27,5067.01 1570.1,5073.38 1563.72,5084.42 1560.62,5090.48 1557.86,5097.59 1553.92,5109.72 1551.97,5117.09 1550.92,5123.81 1549.51,5137.3 1549.47,5149.28 1545.53,5149.28 1545.59,5136.89 1547.01,5123.4 1548.09,5116.47 1550.17,5108.5 1554.11,5096.37 1556.61,5089.82 1560.31,5082.46 1566.69,5071.41 1570.49,5065.53 1575.63,5059.1 1584.17,5049.62 1589.11,5044.65 1595.49,5039.43 1605.81,5031.93 1611.68,5028.1 1619,5024.31 1630.65,5019.13 1637.19,5016.6 1644.53,5014.56 1657.61,5011.77 1664.53,5010.66 1672.75,5010.18 1685.51,5010.18 1693.73,5010.66 1700.65,5011.77 1713.13,5014.42 1721.07,5016.6 1727.61,5019.13 1739.26,5024.31 1746.59,5028.1 1752.45,5031.93 1762.77,5039.43 1769.15,5044.65 1774.09,5049.61 1782.63,5059.09 1787.05,5064.53 1791.58,5071.42 1797.96,5082.46 1801.15,5088.7 1804.15,5096.37 1808.09,5108.5 1809.92,5115.27 1811.25,5123.4 1812.59,5136.08 1812.97,5143.08 1812.59,5151.31 1811.25,5164 1810.17,5170.92 1808.09,5178.89 1804.15,5191.03 1801.65,5197.57 1797.96,5204.93 1791.58,5215.98 1787.77,5221.87 1782.62,5228.31 1774.08,5237.79 1768.22,5243.58 1762.77,5247.97 1751.94,5255.82 1745.52,5259.92 1739.27,5263.08 1727.62,5268.27 1721.08,5270.8 1713.13,5272.98 1700.65,5275.63 1693.73,5276.74 1685.51,5277.22 1672.75,5277.22 1664.53,5276.74 1657.61,5275.63 1645.13,5272.98 1637.18,5270.8 1630.64,5268.27 1618.99,5263.08 1611.67,5259.3 1605.81,5255.47 1595.49,5247.97 1589.12,5242.75 1584.17,5237.78 1575.64,5228.3 1571.22,5222.87 1566.69,5215.99 1560.31,5204.94 1557.11,5198.7 1554.11,5191.03 1550.17,5178.89 1548.34,5172.13 1547.01,5164 1545.53,5149.28" style="stroke:rgb(0,0,0);stroke-width:1px;fill:none;stroke-opacity:1;stroke-linecap:round;stroke-linejoin:round;;fill:none"/>
<polyline points="482.457,4832.44 486.393,4832.53 488.293,4847.97 489.575,4852.68 493.797,4864.93 500.637,4877.52 503.941,4882.5 512.825,4892.69 515.881,4895.75 519.851,4899.02 532.099,4907.47 544.359,4913.17 548.399,4914.72 553.365,4916.1 566.897,4918.74 572.585,4919.06 586.913,4918.69 600.175,4916.1 605.141,4914.72 609.689,4912.95 622.401,4906.94 626.483,4904.27 637.849,4895.55 647.049,4885.66 650.261,4881.62 652.619,4877.99 659.185,4866.18 663.965,4852.68 665.247,4847.97 666.095,4842.88 667.291,4829.42 666.163,4815.14 665.419,4810.32 663.963,4804.8 659.185,4791.29 652.903,4779.96 649.599,4774.98 640.715,4764.79 637.659,4761.73 633.689,4758.46 621.441,4750 609.181,4744.31 605.141,4742.76 600.175,4741.38 586.643,4738.74 580.955,4738.42 567.991,4738.64 553.901,4741.26 548.399,4742.76 543.851,4744.52 532.099,4750 527.507,4752.9 515.691,4761.93 506.491,4771.82 503.279,4775.85 500.637,4779.96 493.797,4792.54 489.415,4805.32 488.083,4810.6 486.451,4824 486.393,4832.53 482.459,4832.53 482.545,4823.52 484.175,4810.12 485.855,4803.51 490.077,4791.26 497.195,4778.05 499.979,4773.71 503.973,4768.72 512.813,4759.24 524.689,4750.07 528.995,4747.24 542.189,4740.96 546.989,4739.08 553.151,4737.39 565.875,4734.92 580.885,4734.48 586.029,4734.72 592.139,4735.64 605.375,4738.7 611.351,4740.96 623.105,4746.44 635.507,4754.91 639.523,4758.12 644.059,4762.61 653.561,4773.71 656.345,4778.05 663.463,4791.26 667.685,4803.51 669.305,4809.7 670.083,4814.8 671.211,4829.77 670.083,4842.68 669.049,4848.98 667.685,4853.96 662.627,4868.09 656.345,4879.43 653.561,4883.77 649.567,4888.76 640.727,4898.23 628.851,4907.41 623.105,4911.04 611.351,4916.52 606.551,4918.4 601.193,4919.9 585.617,4922.77 572.655,4923 567.511,4922.76 561.401,4921.84 548.165,4918.78 542.189,4916.52 530.435,4911.04 517.375,4902.08 513.099,4898.53 510.043,4895.48 499.979,4883.77 497.195,4879.43 490.077,4866.21 485.855,4853.96 484.491,4848.98 482.457,4832.44 313.057,4828.74 318.819,4773.91 335.855,4721.48 363.419,4673.73 400.311,4632.76 444.913,4600.36 495.279,4577.93 549.203,4566.47 604.337,4566.47 658.261,4577.93 708.627,4600.36 753.229,4632.76 790.121,4673.73 817.685,4721.48 834.721,4773.91 840.483,4828.74 834.721,4883.57 817.685,4936 790.119,4983.75 753.229,5024.72 708.627,5057.12 658.263,5079.55 604.337,5091.01 549.203,5091.01 495.277,5079.55 444.913,5057.12 400.311,5024.72 363.421,4983.75 335.855,4936 318.819,4883.57 313.057,4828.74 317.013,4828.74 322.669,4774.73 339.451,4723.08 366.603,4676.04 402.943,4635.69 446.879,4603.76 496.495,4581.67 549.615,4570.38 603.925,4570.38 657.045,4581.67 706.661,4603.76 750.597,4635.69 786.937,4676.04 814.089,4723.08 830.871,4774.73 836.549,4828.74 830.871,4882.75 814.089,4934.4 786.937,4981.43 750.597,5021.79 706.661,5053.71 657.047,5075.8 603.925,5087.09 549.615,5087.09 496.493,5075.8 446.879,5053.71 402.943,5021.79 366.603,4981.43 339.451,4934.4 322.669,4882.75 317.013,4828.74" style="stroke:rgb(167,241,217);stroke-width:15.748031;fill:none;stroke-opacity:0.5;stroke-linecap:round;stroke-linejoin:round;;fill:none"/>
<polyline points="482.457,4832.44 486.393,4832.53 488.293,4847.97 489.575,4852.68 493.797,4864.93 500.637,4877.52 503.941,4882.5 512.825,4892.69 515.881,4895.75 519.851,4899.02 532.099,4907.47 544.359,4913.17 548.399,4914.72 553.365,4916.1 566.897,4918.74 572.585,4919.06 586.913,4918.69 600.175,4916.1 605.141,4914.72 609.689,4912.95 622.401,4906.94 626.483,4904.27 637.849,4895.55 647.049,4885.66 650.261,4881.62 652.619,4877.99 659.185,4866.18 663.965,4852.68 665.247,4847.97 666.095,4842.88 667.291,4829.42 666.163,4815.14 665.419,4810.32 663.963,4804.8 659.185,4791.29 652.903,4779.96 649.599,4774.98 640.715,4764.79 637.659,4761.73 633.689,4758.46 621.441,4750 609.181,4744.31 605.141,4742.76 600.175,4741.38 586.643,4738.74 580.955,4738.42 567.991,4738.64 553.901,4741.26 548.399,4742.76 543.851,4744.52 532.099,4750 527.507,4752.9 515.691,4761.93 506.491,4771.82 503.279,4775.85 500.637,4779.96 493.797,4792.54 489.415,4805.32 488.083,4810.6 486.451,4824 486.393,4832.53 482.459,4832.53 482.545,4823.52 484.175,4810.12 485.855,4803.51 490.077,4791.26 497.195,4778.05 499.979,4773.71 503.973,4768.72 512.813,4759.24 524.689,4750.07 528.995,4747.24 542.189,4740.96 546.989,4739.08 553.151,4737.39 565.875,4734.92 580.885,4734.48 586.029,4734.72 592.139,4735.64 605.375,4738.7 611.351,4740.96 623.105,4746.44 635.507,4754.91 639.523,4758.12 644.059,4762.61 653.561,4773.71 656.345,4778.05 663.463,4791.26 667.685,4803.51 669.305,4809.7 670.083,4814.8 671.211,4829.77 670.083,4842.68 669.049,4848.98 667.685,4853.96 662.627,4868.09 656.345,4879.43 653.561,4883.77 649.567,4888.76 640.727,4898.23 628.851,4907.41 623.105,4911.04 611.351,4916.52 606.551,4918.4 601.193,4919.9 585.617,4922.77 572.655,4923 567.511,4922.76 561.401,4921.84 548.165,4918.78 542.189,4916.52 530.435,4911.04 517.375,4902.08 513.099,4898.53 510.043,4895.48 499.979,4883.77 497.195,4879.43 490.077,4866.21 485.855,4853.96 484.491,4848.98 482.457,4832.44 313.057,4828.74 318.819,4773.91 335.855,4721.48 363.419,4673.73 400.311,4632.76 444.913,4600.36 495.279,4577.93 549.203,4566.47 604.337,4566.47 658.261,4577.93 708.627,4600.36 753.229,4632.76 790.121,4673.73 817.685,4721.48 834.721,4773.91 840.483,4828.74 834.721,4883.57 817.685,4936 790.119,4983.75 753.229,5024.72 708.627,5057.12 658.263,5079.55 604.337,5091.01 549.203,5091.01 495.277,5079.55 444.913,5057.12 400.311,5024.72 363.421,4983.75 335.855,4936 318.819,4883.57 313.057,4828.74 317.013,4828.74 322.669,4774.73 339.451,4723.08 366.603,4676.04 402.943,4635.69 446.879,4603.76 496.495,4581.67 549.615,4570.38 603.925,4570.38 657.045,4581.67 706.661,4603.76 750.597,4635.69 786.937,4676.04 814.089,4723.08 830.871,4774.73 836.549,4828.74 830.871,4882.75 814.089,4934.4 786.937,4981.43 750.597,5021.79 706.661,5053.71 657.047,5075.8 603.925,5087.09 549.615,5087.09 496.493,5075.8 446.879,5053.71 402.943,5021.79 366.603,4981.43 339.451,4934.4 322.669,4882.75 317.013,4828.74" style="stroke:rgb(0,0,0);stroke-width:1px;fill:none;stroke-opacity:1;stroke-linecap:round;stroke-linejoin:round;;fill:none"/>
<polyline points="289.385,4829.1 295.649,4888.49 313.921,4944.87 344.257,4997.67 384.461,5042.32 432.377,5077.19 487.959,5102.07 546.725,5114.57 605.575,5114.63 665.967,5101.93 721.169,5077.18 769.375,5042.03 808.767,4998.31 839.323,4945.63 857.891,4888.49 864.171,4828.74 857.677,4768.19 839.323,4711.84 809.733,4660.5 769.661,4615.74 720.471,4579.84 665.581,4555.4 606.815,4542.91 547.145,4542.89 487.963,4555.4 432.745,4580.1 384.169,4615.45 343.807,4660.5 313.921,4712.61 295.649,4768.99 289.385,4829.1 285.451,4829.11 291.799,4768.17 310.621,4710.24 341.071,4657.5 380.659,4613.4 382.497,4611.75 430.431,4576.92 432.573,4575.68 486.751,4551.66 545.519,4539.17 547.967,4538.91 607.227,4539 666.799,4551.66 722.439,4576.43 771.713,4612.23 812.467,4657.5 842.919,4710.24 861.741,4768.17 868.107,4828.74 861.741,4889.31 842.919,4947.24 812.469,4999.98 772.881,5044.08 771.053,5045.72 722.447,5081.04 668.341,5105.22 665.989,5105.99 608.033,5118.31 605.573,5118.57 546.313,5118.48 486.743,5105.82 431.101,5081.04 381.827,5045.24 341.073,4999.98 310.621,4947.24 291.801,4889.31 285.451,4829.11" style="stroke:rgb(167,241,217);stroke-width:15.748031;fill:none;stroke-opacity:0.5;stroke-linecap:round;stroke-linejoin:round;;fill:none"/>
<polyline points="289.385,4829.1 295.649,4888.49 313.921,4944.87 344.257,4997.67 384.461,5042.32 432.377,5077.19 487.959,5102.07 546.725,5114.57 605.575,5114.63 665.967,5101.93 721.169,5077.18 769.375,5042.03 808.767,4998.31 839.323,4945.63 857.891,4888.49 864.171,4828.74 857.677,4768.19 839.323,4711.84 809.733,4660.5 769.661,4615.74 720.471,4579.84 665.581,4555.4 606.815,4542.91 547.145,4542.89 487.963,4555.4 432.745,4580.1 384.169,4615.45 343.807,4660.5 313.921,4712.61 295.649,4768.99 289.385,4829.1 285.451,4829.11 291.799,4768.17 310.621,4710.24 341.071,4657.5 380.659,4613.4 382.497,4611.75 430.431,4576.92 432.573,4575.68 486.751,4551.66 545.519,4539.17 547.967,4538.91 607.227,4539 666.799,4551.66 722.439,4576.43 771.713,4612.23 812.467,4657.5 842.919,4710.24 861.741,4768.17 868.107,4828.74 861.741,4889.31 842.919,4947.24 812.469,4999.98 772.881,5044.08 771.053,5045.72 722.447,5081.04 668.341,5105.22 665.989,5105.99 608.033,5118.31 605.573,5118.57 546.313,5118.48 486.743,5105.82 431.101,5081.04 381.827,5045.24 341.073,4999.98 310.621,4947.24 291.801,4889.31 285.451,4829.11" style="stroke:rgb(0,0,0);stroke-width:1px;fill:none;stroke-opacity:1;stroke-linecap:round;stroke-linejoin:round;;fill:none"/>
<polyline points="39.3647,5602.36 5838.58,5602.36 5839.73,5603.52 5838.58,5602.36 5838.58,39.3654 5839.73,38.2134 5838.58,39.3654 39.3647,39.3654 38.2127,38.2134 39.3647,39.3654 39.3647,5602.36 35.4307,5606.3 35.4307,35.4314 5842.52,35.4314 5842.52,5606.3 35.4307,5606.3" style="stroke:rgb(167,241,217);stroke-width:15.748031;fill:none;stroke-opacity:0.5;stroke-linecap:round;stroke-linejoin:round;;fill:none"/>
<polyline points="39.3647,5602.36 5838.58,5602.36 5839.73,5603.52 5838.58,5602.36 5838.58,39.3654 5839.73,38.2134 5838.58,39.3654 39.3647,39.3654 38.2127,38.2134 39.3647,39.3654 39.3647,5602.36 35.4307,5606.3 35.4307,35.4314 5842.52,35.4314 5842.52,5606.3 35.4307,5606.3" style="stroke:rgb(0,0,0);stroke-width:1px;fill:none;stroke-opacity:1;stroke-linecap:round;stroke-linejoin:round;;fill:none"/>
<polyline points="15.7447,5616.14 15.8967,5617.68 16.9207,5620.55 18.6287,5623.1 21.1827,5624.81 23.5507,5625.72 25.5887,5625.98 5852.36,5625.98 5854.4,5625.72 5856.76,5624.81 5859.32,5623.1 5861.03,5620.55 5861.93,5618.18 5862.2,5616.14 5862.2,25.5894 5861.93,23.5514 5861.03,21.1834 5859.32,18.6294 5856.76,16.9214 5853.9,15.8974 5852.36,15.7454 25.5887,15.7454 22.5747,16.3454 19.0827,18.2094 16.9207,21.1834 15.8967,24.0514 15.7447,25.5894 15.7447,5616.14 11.8107,5616.14 11.8107,25.5894 12.0367,23.2854 12.7087,21.0694 14.1267,18.0254 15.2167,16.5274 18.0247,14.1274 19.6767,13.2854 23.2847,12.0374 25.5887,11.8114 5852.36,11.8114 5854.66,12.0374 5858.27,13.2854 5859.92,14.1274 5862.73,16.5274 5863.82,18.0254 5865.24,21.0694 5866.04,24.0474 5866.14,25.5894 5866.14,5616.14 5865.73,5619.2 5864.66,5622.05 5863.57,5624.09 5862.1,5625.88 5860.31,5627.35 5858.27,5628.44 5855.42,5629.52 5852.36,5629.92 25.5887,5629.92 24.0467,5629.82 21.0687,5629.02 18.0247,5627.6 16.5267,5626.51 14.1267,5623.7 13.2847,5622.05 12.0367,5618.44 11.8107,5616.14" style="stroke:rgb(167,241,217);stroke-width:15.748031;fill:none;stroke-opacity:0.5;stroke-linecap:round;stroke-linejoin:round;;fill:none"/>
<polyline points="15.7447,5616.14 15.8967,5617.68 16.9207,5620.55 18.6287,5623.1 21.1827,5624.81 23.5507,5625.72 25.5887,5625.98 5852.36,5625.98 5854.4,5625.72 5856.76,5624.81 5859.32,5623.1 5861.03,5620.55 5861.93,5618.18 5862.2,5616.14 5862.2,25.5894 5861.93,23.5514 5861.03,21.1834 5859.32,18.6294 5856.76,16.9214 5853.9,15.8974 5852.36,15.7454 25.5887,15.7454 22.5747,16.3454 19.0827,18.2094 16.9207,21.1834 15.8967,24.0514 15.7447,25.5894 15.7447,5616.14 11.8107,5616.14 11.8107,25.5894 12.0367,23.2854 12.7087,21.0694 14.1267,18.0254 15.2167,16.5274 18.0247,14.1274 19.6767,13.2854 23.2847,12.0374 25.5887,11.8114 5852.36,11.8114 5854.66,12.0374 5858.27,13.2854 5859.92,14.1274 5862.73,16.5274 5863.82,18.0254 5865.24,21.0694 5866.04,24.0474 5866.14,25.5894 5866.14,5616.14 5865.73,5619.2 5864.66,5622.05 5863.57,5624.09 5862.1,5625.88 5860.31,5627.35 5858.27,5628.44 5855.42,5629.52 5852.36,5629.92 25.5887,5629.92 24.0467,5629.82 21.0687,5629.02 18.0247,5627.6 16.5267,5626.51 14.1267,5623.7 13.2847,5622.05 12.0367,5618.44 11.8107,5616.14" style="stroke:rgb(0,0,0);stroke-width:1px;fill:none;stroke-opacity:1;stroke-linecap:round;stroke-linejoin:round;;fill:none"/>
</svg>
