<?xml version="1.0" standalone="no"?>
<!DOCTYPE svg PUBLIC "-//W3C//DTD SVG 1.1//EN"
"http://www.w3.org/Graphics/SVG/1.1/DTD/svg11.dtd">
<svg width="266.457" height="248.523" viewBox="0 0 5551.18 5177.56" version="1.1"
xmlns="http://www.w3.org/2000/svg"
xmlns:xlink="http://www.w3.org/1999/xlink">
<circle cx="996.063" cy="4510.63" r="27.5591" style=""/>
<circle cx="996.063" cy="5110.63" r="27.5591" style=""/>
<circle cx="2137.8" cy="4465.75" r="27.5591" style=""/>
<circle cx="2137.8" cy="3865.75" r="27.5591" style=""/>
<circle cx="2019.69" cy="3560.24" r="27.5591" style=""/>
<circle cx="1050.39" cy="2330.31" r="27.5591" style=""/>
<circle cx="1650.39" cy="2330.31" r="27.5591" style=""/>
<circle cx="2019.69" cy="2148.43" r="27.5591" style=""/>
<circle cx="2019.69" cy="2748.43" r="27.5591" style=""/>
<circle cx="2019.69" cy="2960.24" r="27.5591" style=""/>
<circle cx="2295.28" cy="2960.24" r="27.5591" style=""/>
<circle cx="2688.98" cy="2960.24" r="27.5591" style=""/>
<circle cx="3043.31" cy="2960.24" r="27.5591" style=""/>
<circle cx="3358.27" cy="2960.24" r="27.5591" style=""/>
<circle cx="3358.27" cy="3560.24" r="27.5591" style=""/>
<circle cx="3240.16" cy="3865.75" r="27.5591" style=""/>
<circle cx="3043.31" cy="3560.24" r="27.5591" style=""/>
<circle cx="2688.98" cy="3560.24" r="27.5591" style=""/>
<circle cx="2295.28" cy="3560.24" r="27.5591" style=""/>
<circle cx="3240.16" cy="4465.75" r="27.5591" style=""/>
<circle cx="4460.63" cy="5150" r="27.5591" style=""/>
<circle cx="4460.63" cy="4550" r="27.5591" style=""/>
<circle cx="4923.62" cy="2724.02" r="27.5591" style=""/>
<circle cx="5523.62" cy="2724.02" r="27.5591" style=""/>
<circle cx="1035.43" cy="243.701" r="31.4961" style=""/>
<circle cx="1035.43" cy="46.8504" r="31.4961" style=""/>
<circle cx="3318.9" cy="46.8504" r="31.4961" style=""/>
<circle cx="3318.9" cy="243.701" r="31.4961" style=""/>
<circle cx="1385.04" cy="1857.87" r="39.3701" style=""/>
<circle cx="1585.04" cy="1857.87" r="39.3701" style=""/>
<circle cx="1785.04" cy="1857.87" r="39.3701" style=""/>
<circle cx="1985.04" cy="1857.87" r="39.3701" style=""/>
<circle cx="2185.04" cy="1857.87" r="39.3701" style=""/>
<circle cx="2385.04" cy="1857.87" r="39.3701" style=""/>
<circle cx="2585.04" cy="1857.87" r="39.3701" style=""/>
<circle cx="2785.04" cy="1857.87" r="39.3701" style=""/>
<circle cx="2985.04" cy="1857.87" r="39.3701" style=""/>
<circle cx="3185.04" cy="1857.87" r="39.3701" style=""/>
<circle cx="3385.04" cy="1857.87" r="39.3701" style=""/>
<circle cx="3585.04" cy="1857.87" r="39.3701" style=""/>
<circle cx="3785.04" cy="1857.87" r="39.3701" style=""/>
<circle cx="3985.04" cy="1857.87" r="39.3701" style=""/>
<circle cx="4185.04" cy="1857.87" r="39.3701" style=""/>
<circle cx="5169.29" cy="2298.82" r="39.3701" style=""/>
<circle cx="5169.29" cy="1700.39" r="39.3701" style=""/>
<circle cx="4185.04" cy="657.874" r="39.3701" style=""/>
<circle cx="3985.04" cy="657.874" r="39.3701" style=""/>
<circle cx="3785.04" cy="657.874" r="39.3701" style=""/>
<circle cx="3585.04" cy="657.874" r="39.3701" style=""/>
<circle cx="3385.04" cy="657.874" r="39.3701" style=""/>
<circle cx="3185.04" cy="657.874" r="39.3701" style=""/>
<circle cx="2985.04" cy="657.874" r="39.3701" style=""/>
<circle cx="2785.04" cy="657.874" r="39.3701" style=""/>
<circle cx="2585.04" cy="657.874" r="39.3701" style=""/>
<circle cx="2385.04" cy="657.874" r="39.3701" style=""/>
<circle cx="2185.04" cy="657.874" r="39.3701" style=""/>
<circle cx="1985.04" cy="657.874" r="39.3701" style=""/>
<circle cx="1785.04" cy="657.874" r="39.3701" style=""/>
<circle cx="1585.04" cy="657.874" r="39.3701" style=""/>
<circle cx="1385.04" cy="657.874" r="39.3701" style=""/>
<circle cx="1586.61" cy="4383.86" r="43.3071" style=""/>
<circle cx="1586.61" cy="4183.86" r="43.3071" style=""/>
<circle cx="1586.61" cy="3983.86" r="43.3071" style=""/>
<circle cx="1586.61" cy="3478.35" r="43.3071" style=""/>
<circle cx="1586.61" cy="3278.35" r="43.3071" style=""/>
<circle cx="1586.61" cy="3078.35" r="43.3071" style=""/>
<circle cx="3673.23" cy="4383.86" r="43.3071" style=""/>
<circle cx="3673.23" cy="4183.86" r="43.3071" style=""/>
<circle cx="3673.23" cy="3983.86" r="43.3071" style=""/>
<circle cx="3751.97" cy="3432.68" r="43.3071" style=""/>
<circle cx="3751.97" cy="3232.68" r="43.3071" style=""/>
<circle cx="3751.97" cy="3032.68" r="43.3071" style=""/>
<circle cx="2088.98" cy="46.8504" r="46.8504" style=""/>
<circle cx="2288.98" cy="46.8504" r="46.8504" style=""/>
<circle cx="2488.98" cy="46.8504" r="46.8504" style=""/>
<circle cx="2688.98" cy="46.8504" r="46.8504" style=""/>
<circle cx="877.953" cy="3983.86" r="51.1811" style=""/>
<circle cx="877.953" cy="3590.16" r="51.1811" style=""/>
<circle cx="877.953" cy="3196.46" r="51.1811" style=""/>
<circle cx="877.953" cy="2802.76" r="51.1811" style=""/>
<circle cx="444.882" cy="2251.57" r="51.1811" style=""/>
<circle cx="444.882" cy="1267.32" r="51.1811" style=""/>
<circle cx="51.1811" cy="1267.32" r="51.1811" style=""/>
<circle cx="51.1811" cy="2251.57" r="51.1811" style=""/>
<circle cx="2472.44" cy="4730.31" r="51.1811" style=""/>
<circle cx="2866.14" cy="4730.31" r="51.1811" style=""/>
<circle cx="4381.89" cy="4180.71" r="51.1811" style=""/>
<circle cx="4381.89" cy="3787.01" r="51.1811" style=""/>
<circle cx="4381.89" cy="3393.31" r="51.1811" style=""/>
<circle cx="4381.89" cy="2999.61" r="51.1811" style=""/>
</svg>
