<?xml version="1.0" encoding="utf-8"?>
<!-- Generator: Adobe Illustrator 25.0.1, SVG Export Plug-In . SVG Version: 6.00 Build 0)  -->
<svg version="1.1" id="Layer_1" xmlns="http://www.w3.org/2000/svg" xmlns:xlink="http://www.w3.org/1999/xlink" x="0px" y="0px"
	 viewBox="0 0 2000 2000" style="enable-background:new 0 0 2000 2000;" xml:space="preserve">
<path d="M1746.2,439.4c-56.2-45.1-138.9-33.7-185.2,25.3c-31.2,39.7-32,86.4-17.8,129.5c25.7,77.9-70.6,229.3-149.4,280.6
	c-3.6-61.2-9.9-121.3-10-181.5c-0.1-78.1,13.8-152.6,69.8-214c47.4-51.9,48.6-112.2,8-169.1c-31.8-44.5-92.7-62.7-145.3-43.4
	c-65,23.9-97.3,74.4-84.3,146.4c31.2,172.5-48.7,316.1-114.8,477.7c-42.4-185.7-82.1-357.1-12.4-531.9
	c19.4-48.6-1.5-106.2-42.1-136.8c-43.6-32.9-106.6-30.8-156.3,5.1c-43.1,31.1-61.6,78.9-40.5,131.6c70,174.9,27.2,346.2-9,521.3
	C774,762.6,722.4,555,739.7,413.9c8.1-66.4-24.2-124.9-80.7-146.2c-56.8-21.4-127.1,1.1-160.3,51c-30,45.1-27.2,127.5,22.8,169.2
	c24.7,20.5,49.7,55.8,51.6,85.9c6.4,99.7,2.4,200,2.4,300.1c-94.7-88.3-173.9-178-142.8-319.5c14.7-67.3-39.8-131.2-104.6-140.8
	c-59.7-8.8-118.8,21.8-142.2,73.7C160.8,543,172.2,613,227.3,648.9c47,30.7,60.8,68.7,63.9,118.2c0.9,15,4.7,29.8,8,44.5
	c38.3,171.7,48.6,355.2,201.2,479c1.1,0.9,1.8,2.4,2.7,3.6c36.8,45.5,41.6,91.2,15.7,146.4c-21.3,45.4-30.6,96.8-41.7,146.3
	c-8.6,38.8,12.1,64.1,48.8,74.5c33.3,9.5,67,18.7,101.2,23.3c205.6,27.9,412.1,31.1,618.6,13.8c62.8-5.3,125.1-18.6,187-31.6
	c43.4-9.2,70.6-36.6,61.1-84.5c-7.7-39.2-15.8-79.6-31.7-115.9c-43.8-99.8-41.7-124.5,31.4-206.5c20.1-22.5,43.6-42.9,59.2-68.2
	c23.3-37.7,48.2-76.8,59.5-118.8c25.9-95.9,46.8-193.4,63.9-291.2c9.7-55.7,13.3-110.3,74.2-136.6c6.4-2.7,11.2-10.1,15.9-15.9
	C1813,571.6,1803.9,485.7,1746.2,439.4z"/>
</svg>
