<?xml version="1.0" encoding="utf-8"?>
<!-- Generator: Adobe Illustrator 25.2.1, SVG Export Plug-In . SVG Version: 6.00 Build 0)  -->
<svg version="1.1" id="Laag_1" xmlns="http://www.w3.org/2000/svg" xmlns:xlink="http://www.w3.org/1999/xlink" x="0px" y="0px"
	 viewBox="0 0 155.91 144.57" style="enable-background:new 0 0 155.91 144.57;" xml:space="preserve">
<path d="M112.28,109.78c1.01,5.91,13.24,8.07,13.76,17.87c0.52,9.79,1.32,10.34-6.05,13.29c-7.26,2.9-79.29,2.9-86.54,0
	c-7.37-2.95-6.58-3.5-6.05-13.29c0.52-9.79,9.59-11.57,13.76-17.87c1.77-2.67,2.26-5.73,1.21-8.85C41.31,97.82,23.85,46.81,65.94,25
	c0,0-4.07-4.29-3-12.92c0.71-5.69,7.23-11.5,14.33-10.61c8.93,1.12,11.66,12.97,11.66,12.97s-7.15,6.21-10.87,17.09
	s-8.7,31.38-7.46,45.36c0,0-0.03,4.41,5.51,4.28c5.54-0.13,5.67-4.28,5.67-4.28s-1.24-36.04,12.43-46.29c0,0,23.75,13,24.23,48.46
	c0.12,8.5-4.45,19.85-5.54,22.11C111.82,103.43,111.74,106.63,112.28,109.78z"/>
</svg>
