<?xml version="1.0" encoding="utf-8"?>
<!-- Generator: Adobe Illustrator 25.2.1, SVG Export Plug-In . SVG Version: 6.00 Build 0)  -->
<svg version="1.1" id="Laag_1" xmlns="http://www.w3.org/2000/svg" xmlns:xlink="http://www.w3.org/1999/xlink" x="0px" y="0px"
	 viewBox="0 0 155.91 144.57" style="enable-background:new 0 0 155.91 144.57;" xml:space="preserve">
<path d="M136.67,126.39c-0.56-10.49-13.7-10.35-12.76-18.79c0.49-4.43-1.96-35.32-3.19-42.18c-3.19-17.81-10.06-29.93-22.66-41.74
	c-6.24-5.85-13.49-9.4-22.54-8.49c-0.65-1.74-0.97-3.62-1.96-5.05c-1.95-2.81-4.17-5.42-6.44-7.98c-1.32-1.49-2.9-1.07-4.1,0.3
	c-1.78,2.03-3.45,4.16-5.42,6.56c-5.86-3.07-11.98-6.18-19.17-5.41c-0.12,0.53-0.31,0.87-0.25,1.15c1.95,8.97-0.44,17.13-4.21,25.2
	C28.76,41.11,23.7,52.33,18.96,63.68c-3.31,7.94-0.44,13.87,7.8,16.8c3.24,1.15,6.66,3.4,10.28,0.1c0.31,0.89,0.51,1.63,0.82,2.32
	c1.47,3.21,4.87,3.56,6.92,0.63c2.65-3.79,5.33-7.59,7.82-11.47c4.38-6.83,11.72-12.76,14.69-11.14c1.53,3.26-5.03,8.59-7.5,11.62
	c-16.12,19.87-12.94,30-14.09,34.7c-1.92,7.85-14.18,8.65-14.74,19.14c-0.56,10.49-1.41,11.08,6.49,14.24
	c7.77,3.11,84.96,3.11,92.73,0C138.08,137.47,137.23,136.89,136.67,126.39z M24.45,71.78c-0.67,0.24-1.89,0.39-2.14,0.06
	c-0.45-0.62-0.64-1.69-0.45-2.46c0.65-2.73,2.48-4.11,5.6-4.13C28.12,68.49,27.39,70.71,24.45,71.78z M52.48,33.56
	c-0.73,3.36-7.47,8.24-10.38,8.26c-2.79,0.09-3.4-1.35-3.29-3.28c0.3-5.04,7.16-9.83,11.97-8.16
	C51.66,30.69,52.68,32.62,52.48,33.56z M108.9,78.2c-0.08,0.01-0.17,0.01-0.25,0.01c-1.96,0-3.61-1.52-3.74-3.51
	c-0.01-0.14-0.98-14.2-5.96-23.16c-9.19-16.54-19.4-18.61-19.5-18.63c-2.02-0.37-3.38-2.3-3.04-4.33c0.35-2.02,2.22-3.39,4.25-3.08
	c0.55,0.09,13.72,2.36,24.84,22.39c5.81,10.46,6.85,25.68,6.89,26.32C112.53,76.28,110.97,78.07,108.9,78.2z"/>
</svg>
