<?xml version="1.0" encoding="utf-8"?>
<!-- Generator: Adobe Illustrator 22.1.0, SVG Export Plug-In . SVG Version: 6.00 Build 0)  -->
<svg version="1.1" id="Layer_1" xmlns="http://www.w3.org/2000/svg" xmlns:xlink="http://www.w3.org/1999/xlink" x="0px" y="0px"
	 viewBox="0 0 2000 2000" style="enable-background:new 0 0 2000 2000;" xml:space="preserve">
<path d="M760.9,563.8c1-20.6,1.8-40.7,2.9-60.7c6.2-111.6,94.7-231.5,200.6-264.7c19.5-6.1,48.5-0.4,66.7,10.5
	c107.8,65,193.4,146.3,188.1,286.5c-0.4,10.3,3.4,20.7,5.2,31c51.3-26.3,97.6-57.1,148.5-74.9c156-54.6,310.3-10.7,411.2,111.4
	c88.5,107.1,90.9,254.1,5.2,400.9c-19.3,33.1-40.4,65.7-64.1,95.8c-97.6,124-143,265.7-151.2,421.9c-7.7,146.8-41.4,192.7-184,224.5
	c-266.4,59.4-534.7,59.5-801.1,0.1c-139.8-31.2-172.2-77-181.7-219.7c-9.8-147.1-47.2-284.4-137.5-404.7
	c-35.1-46.7-65.7-97-95-147.7c-74.1-128.4-74.5-257.5,22.2-372.2C295.8,484.1,427,440.5,577.5,484
	C639.4,502,696.8,535.4,760.9,563.8z M1372.7,1241.7c32.5-12.7,92.7-22,133.5-55.2c99.2-80.7,169.7-186.6,217.3-305.9
	c57.9-145.2-21-282.6-174.9-307.1c-77.1-12.3-149.5,0.9-216.7,40.8c-168.2,99.7-265.8,243.1-269.4,442.5
	c-0.9,48.8-22.5,69.9-70.2,70.1c-64.9,0.3-81.1-17.4-85.8-97.5c-12.2-209.8-142.8-386.9-335.1-445c-103.2-31.2-207.5-28.6-284.5,59
	c-77,87.7-72.7,191.1-16.6,286.6c46,78.3,106,148.4,159.9,222.1c52.4,71.5,127.5,88.8,209.7,82.7c78.4-5.9,156.3-19.8,234.7-24.2
	c74.1-4.2,148.8-4.6,222.8,0.2C1181.3,1216.1,1264.7,1229.1,1372.7,1241.7z M991.2,1445.8c-118.9,11.8-235.6,20.9-351.4,36.7
	c-25.3,3.5-47.3,30.9-70.8,47.4c28.1,11.6,57.6,35.6,84.1,32.7c223.1-24.5,445.5-24.6,668.6,0.1c26.8,3,56.6-20.5,85-31.7
	c-24.3-17.9-47-47.9-73.3-51.4C1219.6,1464,1104.6,1456.3,991.2,1445.8z"/>
<path d="M658.4,1163.3c-158.2-12.4-338.6-178.7-359.3-335.9c-13.4-101.4,51-178,161.3-185.4c147.8-9.8,249.5,69.7,312.9,190.9
	c36.9,70.6,47.5,155.4,66.4,234.7c9.7,40.5-12.7,68.6-51.9,77.1C745.4,1153.8,701.6,1157.3,658.4,1163.3z"/>
<path d="M1310.6,1163.1c-174-2.1-205.6-43.4-162-210.4c31.6-121.2,99.6-214,207.2-278c59.8-35.6,124.9-42.3,190.9-29.1
	c106,21.3,159,125.4,116.8,229.6c-45.5,112.3-127.5,196.8-226.3,261.8C1403.8,1159.2,1353.3,1155.2,1310.6,1163.1z"/>
</svg>
