<?xml version="1.0" encoding="utf-8"?>
<!-- Generator: Adobe Illustrator 25.0.1, SVG Export Plug-In . SVG Version: 6.00 Build 0)  -->
<svg version="1.1" id="Layer_1" xmlns="http://www.w3.org/2000/svg" xmlns:xlink="http://www.w3.org/1999/xlink" x="0px" y="0px"
	 viewBox="0 0 2000 2000" style="enable-background:new 0 0 2000 2000;" xml:space="preserve">
<path d="M575.5,873.9c0-100.1,4-200.4-2.4-300.1c-1.9-30.1-26.9-65.4-51.6-85.9c-50-41.7-52.8-124.1-22.8-169.2
	c33.2-49.9,103.5-72.4,160.3-51c56.5,21.3,88.8,79.8,80.7,146.2C722.4,555,774,762.6,856.9,880.2c36.2-175.1,79-346.4,9-521.3
	c-21.1-52.7-2.6-100.5,40.5-131.6c49.7-35.9,112.7-38,156.3-5.1c40.6,30.6,61.5,88.2,42.1,136.8c-69.7,174.8-30,346.2,12.4,531.9
	c66.1-161.6,146-305.2,114.8-477.7c-13-72,19.3-122.5,84.3-146.4c52.6-19.3,113.5-1.1,145.3,43.4c40.6,56.9,39.4,117.2-8,169.1
	c-56,61.4-69.9,135.9-69.8,214c0.1,60.2,6.4,120.3,10,181.5c78.8-51.3,175.1-202.7,149.4-280.6c-14.2-43.1-13.4-89.8,17.8-129.5
	c46.3-59,129-70.4,185.2-25.3c57.7,46.3,66.8,132.2,20,189.9c-4.7,5.8-9.5,13.2-15.9,15.9c-60.9,26.3-64.5,80.9-74.2,136.6
	c-17.1,97.8-38,195.3-63.9,291.2c-11.3,42-36.2,81.1-59.5,118.8c-15.6,25.3-39.1,45.7-59.2,68.2c-73.1,82-75.2,106.7-31.4,206.5
	c15.9,36.3,24,76.7,31.7,115.9c9.5,47.9-17.7,75.3-61.1,84.5c-61.9,13-124.2,26.3-187,31.6c-206.5,17.3-413,14.1-618.6-13.8
	c-34.2-4.6-67.9-13.8-101.2-23.3c-36.7-10.4-57.4-35.7-48.8-74.5c11.1-49.5,20.4-100.9,41.7-146.3c25.9-55.2,21.1-100.9-15.7-146.4
	c-0.9-1.2-1.6-2.7-2.7-3.6c-152.6-123.8-162.9-307.3-201.2-479c-3.3-14.7-7.1-29.5-8-44.5c-3.1-49.5-16.9-87.5-63.9-118.2
	C172.2,613,160.8,543,185.9,487.3c23.4-51.9,82.5-82.5,142.2-73.7c64.8,9.6,119.3,73.5,104.6,140.8
	C401.6,695.9,480.8,785.6,575.5,873.9z M986.1,267c-36.3,0.7-56.4,18.3-56.9,55.4c-0.5,37.5,22,60.5,58.5,59.3
	c37.4-1.3,53.6-22.9,53.9-58.6C1041.9,285.8,1022.8,267.6,986.1,267z M602.3,337.2c-29.4,0.8-50.8,24.1-48.1,61.3
	c2.5,35.8,21.8,54,58.4,53.1c37.2-0.9,57.4-22.7,55.1-60.8C665.4,354.5,645.2,337.1,602.3,337.2z M1350.7,451.5
	c46.4-0.1,67-21.5,65.9-59.2c-1-37.1-22.1-53.8-57.1-55.1c-35-1.3-59,23.8-57.5,59.5C1303.6,433.2,1324.5,450,1350.7,451.5z
	 M303.4,602.4c35.6-2.1,56.3-19.8,56.9-56.5c0.6-36.5-19.3-56.8-54.6-58.7c-35.6-1.9-57.3,15.7-58.7,53.2
	C245.5,577.8,267.6,601.9,303.4,602.4z M1721.4,544.1c0.5-36.5-18-56.6-54.2-57.1c-35.4-0.5-56.4,18-58.2,54.3
	c-1.8,35,23.4,62,57.4,60.5C1702,600.2,1721.2,580.7,1721.4,544.1z"/>
</svg>
