<?xml version="1.0" encoding="utf-8"?>
<!-- Generator: Adobe Illustrator 25.0.1, SVG Export Plug-In . SVG Version: 6.00 Build 0)  -->
<svg version="1.1" id="Layer_1" xmlns="http://www.w3.org/2000/svg" xmlns:xlink="http://www.w3.org/1999/xlink" x="0px" y="0px"
	 viewBox="0 0 2000 2000" style="enable-background:new 0 0 2000 2000;" xml:space="preserve">
<style type="text/css">
	.st0{fill:#231F20;}
</style>
<path class="st0" d="M1784.1,602.9c-100.9-122.1-255.2-166-411.2-111.4c-50.9,17.8-97.2,48.6-148.5,74.9c-1.8-10.3-5.6-20.7-5.2-31
	c5.3-140.2-80.3-221.5-188.1-286.5c-18.2-10.9-47.2-16.6-66.7-10.5C858.5,271.6,770,391.5,763.8,503.1c-1.1,20-1.9,40.1-2.9,60.7
	C696.8,535.4,639.4,502,577.5,484c-150.5-43.5-281.7,0.1-380.6,117.8c-96.7,114.7-96.3,243.8-22.2,372.2
	c29.3,50.7,59.9,101,95,147.7c90.3,120.3,127.7,257.6,137.5,404.7c9.5,142.7,41.9,188.5,181.7,219.7
	c266.4,59.4,534.7,59.3,801.1-0.1c142.6-31.8,176.3-77.7,184-224.5c8.2-156.2,53.6-297.9,151.2-421.9c23.7-30.1,44.8-62.7,64.1-95.8
	C1875,857,1872.6,710,1784.1,602.9z"/>
</svg>
