<?xml version="1.0" encoding="utf-8"?>
<!-- Generator: Adobe Illustrator 22.1.0, SVG Export Plug-In . SVG Version: 6.00 Build 0)  -->
<svg version="1.1" id="Layer_1" xmlns="http://www.w3.org/2000/svg" xmlns:xlink="http://www.w3.org/1999/xlink" x="0px" y="0px"
	 viewBox="0 0 2000 2000" style="enable-background:new 0 0 2000 2000;" xml:space="preserve">
<path d="M1674.2,1898.8c-3.3,0-6.6,0-9.8,0c-26.6-17.3-51.2-40.3-80.3-50.5c-33.3-11.6-70.5-12.5-106.1-16.8
	c-162-19.5-327.6-26.2-465.5-137C924,1781,812.2,1801.3,697,1814.6c-86,9.9-172.1,21.2-257,37.9c-23.9,4.7-43.6,30.4-65.3,46.4
	c-6.6,0-13.1,0-19.7,0c-48.7-58.6-97-117.6-146.4-175.6c-19.4-22.7-16-41.5-1.1-65.7c56.4-91.5,130.5-144.3,244.2-127.8
	c43.5,6.3,89,7.6,132.5,2.6c62.2-7.1,123.4-22.2,185-33.8c-34-21.2-67.3-28.9-98.4-41.9c-50.7-21.1-64.3-53.9-48.4-106.4
	c10.5-34.5,20.2-69.3,32.1-103.3c11.9-33.7,7.5-61-15.6-90.5c-30.1-38.5-56.4-80.7-79.7-123.7c-79.7-147.5-55.3-305.9,63.2-423.7
	c77-76.5,159.7-145.2,260.6-187.1c-13.8-30-29.4-57-38.8-86c-26.7-82.7,5.4-159.8,76.6-190c14.8-6.3,29.6-12.8,44.4-19.2
	c36.1,0,72.2,0,108.3,0c5.2,3.5,10.1,7.8,15.7,10.2c92.2,40.5,127,124.1,89.4,217.6c-9.5,23.6-22.9,45.6-30.1,59.8
	c76.8,54.7,154.6,101.2,221.8,159.8c165,143.7,198.8,314.2,74.3,493c-69.4,99.7-75,183.5-36.9,287.1c18,48.9-0.7,82.2-48.8,102.1
	c-31.2,12.9-64.5,20.6-104.8,33.1c21.1,7.3,35.5,12.5,50.1,17.3c93.7,31.2,190.1,31.8,286.8,22.5c89.9-8.7,159.9,23,210.9,97.3
	c12.9,18.7,26.2,37.1,39.3,55.7c0,6.6,0,13.1,0,19.7c-11,13.5-21.8,27.2-33.1,40.4C1763.8,1794.6,1719,1846.7,1674.2,1898.8z
	 M1267.9,1283.4c0.2-7.8,0.5-15.6,0.7-23.4c-26.7-7.2-53.3-19.5-80.3-20.7c-76.9-3.5-154-3.6-231-3c-50.7,0.4-101.6,2.2-151.9,8
	c-14.5,1.7-27.2,19-40.7,29.2c13.1,10.6,25.3,22.6,39.5,31.3c7.8,4.8,19,5.4,28.7,5.3c122.6-1.2,245.3-1.8,367.9-5.4
	C1223.4,1304.1,1245.6,1290.8,1267.9,1283.4z M1018.9,1157.2c65.3-3.2,134-4.9,202.2-11.2c16-1.5,30.4-18.7,45.6-28.7
	c-15-10.8-29.6-22.2-45.2-32.2c-5.1-3.2-12.7-3.6-19.1-3.6c-129,0.3-258-0.4-387,3c-17.5,0.5-34.4,21.8-51.6,33.4
	c17,10.1,33.4,27.3,51.2,29C881.7,1153,948.7,1154.1,1018.9,1157.2z M1075.2,294c0.6-41.2-21.2-60.3-60.8-59.9
	c-39.5,0.4-62.3,21.3-61.8,60.8c0.5,40.9,28.1,57.2,65.4,57.7C1056.3,353,1074.5,331.4,1075.2,294z"/>
</svg>
