<?xml version="1.0" encoding="utf-8"?>
<!-- Generator: Adobe Illustrator 22.1.0, SVG Export Plug-In . SVG Version: 6.00 Build 0)  -->
<svg version="1.1" id="Layer_1" xmlns="http://www.w3.org/2000/svg" xmlns:xlink="http://www.w3.org/1999/xlink" x="0px" y="0px"
	 viewBox="0 0 2000 2000" style="enable-background:new 0 0 2000 2000;" xml:space="preserve">
<path d="M1840.3,1560.3c0,24.7,0,49.3,0,74c-5.5,59-11,118-16.5,177.8c-385.5,0-766.6,0-1161.1,0c19.4-69.8,26.1-139.3,57-195.4
	c55.7-101.1,125.9-194.3,190.2-290.7c33.8-50.7,66.3-101.7,64.8-170.9c-91.6,34.7-168.4,83.4-225.5,157.1
	c-44.1,56.8-80.5,119.6-121.8,178.7c-31.9,45.6-84.9,40.2-107.8-9.8c-4.9-10.8-8-22.4-12.8-36.2c-56.3,51.4-109.7,16.3-160.1-1.6
	c-128.3-45.7-173.1-138-121.5-261.7c73.8-176.8,152.6-351.7,233.8-525.3c58.7-125.7,96-252.8,65.6-392.5c-1-4.4,2-9.7,3.9-17.9
	c111.9-11.9,207.3,36.5,298.6,84.3c30.8-37.4,56.8-70.6,84.5-102.2c18.7-21.3,43.2-27.9,63.8-4.7c35.3,39.8,70,80.6,100.3,124.3
	c15.4,22.2,20.4,51.5,30.5,78.6c141.1-14.2,254,41.1,351.2,132.3c196.2,184,306.2,414.2,348.4,677.1
	C1823,1342.8,1829.1,1452,1840.3,1560.3z M1704.4,1521.2c-5.7-223.1-42.3-438.2-163-630.7c-73.4-117-158.9-226.1-281.2-294.6
	c-51.4-28.8-115.3-36.7-174.6-49c-11.9-2.5-28.6,18.3-43,28.3c13,11.3,24.4,25.7,39.4,33.1c23.3,11.6,50.5,15.8,73.5,27.8
	c148.5,77.6,256.5,195.2,330.5,343.9c79,158.8,107.1,329.6,112.8,505.3c1.8,54.4,3.9,109.2,12.8,162.6c2.9,17.2,28.1,30.6,43.1,45.8
	c14.4-15.5,38-29.2,41.4-46.8C1703.9,1606,1702.2,1563.2,1704.4,1521.2z M585.7,841c45.3-0.3,150.4-76.4,161.7-128.7
	c3.1-14.6-12.8-44.7-26.4-49.5c-74.9-26.1-181.8,48.6-186.5,127.1C532.8,819.9,542.2,842.4,585.7,841z M357.6,1206.1
	c-48.5,0.2-77,21.7-87.2,64.3c-2.9,12,0,28.7,7,38.3c3.8,5.2,22.9,2.9,33.3-0.9C356.5,1291.1,367.9,1256.5,357.6,1206.1z"/>
</svg>
