<?xml version="1.0" encoding="utf-8"?>
<!-- Generator: Adobe Illustrator 25.0.1, SVG Export Plug-In . SVG Version: 6.00 Build 0)  -->
<svg version="1.1" id="Layer_1" xmlns="http://www.w3.org/2000/svg" xmlns:xlink="http://www.w3.org/1999/xlink" x="0px" y="0px"
	 viewBox="0 0 2000 2000" style="enable-background:new 0 0 2000 2000;" xml:space="preserve">
<path d="M1646.6,1889c-417.3,0-834.5,0-1255.3,0c-24.9-338.9,40.2-628,382.9-784.2c-231.8-145.8-215-395.4,34.4-549.1
	c-60.6-137.7-77.1-270.3,81.6-359c93.1-52,228.8-36.9,303.6,30.1c86.4,77.3,94.7,168.3,28.2,331.4c111.3,50.2,190.1,128.6,197,258.5
	c6.6,125.9-40.8,224.1-161.5,283.9c49,31.4,94.7,57.9,137.3,88.6c141.2,101.9,218.9,241.6,241.3,413.3c1.6,12.5,6.9,24.6,10.6,36.9
	C1646.6,1722.5,1646.6,1805.8,1646.6,1889z"/>
</svg>
