<?xml version="1.0" encoding="utf-8"?>
<!-- Generator: Adobe Illustrator 25.0.1, SVG Export Plug-In . SVG Version: 6.00 Build 0)  -->
<svg version="1.1" id="Layer_1" xmlns="http://www.w3.org/2000/svg" xmlns:xlink="http://www.w3.org/1999/xlink" x="0px" y="0px"
	 viewBox="0 0 2000 2000" style="enable-background:new 0 0 2000 2000;" xml:space="preserve">
<style type="text/css">
	.st0{fill:#231F20;}
</style>
<path class="st0" d="M1636.6,1510.4c-69.8-56.8-152.9-117.1-185.4-194.6c-32.5-77.4-9.9-178.1-10.5-268.6c-0.6-90.6,1.7-181.4-1-272
	c-1.2-38.3,9.6-66.7,39.1-90.2c16.5-13.1,30.5-29.5,45.6-44.4c157-155.4,157-155.4,149.8-379.1c-1.7-53.4-65.3-117-119.3-118.3
	c-36.7-0.9-73.3-0.2-110-0.2c-99.6,0-117.2,16.5-122.9,119.2c-34.9,0-70.2,0-110,0c-0.8-11.4-1.8-22.3-2.4-33.3
	c-3.1-54.7-32.4-84.8-86.3-85.6c-69.5-1-138.9-0.3-208.4-0.3c-120.6,0-124.2,2.9-146.5,121.4c-16.2,0.7-33.1,2.2-50.1,2.2
	s-34.1-1.6-50.4-2.4c-18.2-112.9-28.7-121.8-146.8-121.1c-65.7,0.4-133.5-14.8-183.5,53.1c-37.5,51-41.4,282.1,3.8,327
	c56.1,55.8,114.7,109.2,168,167.5c18.6,20.3,33.9,52.2,34.4,79.1c3.1,167.8,2.4,335.7,0.5,503.6c-0.2,22.5-8.5,50.9-23.6,66.3
	c-93.1,94.9-189.1,186.9-284.1,279.9c0,69.5,0,139,0,208.5c39.6,53.1,93.4,61.1,156.7,60.7c411-2.5,822-1.3,1233-1.3
	c85.7,0,108.8-31.8,118.2-117.5C1756.6,1660.1,1722.1,1579.9,1636.6,1510.4z"/>
<path class="st0" d="M110.8,1148.2"/>
</svg>
