<?xml version="1.0" encoding="utf-8"?>
<!-- Generator: Adobe Illustrator 22.1.0, SVG Export Plug-In . SVG Version: 6.00 Build 0)  -->
<svg version="1.1" id="Layer_1" xmlns="http://www.w3.org/2000/svg" xmlns:xlink="http://www.w3.org/1999/xlink" x="0px" y="0px"
	 viewBox="0 0 2000 2000" style="enable-background:new 0 0 2000 2000;" xml:space="preserve">
<path d="M236.6,1828.1c0-69.5,0-139,0-208.5c95-93,191-185,284.1-279.9c15.1-15.4,23.4-43.8,23.6-66.3
	c1.9-167.9,2.6-335.8-0.5-503.6c-0.5-26.9-15.8-58.8-34.4-79.1c-53.3-58.3-111.9-111.7-168-167.5c-45.2-44.9-41.3-276-3.8-327
	c50-67.9,117.8-52.7,183.5-53.1c118.1-0.7,128.6,8.2,146.8,121.1c16.3,0.8,33.4,2.4,50.4,2.4c17,0,33.9-1.5,50.1-2.2
	C790.7,145.9,794.3,143,914.9,143c69.5,0,138.9-0.7,208.4,0.3c53.9,0.8,83.2,30.9,86.3,85.6c0.6,11,1.6,21.9,2.4,33.3
	c39.8,0,75.1,0,110,0c5.7-102.7,23.3-119.2,122.9-119.2c36.7,0,73.3-0.7,110,0.2c54,1.3,117.6,64.9,119.3,118.3
	c7.2,223.7,7.2,223.7-149.8,379.1c-15.1,14.9-29.1,31.3-45.6,44.4c-29.5,23.5-40.3,51.9-39.1,90.2c2.7,90.6,0.4,181.4,1,272
	c0.6,90.5-22,191.2,10.5,268.6c32.5,77.5,115.6,137.8,185.4,194.6c85.5,69.5,120,149.7,107.9,259.6
	c-9.4,85.7-32.5,117.5-118.2,117.5c-411,0-822-1.2-1233,1.3C330,1889.2,276.2,1881.2,236.6,1828.1z M1328.3,1349.6
	c0-36.8,0-66.4,0-94.8c-227.4,0-449.7,0-670.6,0c0,34.7,0,64.4,0,94.8C883.5,1349.6,1104.4,1349.6,1328.3,1349.6z M656.1,808.1
	c227.1,0,449.5,0,673.9,0c0-32.8,0-60.8,0-92.9c-225.7,0-448.1,0-673.9,0C656.1,746.7,656.1,774.7,656.1,808.1z"/>
</svg>
